<svg width="225" height="70" viewBox="0 0 359 103" xmlns="http://www.w3.org/2000/svg" xmlns:xlink="http://www.w3.org/1999/xlink" xmlns:serif="http://www.serif.com/" style="fill-rule:evenodd;clip-rule:evenodd;stroke-linejoin:round;stroke-miterlimit:1.41421"><g id="Calque-1" serif:id="Calque 1"><path d="M17.852 12.733c-1.111 2.768-2.061 5.637-2.781 8.631-1.42 5.908-1.916 11.824-1.59 17.594 12.105-14.67 30.217-22.495 48.578-21.934-6.312-3.986-13.473-6.865-21.264-8.311-5.502-1.021-10.939-1.263-16.265-.824C33.373 2.34 43.916-.562 54.872.12 36.022-1.175 17.18 8.081 7.092 25.518c-.136.236-.265.473-.396.709 2.939-5.174 6.73-9.721 11.156-13.494" style="fill:#0f6c6e;fill-rule:nonzero"/><path d="M26.068 95.521C16.373 89.929 9.22 81.661 4.996 72.153c2.332 1.865 4.816 3.576 7.488 5.127 8.539 4.929 17.781 7.539 26.998 8.029C24.246 74.754 14.539 57.617 13.48 38.957c-2.115 2.564-4.051 5.336-5.769 8.313-2.795 4.847-4.844 9.911-6.184 15.067C-1.129 50.724.291 38.135 6.334 26.885c-2.147 3.91-3.817 8.16-4.911 12.705-6.582 27.401 10.288 54.972 37.725 61.564 10.039 2.412 20.078 1.67 29.108-1.572-13.497 4.644-28.856 3.636-42.188-4.061" style="fill:#71b5e5;fill-rule:nonzero"/><use xlink:href="#_Image1" x=".253" y="12.835" width="17.604" height="49.605" transform="scale(.97802 .9921)"/><path d="M6.334 26.885C.291 38.135-1.129 50.724 1.527 62.338c1.34-5.157 3.389-10.221 6.184-15.068 1.719-2.977 3.654-5.748 5.769-8.313-.326-5.769.17-11.685 1.59-17.593.721-2.995 1.67-5.864 2.782-8.631-4.426 3.773-8.217 8.32-11.157 13.494-.047.084-.097.17-.144.254-.074.133-.143.271-.217.404" style="fill:#0e869b;fill-rule:nonzero"/><path d="M97.932 30.209c-2.328-1.863-4.816-3.57-7.488-5.094-8.969-5.176-18.711-7.797-28.385-8.092 15.785 9.971 26.256 26.883 27.963 45.687 1.894-2.367 3.633-4.906 5.195-7.611 2.797-4.848 4.846-9.911 6.182-15.072 2.738 12.119 1.123 25.23-5.561 36.819-.209.36-.42.717-.636 1.069 3.224-5.213 5.562-11.092 6.757-17.48C107.123 32.703 88.83 6.051 61.106.893 59.176.531 57.252.289 55.34.152c7.358.575 14.705 2.756 21.522 6.694 9.668 5.593 16.845 13.888 21.07 23.363" style="fill:#78cadc;fill-rule:nonzero"/><use xlink:href="#_Image2" x="24.729" y=".022" width="73.402" height="30.188" transform="scale(.99192 .9738)"/><path d="M24.529 7.889c5.326-.439 10.764-.197 16.266.824 7.791 1.446 14.951 4.324 21.263 8.311 9.674.295 19.416 2.916 28.385 8.092 2.672 1.523 5.16 3.23 7.488 5.093-4.224-9.474-11.402-17.769-21.07-23.363C70.045 2.909 62.697.727 55.34.153c-.102-.008-.202-.018-.303-.024-.055-.004-.112-.006-.166-.01-10.955-.681-21.498 2.221-30.342 7.77" style="fill:#15a2a4;fill-rule:nonzero"/><path d="M86.918 88.098c.992-2.831 1.773-5.757 2.314-8.776 1.047-5.614 1.282-11.19.79-16.611C77.621 78.21 58.605 86.327 39.482 85.31c5.991 4.149 12.832 7.282 20.342 9.087 5.44 1.306 10.871 1.844 16.19 1.652-2.479 1.389-5.075 2.57-7.758 3.533 10.867-3.74 20.527-11.142 26.945-21.667-2.328 3.764-5.115 7.182-8.283 10.183" style="fill:#105a92;fill-rule:nonzero"/><use xlink:href="#_Image3" x="5.065" y="74.01" width="71.017" height="30.223" transform="scale(.98635 .97492)"/><path d="M59.824 94.396c-7.51-1.805-14.352-4.938-20.342-9.087-9.217-.49-18.459-3.1-26.998-8.029-2.672-1.551-5.156-3.262-7.488-5.127 4.224 9.508 11.377 17.776 21.072 23.368 13.332 7.697 28.692 8.705 42.188 4.061 2.683-.963 5.279-2.145 7.757-3.534-5.318.192-10.75-.345-16.189-1.652" style="fill:#1380c4;fill-rule:nonzero"/><use xlink:href="#_Image4" x="88.297" y="40.802" width="15.75" height="48.07" transform="scale(.98439 .98102)"/><path d="M101.398 40.028c-1.336 5.16-3.385 10.224-6.182 15.072-1.562 2.705-3.3 5.244-5.195 7.611.492 5.421.258 10.997-.789 16.61-.541 3.02-1.322 5.946-2.314 8.777 3.167-3.001 5.955-6.419 8.283-10.183.217-.351.427-.709.636-1.068 6.684-11.589 8.299-24.7 5.561-36.819" style="fill:#159dcd;fill-rule:nonzero"/><path d="M151.441 30.117l-3.779-12.729c-.174-.579-.356-1-.543-1.26-.188-.26-.442-.391-.76-.391s-.58.131-.781.391c-.203.26-.393.681-.567 1.26l-3.779 12.729h10.209zm1.131 3.822h-12.469l-2.389 7.993h-5.127l7.602-24.629c.492-1.624 1.006-2.884 1.543-3.783.535-.896 1.166-1.541 1.891-1.931.722-.393 1.634-.588 2.736-.588 1.07 0 1.969.195 2.693.588.723.39 1.362 1.035 1.912 1.931.549.899 1.071 2.159 1.563 3.783l7.56 24.629h-5.126l-2.389-7.993zM168.885 39.565c-1.607-1.578-2.412-3.901-2.412-6.972V11.522h5.127v21.071c0 1.825.412 3.164 1.238 4.017.826.855 2.108 1.283 3.844 1.283h9.732v4.039h-9.732c-3.59 0-6.19-.789-7.797-2.367M196.297 39.565c-1.607-1.578-2.412-3.901-2.412-6.972V11.522h5.127v21.071c0 1.825.412 3.164 1.238 4.017.824.855 2.106 1.283 3.844 1.283h9.73v4.039h-9.73c-3.592 0-6.192-.789-7.797-2.367" style="fill:#105a92;fill-rule:nonzero"/><path style="fill:#105a92" d="M222.383 11.522h5.127v30.41h-5.127z"/><path d="M254.705 30.117l-3.779-12.729c-.174-.579-.356-1-.543-1.26-.19-.26-.444-.391-.762-.391s-.58.131-.781.391c-.203.26-.391.681-.565 1.26l-3.779 12.729h10.209zm1.129 3.822h-12.469l-2.389 7.993h-5.126l7.603-24.629c.492-1.624 1.006-2.884 1.541-3.783.537-.896 1.166-1.541 1.891-1.931.722-.393 1.636-.588 2.736-.588 1.072 0 1.969.195 2.693.588.725.39 1.362 1.035 1.912 1.931.549.899 1.071 2.159 1.565 3.783l7.559 24.629h-5.127l-2.389-7.993zM296.191 11.522v24.112c0 2.085-.426 3.656-1.281 4.712-.854 1.059-2.209 1.586-4.061 1.586h-3.607L276.513 19.56v22.372h-4.822v-30.41h5.863l12.383 26.023h.217c.463 0 .781-.195.955-.587.174-.391.262-1.078.262-2.062V11.522h4.82zM308.703 39.629c-2.143-1.881-3.215-4.632-3.215-8.253v-9.297c0-3.619 1.057-6.372 3.172-8.255 2.113-1.883 5.17-2.824 9.166-2.824 2.752 0 5.025.449 6.82 1.348 1.797.898 3.245 2.258 4.346 4.084l-3.65 2.563c-.928-1.39-1.948-2.397-3.063-3.02-1.115-.623-2.584-.934-4.41-.934-4.836 0-7.254 2.347-7.254 7.038v9.297c0 4.691 2.447 7.036 7.342 7.036 1.939 0 3.504-.332 4.691-.998 1.188-.666 2.217-1.708 3.084-3.128l3.651 2.693c-1.362 1.912-2.897 3.302-4.606 4.171-1.709.87-3.969 1.303-6.777 1.303-4.055 0-7.154-.941-9.297-2.824M338.982 39.565c-1.68-1.578-2.52-3.901-2.52-6.972v-11.73c0-3.069.84-5.394 2.52-6.974 1.68-1.578 4.359-2.367 8.037-2.367h10.254v4.041h-10.254c-1.853 0-3.221.428-4.105 1.281-.883.857-1.325 2.195-1.325 4.019v3.867h13.684v3.996h-13.684v3.867c0 1.825.442 3.164 1.325 4.017.884.855 2.252 1.283 4.105 1.283h10.428v4.039h-10.428c-3.678 0-6.357-.789-8.037-2.367" style="fill:#105a92;fill-rule:nonzero"/><path d="M135.984 53.879h3.148c1.565 0 2.831.217 3.797.65.965.432 1.815 1.116 2.547 2.049.733.934 1.549 2.299 2.449 4.098l4.397 8.642 4.396-8.642c.899-1.799 1.715-3.164 2.448-4.098.732-.933 1.582-1.617 2.548-2.049.965-.433 2.231-.65 3.797-.65h3.147v34.973h-5.395V59.975c-.433.035-.808.226-1.125.576-.316.349-.691.941-1.125 1.773l-8.691 16.186-8.693-16.186c-.467-.867-.85-1.474-1.149-1.824-.301-.35-.668-.541-1.1-.574v28.926h-5.396V53.879zM203.879 75.264l-4.346-14.639c-.201-.666-.41-1.148-.625-1.449-.217-.299-.508-.449-.875-.449s-.666.15-.898.449c-.235.301-.449.783-.651 1.449l-4.345 14.639h11.74zm1.299 4.396H190.84l-2.748 9.192h-5.895l8.743-28.326c.566-1.866 1.156-3.315 1.773-4.346.615-1.035 1.34-1.775 2.174-2.227.832-.449 1.881-.673 3.146-.673 1.233 0 2.266.224 3.098.673.832.452 1.564 1.192 2.199 2.227.631 1.031 1.231 2.48 1.797 4.346l8.693 28.326h-5.894l-2.748-9.192zM241.848 69.469c1.732 0 3.131-.467 4.197-1.4 1.065-.932 1.598-2.282 1.598-4.047 0-1.799-.533-3.164-1.598-4.096-1.066-.932-2.465-1.398-4.197-1.398h-8.543v10.941h8.543zm13.24 19.383h-6.246l-2.348-8.143c-.466-1.631-.949-2.906-1.449-3.822-.5-.916-1.191-1.605-2.072-2.072-.883-.467-2.074-.701-3.572-.701h-6.096v14.738h-5.895V53.879h14.438c3.93 0 6.861.832 8.793 2.5 1.932 1.666 2.898 4.18 2.898 7.543 0 2.365-.599 4.264-1.798 5.695-1.2 1.434-2.881 2.332-5.047 2.7 1.633.566 2.881 1.531 3.748 2.896.865 1.367 1.631 3.197 2.297 5.496l2.349 8.143z" style="fill:#31a9e1;fill-rule:nonzero"/><path style="fill:#31a9e1" d="M269.176 53.879h5.895v34.973h-5.895z"/><path d="M320.084 53.879v27.729c0 2.398-.492 4.205-1.475 5.421-.982 1.215-2.539 1.823-4.67 1.823h-4.146l-12.342-25.729v25.729h-5.545V53.879h6.744l14.239 29.928h.25c.533 0 .9-.225 1.099-.676.2-.449.301-1.24.301-2.373V53.879h5.545zM337.57 86.129c-1.932-1.814-2.898-4.488-2.898-8.018v-13.49c0-3.529.966-6.201 2.898-8.017 1.932-1.817 5.012-2.725 9.242-2.725h11.791v4.648h-11.791c-2.133 0-3.705.491-4.721 1.473-1.017.983-1.523 2.524-1.523 4.621v4.447h15.736v4.596h-15.736v4.447c0 2.098.506 3.639 1.523 4.622 1.016.982 2.588 1.472 4.721 1.472h11.99v4.647h-11.99c-4.23 0-7.31-.907-9.242-2.723" style="fill:#31a9e1;fill-rule:nonzero"/></g></svg>
