<svg width="34" height="34" viewBox="0 0 34 34" fill="none" xmlns="http://www.w3.org/2000/svg">
<path fill-rule="evenodd" clip-rule="evenodd" d="M17.5301 21.2805L22.3031 16.5075C22.596 16.2146 22.596 15.7397 22.3031 15.4468C22.0102 15.1539 21.5354 15.1539 21.2425 15.4468L17.7498 18.9395L17.7498 9.75012C17.7498 9.33591 17.414 9.00012 16.9998 9.00012C16.5856 9.00012 16.2498 9.33591 16.2498 9.75012L16.2498 18.9395L12.7572 15.4468C12.4643 15.1539 11.9894 15.1539 11.6965 15.4468C11.4036 15.7397 11.4036 16.2146 11.6965 16.5075L16.4695 21.2805C16.7624 21.5733 17.2373 21.5733 17.5301 21.2805ZM11.3638 24.0001C10.9496 24.0001 10.6138 24.3359 10.6138 24.7501C10.6138 25.1643 10.9496 25.5001 11.3638 25.5001H23.3638C23.778 25.5001 24.1138 25.1643 24.1138 24.7501C24.1138 24.3359 23.778 24.0001 23.3638 24.0001H11.3638Z" fill="#7D8185"/>
</svg>
