<svg width="34" height="34" viewBox="0 0 34 34" fill="none" xmlns="http://www.w3.org/2000/svg">
<path fill-rule="evenodd" clip-rule="evenodd" d="M17 34.0001C26.3888 34.0001 34 26.389 34 17.0001C34 7.61128 26.3888 0.00012207 17 0.00012207C7.61116 0.00012207 0 7.61128 0 17.0001C0 26.389 7.61116 34.0001 17 34.0001ZM17 22.7134C12.6965 22.7134 9.35665 18.075 9.21548 17.8733C9.1187 17.7368 9.06665 17.5737 9.06665 17.4064C9.06665 17.2391 9.1187 17.0759 9.21548 16.9395C9.35461 16.7377 12.6963 12.0994 17 12.0994C21.3037 12.0994 24.6433 16.7378 24.7845 16.9395C24.8813 17.0759 24.9333 17.2391 24.9333 17.4064C24.9333 17.5737 24.8813 17.7368 24.7845 17.8733C24.6433 18.075 21.3037 22.7134 17 22.7134ZM10.8973 17.4116C11.7968 18.4966 14.2431 21.1004 17 21.1004C19.7569 21.1004 22.2053 18.4988 23.1027 17.4116C22.2032 16.3266 19.7569 13.7228 17 13.7228C14.2431 13.7228 11.7947 16.3245 10.8973 17.4116ZM17 20.2653C16.2415 20.2734 15.5109 19.9791 14.9698 19.4474C14.4288 18.9158 14.1215 18.1906 14.1162 17.4321C14.1108 16.6735 14.4076 15.944 14.9412 15.4048C15.4746 14.8656 16.2009 14.5609 16.9596 14.5582C17.7181 14.5555 18.4466 14.8549 18.9839 15.3903C19.5213 15.9257 19.8234 16.6531 19.8234 17.4116C19.8262 18.1641 19.5305 18.8869 19.0013 19.4217C18.4721 19.9566 17.7525 20.26 17 20.2652L17 20.2653ZM17 16.1735V16.1736C16.6693 16.1655 16.3491 16.2898 16.1105 16.519C15.8719 16.7481 15.7349 17.0631 15.7296 17.3938C15.7244 17.7246 15.8515 18.0438 16.0827 18.2804C16.3139 18.5168 16.63 18.6513 16.9608 18.6537C17.2915 18.6561 17.6096 18.5263 17.8442 18.293C18.0787 18.0599 18.2105 17.7426 18.2101 17.4118C18.2133 17.0871 18.0878 16.7743 17.8611 16.5419C17.6343 16.3095 17.3247 16.1763 17 16.1715L17 16.1735Z" fill="#7D8185"/>
</svg>
