<svg width="19" height="19" viewBox="0 0 19 19" fill="none" xmlns="http://www.w3.org/2000/svg">
<path fill-rule="evenodd" clip-rule="evenodd" d="M5.41455 0.264205C6.37427 0.220023 6.68027 0.210205 9.125 0.210205C11.5697 0.210205 11.8757 0.220841 12.8346 0.264205C13.7935 0.307569 14.4481 0.460569 15.0208 0.682296C15.6205 0.908932 16.1646 1.2632 16.6146 1.72139C17.0728 2.17057 17.4263 2.71384 17.6521 3.31439C17.8746 3.88711 18.0268 4.54166 18.071 5.49893C18.1152 6.4603 18.125 6.7663 18.125 9.21021C18.125 11.6549 18.1144 11.9609 18.071 12.9207C18.0276 13.8779 17.8746 14.5325 17.6521 15.1052C17.4263 15.7058 17.0722 16.25 16.6146 16.6998C16.1646 17.158 15.6205 17.5115 15.0208 17.7373C14.4481 17.9598 13.7935 18.112 12.8363 18.1562C11.8757 18.2004 11.5697 18.2102 9.125 18.2102C6.68027 18.2102 6.37427 18.1996 5.41455 18.1562C4.45727 18.1128 3.80273 17.9598 3.23 17.7373C2.62939 17.5114 2.08522 17.1574 1.63536 16.6998C1.17749 16.2504 0.823167 15.7065 0.597091 15.106C0.375364 14.5333 0.223182 13.8787 0.179 12.9215C0.134818 11.9601 0.125 11.6541 0.125 9.21021C0.125 6.76548 0.135636 6.45948 0.179 5.50057C0.222364 4.54166 0.375364 3.88711 0.597091 3.31439C0.8235 2.71391 1.1781 2.17001 1.63618 1.72057C2.0854 1.2628 2.62902 0.908477 3.22918 0.682296C3.80191 0.460569 4.45645 0.308387 5.41373 0.264205H5.41455ZM12.7618 1.88421C11.8127 1.84084 11.528 1.83184 9.125 1.83184C6.722 1.83184 6.43727 1.84084 5.48818 1.88421C4.61027 1.9243 4.13409 2.07075 3.81664 2.1943C3.39691 2.35793 3.09664 2.55184 2.78164 2.86684C2.48304 3.15734 2.25324 3.51098 2.10909 3.90184C1.98555 4.2193 1.83909 4.69548 1.799 5.57339C1.75564 6.52248 1.74664 6.80721 1.74664 9.21021C1.74664 11.6132 1.75564 11.8979 1.799 12.847C1.83909 13.7249 1.98555 14.2011 2.10909 14.5186C2.25309 14.9088 2.483 15.2631 2.78164 15.5536C3.07209 15.8522 3.42636 16.0821 3.81664 16.2261C4.13409 16.3497 4.61027 16.4961 5.48818 16.5362C6.43727 16.5796 6.72118 16.5886 9.125 16.5886C11.5288 16.5886 11.8127 16.5796 12.7618 16.5362C13.6397 16.4961 14.1159 16.3497 14.4334 16.2261C14.8531 16.0625 15.1534 15.8686 15.4684 15.5536C15.767 15.2631 15.9969 14.9088 16.1409 14.5186C16.2645 14.2011 16.4109 13.7249 16.451 12.847C16.4944 11.8979 16.5034 11.6132 16.5034 9.21021C16.5034 6.80721 16.4944 6.52248 16.451 5.57339C16.4109 4.69548 16.2645 4.2193 16.1409 3.90184C15.9773 3.48211 15.7834 3.18184 15.4684 2.86684C15.1778 2.56826 14.8242 2.33847 14.4334 2.1943C14.1159 2.07075 13.6397 1.9243 12.7618 1.88421ZM7.97545 11.9847C8.61745 12.2519 9.33231 12.288 9.99794 12.0867C10.6636 11.8854 11.2387 11.4593 11.625 10.8811C12.0114 10.3029 12.185 9.60855 12.1163 8.91656C12.0476 8.22457 11.7407 7.57791 11.2482 7.08702C10.9342 6.77323 10.5545 6.53296 10.1365 6.38351C9.71855 6.23405 9.27262 6.17914 8.83086 6.22271C8.3891 6.26628 7.96249 6.40726 7.58175 6.63549C7.20101 6.86373 6.87561 7.17354 6.62897 7.54263C6.38234 7.91172 6.22061 8.3309 6.15542 8.76999C6.09024 9.20909 6.12321 9.65717 6.25199 10.082C6.38076 10.5068 6.60212 10.8978 6.90014 11.2268C7.19815 11.5558 7.5654 11.8146 7.97545 11.9847ZM5.85391 5.93911C6.28347 5.50955 6.79344 5.1688 7.3547 4.93632C7.91595 4.70384 8.5175 4.58418 9.125 4.58418C9.7325 4.58418 10.334 4.70384 10.8953 4.93632C11.4566 5.1688 11.9665 5.50955 12.3961 5.93911C12.8257 6.36868 13.1664 6.87865 13.3989 7.4399C13.6314 8.00116 13.751 8.60271 13.751 9.21021C13.751 9.8177 13.6314 10.4193 13.3989 10.9805C13.1664 11.5418 12.8257 12.0517 12.3961 12.4813C11.5285 13.3488 10.3519 13.8362 9.125 13.8362C7.8981 13.8362 6.72146 13.3488 5.85391 12.4813C4.98636 11.6137 4.49898 10.4371 4.49898 9.21021C4.49898 7.98331 4.98636 6.80666 5.85391 5.93911ZM14.777 5.27311C14.8834 5.1727 14.9687 5.05194 15.0276 4.918C15.0866 4.78406 15.118 4.63965 15.1202 4.49333C15.1223 4.34701 15.095 4.20174 15.04 4.06614C14.985 3.93054 14.9034 3.80735 14.7999 3.70387C14.6964 3.6004 14.5732 3.51873 14.4376 3.46372C14.302 3.40871 14.1567 3.38146 14.0104 3.38359C13.8641 3.38572 13.7197 3.41719 13.5857 3.47614C13.4518 3.53508 13.3311 3.6203 13.2306 3.72675C13.0353 3.93377 12.9284 4.20876 12.9326 4.49333C12.9367 4.7779 13.0516 5.04965 13.2529 5.25089C13.4541 5.45214 13.7258 5.56703 14.0104 5.57118C14.295 5.57533 14.57 5.46841 14.777 5.27311Z" fill="white"/>
</svg>
