<svg width="15" height="15" viewBox="0 0 15 15" fill="none" xmlns="http://www.w3.org/2000/svg">
<path fill-rule="evenodd" clip-rule="evenodd" d="M5.3253 5.08851H7.9251V6.38351C8.2996 5.63871 9.26 4.96951 10.7027 4.96951C13.4684 4.96951 14.125 6.45211 14.125 9.17231V14.2102H11.325V9.7918C11.325 8.2427 10.9505 7.36911 9.9971 7.36911C8.6748 7.36911 8.1253 8.31061 8.1253 9.79111V14.2102H5.3253V5.08851ZM0.524 14.0912H3.324V4.96951H0.524V14.0912ZM3.7251 1.99521C3.7252 2.2299 3.67866 2.46227 3.58817 2.67882C3.49768 2.89536 3.36506 3.09176 3.198 3.25661C2.85948 3.59304 2.40127 3.78136 1.924 3.78021C1.44757 3.77989 0.990418 3.59204 0.6514 3.25731C0.484948 3.0919 0.35277 2.89528 0.262441 2.67871C0.172111 2.46213 0.125405 2.22986 0.125 1.99521C0.125 1.52131 0.314 1.06771 0.6521 0.733105C0.99082 0.397916 1.44817 0.209996 1.9247 0.210205C2.4021 0.210205 2.8599 0.398505 3.198 0.733105C3.5354 1.06771 3.7251 1.52131 3.7251 1.99521Z" fill="white"/>
</svg>
