<svg width="12" height="13" viewBox="0 0 12 13" fill="none" xmlns="http://www.w3.org/2000/svg">
<path fill-rule="evenodd" clip-rule="evenodd" d="M11.8643 1.24658C11.8643 0.97044 11.6404 0.746582 11.3643 0.746582H6.86426C6.58812 0.746582 6.36426 0.97044 6.36426 1.24658C6.36426 1.52272 6.58812 1.74658 6.86426 1.74658H10.1572L4.64674 7.25699C4.45148 7.45225 4.45148 7.76883 4.64674 7.9641C4.84201 8.15936 5.15859 8.15936 5.35385 7.9641L10.8643 2.45369V5.74658C10.8643 6.02272 11.0881 6.24658 11.3643 6.24658C11.6404 6.24658 11.8643 6.02272 11.8643 5.74658V1.24658ZM1 3.49658H5V2.49658H1H0V3.49658V11.4966V12.4966H1H9H10V11.4966V7.49658H9V11.4966H1V3.49658Z" fill="white"/>
</svg>
