<svg width="16" height="18" viewBox="0 0 16 18" fill="none" xmlns="http://www.w3.org/2000/svg">
<path fill-rule="evenodd" clip-rule="evenodd" d="M1.73486 7.62712C1.73486 4.58655 4.19974 2.12167 7.24031 2.12167C10.2809 2.12167 12.7458 4.58655 12.7458 7.62712C12.7458 10.6677 10.2809 13.1326 7.24031 13.1326C4.19974 13.1326 1.73486 10.6677 1.73486 7.62712ZM7.24031 0.621674C3.37131 0.621674 0.234863 3.75812 0.234863 7.62712C0.234863 11.4961 3.37131 14.6326 7.24031 14.6326C8.80344 14.6326 10.247 14.1206 11.4125 13.2552C11.322 13.5179 11.3816 13.8207 11.5913 14.0303L11.5984 14.0375L11.6056 14.0446L11.6128 14.0518L11.62 14.0591L11.6272 14.0663L11.6345 14.0735L11.6417 14.0808L11.649 14.0881L11.6563 14.0953L11.6636 14.1026L11.6709 14.11L11.6782 14.1173L11.6856 14.1246L11.693 14.132L11.7003 14.1394L11.7077 14.1468L11.7151 14.1542L11.7225 14.1616L11.73 14.169L11.7374 14.1764L11.7449 14.1839L11.7523 14.1914L11.7598 14.1989L11.7673 14.2064L11.7748 14.2139L11.7823 14.2214L11.7899 14.2289L11.7974 14.2365L11.805 14.244L11.8125 14.2516L11.8201 14.2592L11.8277 14.2668L11.8353 14.2744L11.8429 14.282L11.8506 14.2896L11.8582 14.2973L11.8659 14.3049L11.8735 14.3126L11.8812 14.3203L11.8889 14.3279L11.8966 14.3356L11.9043 14.3434L11.912 14.3511L11.9198 14.3588L11.9275 14.3665L11.9352 14.3743L11.943 14.3821L11.9508 14.3898L11.9586 14.3976L11.9664 14.4054L11.9742 14.4132L11.982 14.421L11.9898 14.4288L11.9976 14.4367L12.0055 14.4445L12.0133 14.4524L12.0212 14.4602L12.029 14.4681L12.0369 14.476L12.0448 14.4839L12.0527 14.4918L12.0606 14.4997L12.0685 14.5076L12.0764 14.5155L12.0844 14.5234L12.0923 14.5314L12.1002 14.5393L12.1082 14.5472L12.1162 14.5552L12.1241 14.5632L12.1321 14.5712L12.1401 14.5791L12.1481 14.5871L12.1561 14.5951L12.1641 14.6031L12.1721 14.6111L12.1801 14.6192L12.1881 14.6272L12.1962 14.6352L12.2042 14.6433L12.2123 14.6513L12.2203 14.6594L12.2284 14.6674L12.2364 14.6755L12.2445 14.6835L12.2526 14.6916L12.2607 14.6997L12.2687 14.7078L12.2768 14.7159L12.2849 14.724L12.293 14.7321L12.3011 14.7402L12.3093 14.7483L12.3174 14.7564L12.3255 14.7645L12.3336 14.7727L12.3418 14.7808L12.3499 14.7889L12.358 14.7971L12.3662 14.8052L12.3743 14.8134L12.3825 14.8215L12.3906 14.8297L12.3988 14.8378L12.407 14.846L12.4151 14.8542L12.4233 14.8623L12.4315 14.8705L12.4397 14.8787L12.4478 14.8869L12.456 14.8951L12.4642 14.9032L12.4724 14.9114L12.4806 14.9196L12.4888 14.9278L12.497 14.936L12.5052 14.9442L12.5134 14.9524L12.5216 14.9606L12.5298 14.9688L12.538 14.977L12.5462 14.9852L12.5544 14.9935L12.5626 15.0017L12.5708 15.0099L12.579 15.0181L12.5873 15.0263L12.5955 15.0345L12.6037 15.0427L12.6119 15.051L12.6201 15.0592L12.6283 15.0674L12.6366 15.0756L12.6448 15.0838L12.653 15.092L12.6612 15.1003L12.6694 15.1085L12.6777 15.1167L12.6859 15.1249L12.6941 15.1331L12.7023 15.1414L12.7105 15.1496L12.7187 15.1578L12.727 15.166L12.7352 15.1742L12.7434 15.1824L12.7516 15.1906L12.7598 15.1989L12.768 15.2071L12.7762 15.2153L12.7844 15.2235L12.7926 15.2317L12.8008 15.2399L12.809 15.2481L12.8172 15.2563L12.8254 15.2645L12.8336 15.2727L12.8418 15.2809L12.85 15.2891L12.8582 15.2972L12.8664 15.3054L12.8745 15.3136L12.8827 15.3218L12.8909 15.3299L12.8991 15.3381L12.9072 15.3463L12.9154 15.3544L12.9236 15.3626L12.9317 15.3708L12.9399 15.3789L12.948 15.3871L12.9562 15.3952L12.9643 15.4033L12.9724 15.4115L12.9806 15.4196L12.9887 15.4277L12.9968 15.4359L13.0049 15.444L13.013 15.4521L13.0211 15.4602L13.0292 15.4683L13.0373 15.4764L13.0454 15.4845L13.0535 15.4926L13.0616 15.5006L13.0697 15.5087L13.0777 15.5168L13.0858 15.5248L13.0938 15.5329L13.1019 15.5409L13.1099 15.549L13.118 15.557L13.126 15.5651L13.134 15.5731L13.142 15.5811L13.1501 15.5891L13.1581 15.5971L13.1661 15.6051L13.174 15.6131L13.182 15.6211L13.19 15.629L13.198 15.637L13.2059 15.645L13.2139 15.6529L13.2218 15.6609L13.2297 15.6688L13.2377 15.6767L13.2456 15.6846L13.2535 15.6925L13.2614 15.7004L13.2693 15.7083L13.2772 15.7162L13.285 15.7241L13.2929 15.732L13.3008 15.7398L13.3086 15.7477L13.3165 15.7555L13.3243 15.7633L13.3321 15.7711L13.3399 15.779L13.3477 15.7868L13.3555 15.7945L13.3633 15.8023L13.371 15.8101L13.3788 15.8178L13.3865 15.8256L13.3943 15.8333L13.402 15.8411L13.4097 15.8488L13.4174 15.8565L13.4251 15.8642L13.4328 15.8719L13.4405 15.8795L13.4481 15.8872L13.4558 15.8948L13.4634 15.9025L13.4711 15.9101L13.4787 15.9177L13.4863 15.9253L13.4939 15.9329L13.5014 15.9405L13.509 15.9481L13.5166 15.9556L13.5241 15.9632L13.5316 15.9707L13.5392 15.9782L13.5467 15.9857L13.5541 15.9932L13.5616 16.0007L13.5691 16.0081L13.5765 16.0156L13.584 16.023L13.5914 16.0304L13.5988 16.0379L13.6062 16.0453L13.6136 16.0526L13.621 16.06L13.6283 16.0674L13.6356 16.0747L13.643 16.082L13.6503 16.0893L13.6576 16.0966L13.6649 16.1039L13.6721 16.1112L13.6794 16.1184L13.6866 16.1257L13.6938 16.1329L13.7011 16.1401L13.7082 16.1473L13.7154 16.1545L13.7226 16.1616L13.7297 16.1688L13.7369 16.1759L13.744 16.183L13.7511 16.1901L13.7581 16.1972L13.7652 16.2043L13.7723 16.2113L13.7793 16.2183L13.7863 16.2254L13.7933 16.2324L13.8003 16.2393L13.8073 16.2463L13.8142 16.2532L13.8211 16.2602L13.828 16.2671L13.8349 16.274L13.8418 16.2809L13.8487 16.2877L13.8555 16.2946L13.8623 16.3014L13.8691 16.3082L13.8759 16.315L13.8827 16.3218L13.8895 16.3285L13.8962 16.3352L13.9029 16.342L13.9096 16.3486L13.9163 16.3553L13.9229 16.362L13.9296 16.3686L13.9362 16.3752L13.9428 16.3818L13.9494 16.3884L13.9559 16.395L13.9625 16.4015L13.969 16.408L13.9755 16.4145L13.982 16.421L13.9884 16.4275L13.9949 16.4339L14.0013 16.4404L14.0077 16.4468L14.0141 16.4531L14.0204 16.4595L14.0268 16.4658L14.0331 16.4721L14.0394 16.4784L14.0457 16.4847L14.0519 16.491L14.0582 16.4972L14.0644 16.5034L14.0706 16.5096L14.0767 16.5158L14.0829 16.5219L14.089 16.528L14.0951 16.5341L14.1012 16.5402L14.1072 16.5463L14.1133 16.5523L14.1193 16.5583L14.1253 16.5643L14.1312 16.5703L14.1372 16.5762L14.1431 16.5822L14.149 16.5881L14.1549 16.5939L14.1607 16.5998L14.1666 16.6056L14.1724 16.6114L14.1781 16.6172L14.1839 16.6229L14.1896 16.6287L14.1953 16.6344L14.201 16.6401L14.2067 16.6457L14.2123 16.6514L14.2179 16.657L14.2235 16.6626L14.2291 16.6681L14.2346 16.6737L14.2401 16.6792L14.2456 16.6847L14.2511 16.6901L14.2565 16.6956L14.2619 16.701L14.2673 16.7064L14.2727 16.7117L14.278 16.7171L14.2833 16.7224L14.2886 16.7276L14.2939 16.7329L14.2991 16.7381L14.3043 16.7433L14.3095 16.7485L14.3146 16.7537L14.3197 16.7588L14.3248 16.7639L14.3299 16.7689L14.3349 16.774L14.34 16.779L14.3449 16.784L14.3499 16.789L14.3548 16.7939L14.3597 16.7988L14.3646 16.8037L14.3695 16.8085L14.3743 16.8133L14.3791 16.8181L14.3839 16.8229L14.3886 16.8276L14.3933 16.8323L14.398 16.837L14.4026 16.8417L14.4073 16.8463L14.4118 16.8509L14.4164 16.8555L14.4209 16.86L14.4255 16.8645L14.4299 16.869L14.4344 16.8734L14.4388 16.8778L14.4432 16.8822L14.4475 16.8866L14.4519 16.8909L14.4562 16.8952L14.4604 16.8995L14.4647 16.9037L14.4689 16.9079L14.4731 16.9121L14.4772 16.9162L14.4813 16.9204L14.4854 16.9244L14.4895 16.9285L14.4935 16.9325L14.4975 16.9365L14.5014 16.9405L14.5054 16.9444L14.5092 16.9483L14.5131 16.9522L14.5169 16.956L14.5207 16.9598L14.5245 16.9636L14.5283 16.9673L14.532 16.971L14.5356 16.9747L14.5393 16.9783L14.5429 16.9819L14.5464 16.9855L14.55 16.989L14.5535 16.9925L14.557 16.996L14.5604 16.9995L14.5638 17.0029L14.5672 17.0062L14.5705 17.0096L14.5738 17.0129L14.5771 17.0162L14.5804 17.0194L14.5836 17.0226L14.5867 17.0258L14.5899 17.0289L14.593 17.032L14.596 17.0351L14.5991 17.0381L14.6021 17.0411L14.605 17.0441L14.608 17.047L14.6109 17.0499L14.6137 17.0528L14.6166 17.0556L14.6193 17.0584L14.6221 17.0611L14.6248 17.0639L14.6275 17.0665L14.6301 17.0692L14.6328 17.0718L14.6353 17.0744L14.6379 17.0769L14.6404 17.0794L14.6428 17.0819L14.6453 17.0843L14.6476 17.0867L14.65 17.0891L14.6523 17.0914L14.6546 17.0936L14.6568 17.0959L14.6591 17.0981L14.6612 17.1003L14.6634 17.1024L14.6654 17.1045L14.6675 17.1065L14.6695 17.1086L14.6715 17.1105L14.6734 17.1125L14.6753 17.1144L14.6772 17.1163L14.679 17.1181L14.6808 17.1199L14.6826 17.1216L14.6843 17.1233L14.686 17.125L14.6876 17.1266L14.6892 17.1282L14.6907 17.1298L14.6923 17.1313L14.6937 17.1328L14.6952 17.1342L14.6966 17.1356L14.6979 17.137L14.6992 17.1383L14.7005 17.1396L14.7018 17.1408L14.703 17.142L14.7041 17.1432L14.7052 17.1443L14.7063 17.1453L14.7073 17.1464L14.7083 17.1474L14.7093 17.1483L14.7102 17.1492L14.7111 17.1501L14.7119 17.1509L14.7127 17.1517L14.7134 17.1525L14.7141 17.1532L14.7148 17.1538L14.7154 17.1545L14.716 17.155L14.7165 17.1556L14.717 17.1561L14.7175 17.1565L14.7179 17.1569L14.7183 17.1573L14.7186 17.1576L14.7189 17.1579L14.7191 17.1581L14.7193 17.1583L14.7194 17.1585L14.7196 17.1586L14.7196 17.1587L15.25 16.6284L14.7196 17.1587C15.0125 17.4516 15.4874 17.4516 15.7803 17.1587C16.0732 16.8658 16.0732 16.3909 15.7803 16.098L15.25 16.6284L15.7803 16.098L15.7802 16.0979L15.7801 16.0978L15.78 16.0977L15.7798 16.0975L15.7795 16.0972L15.7792 16.097L15.7789 16.0966L15.7785 16.0963L15.7781 16.0959L15.7777 16.0954L15.7772 16.0949L15.7767 16.0944L15.7761 16.0938L15.7755 16.0932L15.7748 16.0925L15.7741 16.0918L15.7733 16.0911L15.7726 16.0903L15.7717 16.0895L15.7709 16.0886L15.7699 16.0877L15.769 16.0867L15.768 16.0857L15.767 16.0847L15.7659 16.0836L15.7648 16.0825L15.7636 16.0813L15.7624 16.0801L15.7612 16.0789L15.7599 16.0776L15.7586 16.0763L15.7572 16.075L15.7558 16.0736L15.7544 16.0721L15.7529 16.0706L15.7514 16.0691L15.7498 16.0676L15.7483 16.066L15.7466 16.0643L15.7449 16.0627L15.7432 16.061L15.7415 16.0592L15.7397 16.0574L15.7379 16.0556L15.736 16.0537L15.7341 16.0518L15.7322 16.0499L15.7302 16.0479L15.7282 16.0459L15.7261 16.0438L15.724 16.0417L15.7219 16.0396L15.7197 16.0374L15.7175 16.0352L15.7153 16.033L15.713 16.0307L15.7107 16.0284L15.7083 16.026L15.7059 16.0236L15.7035 16.0212L15.701 16.0188L15.6985 16.0162L15.696 16.0137L15.6934 16.0111L15.6908 16.0085L15.6882 16.0059L15.6855 16.0032L15.6828 16.0005L15.68 15.9977L15.6772 15.9949L15.6744 15.9921L15.6715 15.9893L15.6686 15.9864L15.6657 15.9834L15.6627 15.9805L15.6597 15.9775L15.6567 15.9744L15.6536 15.9714L15.6505 15.9683L15.6474 15.9651L15.6442 15.962L15.641 15.9587L15.6378 15.9555L15.6345 15.9522L15.6312 15.9489L15.6279 15.9456L15.6245 15.9422L15.6211 15.9388L15.6176 15.9354L15.6142 15.9319L15.6106 15.9284L15.6071 15.9248L15.6035 15.9213L15.5999 15.9177L15.5963 15.914L15.5926 15.9103L15.5889 15.9066L15.5852 15.9029L15.5814 15.8991L15.5776 15.8953L15.5738 15.8915L15.5699 15.8876L15.566 15.8837L15.5621 15.8798L15.5581 15.8759L15.5541 15.8719L15.5501 15.8678L15.5461 15.8638L15.542 15.8597L15.5379 15.8556L15.5337 15.8514L15.5295 15.8473L15.5253 15.8431L15.5211 15.8388L15.5168 15.8346L15.5125 15.8303L15.5082 15.8259L15.5038 15.8216L15.4995 15.8172L15.495 15.8128L15.4906 15.8083L15.4861 15.8038L15.4816 15.7993L15.4771 15.7948L15.4725 15.7902L15.4679 15.7856L15.4633 15.781L15.4586 15.7764L15.454 15.7717L15.4493 15.767L15.4445 15.7622L15.4397 15.7575L15.435 15.7527L15.4301 15.7479L15.4253 15.743L15.4204 15.7381L15.4155 15.7332L15.4106 15.7283L15.4056 15.7233L15.4006 15.7183L15.3956 15.7133L15.3906 15.7083L15.3855 15.7032L15.3804 15.6981L15.3753 15.693L15.3701 15.6878L15.3649 15.6827L15.3597 15.6775L15.3545 15.6722L15.3493 15.667L15.344 15.6617L15.3387 15.6564L15.3333 15.6511L15.328 15.6457L15.3226 15.6403L15.3172 15.6349L15.3117 15.6295L15.3063 15.624L15.3008 15.6185L15.2953 15.613L15.2897 15.6075L15.2842 15.6019L15.2786 15.5963L15.273 15.5907L15.2673 15.5851L15.2617 15.5794L15.256 15.5737L15.2503 15.568L15.2446 15.5623L15.2388 15.5565L15.233 15.5508L15.2272 15.5449L15.2214 15.5391L15.2155 15.5333L15.2097 15.5274L15.2038 15.5215L15.1978 15.5156L15.1919 15.5096L15.1859 15.5037L15.1799 15.4977L15.1739 15.4917L15.1679 15.4856L15.1618 15.4796L15.1558 15.4735L15.1497 15.4674L15.1435 15.4613L15.1374 15.4551L15.1312 15.4489L15.125 15.4428L15.1188 15.4365L15.1126 15.4303L15.1063 15.4241L15.1001 15.4178L15.0938 15.4115L15.0874 15.4052L15.0811 15.3988L15.0747 15.3925L15.0684 15.3861L15.062 15.3797L15.0555 15.3733L15.0491 15.3668L15.0426 15.3604L15.0362 15.3539L15.0297 15.3474L15.0231 15.3409L15.0166 15.3343L15.01 15.3278L15.0035 15.3212L14.9969 15.3146L14.9902 15.308L14.9836 15.3013L14.9769 15.2947L14.9703 15.288L14.9636 15.2813L14.9568 15.2746L14.9501 15.2678L14.9434 15.2611L14.9366 15.2543L14.9298 15.2475L14.923 15.2407L14.9162 15.2339L14.9093 15.2271L14.9025 15.2202L14.8956 15.2133L14.8887 15.2064L14.8818 15.1995L14.8749 15.1926L14.8679 15.1856L14.8609 15.1787L14.854 15.1717L14.847 15.1647L14.84 15.1577L14.8329 15.1506L14.8259 15.1436L14.8188 15.1365L14.8117 15.1295L14.8046 15.1224L14.7975 15.1152L14.7904 15.1081L14.7832 15.101L14.7761 15.0938L14.7689 15.0866L14.7617 15.0794L14.7545 15.0722L14.7473 15.065L14.74 15.0578L14.7328 15.0505L14.7255 15.0433L14.7182 15.036L14.7109 15.0287L14.7036 15.0214L14.6963 15.014L14.689 15.0067L14.6816 14.9993L14.6742 14.992L14.6669 14.9846L14.6595 14.9772L14.6521 14.9698L14.6446 14.9624L14.6372 14.9549L14.6297 14.9475L14.6223 14.94L14.6148 14.9325L14.6073 14.925L14.5998 14.9175L14.5923 14.91L14.5848 14.9025L14.5772 14.895L14.5697 14.8874L14.5621 14.8798L14.5545 14.8723L14.5469 14.8647L14.5393 14.8571L14.5317 14.8494L14.5241 14.8418L14.5165 14.8342L14.5088 14.8265L14.5011 14.8189L14.4935 14.8112L14.4858 14.8035L14.4781 14.7958L14.4704 14.7881L14.4627 14.7804L14.4549 14.7727L14.4472 14.7649L14.4395 14.7572L14.4317 14.7494L14.4239 14.7417L14.4162 14.7339L14.4084 14.7261L14.4006 14.7183L14.3928 14.7105L14.3849 14.7027L14.3771 14.6948L14.3693 14.687L14.3614 14.6792L14.3536 14.6713L14.3457 14.6634L14.3378 14.6556L14.3299 14.6477L14.3221 14.6398L14.3142 14.6319L14.3062 14.624L14.2983 14.6161L14.2904 14.6081L14.2825 14.6002L14.2745 14.5923L14.2666 14.5843L14.2586 14.5763L14.2507 14.5684L14.2427 14.5604L14.2347 14.5524L14.2267 14.5444L14.2187 14.5364L14.2107 14.5284L14.2027 14.5204L14.1947 14.5124L14.1867 14.5044L14.1786 14.4964L14.1706 14.4883L14.1626 14.4803L14.1545 14.4722L14.1465 14.4642L14.1384 14.4561L14.1303 14.4481L14.1223 14.44L14.1142 14.4319L14.1061 14.4238L14.098 14.4157L14.0899 14.4076L14.0818 14.3995L14.0737 14.3914L14.0656 14.3833L14.0575 14.3752L14.0493 14.3671L14.0412 14.3589L14.0331 14.3508L14.025 14.3427L14.0168 14.3345L14.0087 14.3264L14.0005 14.3183L13.9924 14.3101L13.9842 14.3019L13.9761 14.2938L13.9679 14.2856L13.9597 14.2775L13.9516 14.2693L13.9434 14.2611L13.9352 14.2529L13.927 14.2448L13.9188 14.2366L13.9107 14.2284L13.9025 14.2202L13.8943 14.212L13.8861 14.2038L13.8779 14.1956L13.8697 14.1874L13.8615 14.1792L13.8533 14.171L13.8451 14.1628L13.8369 14.1546L13.8287 14.1464L13.8205 14.1382L13.8123 14.13L13.804 14.1218L13.7958 14.1136L13.7876 14.1053L13.7794 14.0971L13.7712 14.0889L13.763 14.0807L13.7548 14.0725L13.7465 14.0643L13.7383 14.056L13.7301 14.0478L13.7219 14.0396L13.7137 14.0314L13.7054 14.0232L13.6972 14.0149L13.689 14.0067L13.6808 13.9985L13.6726 13.9903L13.6643 13.9821L13.6561 13.9739L13.6479 13.9656L13.6397 13.9574L13.6315 13.9492L13.6233 13.941L13.6151 13.9328L13.6069 13.9246L13.5986 13.9164L13.5904 13.9082L13.5822 13.9L13.574 13.8918L13.5658 13.8836L13.5576 13.8754L13.5494 13.8672L13.5412 13.859L13.5331 13.8508L13.5249 13.8426L13.5167 13.8344L13.5085 13.8262L13.5003 13.818L13.4921 13.8099L13.484 13.8017L13.4758 13.7935L13.4676 13.7853L13.4595 13.7772L13.4513 13.769L13.4431 13.7609L13.435 13.7527L13.4268 13.7446L13.4187 13.7364L13.4106 13.7283L13.4024 13.7201L13.3943 13.712L13.3862 13.7039L13.378 13.6958L13.3699 13.6876L13.3618 13.6795L13.3537 13.6714L13.3456 13.6633L13.3375 13.6552L13.3294 13.6471L13.3213 13.639L13.3132 13.631L13.3052 13.6229L13.2971 13.6148L13.289 13.6068L13.281 13.5987L13.2729 13.5906L13.2649 13.5826L13.2568 13.5746L13.2488 13.5665L13.2408 13.5585L13.2328 13.5505L13.2247 13.5425L13.2167 13.5345L13.2087 13.5265L13.2008 13.5185L13.1928 13.5105L13.1848 13.5025L13.1768 13.4946L13.1689 13.4866L13.1609 13.4786L13.153 13.4707L13.145 13.4628L13.1371 13.4548L13.1292 13.4469L13.1213 13.439L13.1134 13.4311L13.1055 13.4232L13.0976 13.4153L13.0897 13.4074L13.0818 13.3996L13.074 13.3917L13.0661 13.3839L13.0583 13.376L13.0505 13.3682L13.0426 13.3604L13.0348 13.3525L13.027 13.3447L13.0192 13.337L13.0114 13.3292L13.0037 13.3214L12.9959 13.3136L12.9882 13.3059L12.9804 13.2981L12.9727 13.2904L12.965 13.2827L12.9573 13.275L12.9496 13.2673L12.9419 13.2596L12.9342 13.2519L12.9265 13.2443L12.9189 13.2366L12.9112 13.229L12.9036 13.2213L12.896 13.2137L12.8884 13.2061L12.8808 13.1985L12.8732 13.1909L12.8656 13.1834L12.8581 13.1758L12.8505 13.1683L12.843 13.1607L12.8355 13.1532L12.828 13.1457L12.8205 13.1382L12.813 13.1307L12.8055 13.1232L12.7981 13.1158L12.7906 13.1083L12.7832 13.1009L12.7758 13.0935L12.7684 13.0861L12.761 13.0787L12.7536 13.0713L12.7463 13.064L12.7389 13.0566L12.7316 13.0493L12.7243 13.042L12.717 13.0347L12.7097 13.0274L12.7024 13.0201L12.6951 13.0129L12.6879 13.0056L12.6807 12.9984L12.6735 12.9912L12.6663 12.984L12.6591 12.9768L12.6519 12.9696C12.4769 12.7947 12.237 12.7242 12.0098 12.7583C13.3853 11.4792 14.2458 9.65364 14.2458 7.62712C14.2458 3.75812 11.1093 0.621674 7.24031 0.621674Z" fill="#222222"/>
</svg>
