<svg width="38" height="38" viewBox="0 0 38 38" fill="none" xmlns="http://www.w3.org/2000/svg">
<path d="M30.7071 19.7071C31.0976 19.3166 31.0976 18.6834 30.7071 18.2929L24.3431 11.9289C23.9526 11.5384 23.3195 11.5384 22.9289 11.9289C22.5384 12.3195 22.5384 12.9526 22.9289 13.3431L28.5858 19L22.9289 24.6569C22.5384 25.0474 22.5384 25.6805 22.9289 26.0711C23.3195 26.4616 23.9526 26.4616 24.3431 26.0711L30.7071 19.7071ZM8 18C7.44772 18 7 18.4477 7 19C7 19.5523 7.44772 20 8 20V18ZM30 18L8 18V20L30 20V18Z" fill="#7D8185"/>
</svg>
