<svg width="17" height="14" viewBox="0 0 17 14" fill="none" xmlns="http://www.w3.org/2000/svg">
<path d="M16.25 1.56697C15.6524 1.83177 15.0105 2.01069 14.3356 2.09156C15.0319 1.67489 15.5529 1.0191 15.8013 0.246561C15.147 0.635163 14.431 0.908696 13.6843 1.05527C13.1822 0.519135 12.5171 0.163777 11.7923 0.0443661C11.0675 -0.075045 10.3236 0.0481717 9.67603 0.394886C9.02845 0.7416 8.51345 1.29241 8.21099 1.96181C7.90853 2.63121 7.83554 3.38173 8.00334 4.09687C6.67769 4.03031 5.38086 3.68575 4.19699 3.08556C3.01313 2.48536 1.96869 1.64295 1.13147 0.612984C0.845206 1.1068 0.680602 1.67933 0.680602 2.28908C0.680283 2.838 0.815458 3.37851 1.07413 3.86265C1.33281 4.34679 1.70699 4.7596 2.16347 5.06445C1.63407 5.04761 1.11635 4.90456 0.653407 4.64722V4.69016C0.653353 5.46003 0.919659 6.20621 1.40714 6.80209C1.89462 7.39797 2.57324 7.80685 3.32786 7.95934C2.83676 8.09225 2.32187 8.11182 1.8221 8.01659C2.03501 8.67902 2.44973 9.2583 3.00822 9.67331C3.56671 10.0883 4.241 10.3183 4.93669 10.3311C3.75572 11.2582 2.29722 11.761 0.795825 11.7588C0.529868 11.7589 0.264137 11.7434 0 11.7123C1.524 12.6922 3.29805 13.2122 5.10988 13.2102C11.2432 13.2102 14.5961 8.13038 14.5961 3.72472C14.5961 3.58158 14.5925 3.43702 14.5861 3.29388C15.2383 2.82224 15.8012 2.2382 16.2486 1.56912L16.25 1.56697Z" fill="white"/>
</svg>
