<svg xmlns="http://www.w3.org/2000/svg" width="300" height="170.18" xmlns:v="https://vecta.io/nano"><defs><linearGradient id="A"><stop stop-color="#ef4136" offset="0"/><stop stop-color="#fbb040" offset="1"/></linearGradient></defs><g transform="matrix(1.045025 0 0 1.045025 97.633018 -8.837776)" fill="url(#A)"><path d="M54.271 32.715H41.386a28.04 28.04 0 0 0-.756 2.859l-.592 2.948-2.305-2.948.252-1.133.453-1.726h-2.934l-1.423-1.839h4.924c.932-2.847 2.167-5.58 3.666-8.174a27.86 27.86 0 0 1 5.592-6.89c-6.701 1.978-12.671 5.895-17.154 11.248l-.252-.315a8.16 8.16 0 0 0-2.847-2.305c.781-.945 1.613-1.839 2.481-2.708 15.556-15.379 40.646-15.24 56.022.314s15.24 40.631-.314 56.01-40.632 15.24-56.01-.302v-6.172c4.597 5.982 10.982 10.328 18.212 12.443-2.28-2.014-4.207-4.37-5.719-7.002-1.486-2.569-2.708-5.291-3.653-8.111h-8.841v-1.826h8.274c-.164-.592-.315-1.197-.466-1.802-.705-2.935-1.209-5.919-1.499-8.917a8 8 0 0 0 2.834-.201c.264 2.707.693 5.402 1.297 8.049a28.33 28.33 0 0 0 .756 2.871h14.975V50.814H45.076a8.18 8.18 0 0 0 .365-1.838h10.92V35.511a4.11 4.11 0 0 1-2.09-2.796zm35.191 0h-11.21a38.63 38.63 0 0 1 .453 1.726c1.134 4.773 1.752 9.648 1.802 14.535h13.376c-.151-5.694-1.664-11.273-4.421-16.261zm-27.155-1.839h12.406c-.73-2.104-1.638-4.156-2.707-6.122-1.739-3.174-4.107-5.957-6.991-8.149-1.386-1.058-2.985-1.763-4.685-2.078v13.754c.982.568 1.699 1.499 1.977 2.595zm6.121-15.064c2.217 1.978 4.106 4.308 5.605 6.89 1.498 2.595 2.721 5.328 3.665 8.174h10.681c-4.61-7.267-11.689-12.632-19.951-15.064zm12.168 51.276h8.866a35.56 35.56 0 0 0 4.421-16.273H80.507c-.063 4.572-.604 9.132-1.612 13.59.906.63 1.523 1.599 1.701 2.683zM60.33 35.461v13.515h17.33c-.063-4.51-.604-8.993-1.588-13.402a51.45 51.45 0 0 0-.755-2.859H62.332a4.13 4.13 0 0 1-2.002 2.746zm12.241 33.453H60.33v16.348a11.15 11.15 0 0 0 4.685-2.064c2.884-2.205 5.252-4.977 6.991-8.162a41.38 41.38 0 0 0 1.926-4.056c-.655-.53-1.12-1.26-1.361-2.066zm3.981 2.997c-.743 1.751-1.587 3.476-2.544 5.114-1.512 2.632-3.451 4.988-5.719 7.002 8.313-2.43 15.453-7.809 20.09-15.113h-7.872a4.14 4.14 0 0 1-3.955 2.997zm-.365-8.237c.919-4.219 1.41-8.539 1.474-12.859H60.33v16.273h12.141c.328-1.853 1.851-3.25 3.716-3.414zM56.361 28.231V14.528c-1.7.315-3.3 1.02-4.672 2.078a25.77 25.77 0 0 0-7.003 8.149c-1.058 1.965-1.978 4.018-2.721 6.122h12.332a4.16 4.16 0 0 1 2.064-2.646zm0 40.683H41.965c.743 2.104 1.663 4.156 2.721 6.121a25.84 25.84 0 0 0 7.003 8.162c1.372 1.045 2.972 1.75 4.672 2.064V68.914z"/><path d="M24.131 16.594c0-4.497-3.627-8.137-8.111-8.137s-8.124 3.64-8.124 8.137c0 4.471 3.64 8.111 8.124 8.111s8.111-3.64 8.111-8.111h0z"/><path d="M2.266 55.613c-.013 2.619 2.116 4.748 4.723 4.762.013 0 .013 24.396.013 24.396a4.75 4.75 0 0 0 4.736 4.736c2.632 0 4.748-2.129 4.748-4.736 0 2.607 2.129 4.736 4.749 4.736a4.74 4.74 0 0 0 4.736-4.736V39.995l8.326 10.706a3.9 3.9 0 0 0 5.466.668 3.89 3.89 0 0 0 .68-5.455l-12.91-16.587a3.81 3.81 0 0 0-2.997-1.461h-4.963l-3.551 5.151-3.564-5.151H6.057a3.79 3.79 0 0 0-3.792 3.791v23.981"/></g><path d="M24.84 40L17.8 15.88 10.8 40H8.52L.8 12.6h2.16l6.8 24.44L16.8 12.6H19L26.04 37l6.8-24.4h2.12L27.12 40h-2.28zm22.24-20.32c5.8 0 10.28 4.48 10.28 10.28 0 5.84-4.48 10.32-10.28 10.32-5.84 0-10.32-4.48-10.32-10.32 0-5.8 4.48-10.28 10.32-10.28zm0 1.88c-4.8 0-8.36 3.68-8.36 8.44 0 4.72 3.56 8.4 8.36 8.4 4.76 0 8.32-3.68 8.32-8.4 0-4.76-3.56-8.44-8.32-8.44zm21.52-1.88v2.16c-3.84 0-6.68 2.92-6.68 7.28V40h-1.96V20h1.96v3.72c.76-1.52 2.92-4.04 6.68-4.04zM73.16 40H71.2V12.6h1.96V40zm12.92-1.6c4.72 0 8.36-3.64 8.36-8.44 0-4.76-3.64-8.4-8.36-8.4-4.8 0-8.36 3.68-8.36 8.4 0 4.76 3.56 8.44 8.36 8.44zm8.24 1.56v-3.92c-1.64 2.48-4.44 4.24-8.36 4.24-5.72 0-10.2-4.48-10.2-10.28 0-5.84 4.48-10.32 10.2-10.32 3.84 0 6.72 1.76 8.36 4.24V12.6h1.96v27.36h-1.96zm15.12-25.24h-1.96V12.6h1.96v2.12zm0 25.28h-1.96V20h1.96v20zm11.84-20.32c4.68 0 7.76 3.16 7.76 8.08V40h-1.96V28c0-4.04-2.24-6.44-6-6.44-3.92 0-6.48 2.64-6.48 7V40h-1.96V20h1.96v3.04c1.16-1.8 3.2-3.36 6.68-3.36zM158.92 40l-5.32-17.36L147.64 40h-2.48l-5.72-20h2.2l4.84 17.56L152.44 20h2.48l5.36 17.6 5.4-17.6h2.12l-6.4 20h-2.48zm21-20.32c5.8 0 10.28 4.48 10.28 10.28 0 5.84-4.48 10.32-10.28 10.32-5.84 0-10.32-4.48-10.32-10.32 0-5.8 4.48-10.28 10.32-10.28zm0 1.88c-4.8 0-8.36 3.68-8.36 8.44 0 4.72 3.56 8.4 8.36 8.4 4.76 0 8.32-3.68 8.32-8.4 0-4.76-3.56-8.44-8.32-8.44zm21.52-1.88v2.16c-3.84 0-6.68 2.92-6.68 7.28V40h-1.96V20h1.96v3.72c.76-1.52 2.92-4.04 6.68-4.04zm10.72 18.72c4.72 0 8.36-3.64 8.36-8.44 0-4.76-3.64-8.4-8.36-8.4-4.8 0-8.36 3.68-8.36 8.4 0 4.76 3.56 8.44 8.36 8.44zm8.24 1.56v-3.92c-1.64 2.48-4.44 4.24-8.36 4.24-5.72 0-10.2-4.48-10.2-10.28 0-5.84 4.48-10.32 10.2-10.32 3.84 0 6.72 1.76 8.36 4.24V12.6h1.96v27.36h-1.96zm4.56-6.04h2c.36 2.84 2.56 4.52 6.36 4.52 3.68 0 5.6-1.52 5.6-3.92 0-6.08-13.2-1.48-13.2-9.32 0-3.28 2.76-5.52 7.04-5.52 4.44 0 7.28 2.32 7.52 5.92h-1.96c-.2-2.08-1.88-4.08-5.6-4.08-3.16 0-5 1.44-5 3.6 0 5.88 13.16 1.36 13.16 9.32 0 3.4-2.8 5.88-7.6 5.88-4.84 0-7.84-2.2-8.32-6.4z" transform="matrix(1.249583 0 0 1.249583 -.999666 89.255248)" fill="url(#A)"/><path d="M73.86 155.08h1.62v13.86a1.16 1.16 0 0 1-1.16 1.16h-11.9c-1.92 0-3.42-1.46-3.42-3.32v-11.7h1.62c.14 0 .26.12.26.26v11.6c0 .82.66 1.44 1.54 1.44h4.28c-.24-.22-.4-.56-.4-.96v-12.34h1.62c.14 0 .26.12.26.26V168a.38.38 0 0 0 .38.38h4.66c.2 0 .38-.18.38-.38v-12.66c0-.14.12-.26.26-.26zm4.7 15.02c-.14 0-.26-.12-.26-.26v-14.76h1.62c.14 0 .26.12.26.26v14.76h-1.62zm3.76-15.02h10.64v1.46c0 .14-.12.26-.26.26h-4.28v13.04c0 .14-.1.26-.26.26h-1.62v-13.3h-4.48v-1.46c0-.14.12-.26.26-.26zm21.5 0h1.62v15.02h-1.62c-.14 0-.26-.12-.26-.26v-6.4h-7.18v6.4c0 .14-.12.26-.26.26H94.5v-15.02h1.62c.14 0 .26.12.26.26v6.38h7.18v-6.38c0-.14.12-.26.26-.26zm11.94 15.1h-4.52a3.4 3.4 0 0 1-3.4-3.4v-8.38a3.4 3.4 0 0 1 3.4-3.4h4.52a3.41 3.41 0 0 1 3.4 3.4v8.38a3.41 3.41 0 0 1-3.4 3.4zm-4.52-13.46a1.52 1.52 0 0 0-1.52 1.52v8.7a1.52 1.52 0 0 0 1.52 1.52h4.52a1.52 1.52 0 0 0 1.52-1.52v-8.7a1.52 1.52 0 0 0-1.52-1.52h-4.52zm13.74 13.46a3.4 3.4 0 0 1-3.4-3.4v-11.7h1.62c.14 0 .26.12.26.26v11.6a1.52 1.52 0 0 0 1.52 1.52h4.52a1.52 1.52 0 0 0 1.52-1.52v-11.6c0-.14.12-.26.26-.26h1.62v11.7a3.41 3.41 0 0 1-3.4 3.4h-4.52zm9.78-15.1h10.64v1.46c0 .14-.12.26-.26.26h-4.28v13.04c0 .14-.1.26-.26.26h-1.62v-13.3h-4.48v-1.46c0-.14.12-.26.26-.26zm23.18 15.1a3.4 3.4 0 0 1-3.4-3.4v-8.38a3.4 3.4 0 0 1 3.4-3.4h6.86v1.46c0 .14-.12.26-.28.26h-6.58a1.52 1.52 0 0 0-1.52 1.52v8.7a1.52 1.52 0 0 0 1.52 1.52h4.14c.84 0 1.7-.68 1.7-1.52v-3.62h-3.64c-.14 0-.26-.12-.26-.26v-1.46h5.34c.14 0 .26.12.26.26v5.12c0 2.12-1.52 3.2-3.4 3.2h-4.14zm13.32-.08c-1.88 0-3.42-1.56-3.42-3.46v-11.3c0-.14.12-.26.26-.26h1.62v11.74c0 .86.7 1.56 1.54 1.56h6.24c.14 0 .26.12.26.26v1.46h-6.5zm16.24-14.88l5.24 14.88h-1.64c-.18 0-.32-.12-.36-.26l-1.34-3.86h-7.64l-1.34 3.86c-.04.14-.2.26-.36.26h-1.64l4.88-13.9c.24-.66.86-1.12 1.58-1.12h2.38c.1 0 .2.06.24.14zm-5.14 9.04h6.44l-2.6-7.46h-.98c-.16 0-.3.1-.36.26zm11.84 4.12h7.4c.84 0 1.48-.68 1.48-1.52v-1.82a.54.54 0 0 0-.36-.48l-7.68-2.56a1.72 1.72 0 0 1-1.1-1.52v-2.38c0-1.88 1.52-3.02 3.4-3.02h7.12v1.46c0 .14-.1.26-.26.26h-6.86c-.84 0-1.54.54-1.54 1.38v1.94c0 .22.16.44.36.5l7.68 2.54c.6.2 1.04.9 1.04 1.54v2.14c0 1.88-1.42 3.26-3.28 3.26h-7.66v-1.46c0-.16.12-.26.26-.26zm12.72 0h7.4c.84 0 1.48-.68 1.48-1.52v-1.82a.54.54 0 0 0-.36-.48l-7.68-2.56a1.72 1.72 0 0 1-1.1-1.52v-2.38c0-1.88 1.52-3.02 3.4-3.02h7.12v1.46c0 .14-.1.26-.26.26h-6.86c-.84 0-1.54.54-1.54 1.38v1.94c0 .22.16.44.36.5l7.68 2.54c.6.2 1.04.9 1.04 1.54v2.14c0 1.88-1.42 3.26-3.28 3.26h-7.66v-1.46c0-.16.12-.26.26-.26zm16.22-11.58a1.52 1.52 0 0 0-1.52 1.52v3.8c.2-.24.56-.4.98-.4h6.58v1.46c0 .14-.12.26-.26.26h-7.3v3.42a1.52 1.52 0 0 0 1.52 1.52h6.48c.14 0 .26.12.26.26v1.46h-6.74a3.4 3.4 0 0 1-3.4-3.4v-8.22a3.4 3.4 0 0 1 3.4-3.4h6.74v1.46c0 .14-.12.26-.26.26h-6.48zm8.48 11.58h7.4c.84 0 1.48-.68 1.48-1.52v-1.82a.54.54 0 0 0-.36-.48l-7.68-2.56a1.72 1.72 0 0 1-1.1-1.52v-2.38c0-1.88 1.52-3.02 3.4-3.02h7.12v1.46c0 .14-.1.26-.26.26h-6.86c-.84 0-1.54.54-1.54 1.38v1.94c0 .22.16.44.36.5l7.68 2.54c.6.2 1.04.9 1.04 1.54v2.14c0 1.88-1.42 3.26-3.28 3.26h-7.66v-1.46c0-.16.12-.26.26-.26z" fill="url(#A)"/></svg>