<svg xmlns="http://www.w3.org/2000/svg" width="346" height="115.2" fill="#111" xmlns:v="https://vecta.io/nano"><path d="M89.282 9.518C79.838 3.291 68.891 0 57.624 0 38.178 0 20.185 9.68 9.495 25.891-7.986 52.403-.641 88.198 25.869 105.68c9.443 6.226 20.388 9.52 31.653 9.52 19.447 0 37.442-9.682 48.133-25.898 17.48-26.508 10.135-62.299-16.373-79.784zm18.001 40.897c-2.538-4.325-5.934-8.731-10.083-13.027.018-.168.045-.339.063-.508.384-3.653.367-7.036-.018-10.116 5.39 6.947 8.8 15.127 10.038 23.651zM86.3 58.867c-4.949-4.84-10.862-9.673-17.545-14.222l10.797-16.373c4.837 3.347 9.207 6.993 12.988 10.75-.977 6.339-3.109 13.088-6.24 19.846zM70.857 82.576c-5.199-4.754-11.392-9.566-17.906-13.966l13.38-20.291c7.067 4.817 13.07 9.843 17.908 14.725-1.542 2.939-3.264 5.86-5.159 8.734a100.35 100.35 0 0 1-8.223 10.798zm-34.991 20.34c-1.39-.667-2.746-1.416-4.078-2.213L50.52 72.295c6.929 4.682 12.731 9.293 17.353 13.53-10.231 10.626-21.586 17.164-30.841 17.164-.401 0-.778-.049-1.166-.073zm-8.283-43.604c6.067 2.723 12.645 6.323 19.262 10.562L28.101 98.298a49.78 49.78 0 0 1-3.631-2.901c-4.086-8.108-2.857-21.736 3.114-36.087zm6.057-45.917c2.954-.465 6.368-.474 10.175.001 3.858.483 7.918 1.446 12.069 2.829-5.196 3.622-10.346 8.288-15.144 13.791-3.34-1.206-6.593-2.194-9.687-2.883-4.78-1.064-8.996-1.414-12.562-1.094 4.215-5.231 9.365-9.514 15.149-12.644zm45.642-1.112c1.393.668 2.747 1.417 4.081 2.216l-5.06 7.675c-4.12-2.604-8.324-4.872-12.516-6.771 4.315-2.056 8.506-3.192 12.331-3.192.399 0 .777.047 1.165.073zm-3.416 13.586L65.072 42.236c-6.674-4.257-13.449-7.825-19.97-10.53 5.065-5.642 10.468-10.277 15.808-13.613 4.981 2.035 10.019 4.663 14.956 7.775zm-61.08 5.397c3.466-1.325 8.758-1.295 15.309.163 2.454.547 5.018 1.289 7.647 2.185a104.72 104.72 0 0 0-5.347 7.379c-2.751 4.174-5.127 8.385-7.122 12.558-1.53-.611-3.035-1.183-4.474-1.665-5.308-1.779-9.581-2.55-12.816-2.332 1.015-6.319 3.259-12.533 6.802-18.288zm21.283 12.151c1.909-2.894 3.936-5.619 6.031-8.195 6.655 2.65 13.648 6.293 20.548 10.691L49.268 66.2c-6.81-4.365-13.602-8.085-19.894-10.907 1.884-3.972 4.114-7.966 6.695-11.877zm45.907-18.818l5.074-7.697c1.293.936 2.525 1.926 3.706 2.961 1.769 3.506 2.574 8.095 2.344 13.539-3.345-3.052-7.07-6.01-11.123-8.803zM70.335 9.009c-3.174.915-6.454 2.333-9.76 4.222-5.495-2.09-10.903-3.514-16.002-4.172 4.202-1.123 8.58-1.723 13.051-1.723 4.324 0 8.585.589 12.711 1.673zM7.465 54.043c2.054-.343 5.777-.047 11.935 2.016a82.06 82.06 0 0 1 4.068 1.507C18.68 68.883 16.759 79.7 17.855 88.373c-7.598-9.825-11.235-22.112-10.39-34.33zm37.346 52.147c8.517-2.456 17.782-8.618 26.226-17.348 5.659 5.64 8.978 10.362 9.802 13.305-7.08 3.698-15.044 5.718-23.318 5.718-4.323 0-8.584-.588-12.711-1.674zm39.817-6.241c-1.553-4.184-5.381-9.169-10.596-14.347 3.075-3.488 6.015-7.296 8.722-11.399a106.68 106.68 0 0 0 4.667-7.79c7.064 7.881 10.926 15.143 11.168 20.191a50.22 50.22 0 0 1-13.961 13.344zm17.309-18.742c-1.86-5.728-6.138-12.297-12.359-18.982 3.135-6.474 5.411-12.987 6.709-19.221 5.888 6.683 9.859 13.504 11.292 19.463a49.88 49.88 0 0 1-5.642 18.74zm36.444-31.463L135 37.649V36h3.298l1.732 7.009zM148.606 36h3.298v1.649l-3.353 12.094h-3.298l-1.787-6.487-1.787 6.487h-2.749L142.283 36h2.336l2.007 8.136zm10.583 13.743h-1.512l-2.062-2.062v-9.62L157.677 36h1.512v13.743zM165.648 36l2.062 2.062v9.62l-2.062 2.062h-5.91V46.72h4.398v-7.696h-4.398V36h5.91zm10.033 13.743h-3.573V36h3.573v13.743zm8.795-11.682v4.81l-2.062 2.062 2.062 3.161v1.649h-3.298l-2.859-4.673h-2.089v-3.024h4.673v-3.024h-4.673V36h6.184zm7.972 11.682h-1.512l-2.062-2.062V36h3.573v13.743zm.55-3.024h6.872v3.024h-6.872V46.72zm14.156 3.024h-3.573V36h3.573v13.743zM213.612 36l2.062 2.062v9.62l-2.062 2.062h-5.91V46.72h4.398v-7.696h-4.398V36h5.91zm14.568 13.743v-2.749h1.099v-8.246h-1.099V36h5.772v2.749h-1.099v8.246h1.099v2.749h-5.772zM246.459 36h3.573v13.743h-3.161l-8.933-12.837V36h3.161l5.36 7.641V36zm-8.521 1.814l3.573 5.113v6.817h-3.573v-11.93zm27.707 11.929l-3.381-12.094V36h3.298l1.732 7.009zM275.87 36h3.298v1.649l-3.353 12.094h-3.298l-1.787-6.487-1.787 6.487h-2.749L269.547 36h2.336l2.007 8.136zm10.583 13.743h-1.512l-2.062-2.062v-9.62L284.941 36h1.512v13.743zM292.912 36l2.062 2.062v9.62l-2.062 2.062h-5.91V46.72h4.398v-7.696h-4.398V36h5.91zm10.033 13.743h-3.573V36h3.573v13.743zm8.795-11.682v4.81l-2.062 2.062 2.062 3.161v1.649h-3.298l-2.859-4.673h-2.089v-3.024h4.673v-3.024h-4.673V36h6.184zm7.972 11.682h-3.573V36h3.573v13.743zM326.171 36l2.062 2.062v9.62l-2.062 2.062h-5.91V46.72h4.398v-7.696h-4.398V36h5.91zm10.033 5.36h6.734L345 43.422v4.26l-2.062 2.062h-1.512v-5.36h-6.734l-2.062-2.062v-4.26L334.693 36h1.512v5.36zm6.734-5.36L345 38.062v2.062h-2.611l-1.099-1.099h-4.535V36h6.184zm-2.062 10.72v3.024h-6.184l-2.062-2.062V45.62h2.611l1.099 1.099h4.535zM141.385 70.209l2.023-5.36-.506-1.972c-.219-.809.91-1.011 1.096-.303l1.989 7.316 2.141-7.316c.219-.759 1.332-.438 1.113.287l-2.613 8.883c-.101.32-.388.523-.657.523-.303 0-.573-.185-.674-.523l-1.382-5.074-1.938 5.091c-.118.303-.388.506-.641.506s-.506-.169-.624-.539l-2.68-8.866c-.219-.725.809-.961 1.028-.32zm16.816 1.534v-9.086a.52.52 0 0 1 .539-.539c.27 0 .556.185.556.539v9.086c0 .725-1.096.725-1.096 0zm10.056-9.625h5.091c.354 0 .523.287.523.573s-.169.556-.523.556h-1.922v8.479c0 .354-.287.539-.573.539s-.556-.185-.556-.539v-8.479h-2.04c-.354 0-.523-.27-.523-.556s.169-.573.523-.573zm14.203 9.608v-9.069c0-.354.27-.523.556-.523s.573.169.573.523v3.86h3.826v-3.86a.52.52 0 0 1 .539-.539c.27 0 .556.185.556.539v9.069c0 .354-.287.539-.556.539a.52.52 0 0 1-.539-.539v-4.062h-3.826v4.062c0 .354-.287.539-.573.539s-.556-.185-.556-.539zm15.231-2.444v-4.18c0-2.023 1.045-3.102 3.068-3.102h.438c2.006 0 3.068 1.079 3.068 3.102v4.18c0 1.854-1.231 3.068-3.068 3.068h-.438c-1.871 0-3.068-1.231-3.068-3.068zm3.068 1.938h.438c1.214 0 1.938-.759 1.938-1.938v-4.18c0-1.315-.641-1.989-1.938-1.989h-.438c-1.281 0-1.989.691-1.989 1.989v4.18c0 1.231.775 1.938 1.989 1.938zm12.517-1.938v-6.625c0-.354.287-.539.556-.539.287 0 .556.185.556.539v6.625c0 1.214.826 1.938 1.972 1.938h.421c1.18 0 1.989-.826 1.989-1.938v-6.625c0-.354.27-.539.556-.539.27 0 .556.185.556.539v6.625c0 1.736-1.231 3.068-3.102 3.068h-.421c-1.871 0-3.085-1.298-3.085-3.068zm15.45-7.164h5.091c.354 0 .523.287.523.573s-.169.556-.523.556h-1.922v8.479c0 .354-.287.539-.573.539s-.556-.185-.556-.539v-8.479h-2.04c-.354 0-.523-.27-.523-.556s.169-.573.523-.573zm25.389 7.181v-4.062c0-2.427 1.332-3.152 3.287-3.152 1.618 0 3.186.826 3.186 2.528 0 .371-.27.556-.556.556s-.573-.185-.573-.556c0-.86-.944-1.433-2.056-1.433-1.534 0-2.174.624-2.174 2.056v4.062c0 1.466.809 1.922 2.174 1.922 1.618 0 2.191-.775 2.191-2.276v-.708h-1.517c-.354 0-.539-.27-.539-.556s.185-.573.539-.573h2.107c.337 0 .523.337.523.573v1.264c0 2.427-.944 3.371-3.304 3.371-2.225 0-3.287-.809-3.287-3.017zm15.619 2.427v-9.069a.52.52 0 0 1 .539-.539c.27 0 .556.185.556.539v8.479h3.354c.371 0 .573.287.573.573s-.202.556-.573.556h-3.894c-.337 0-.556-.27-.556-.539zm18.35.084l-.657-2.141h-3.135l-.624 2.107c-.219.725-1.332.506-1.096-.236l2.596-8.934c.101-.32.371-.489.641-.489.253 0 .523.169.624.489l2.68 8.934c.185.641-.809.995-1.028.27zm-2.242-7.417l-1.214 4.147h2.478l-1.264-4.147zm11.826 6.422c-.371-.691.573-1.197 1.011-.506.219.354.877.961 1.922.961.438 0 1.534-.32 1.686-1.568.101-.759-.624-1.5-1.871-2.124-1.753-.826-3.085-1.551-3.085-3 0-1.719 1.45-2.528 3-2.528 1.399 0 2.174.86 2.444 1.298a.56.56 0 0 1-.927.624c-.236-.303-.691-.809-1.517-.809-.927 0-1.888.438-1.888 1.416 0 .775.86 1.214 2.141 1.82 1.5.742 3.068 1.466 2.832 3.439-.185 1.551-1.365 2.545-2.815 2.545-1.096 0-2.444-.59-2.933-1.568zm14.321 0c-.371-.691.573-1.197 1.011-.506.219.354.877.961 1.922.961.438 0 1.534-.32 1.686-1.568.101-.759-.624-1.5-1.871-2.124-1.753-.826-3.085-1.551-3.085-3 0-1.719 1.45-2.528 3-2.528 1.399 0 2.174.86 2.444 1.298a.56.56 0 0 1-.927.624c-.236-.303-.691-.809-1.517-.809-.927 0-1.888.438-1.888 1.416 0 .775.86 1.214 2.141 1.82 1.5.742 3.068 1.466 2.832 3.439-.185 1.551-1.365 2.545-2.815 2.545-1.096 0-2.444-.59-2.933-1.568zm14.523.86v-8.968c0-.388.303-.59.59-.59h3.877c.371 0 .556.27.556.556s-.185.573-.556.573h-3.338v3.27h2.646a.53.53 0 0 1 .573.556c0 .287-.202.59-.573.59h-2.646v3.489h3.338c.354 0 .539.287.539.556 0 .287-.185.556-.539.556h-3.877c-.287 0-.59-.101-.59-.59zm13.714-.86c-.371-.691.573-1.197 1.011-.506.219.354.877.961 1.922.961.438 0 1.534-.32 1.686-1.568.101-.759-.624-1.5-1.871-2.124-1.753-.826-3.085-1.551-3.085-3 0-1.719 1.45-2.528 3-2.528 1.399 0 2.174.86 2.444 1.298a.56.56 0 0 1-.927.624c-.236-.303-.691-.809-1.517-.809-.927 0-1.888.438-1.888 1.416 0 .775.86 1.214 2.141 1.82 1.5.742 3.068 1.466 2.832 3.439-.185 1.551-1.365 2.545-2.815 2.545-1.096 0-2.444-.59-2.933-1.568z"/></svg>