<svg xmlns="http://www.w3.org/2000/svg" width="369" height="105.874" fill="#111" xmlns:v="https://vecta.io/nano"><path d="M67.934 31.688H51.103a36.63 36.63 0 0 0-.988 3.735l-.773 3.851-3.011-3.851.329-1.48.592-2.255h-3.833l-1.859-2.402h6.432c1.217-3.719 2.831-7.289 4.789-10.678a36.39 36.39 0 0 1 7.305-9c-8.753 2.584-16.552 7.701-22.408 14.693l-.329-.411a10.66 10.66 0 0 0-3.719-3.011c1.02-1.234 2.107-2.402 3.241-3.537 20.321-20.089 53.095-19.908 73.18.41s19.908 53.076-.41 73.165-53.077 19.908-73.165-.394v-8.062c6.005 7.814 14.346 13.491 23.79 16.254a36.34 36.34 0 0 1-7.471-9.147c-1.941-3.356-3.537-6.912-4.772-10.595H36.475v-2.385h10.808c-.214-.773-.411-1.564-.609-2.354a84.95 84.95 0 0 1-1.958-11.648 10.45 10.45 0 0 0 3.702-.263c.345 3.536.905 7.057 1.694 10.514a36.94 36.94 0 0 0 .988 3.75h19.562V55.33H55.923a10.71 10.71 0 0 0 .477-2.401h14.265V35.34a5.37 5.37 0 0 1-2.73-3.652zm45.969 0H99.26a50.46 50.46 0 0 1 .592 2.255c1.481 6.235 2.289 12.603 2.354 18.987h17.473c-.197-7.438-2.174-14.726-5.775-21.241zm-35.472-2.402h16.206c-.954-2.748-2.14-5.429-3.536-7.997-2.272-4.146-5.365-7.782-9.132-10.645a14.38 14.38 0 0 0-6.12-2.714v17.967c1.283.742 2.219 1.958 2.583 3.39zm7.996-19.678c2.896 2.584 5.364 5.627 7.322 9a57.6 57.6 0 0 1 4.788 10.678h13.952c-6.022-9.493-15.269-16.501-26.062-19.678zm15.895 66.981h11.581a46.45 46.45 0 0 0 5.775-21.257h-17.473a85.91 85.91 0 0 1-2.106 17.752c1.183.823 1.989 2.089 2.222 3.505zM75.849 35.275v17.654h22.638c-.082-5.891-.789-11.747-2.074-17.507a67.21 67.21 0 0 0-.986-3.735H78.464c-.312 1.514-1.267 2.815-2.615 3.587zm15.99 43.699h-15.99v21.355c2.219-.41 4.309-1.332 6.12-2.696 3.767-2.88 6.861-6.501 9.132-10.662a54.07 54.07 0 0 0 2.516-5.298c-.856-.692-1.463-1.646-1.778-2.699zm5.2 3.915a58.83 58.83 0 0 1-3.323 6.68c-1.975 3.438-4.508 6.516-7.471 9.147 10.859-3.174 20.186-10.201 26.243-19.742h-10.283a5.41 5.41 0 0 1-5.166 3.915zm-.477-10.76a84.94 84.94 0 0 0 1.925-16.797H75.849v21.257h15.86c.428-2.421 2.418-4.245 4.854-4.46zM70.665 25.83V7.93c-2.221.411-4.311 1.332-6.103 2.714-3.769 2.863-6.878 6.499-9.148 10.645-1.382 2.567-2.584 5.249-3.554 7.997h16.109c.378-1.481 1.348-2.731 2.696-3.456zm0 53.143H51.859a56.83 56.83 0 0 0 3.554 7.996 33.75 33.75 0 0 0 9.148 10.662 14.37 14.37 0 0 0 6.103 2.696V78.974zM28.563 10.629C28.563 4.755 23.825 0 17.968 0S7.356 4.755 7.356 10.629c0 5.84 4.755 10.595 10.612 10.595a10.6 10.6 0 0 0 10.595-10.595h0zM.001 61.599a6.21 6.21 0 0 0 6.17 6.221c.017 0 .017 31.868.017 31.868 0 3.405 2.78 6.187 6.187 6.187 3.438 0 6.202-2.781 6.202-6.187 0 3.405 2.781 6.187 6.204 6.187a6.19 6.19 0 0 0 6.187-6.187v-58.49l10.876 13.985c1.727 2.205 4.919 2.599 7.14.873a5.08 5.08 0 0 0 .888-7.126L33.007 27.262a4.98 4.98 0 0 0-3.915-1.908h-6.483l-4.639 6.729-4.656-6.729H4.953A4.95 4.95 0 0 0 0 30.306v31.326m147-41.261h3.891l1.112 22.309h.371l2.224-22.309h3.15l2.224 22.309h.371l1.112-22.309h3.891l-2.594 29.647h-4.447l-2.112-15.491-2.149 15.491h-4.447zm23.254 14.045c0-10.339.222-14.416 5.781-14.416s5.781 4.076 5.781 14.416c0 11.859-.222 15.972-5.781 15.972s-5.781-4.114-5.781-15.972zm3.706 0c0 10.71 0 12.266 2.075 12.266s2.075-1.556 2.075-12.266c0-9.635 0-11.451-2.075-11.451s-2.075 1.816-2.075 11.451zm13.508 15.602V20.371h6.004c3.817 0 5.114 2.335 5.114 6.819 0 4.039-.482 6.337-1.631 7.449v.222c.964.334 1.26 2.075 1.631 6.411l.741 8.746h-3.706l-.482-8.746c-.259-4.41-.926-5.336-2.038-5.336h-1.927v14.082h-3.706zm3.706-17.047h2.298c1.297 0 1.668-1.297 1.668-5.781 0-2.928-.556-3.854-1.668-3.854h-2.298v9.635zm13.434 17.047V20.371h3.706v25.941h4.818v3.706h-8.524zm13.063 0V20.371h5.559c5.559 0 5.559 4.076 5.559 14.045 0 11.488 0 15.602-5.559 15.602h-5.559zm3.706-3.706h1.853c2.075 0 2.075-1.556 2.075-11.896 0-9.265 0-11.081-2.075-11.081h-1.853v22.977zm23.532 3.706V20.371h3.706v29.647h-3.706zm9.728 0V20.371h3.335l4.855 18.159-.037-.371V20.371h3.706v29.647h-3.335l-4.855-16.306.037.371v15.935h-3.706zm27.609-29.647h3.891l1.112 22.309h.371l2.224-22.309h3.15l2.224 22.309h.371l1.112-22.309h3.891l-2.594 29.647h-4.447l-2.112-15.491-2.149 15.491h-4.447zM305.5 34.416c0-10.339.222-14.416 5.781-14.416s5.781 4.076 5.781 14.416c0 11.859-.222 15.972-5.781 15.972s-5.781-4.114-5.781-15.972zm3.706 0c0 10.71 0 12.266 2.075 12.266s2.075-1.556 2.075-12.266c0-9.635 0-11.451-2.075-11.451s-2.075 1.816-2.075 11.451zm13.508 15.602V20.371h6.004c3.817 0 5.114 2.335 5.114 6.819 0 4.039-.482 6.337-1.631 7.449v.222c.964.334 1.26 2.075 1.631 6.411l.741 8.746h-3.706l-.482-8.746c-.259-4.41-.926-5.336-2.038-5.336h-1.927v14.082h-3.706zm3.706-17.047h2.298c1.297 0 1.668-1.297 1.668-5.781 0-2.928-.556-3.854-1.668-3.854h-2.298v9.635zm13.434 17.047V20.371h5.559c5.559 0 5.559 4.076 5.559 14.045 0 11.488 0 15.602-5.559 15.602h-5.559zm3.706-3.706h1.853c2.075 0 2.075-1.556 2.075-11.896 0-9.265 0-11.081-2.075-11.081h-1.853v22.977zm12.322-5.336h3.743c.074 4.781.445 5.707 1.779 5.707 1.816 0 1.816-1.519 1.816-5.559 0-5.929-7.338-4.336-7.338-12.229 0-4.632 0-8.894 5.559-8.894 4.114 0 5.225 2.335 5.485 7.931h-3.706c-.148-4.039-.593-4.966-1.779-4.966-1.816 0-1.816 2.001-1.816 5.929 0 5.744 7.375 3.706 7.375 12.229 0 5.188 0 9.265-5.596 9.265-4.299 0-5.299-2.557-5.522-9.413zm-205.36 42.417l3.3-8.745-.825-3.218c-.358-1.32 1.485-1.65 1.788-.495l3.245 11.935 3.493-11.935c.358-1.238 2.173-.715 1.815.468l-4.263 14.493c-.165.523-.633.853-1.073.853-.495 0-.935-.303-1.1-.853l-2.255-8.278-3.163 8.305c-.193.495-.633.825-1.045.825s-.825-.275-1.018-.88l-4.373-14.465c-.358-1.183 1.32-1.568 1.678-.523zm19.196 2.503V71.073c0-.578.44-.88.88-.88s.908.303.908.88v14.823c0 1.183-1.788 1.183-1.788 0zm8.168-15.703h8.305c.578 0 .853.468.853.935s-.275.908-.853.908h-3.135v13.833c0 .578-.468.88-.935.88s-.908-.303-.908-.88V72.035h-3.328c-.578 0-.853-.44-.853-.908s.275-.935.853-.935zm14.933 15.675V71.073c0-.578.44-.853.908-.853s.935.275.935.853v6.298h6.243v-6.298c0-.578.44-.88.88-.88s.908.303.908.88v14.795c0 .578-.468.88-.908.88s-.88-.303-.88-.88V79.24h-6.243v6.628c0 .578-.468.88-.935.88s-.908-.303-.908-.88zm16.61-3.988v-6.82c0-3.3 1.705-5.06 5.005-5.06h.715c3.273 0 5.005 1.76 5.005 5.06v6.82c0 3.025-2.008 5.005-5.005 5.005h-.715c-3.053 0-5.005-2.008-5.005-5.005zm5.005 3.163h.715c1.98 0 3.163-1.238 3.163-3.163v-6.82c0-2.145-1.045-3.245-3.163-3.245h-.715c-2.09 0-3.245 1.128-3.245 3.245v6.82c0 2.008 1.265 3.163 3.245 3.163zm12.183-3.163V71.073c0-.578.468-.88.908-.88.468 0 .908.303.908.88V81.88c0 1.98 1.348 3.163 3.218 3.163h.688c1.925 0 3.245-1.348 3.245-3.163V71.073c0-.578.44-.88.908-.88.44 0 .908.303.908.88V81.88c0 2.833-2.008 5.005-5.06 5.005h-.688c-3.053 0-5.033-2.118-5.033-5.005zm16.968-11.688h8.305c.578 0 .853.468.853.935s-.275.908-.853.908h-3.135v13.833c0 .578-.468.88-.935.88s-.908-.303-.908-.88V72.035h-3.328c-.578 0-.853-.44-.853-.908s.275-.935.853-.935zm24.943 11.715V75.28c0-3.96 2.173-5.143 5.363-5.143 2.64 0 5.198 1.348 5.198 4.125 0 .605-.44.908-.908.908s-.935-.303-.935-.908c0-1.403-1.54-2.338-3.355-2.338-2.503 0-3.548 1.018-3.548 3.355v6.628c0 2.393 1.32 3.135 3.548 3.135 2.64 0 3.575-1.265 3.575-3.713v-1.155h-2.475c-.578 0-.88-.44-.88-.908s.303-.935.88-.935h3.438c.55 0 .853.55.853.935v2.063c0 3.96-1.54 5.5-5.39 5.5-3.63 0-5.363-1.32-5.363-4.923zm17.243 3.96V71.073c0-.578.44-.88.88-.88s.908.303.908.88v13.833h5.473c.605 0 .935.468.935.935s-.33.908-.935.908h-6.353a.89.89 0 0 1-.908-.88zm21.698.138l-1.073-3.493h-5.115l-1.018 3.438c-.358 1.183-2.173.825-1.788-.385l4.235-14.575c.165-.523.605-.798 1.045-.798.413 0 .853.275 1.018.798l4.373 14.575c.303 1.045-1.32 1.623-1.678.44zm-3.658-12.1l-1.98 6.765h4.043l-2.063-6.765zm11.055 10.478c-.605-1.128.935-1.953 1.65-.825.358.578 1.43 1.568 3.135 1.568.715 0 2.503-.523 2.75-2.558.165-1.238-1.018-2.448-3.053-3.465-2.86-1.348-5.033-2.53-5.033-4.895 0-2.805 2.365-4.125 4.895-4.125 2.283 0 3.548 1.403 3.988 2.118.633 1.018-.743 2.008-1.513 1.018-.385-.495-1.128-1.32-2.475-1.32-1.513 0-3.08.715-3.08 2.31 0 1.265 1.403 1.98 3.493 2.97 2.448 1.21 5.005 2.393 4.62 5.61-.303 2.53-2.228 4.153-4.593 4.153-1.788 0-3.988-.963-4.785-2.558zm15.125 0c-.605-1.128.935-1.953 1.65-.825.358.578 1.43 1.568 3.135 1.568.715 0 2.503-.523 2.75-2.558.165-1.238-1.018-2.448-3.053-3.465-2.86-1.348-5.033-2.53-5.033-4.895 0-2.805 2.365-4.125 4.895-4.125 2.283 0 3.548 1.403 3.988 2.118.633 1.018-.743 2.008-1.513 1.018-.385-.495-1.128-1.32-2.475-1.32-1.513 0-3.08.715-3.08 2.31 0 1.265 1.403 1.98 3.493 2.97 2.448 1.21 5.005 2.393 4.62 5.61-.303 2.53-2.228 4.153-4.593 4.153-1.788 0-3.988-.963-4.785-2.558zm15.455 1.403v-14.63c0-.633.495-.963.963-.963h6.325c.605 0 .908.44.908.908s-.303.935-.908.935h-5.445v5.335h4.318c.633 0 .935.44.935.908s-.33.963-.935.963h-4.318v5.693h5.445c.578 0 .88.468.88.908 0 .468-.303.908-.88.908h-6.325c-.468 0-.963-.165-.963-.963zm14.135-1.403c-.605-1.128.935-1.953 1.65-.825.358.578 1.43 1.568 3.135 1.568.715 0 2.503-.523 2.75-2.558.165-1.238-1.018-2.448-3.053-3.465-2.86-1.348-5.033-2.53-5.033-4.895 0-2.805 2.365-4.125 4.895-4.125 2.283 0 3.548 1.403 3.988 2.118.633 1.018-.743 2.008-1.513 1.018-.385-.495-1.128-1.32-2.475-1.32-1.513 0-3.08.715-3.08 2.31 0 1.265 1.403 1.98 3.493 2.97 2.448 1.21 5.005 2.393 4.62 5.61-.303 2.53-2.228 4.153-4.593 4.153-1.788 0-3.988-.963-4.785-2.558z"/></svg>