<svg xmlns="http://www.w3.org/2000/svg" width="300" height="45.401" xmlns:v="https://vecta.io/nano"><defs><linearGradient id="A"><stop stop-color="#8f5e25" offset="0"/><stop stop-color="#fbf4a1" offset=".5"/><stop stop-color="#8f5e25" offset="1"/></linearGradient></defs><path d="M11.96 20l-2.4-8.46L7.2 20H3.52L.18 6.3h3.26l2.1 9.84L8.28 6.3h2.74l2.72 9.94 2.18-9.94H19L15.66 20h-3.7zm15 .28c-4 0-7.26-3.06-7.26-7.12 0-4.08 3.26-7.14 7.26-7.14 4.1 0 7.26 3.06 7.26 7.12 0 4.08-3.16 7.14-7.26 7.14zm0-2.88c2.32 0 4.1-1.84 4.1-4.26 0-2.38-1.78-4.24-4.1-4.24s-4.1 1.86-4.1 4.26 1.78 4.24 4.1 4.24zm14-8.26h-2.28v3.66h2.18c1.34 0 2.16-.76 2.16-1.82s-.68-1.84-2.06-1.84zm-2.28 6.2V20h-3.1V6.3h5.84c2.92 0 4.72 1.88 4.72 4.56 0 2.14-1.42 3.92-3.74 4.38L46.76 20h-4.04zm9.2 4.66V6.3h3.1v10.86h6.36V20h-9.46zm10.88 0V6.3h5.6c4.22 0 6.98 3 6.98 6.78 0 3.86-2.88 6.92-7.14 6.92h-5.44zM64.2 9.14h-2.34v8.02h2.44c2.22 0 3.92-1.72 3.92-4.04 0-2.28-1.7-3.98-4.02-3.98zM79.74 20h-3.1V6.3h3.1V20zm10.16 0l-5.52-8.68V20H81.4V6.3h3.38L90.3 15V6.3h2.98V20H89.9zm20.12 0l-2.4-8.46-2.36 8.46h-3.68L98.24 6.3h3.26l2.1 9.84 2.74-9.84h2.74l2.72 9.94 2.18-9.94h3.08L113.72 20h-3.7zm15 .28c-4 0-7.26-3.06-7.26-7.12 0-4.08 3.26-7.14 7.26-7.14 4.1 0 7.26 3.06 7.26 7.12 0 4.08-3.16 7.14-7.26 7.14zm0-2.88c2.32 0 4.1-1.84 4.1-4.26 0-2.38-1.78-4.24-4.1-4.24s-4.1 1.86-4.1 4.26 1.78 4.24 4.1 4.24zm14-8.26h-2.28v3.66h2.18c1.34 0 2.16-.76 2.16-1.82s-.68-1.84-2.06-1.84zm-2.28 6.2V20h-3.1V6.3h5.84c2.92 0 4.72 1.88 4.72 4.56 0 2.14-1.42 3.92-3.74 4.38l4.36 4.76h-4.04zm9.2 4.66V6.3h5.6c4.22 0 6.98 3 6.98 6.78 0 3.86-2.88 6.92-7.14 6.92h-5.44zm5.44-10.86h-2.34v8.02h2.44c2.22 0 3.92-1.72 3.92-4.04 0-2.28-1.7-3.98-4.02-3.98zm13.48 11.12c-3.46 0-5.36-1.72-5.54-4.54h3.1c.06 1.04.66 2.08 2.52 2.08 1.56 0 2.36-.62 2.36-1.48 0-1.06-1.34-1.34-2.9-1.68-2.18-.52-4.84-1.16-4.84-4.42 0-2.4 1.86-4.18 5.14-4.18 3.34 0 5.18 1.82 5.38 4.5h-3.12c-.06-1.1-.66-1.98-2.34-1.98-1.24 0-2.06.5-2.06 1.4 0 1.16 1.36 1.48 2.92 1.84 2.24.5 4.92 1.06 4.92 4.14 0 2.5-1.96 4.32-5.54 4.32z" transform="matrix(1.762425 0 0 1.762425 -.317235 -10.609798)" fill="url(#A)"/><path d="M19.62 12.22l-.94 2.53-.85 2.28-.65 1.75-.34.94a.89.89 0 0 1-.33.42c-.153.107-.323.16-.51.16s-.357-.053-.51-.16a.89.89 0 0 1-.33-.42L10.8 7.84 6.42 19.72c-.067.173-.173.313-.32.42a.83.83 0 0 1-.5.16c-.187 0-.357-.053-.51-.16a.89.89 0 0 1-.33-.42l-.35-.94-.65-1.75-.84-2.28-.94-2.53-.91-2.47-.8-2.18-.56-1.6-.21-.71c0-.24.087-.447.26-.62s.38-.26.62-.26c.187 0 .357.053.51.16a.89.89 0 0 1 .33.42L5.6 16.84 9.96 4.96a.89.89 0 0 1 .33-.42c.153-.107.323-.16.51-.16a.83.83 0 0 1 .5.16c.147.107.253.247.32.42L16 16.84l4.36-11.88a.89.89 0 0 1 .33-.42c.153-.107.323-.16.51-.16.24 0 .447.087.62.26s.26.38.26.62c0 .053-.07.29-.21.71l-.56 1.6-.79 2.18-.9 2.47zm19.183 8.08a.87.87 0 0 1-.64-.26c-.173-.173-.26-.38-.26-.62V5.4c0-.24.087-.447.26-.62a.87.87 0 0 1 .64-.26c.24 0 .447.087.62.26s.26.38.26.62v14.02c0 .24-.087.447-.26.62s-.38.26-.62.26zM65.266 6.28h-3.24v13.14c0 .24-.087.447-.26.62s-.38.26-.62.26a.87.87 0 0 1-.64-.26c-.173-.173-.26-.38-.26-.62V6.28h-3.24c-.24 0-.447-.083-.62-.25s-.26-.377-.26-.63c0-.24.087-.447.26-.62s.38-.26.62-.26h8.26c.24 0 .447.087.62.26s.26.38.26.62c0 .253-.087.463-.26.63s-.38.25-.62.25zM93.109 20.3c-.24 0-.447-.087-.62-.26s-.26-.38-.26-.62v-6.78h-7.86v6.78c0 .24-.087.447-.26.62s-.38.26-.62.26a.87.87 0 0 1-.64-.26c-.173-.173-.26-.38-.26-.62V5.4c0-.24.087-.447.26-.62a.87.87 0 0 1 .64-.26c.24 0 .447.087.62.26s.26.38.26.62v5.46h7.86V5.4c0-.24.087-.447.26-.62s.38-.26.62-.26a.87.87 0 0 1 .64.26c.173.173.26.38.26.62v14.02c0 .24-.087.447-.26.62a.87.87 0 0 1-.64.26zm26.343 0c-1.093 0-2.12-.207-3.08-.62s-1.797-.977-2.51-1.69-1.277-1.55-1.69-2.51-.62-1.987-.62-3.08c0-1.08.207-2.1.62-3.06s.977-1.797 1.69-2.51 1.55-1.277 2.51-1.69 1.987-.62 3.08-.62c1.08 0 2.1.207 3.06.62s1.797.977 2.51 1.69 1.277 1.55 1.69 2.51.62 1.98.62 3.06c0 1.093-.207 2.12-.62 3.08s-.977 1.797-1.69 2.51-1.55 1.277-2.51 1.69-1.98.62-3.06.62zm0-14.02c-.84 0-1.633.16-2.38.48s-1.4.757-1.96 1.31-1 1.203-1.32 1.95-.48 1.54-.48 2.38.16 1.633.48 2.38.76 1.4 1.32 1.96 1.213 1 1.96 1.32 1.54.48 2.38.48 1.633-.16 2.38-.48 1.397-.76 1.95-1.32.99-1.213 1.31-1.96.48-1.54.48-2.38-.16-1.633-.48-2.38-.757-1.397-1.31-1.95-1.203-.99-1.95-1.31-1.54-.48-2.38-.48zm31.523 14.02c-.84 0-1.627-.16-2.36-.48s-1.377-.753-1.93-1.3a6.07 6.07 0 0 1-1.31-1.93c-.32-.74-.48-1.53-.48-2.37V5.4c0-.24.087-.447.26-.62a.87.87 0 0 1 .64-.26c.24 0 .447.087.62.26s.26.38.26.62v8.82c0 .6.113 1.16.34 1.68s.533.973.92 1.36.843.693 1.37.92a4.18 4.18 0 0 0 1.67.34c.6 0 1.16-.113 1.68-.34a4.5 4.5 0 0 0 1.37-.92 4.26 4.26 0 0 0 .93-1.37 4.18 4.18 0 0 0 .34-1.67V5.4c0-.24.087-.447.26-.62s.38-.26.62-.26a.87.87 0 0 1 .64.26c.173.173.26.38.26.62v8.82c0 .84-.16 1.63-.48 2.37a6.07 6.07 0 0 1-1.31 1.93c-.553.547-1.2.98-1.94 1.3s-1.53.48-2.37.48zm31.683-14.02h-3.24v13.14c0 .24-.087.447-.26.62s-.38.26-.62.26a.87.87 0 0 1-.64-.26c-.173-.173-.26-.38-.26-.62V6.28h-3.24c-.24 0-.447-.083-.62-.25s-.26-.377-.26-.63c0-.24.087-.447.26-.62s.38-.26.62-.26h8.26c.24 0 .447.087.62.26s.26.38.26.62c0 .253-.087.463-.26.63s-.38.25-.62.25zm52.206 11.68c-.76.76-1.623 1.34-2.59 1.74a7.95 7.95 0 0 1-3.07.6c-1.107 0-2.143-.21-3.11-.63a8.11 8.11 0 0 1-2.53-1.71 8.11 8.11 0 0 1-1.71-2.53c-.42-.967-.63-2.003-.63-3.11s.21-2.133.63-3.08.993-1.77 1.72-2.47a8.07 8.07 0 0 1 2.54-1.65 8 8 0 0 1 3.09-.6 7.95 7.95 0 0 1 3.07.6c.967.4 1.83.98 2.59 1.74.173.173.26.38.26.62s-.087.447-.26.62a.88.88 0 0 1-.64.28c-.24 0-.447-.093-.62-.28a6.43 6.43 0 0 0-2.02-1.35c-.747-.313-1.54-.47-2.38-.47a6.33 6.33 0 0 0-2.41.46c-.753.307-1.41.73-1.97 1.27s-1.003 1.18-1.33 1.92a5.85 5.85 0 0 0-.49 2.39c0 .853.163 1.657.49 2.41a6.3 6.3 0 0 0 1.33 1.97c.56.56 1.217 1.003 1.97 1.33a5.99 5.99 0 0 0 2.41.49c.773 0 1.513-.133 2.22-.4s1.347-.653 1.92-1.16V13.2h-4.04a.87.87 0 0 1-.64-.26c-.173-.173-.26-.38-.26-.62a.87.87 0 0 1 .9-.9h4.92a.87.87 0 0 1 .9.9v5.02c0 .24-.087.447-.26.62zm24.463 2.34h-5.34c-.24 0-.447-.087-.62-.26s-.26-.38-.26-.62V5.4c0-.253.087-.463.26-.63s.38-.25.62-.25c.253 0 .463.083.63.25s.25.377.25.63v13.14h4.46a.87.87 0 0 1 .64.26c.173.173.26.38.26.62s-.087.447-.26.62a.87.87 0 0 1-.64.26zm29.083-.08a.75.75 0 0 1-.34.08c-.173 0-.337-.047-.49-.14s-.263-.227-.33-.4l-1.58-3.72h-7.26l-1.58 3.72a.85.85 0 0 1-.48.48.81.81 0 0 1-.68-.02.85.85 0 0 1-.48-.48.81.81 0 0 1 .02-.68l1.8-4.26 4.22-9.88a.8.8 0 0 1 .32-.4.91.91 0 0 1 .5-.14c.173 0 .333.047.48.14a.8.8 0 0 1 .32.4l3.02 7.07 3.02 7.07a.86.86 0 0 1 0 .68.85.85 0 0 1-.48.48zm-6.36-12.68l-2.88 6.72h5.74zm27.543 12.76c-.613 0-1.187-.117-1.72-.35s-1-.55-1.4-.95-.717-.867-.95-1.4-.35-1.107-.35-1.72a.87.87 0 0 1 .9-.9c.24 0 .447.087.62.26a.87.87 0 0 1 .26.64c0 .36.07.7.21 1.02s.33.6.57.84.52.43.84.57.66.21 1.02.21.703-.07 1.03-.21.61-.33.85-.57.43-.52.57-.84.21-.66.21-1.02c0-.44-.087-.803-.26-1.09s-.413-.537-.72-.75c-.147-.107-.313-.203-.5-.29l-.58-.27-.62-.24-.66-.24-1.33-.54c-.447-.2-.847-.45-1.2-.75s-.643-.673-.87-1.12-.34-.997-.34-1.65c0-.613.117-1.187.35-1.72s.55-1 .95-1.4.867-.717 1.4-.95 1.107-.35 1.72-.35 1.19.117 1.73.35a4.49 4.49 0 0 1 1.41.95c.4.4.717.867.95 1.4s.35 1.107.35 1.72c0 .24-.087.447-.26.62a.87.87 0 0 1-.64.26c-.24 0-.447-.087-.62-.26s-.26-.38-.26-.62c0-.36-.07-.703-.21-1.03s-.33-.61-.57-.85-.523-.43-.85-.57-.67-.21-1.03-.21-.7.07-1.02.21-.6.33-.84.57-.43.523-.57.85-.21.67-.21 1.03c0 .4.083.733.25 1s.403.5.71.7c.32.2.68.38 1.08.54l.64.24.66.24 1.33.55c.447.207.847.467 1.2.78s.643.703.87 1.17.34 1.04.34 1.72c0 .613-.117 1.187-.35 1.72s-.55 1-.95 1.4a4.49 4.49 0 0 1-1.41.95c-.54.233-1.117.35-1.73.35zm25.963 0c-.613 0-1.187-.117-1.72-.35s-1-.55-1.4-.95-.717-.867-.95-1.4-.35-1.107-.35-1.72a.87.87 0 0 1 .9-.9c.24 0 .447.087.62.26a.87.87 0 0 1 .26.64c0 .36.07.7.21 1.02s.33.6.57.84.52.43.84.57.66.21 1.02.21.703-.07 1.03-.21.61-.33.85-.57.43-.52.57-.84.21-.66.21-1.02c0-.44-.087-.803-.26-1.09s-.413-.537-.72-.75c-.147-.107-.313-.203-.5-.29l-.58-.27-.62-.24-.66-.24-1.33-.54c-.447-.2-.847-.45-1.2-.75s-.643-.673-.87-1.12-.34-.997-.34-1.65c0-.613.117-1.187.35-1.72s.55-1 .95-1.4.867-.717 1.4-.95 1.107-.35 1.72-.35 1.19.117 1.73.35a4.49 4.49 0 0 1 1.41.95c.4.4.717.867.95 1.4s.35 1.107.35 1.72c0 .24-.087.447-.26.62a.87.87 0 0 1-.64.26c-.24 0-.447-.087-.62-.26s-.26-.38-.26-.62c0-.36-.07-.703-.21-1.03s-.33-.61-.57-.85-.523-.43-.85-.57-.67-.21-1.03-.21-.7.07-1.02.21-.6.33-.84.57-.43.523-.57.85-.21.67-.21 1.03c0 .4.083.733.25 1s.403.5.71.7c.32.2.68.38 1.08.54l.64.24.66.24 1.33.55c.447.207.847.467 1.2.78s.643.703.87 1.17.34 1.04.34 1.72c0 .613-.117 1.187-.35 1.72s-.55 1-.95 1.4a4.49 4.49 0 0 1-1.41.95c-.54.233-1.117.35-1.73.35zm29.763 0h-6.88a.87.87 0 0 1-.64-.26c-.173-.173-.26-.38-.26-.62v-.04-.04V5.4c0-.24.087-.447.26-.62a.87.87 0 0 1 .64-.26h6.88a.87.87 0 0 1 .64.26c.173.173.26.38.26.62 0 .253-.087.463-.26.63s-.387.25-.64.25h-6v5.1h5.06c.24 0 .447.083.62.25s.26.377.26.63c0 .24-.087.447-.26.62s-.38.26-.62.26h-5.06v5.38h6a.87.87 0 0 1 .9.9c0 .24-.087.447-.26.62a.87.87 0 0 1-.64.26zm21.703 0c-.613 0-1.187-.117-1.72-.35s-1-.55-1.4-.95-.717-.867-.95-1.4-.35-1.107-.35-1.72a.87.87 0 0 1 .9-.9c.24 0 .447.087.62.26a.87.87 0 0 1 .26.64c0 .36.07.7.21 1.02s.33.6.57.84.52.43.84.57.66.21 1.02.21.703-.07 1.03-.21.61-.33.85-.57.43-.52.57-.84.21-.66.21-1.02c0-.44-.087-.803-.26-1.09s-.413-.537-.72-.75c-.147-.107-.313-.203-.5-.29l-.58-.27-.62-.24-.66-.24-1.33-.54c-.447-.2-.847-.45-1.2-.75s-.643-.673-.87-1.12-.34-.997-.34-1.65c0-.613.117-1.187.35-1.72s.55-1 .95-1.4.867-.717 1.4-.95 1.107-.35 1.72-.35 1.19.117 1.73.35a4.49 4.49 0 0 1 1.41.95c.4.4.717.867.95 1.4s.35 1.107.35 1.72c0 .24-.087.447-.26.62a.87.87 0 0 1-.64.26c-.24 0-.447-.087-.62-.26s-.26-.38-.26-.62c0-.36-.07-.703-.21-1.03s-.33-.61-.57-.85-.523-.43-.85-.57-.67-.21-1.03-.21-.7.07-1.02.21-.6.33-.84.57-.43.523-.57.85-.21.67-.21 1.03c0 .4.083.733.25 1s.403.5.71.7c.32.2.68.38 1.08.54l.64.24.66.24 1.33.55c.447.207.847.467 1.2.78s.643.703.87 1.17.34 1.04.34 1.72c0 .613-.117 1.187-.35 1.72s-.55 1-.95 1.4a4.49 4.49 0 0 1-1.41.95c-.54.233-1.117.35-1.73.35z" transform="matrix(.653124 0 0 .653124 22.326523 32.139315)" fill="url(#A)"/></svg>