<svg xmlns="http://www.w3.org/2000/svg" width="144.606" height="113.607"><path d="M76.295 18.329h-9.736a20.997 20.997 0 00-.571 2.16l-.447 2.227-1.742-2.227.19-.856.342-1.304h-2.217l-1.075-1.39h3.72a32.61 32.61 0 012.77-6.176 21.05 21.05 0 014.225-5.206 26.813 26.813 0 00-12.961 8.499l-.19-.238a6.17 6.17 0 00-2.151-1.742 29.24 29.24 0 011.875-2.046c11.754-11.62 30.711-11.515 42.329.237s11.515 30.7-.237 42.32-30.701 11.515-42.32-.228v-4.663a26.853 26.853 0 0013.761 9.402 21.01 21.01 0 01-4.321-5.291 33.483 33.483 0 01-2.76-6.129h-6.68v-1.38h6.252a53.052 53.052 0 01-.352-1.362 49.207 49.207 0 01-1.133-6.738 6.047 6.047 0 002.141-.152 48.54 48.54 0 00.98 6.082 21.49 21.49 0 00.571 2.169h11.315V32.004h-8.525a6.18 6.18 0 00.276-1.389h8.251V20.442a3.104 3.104 0 01-1.579-2.113zm26.59 0h-8.47a28.97 28.97 0 01.342 1.304 49.73 49.73 0 011.362 10.982h10.107a26.87 26.87 0 00-3.34-12.287zm-20.518-1.39h9.374a30.9 30.9 0 00-2.045-4.626 19.462 19.462 0 00-5.282-6.157 8.32 8.32 0 00-3.54-1.57v10.392a3.17 3.17 0 011.494 1.961zm4.625-11.382a21.33 21.33 0 014.235 5.206 33.307 33.307 0 012.769 6.176h8.07A26.831 26.831 0 0086.991 5.557zM96.186 44.3h6.699a26.87 26.87 0 003.34-12.296H96.118A49.69 49.69 0 0194.9 42.273a3.08 3.08 0 011.285 2.027zM80.873 20.404v10.212h13.094a49.628 49.628 0 00-1.2-10.126 39.096 39.096 0 00-.57-2.16h-9.811a3.12 3.12 0 01-1.513 2.075zm9.249 25.277h-9.249v12.352a8.417 8.417 0 003.54-1.56 19.52 19.52 0 005.282-6.167 31.075 31.075 0 001.455-3.065 3.165 3.165 0 01-1.028-1.561zm3.008 2.264a33.977 33.977 0 01-1.922 3.864 21.22 21.22 0 01-4.321 5.291 26.94 26.94 0 0015.18-11.419h-5.948a3.13 3.13 0 01-2.988 2.264zm-.276-6.224a49.13 49.13 0 001.114-9.716H80.873v12.296h9.174a3.133 3.133 0 012.808-2.58zm-14.98-26.78V4.587a8.23 8.23 0 00-3.53 1.57 19.47 19.47 0 00-5.291 6.157 32.88 32.88 0 00-2.056 4.626h9.318a3.14 3.14 0 011.56-1.999zm0 30.739H66.997a32.875 32.875 0 002.056 4.625 19.524 19.524 0 005.291 6.167 8.323 8.323 0 003.53 1.56V45.68zM53.522 6.148C53.522 2.75 50.781 0 47.393 0s-6.138 2.75-6.138 6.148a6.14 6.14 0 006.138 6.129 6.13 6.13 0 006.129-6.129zM37.001 35.63a3.59 3.59 0 003.569 3.598c.01 0 .01 18.433.01 18.433a3.59 3.59 0 003.578 3.578 3.583 3.583 0 003.588-3.578 3.59 3.59 0 003.588 3.578 3.58 3.58 0 003.578-3.578V23.83l6.291 8.089a2.95 2.95 0 004.13.505 2.94 2.94 0 00.514-4.122l-9.755-12.533a2.88 2.88 0 00-2.264-1.104h-3.75l-2.683 3.892-2.693-3.892h-4.836A2.86 2.86 0 0037 17.53v18.12" fill="#0881a3"/><path d="M2.816 96.99L0 82.48q1.146-.43 2.029-.43 1.002 0 1.456.442.453.442.644 1.659l1.002 6.158q.453 2.768.573 3.866.119 1.098.155 1.146.036.048.155.048l1.981-12.792q.883-.167 2.458-.167 1.575 0 2.434.167l1.814 12.482q.024.215.084.263.06.048.179.048.215-2.243.716-5.084l1.337-8.019q.692-.143 1.599-.143 1.098 0 1.933.263l.167.215-3.15 15.943q-1.551.167-2.912.167-1.36 0-1.933-.334t-.74-1.384l-.811-5.179q-.43-2.816-.692-5.537h-.167q-.263 2.315-.788 5.537l-1.074 6.73q-1.623.167-2.947.167-1.325 0-1.897-.334-.573-.334-.788-1.384zm27.47-9.284q1.718 1.718 1.718 4.916 0 1.432-.37 2.601t-1.074 1.993q-.704.823-1.73 1.265-1.026.442-2.363.442t-2.351-.453q-1.014-.453-1.718-1.277-.704-.823-1.062-1.993-.358-1.169-.358-2.578 0-1.432.358-2.589.358-1.158 1.05-1.993.692-.835 1.718-1.289 1.026-.453 2.363-.453 2.363 0 3.819 1.408zm-3.795 1.384q-.525 0-.847.251-.322.251-.513.68-.191.43-.263.99-.072.561-.072 1.205 0 1.002.06 1.73t.239 1.217q.179.489.501.728t.847.239q1.05 0 1.384-.919.334-.919.334-2.613 0-1.718-.334-2.613t-1.337-.895zm6.945-.716q.119-.477.453-1.062.334-.585.668-.847 2.196.167 3.055 2.172.907-2.148 2.983-2.148.621 0 1.575.191 0 .74-.251 1.754t-.68 1.73q-.406-.143-1.217-.239-1.193 0-1.957 1.217v7.422q-.788.143-1.85.143t-1.874-.143v-7.709q0-1.79-.907-2.482zm14.845 7.47h.644q.286.788.286 1.575 0 .788-.072 1.026-1.432.239-2.554.239-1.623 0-2.303-.8-.68-.8-.68-2.518v-14.2l.143-.167h1.456q1.122 0 1.575.501.453.501.453 1.742v11.48q0 1.122 1.05 1.122zm6.778-9.427q1.146 0 2.22.525v-5.776l.143-.167h1.456q1.146 0 1.587.501.442.501.442 1.742v11.885q0 1.265.668 1.718-.119.501-.453 1.074-.334.573-.692.835-1.742-.048-2.554-1.337-1.432 1.504-3.437 1.504T51.36 97.25q-1.074-1.671-1.074-4.582 0-1.432.37-2.589.37-1.158 1.014-1.969.644-.811 1.516-1.253.871-.442 1.874-.442zm.477 9.499q.979 0 1.742-.931v-5.227q-.979-.573-1.551-.573-1.623 0-1.623 3.58 0 3.15 1.432 3.15zm17.828-6.515v9.165q-.406.072-.883.107-.477.036-.979.036-.501 0-.99-.036t-.895-.107v-7.9q0-1.384-1.122-1.384h-.358q-.143-.453-.143-1.265 0-.788.143-1.337.621-.048 1.146-.084.525-.036.955-.036h.525q1.217 0 1.909.764t.692 2.076zm-4.177-7.542q.692-.382 1.79-.382 1.122 0 1.742.382.286.644.286 1.384 0 .74-.286 1.384-.692.358-1.814.358t-1.718-.358q-.286-.644-.286-1.384 0-.74.286-1.384zm17.255 8.831v4.893q0 1.575.573 2.363-.907.811-2.172.811-1.241 0-1.695-.573-.453-.573-.453-1.742v-5.084q0-.811-.215-1.193t-.835-.382q-.358 0-.811.191-.453.191-.931.621v7.971q-.406.072-.883.107-.477.036-.979.036-.501 0-.979-.036-.477-.036-.883-.107v-11.91l.167-.167h1.408q1.456 0 1.957 1.432 1.671-1.48 3.317-1.48 1.671 0 2.542 1.158.871 1.158.871 3.091zm9.045 6.277l-2.315-10.095q1.169-.43 2.029-.43.883 0 1.265.382.382.382.549 1.217l.74 3.842q.525 2.601.621 3.723.024.215.191.215l1.313-9.045q.835-.167 2.196-.167 1.36 0 2.172.167l1.337 8.831q.024.215.191.215.43-2.84.644-3.938l1.074-5.203q.573-.167 1.551-.167 1.217 0 1.838.31l.119.239-2.792 11.504q-.883.143-2.387.143t-2.029-.334q-.525-.334-.668-1.36l-.382-2.554q-.358-2.22-.621-4.511h-.143q-.024.191-.621 4.463l-.668 4.153q-1.146.143-2.53.143t-1.921-.358q-.537-.358-.752-1.384zm25.441-9.26q1.718 1.718 1.718 4.916 0 1.432-.37 2.601t-1.074 1.993q-.704.823-1.73 1.265-1.026.442-2.363.442t-2.351-.453q-1.014-.453-1.718-1.277-.704-.823-1.062-1.993-.358-1.169-.358-2.578 0-1.432.358-2.589.358-1.158 1.05-1.993.692-.835 1.718-1.289 1.026-.453 2.363-.453 2.363 0 3.819 1.408zm-3.795 1.384q-.525 0-.847.251-.322.251-.513.68-.191.43-.263.99-.072.561-.072 1.205 0 1.002.06 1.73t.239 1.217q.179.489.501.728t.847.239q1.05 0 1.384-.919.334-.919.334-2.613 0-1.718-.334-2.613t-1.337-.895zm6.945-.716q.119-.477.453-1.062.334-.585.668-.847 2.196.167 3.055 2.172.907-2.148 2.983-2.148.621 0 1.575.191 0 .74-.251 1.754t-.68 1.73q-.406-.143-1.217-.239-1.193 0-1.957 1.217v7.422q-.788.143-1.85.143t-1.874-.143v-7.709q0-1.79-.907-2.482zm14.01-1.957q1.146 0 2.22.525v-5.776l.143-.167h1.456q1.146 0 1.587.501.442.501.442 1.742v11.885q0 1.265.668 1.718-.119.501-.453 1.074-.334.573-.692.835-1.742-.048-2.554-1.337-1.432 1.504-3.437 1.504t-3.079-1.671q-1.074-1.671-1.074-4.582 0-1.432.37-2.589.37-1.158 1.014-1.969.644-.811 1.516-1.253.871-.442 1.874-.442zm.477 9.499q.979 0 1.742-.931v-5.227q-.979-.573-1.551-.573-1.623 0-1.623 3.58 0 3.15 1.432 3.15z" fill="#fff"/><path d="M17.966 109.916l-1.059 3.579h-.625L15 109.111h.619l.966 3.504h.012l1.034-3.504h.681l1.034 3.504h.012l.966-3.504h.619l-1.275 4.384h-.625l-1.065-3.579h-.012zm8.349-.805v4.384h-.594v-4.384h.594zm8.257 0v.557H33.16v3.826h-.594v-3.826h-1.412v-.557h3.418zm5.433 0v1.82h2.272v-1.82h.594v4.384h-.594v-2.006h-2.272v2.006h-.594v-4.384h.594zM50.218 109c.652 0 1.196.217 1.631.65s.653.984.653 1.653c0 .425-.097.814-.291 1.167a2.12 2.12 0 01-.82.833c-.353.202-.744.303-1.173.303s-.813-.1-1.164-.3a2.15 2.15 0 01-.823-.83 2.356 2.356 0 01-.297-1.173c0-.652.214-1.199.641-1.641s.975-.663 1.644-.663zm-1.653 2.303c0 .495.155.91.464 1.245s.706.502 1.189.502c.475 0 .869-.165 1.183-.495s.471-.747.471-1.251-.155-.915-.464-1.248-.708-.498-1.195-.498c-.471 0-.863.165-1.176.495s-.471.747-.471 1.251zm9.513-2.192v2.706c0 .359.1.654.3.885s.467.347.802.347.602-.116.802-.347.3-.526.3-.885v-2.706h.594v2.805c0 .301-.071.583-.214.845s-.345.468-.607.619-.554.226-.876.226c-.495 0-.902-.162-1.22-.486s-.477-.725-.477-1.204v-2.805h.594zm10.975 0v.557h-1.412v3.826h-.594v-3.826h-1.412v-.557h3.418zM81.839 109c.731 0 1.273.19 1.628.57l-.421.452c-.326-.31-.731-.464-1.214-.464s-.879.166-1.189.498-.464.748-.464 1.248a1.7 1.7 0 00.492 1.251 1.64 1.64 0 001.21.495c.454 0 .813-.076 1.077-.229v-1.22h-.972v-.557h1.566v2.161a2.7 2.7 0 01-.777.297 3.91 3.91 0 01-.882.105c-.689 0-1.253-.215-1.69-.644s-.656-.982-.656-1.659c0-.652.216-1.199.647-1.641s.979-.663 1.644-.663zm7.6.111v3.826h2.012v.557h-2.607v-4.384h.594zm8.739 0l1.876 4.384h-.693l-.44-1.084h-2.087l-.433 1.084h-.693l1.932-4.384h.539zm-1.133 2.78h1.659l-.817-2.012h-.012zm9.043-2.891c.57 0 .991.167 1.263.502l-.483.44a.8.8 0 00-.316-.279 1.015 1.015 0 00-.471-.105c-.256 0-.461.063-.616.189a.6.6 0 00-.232.486c0 .33.219.561.656.693l.551.18c.31.099.546.237.709.415s.245.421.245.731c0 .405-.143.732-.43.981s-.651.375-1.093.375c-.632 0-1.098-.202-1.399-.607l.489-.421c.095.149.225.264.39.347s.345.124.539.124c.244 0 .45-.07.619-.211a.65.65 0 00.254-.52.52.52 0 00-.155-.384c-.103-.103-.289-.196-.557-.279l-.39-.13c-.392-.132-.667-.3-.823-.505s-.235-.467-.235-.789c0-.343.138-.634.415-.873s.634-.359 1.071-.359zm7.65 0c.57 0 .991.167 1.263.502l-.483.44a.8.8 0 00-.316-.279 1.015 1.015 0 00-.471-.105c-.256 0-.461.063-.616.189a.6.6 0 00-.232.486c0 .33.219.561.656.693l.551.18c.31.099.546.237.709.415s.245.421.245.731c0 .405-.143.732-.43.981s-.651.375-1.093.375c-.632 0-1.098-.202-1.399-.607l.489-.421c.095.149.225.264.39.347s.345.124.539.124c.244 0 .45-.07.619-.211a.65.65 0 00.254-.52.52.52 0 00-.155-.384c-.103-.103-.289-.196-.557-.279l-.39-.13c-.392-.132-.667-.3-.823-.505s-.235-.467-.235-.789c0-.343.138-.634.415-.873s.634-.359 1.071-.359zm9.222.111v.557h-2.235v1.306h2.08v.557h-2.08v1.406h2.347v.557h-2.941v-4.384h2.83zm6.418-.111c.57 0 .991.167 1.263.502l-.483.44a.8.8 0 00-.316-.279 1.015 1.015 0 00-.471-.105c-.256 0-.461.063-.616.189a.6.6 0 00-.232.486c0 .33.219.561.656.693l.551.18c.31.099.546.237.709.415s.245.421.245.731c0 .405-.143.732-.43.981s-.651.375-1.093.375c-.632 0-1.098-.202-1.399-.607l.489-.421c.095.149.225.264.39.347s.345.124.539.124c.244 0 .45-.07.619-.211a.65.65 0 00.254-.52.52.52 0 00-.155-.384c-.103-.103-.289-.196-.557-.279l-.39-.13c-.392-.132-.667-.3-.823-.505s-.235-.467-.235-.789c0-.343.138-.634.415-.873s.634-.359 1.071-.359z" fill="#0881a3"/></svg>