<svg xmlns="http://www.w3.org/2000/svg" width="325" height="72" fill="#fff"><path d="M46.199 21.549H34.753a24.91 24.91 0 00-.672 2.54l-.526 2.619-2.048-2.619.224-1.006.402-1.533h-2.606l-1.264-1.634h4.374a38.35 38.35 0 013.257-7.261 24.75 24.75 0 014.968-6.121 31.53 31.53 0 00-15.239 9.992l-.224-.28a7.25 7.25 0 00-2.529-2.048 34.8 34.8 0 012.204-2.406c13.819-13.662 36.108-13.538 49.767.279s13.538 36.094-.279 49.756-36.095 13.538-49.756-.268v-5.483A31.578 31.578 0 0040.984 67.13a24.72 24.72 0 01-5.08-6.22 39.39 39.39 0 01-3.245-7.205h-7.854v-1.622h7.35a62.34 62.34 0 01-.414-1.601 57.85 57.85 0 01-1.332-7.921 7.09 7.09 0 002.518-.179 57.237 57.237 0 001.152 7.15 24.78 24.78 0 00.672 2.55h13.303V37.627H38.031a7.24 7.24 0 00.324-1.633h9.701V24.033a3.65 3.65 0 01-1.857-2.484zm31.262 0h-9.958c.145.504.28 1.018.402 1.533a58.528 58.528 0 011.601 12.912h11.882a31.593 31.593 0 00-3.927-14.445zm-24.123-1.634h11.021a36.22 36.22 0 00-2.405-5.438 22.875 22.875 0 00-6.21-7.239 9.78 9.78 0 00-4.162-1.846V17.61a3.73 3.73 0 011.756 2.305zm5.438-13.382a25.045 25.045 0 014.979 6.121 39.17 39.17 0 013.256 7.261h9.488A31.552 31.552 0 0058.775 6.534zm10.809 45.551h7.876a31.59 31.59 0 003.927-14.456H69.506a58.42 58.42 0 01-1.432 12.073 3.625 3.625 0 011.511 2.383zM51.582 23.989v12.006h15.395a58.389 58.389 0 00-1.411-11.906c-.2-.85-.425-1.712-.671-2.54H53.36a3.667 3.667 0 01-1.778 2.439zm10.874 29.718H51.582V68.23a9.9 9.9 0 004.162-1.834 22.927 22.927 0 006.21-7.251 36.76 36.76 0 001.711-3.603 3.724 3.724 0 01-1.209-1.835zm3.536 2.662a40.022 40.022 0 01-2.26 4.543 24.95 24.95 0 01-5.08 6.22 31.674 31.674 0 0017.847-13.425h-6.993a3.68 3.68 0 01-3.513 2.662zm-.324-7.317a57.73 57.73 0 001.309-11.423H51.582v14.456h10.785a3.682 3.682 0 013.301-3.033zM48.056 17.566V5.393a9.664 9.664 0 00-4.15 1.846 22.883 22.883 0 00-6.221 7.239 38.657 38.657 0 00-2.417 5.438h10.955a3.7 3.7 0 011.834-2.351zm0 36.14H35.267a38.657 38.657 0 002.417 5.438 22.96 22.96 0 006.221 7.251 9.78 9.78 0 004.15 1.834V53.706zM19.424 7.228C19.424 3.234 16.202 0 12.219 0S5.002 3.234 5.002 7.228a7.22 7.22 0 007.217 7.205 7.21 7.21 0 007.205-7.205zM.001 41.891c-.012 2.327 1.88 4.218 4.196 4.23.012 0 .012 21.672.012 21.672A4.22 4.22 0 008.415 72a4.212 4.212 0 004.218-4.207A4.22 4.22 0 0016.852 72a4.21 4.21 0 004.207-4.207V28.017l7.396 9.511a3.464 3.464 0 004.856.593 3.454 3.454 0 00.604-4.846L22.447 18.54a3.386 3.386 0 00-2.662-1.298h-4.409l-3.154 4.576-3.166-4.576H3.369A3.364 3.364 0 000 20.61v21.303m109.264-15.387L105 10.225h3.52l3.181 12.341 3.644-12.341h2.854l3.621 12.341 3.215-12.341h3.508l-4.264 16.301h-4.354l-3.159-10.073-3.147 10.073h-4.354zm29.66.226c-4.794 0-8.337-3.271-8.337-8.382 0-5.121 3.542-8.37 8.337-8.37 4.783 0 8.325 3.249 8.325 8.37 0 5.11-3.542 8.382-8.325 8.382zm0-3.102c2.809 0 4.964-1.974 4.964-5.279 0-3.294-2.155-5.257-4.964-5.257s-4.964 1.963-4.964 5.257c0 3.305 2.155 5.279 4.964 5.279zm20.602 2.877l-4.242-7.175h-.981v7.175h-3.384V10.225h5.911c3.689 0 5.246 2.177 5.246 4.873 0 2.188-1.241 3.61-3.452 4.084l4.907 7.344h-4.005zm-5.223-13.492v3.892h1.997c1.805 0 2.538-.767 2.538-1.94 0-1.162-.733-1.952-2.538-1.952h-1.997zm15.649 10.502h5.11v2.989h-8.494V10.225h3.384v13.311zm8.249 2.989V10.225h5.9c5.2 0 7.772 3.271 7.772 8.145 0 4.885-2.572 8.156-7.772 8.156h-5.9zm3.384-2.989h2.346c3.001 0 4.377-1.873 4.377-5.167s-1.376-5.167-4.377-5.167h-2.346v10.333zm20.57 2.989V10.225h3.384v16.301h-3.384zm19.282-16.301h3.373v16.301h-3.914l-7.22-11.653v11.653h-3.373V10.225h3.869l7.265 11.586V10.225zm17.355 16.301l-4.264-16.301h3.52l3.181 12.341 3.644-12.341h2.854l3.621 12.341 3.215-12.341h3.508l-4.264 16.301h-4.354l-3.159-10.073-3.147 10.073h-4.354zm29.66.226c-4.794 0-8.337-3.271-8.337-8.382 0-5.121 3.542-8.37 8.337-8.37 4.783 0 8.325 3.249 8.325 8.37 0 5.11-3.542 8.382-8.325 8.382zm0-3.102c2.809 0 4.964-1.974 4.964-5.279 0-3.294-2.155-5.257-4.964-5.257s-4.964 1.963-4.964 5.257c0 3.305 2.155 5.279 4.964 5.279zm20.602 2.877l-4.242-7.175h-.981v7.175h-3.384V10.225h5.911c3.689 0 5.246 2.177 5.246 4.873 0 2.188-1.241 3.61-3.452 4.084l4.907 7.344h-4.005zm-5.223-13.492v3.892h1.997c1.805 0 2.538-.767 2.538-1.94 0-1.162-.733-1.952-2.538-1.952h-1.997zm12.265 13.492V10.225h5.9c5.2 0 7.772 3.271 7.772 8.145 0 4.885-2.572 8.156-7.772 8.156h-5.9zm3.384-2.989h2.346c3.001 0 4.377-1.873 4.377-5.167s-1.376-5.167-4.377-5.167h-2.346v10.333zm19.428 3.215c-3.497 0-6.227-1.681-6.724-4.738l3.497-.801c.226 1.828 1.568 2.775 3.362 2.775 1.376 0 2.47-.609 2.459-1.985-.011-1.534-1.816-2.019-3.802-2.628-2.392-.745-4.952-1.624-4.952-4.625 0-3.035 2.482-4.749 5.753-4.749 2.865 0 5.753 1.162 6.408 4.287l-3.271.812c-.305-1.624-1.399-2.335-2.933-2.335-1.365 0-2.527.564-2.527 1.906 0 1.252 1.602 1.67 3.452 2.222 2.459.745 5.37 1.692 5.37 4.941 0 3.463-2.899 4.918-6.092 4.918zM123.745 63.181h-1.695l-4.738-23.172-4.704 23.172h-1.66L105 37.242h1.833l4.738 22.619 5.222-22.619h1.107l5.188 22.619 4.738-22.619h1.868zm8.335 0V37.242h2.213v25.939h-2.213zm12.382-24.037v24.037h-2.006V39.144h-5.637v-1.902H150.1v1.902h-5.637zm18.573 24.037L163 51.111h-9.476l.035 12.07h-2.006V37.242h2.006l-.035 12.036H163l.035-12.036h2.041v25.939h-2.041zm11.275.311c-4.358 0-6.537-2.283-6.537-6.848V43.848c0-2.306.548-4.023 1.643-5.153S172.281 37 174.725 37c2.236 0 3.891.571 4.963 1.712s1.608 2.83 1.608 5.067v12.866c0 1.153-.121 2.156-.363 3.009s-.64 1.568-1.193 2.144-1.274 1.003-2.162 1.28-1.977.415-3.268.415zm5.153-19.748a6.79 6.79 0 00-.242-1.764 4.83 4.83 0 00-.796-1.643c-.369-.496-.859-.899-1.47-1.211s-1.366-.467-2.265-.467c-.991 0-1.816.138-2.473.415s-1.176.663-1.556 1.159-.651 1.078-.813 1.747-.242 1.395-.242 2.179v12.278c0 .599.069 1.211.208 1.833a4.84 4.84 0 00.744 1.712c.357.519.842.945 1.453 1.28s1.378.501 2.3.501c.991 0 1.816-.133 2.473-.398s1.182-.628 1.574-1.089.674-1.009.847-1.643.259-1.32.259-2.058V43.744zm11.586 19.748c-2.121 0-3.764-.576-4.928-1.729s-1.747-2.859-1.747-5.119V37.242h1.868v19.299c0 .553.075 1.136.225 1.747a4.58 4.58 0 00.778 1.66c.369.496.859.905 1.47 1.228s1.366.484 2.265.484c.991 0 1.81-.144 2.456-.432s1.164-.686 1.556-1.193.669-1.107.83-1.798a9.72 9.72 0 00.242-2.213v-18.78h1.833v19.403c0 2.306-.559 4.023-1.677 5.153s-2.842 1.695-5.171 1.695zm16.324-24.348v24.037h-2.006V39.144h-5.637v-1.902h13.281v1.902h-5.637zm20.06 24.348c-2.19 0-3.828-.576-4.911-1.729s-1.626-2.859-1.626-5.119V43.848c0-2.306.542-4.023 1.626-5.153S225.358 37 227.779 37c2.283 0 3.954.571 5.015 1.712s1.591 2.83 1.591 5.067v1.868h-1.868v-2.213c0-.576-.069-1.159-.208-1.747a4.36 4.36 0 00-.744-1.608c-.358-.484-.847-.876-1.47-1.176s-1.418-.45-2.386-.45-1.77.133-2.404.398-1.141.64-1.522 1.124-.651 1.055-.813 1.712-.242 1.378-.242 2.162v12.935c0 .807.081 1.528.242 2.162s.432 1.17.813 1.608.876.772 1.487 1.003 1.355.346 2.231.346c.968 0 1.775-.121 2.421-.363s1.164-.582 1.556-1.02.674-.968.847-1.591.259-1.303.259-2.041v-5.084l-5.43-.035v-1.695l7.228.035v6.537c0 2.283-.53 3.995-1.591 5.136s-2.848 1.712-5.361 1.712zm10.099-.311V37.242h1.868v24.072h8.819v1.868h-10.687zm26.181 0l-1.902-7.643h-8.439l-1.902 7.643h-1.729l7.159-25.939h1.487l7.125 25.939h-1.798zm-6.018-24.314l-3.908 15.01h7.574zm15.909 24.625c-1.13 0-2.133-.15-3.009-.45s-1.614-.778-2.213-1.435-1.043-1.516-1.332-2.577-.409-2.34-.363-3.839h2.075l.104 2.3c.069.795.254 1.522.553 2.179a3.84 3.84 0 001.366 1.608c.611.415 1.458.623 2.542.623.922 0 1.706-.138 2.352-.415s1.17-.646 1.574-1.107.686-1.003.847-1.626.242-1.268.242-1.937c0-.784-.144-1.47-.432-2.058a5.67 5.67 0 00-1.141-1.574 7.95 7.95 0 00-1.66-1.228 16.687 16.687 0 00-1.989-.951l-2.905-1.297c-.83-.427-1.51-.905-2.041-1.435a5.15 5.15 0 01-1.193-1.85c-.265-.703-.398-1.562-.398-2.577 0-2.306.605-4.023 1.816-5.153S271.346 37 273.606 37c1.96 0 3.51.571 4.652 1.712s1.712 2.853 1.712 5.136v1.902h-1.937v-2.075a7.28 7.28 0 00-.259-1.989c-.173-.611-.444-1.147-.813-1.608s-.836-.824-1.401-1.089-1.239-.398-2.023-.398c-1.845 0-3.165.484-3.96 1.453s-1.159 2.271-1.089 3.908c.023.715.156 1.326.398 1.833a4.46 4.46 0 00.968 1.332 6.58 6.58 0 001.453 1.02l1.885.899 2.404 1.107c.795.392 1.539.876 2.231 1.453a7.88 7.88 0 011.712 2.092c.45.795.674 1.781.674 2.957 0 2.283-.582 3.995-1.747 5.136s-2.784 1.712-4.859 1.712zm15.287 0c-1.13 0-2.133-.15-3.009-.45s-1.614-.778-2.213-1.435-1.043-1.516-1.332-2.577-.409-2.34-.363-3.839h2.075l.104 2.3c.069.795.254 1.522.553 2.179a3.84 3.84 0 001.366 1.608c.611.415 1.458.623 2.542.623.922 0 1.706-.138 2.352-.415s1.17-.646 1.574-1.107.686-1.003.847-1.626.242-1.268.242-1.937c0-.784-.144-1.47-.432-2.058a5.67 5.67 0 00-1.141-1.574 7.95 7.95 0 00-1.66-1.228 16.687 16.687 0 00-1.989-.951l-2.905-1.297c-.83-.427-1.51-.905-2.041-1.435a5.15 5.15 0 01-1.193-1.85c-.265-.703-.398-1.562-.398-2.577 0-2.306.605-4.023 1.816-5.153S286.633 37 288.892 37c1.96 0 3.51.571 4.652 1.712s1.712 2.853 1.712 5.136v1.902h-1.937v-2.075a7.28 7.28 0 00-.259-1.989c-.173-.611-.444-1.147-.813-1.608s-.836-.824-1.401-1.089-1.239-.398-2.023-.398c-1.845 0-3.165.484-3.96 1.453s-1.159 2.271-1.089 3.908c.023.715.156 1.326.398 1.833a4.46 4.46 0 00.968 1.332 6.58 6.58 0 001.453 1.02l1.885.899 2.404 1.107c.795.392 1.539.876 2.231 1.453a7.88 7.88 0 011.712 2.092c.45.795.674 1.781.674 2.957 0 2.283-.582 3.995-1.747 5.136s-2.784 1.712-4.859 1.712zm8.75-.311V37.242h12.728v2.006H299.44v9.857h10.825v1.591H299.44v10.479h11.171v2.006h-12.97zm20.751.311c-1.13 0-2.133-.15-3.009-.45s-1.614-.778-2.213-1.435-1.043-1.516-1.332-2.577-.409-2.34-.363-3.839h2.075l.104 2.3c.069.795.254 1.522.553 2.179a3.84 3.84 0 001.366 1.608c.611.415 1.458.623 2.542.623.922 0 1.706-.138 2.352-.415s1.17-.646 1.574-1.107.686-1.003.847-1.626.242-1.268.242-1.937c0-.784-.144-1.47-.432-2.058a5.67 5.67 0 00-1.141-1.574 7.95 7.95 0 00-1.66-1.228 16.687 16.687 0 00-1.989-.951l-2.905-1.297c-.83-.427-1.51-.905-2.041-1.435a5.15 5.15 0 01-1.193-1.85c-.265-.703-.398-1.562-.398-2.577 0-2.306.605-4.023 1.816-5.153S316.134 37 318.394 37c1.96 0 3.51.571 4.652 1.712s1.712 2.853 1.712 5.136v1.902h-1.937v-2.075a7.28 7.28 0 00-.259-1.989c-.173-.611-.444-1.147-.813-1.608s-.836-.824-1.401-1.089-1.239-.398-2.023-.398c-1.845 0-3.165.484-3.96 1.453s-1.159 2.271-1.089 3.908c.023.715.156 1.326.398 1.833a4.46 4.46 0 00.968 1.332 6.58 6.58 0 001.453 1.02l1.885.899 2.404 1.107c.795.392 1.539.876 2.231 1.453a7.88 7.88 0 011.712 2.092c.45.795.674 1.781.674 2.957 0 2.283-.582 3.995-1.747 5.136s-2.784 1.712-4.859 1.712z"/></svg>