<svg xmlns="http://www.w3.org/2000/svg" width="413.592" height="83.638"><path d="M124.725 70.153c-.018 0-.161-.018-.303-.018-.25 0-.375.089-.41.321a.867.867 0 00.018.375l3.05 12.487c.054.214.071.214.285.214h1.552c.232 0 .25-.321.303-.624l1.231-5.423c.018-.107.054-.214.089-.303.018-.036.054-.054.071-.054.036 0 .071.018.089.054.089.214 1.16 5.28 1.374 6.154.036.107.089.196.232.196h1.427a.47.47 0 00.499-.41l.821-3.657 1.106-4.264.945-3.514c.125-.375.589-1.498-.196-1.498-.392 0-.731-.036-1.124-.018l-.375.018a.423.423 0 00-.41.285l-.196.553-.838 3.568-.678 2.497c0 .018-.071.285-.143.285-.125 0-.161-.196-.196-.375-.018-.071-.91-5.191-1.035-6.19-.036-.392-.161-.624-.571-.642h-.214c-.464.036-.714-.018-1.177.018-.375.018-.428.054-.517.392-.018.071-.018.161-.036.25l-1.195 6.458c0 .036-.018.107-.071.107-.071 0-.089-.089-.107-.125l-1.623-6.779c-.071-.214-.232-.339-.482-.339h-1.195zm19.523 8.795l-.018-6.208-.036-1.927c0-.678-.268-.642-.624-.66l-1.267-.018c-.339-.018-.482.071-.482.41l-.036 7.403.054 4.674c-.018.25 0 .499.018.749.018.089.071.178.214.178l1.73-.054c.214-.018.392-.071.482-.303.018-.125-.036-3.389-.036-4.246zm6.732 2.658l.036 1.659c0 .25.018.285.268.285h1.606c.339 0 .268-.571.25-.874l.054-9.99c0-.268.089-.357.446-.357h1.57c.375 0 .285-.642.285-1.088 0-.392.143-1.07-.285-1.07l-4.406.018c-.589 0-1.07-.018-1.659-.018-.446 0-.428.357-.428 1.142 0 .499-.018.999.41.999l1.552.018c.178 0 .303.054.339.25 0 .054.018.107.018.161l-.054 8.866zm14.314-3.336l-.036 2.39v2.426c0 .107-.018.285.036.392.054.125.214.089.321.071.517-.054 1.035.018 1.552 0 .571-.018.392-.892.375-1.249-.071-.785.018-6.761.018-8.902l-.089-3.033c-.089-.161-.321-.196-.499-.214-.392-.071-.589.036-1.177.036s-.624.178-.624.803v.535c-.018.428.054 3.425.054 3.907 0 .232-.018.25-.25.25-.589-.018-1.409.054-2.016 0-.874-.071-.678 0-.731-.803v-.107l.089-4.281c-.089-.268-.196-.321-.428-.303-.535.036-1.088-.054-1.623-.018-.178.018-.232.071-.285.25a1.36 1.36 0 00-.036.268l.054 1.855-.054 10.578c0 .464.41.41 1.32.41.838 0 1.052.196 1.052-.803l-.036-2.622v-1.855c.018-.232.071-.303.285-.303h2.426c.25 0 .303.036.303.321zm16.116-4.817c.375 1.106.464 2.301.464 3.479 0 .981-.178 1.927-.428 2.872-.321 1.124-.856 2.141-1.82 2.801-.714.517-1.463.856-2.337.945l-.357.018c-.107 0-.214-.018-.339-.018-.874-.089-1.623-.428-2.355-.945-.945-.66-1.498-1.677-1.802-2.801-.268-.945-.428-1.891-.428-2.872 0-1.177.089-2.373.464-3.479.66-1.909 2.48-3.265 4.46-3.3 1.98.036 3.8 1.391 4.478 3.3zm-1.73 4.781c.178-1.088.107-2.194-.107-3.282-.214-.981-.642-1.944-1.463-2.533a1.688 1.688 0 00-.464-.25 1.7 1.7 0 00-.714-.143c-.232 0-.464.036-.696.143a1.476 1.476 0 00-.464.25c-.838.589-1.267 1.552-1.463 2.533-.214 1.088-.285 2.194-.107 3.282.178.981.535 2.301 1.463 2.801.392.214.821.357 1.267.375a2.972 2.972 0 001.284-.375c.928-.499 1.284-1.82 1.463-2.801zm6.625-5.138l.054 5.405c.018 1.088 0 2.319.517 3.318.66 1.284 2.123 1.855 3.532 1.766.963-.071 1.855-.321 2.551-1.035 1.177-1.267.945-3.247.963-4.87l.089-6.868c0-.392-.125-.607-.517-.624-.482-.018-.963 0-1.445.036-.196 0-.357.178-.357.392l.036 5.173c-.018 1.481.178 3.122-.375 4.531-.214.517-.696.91-1.267.91-1.427-.036-1.374-1.73-1.427-2.729-.107-2.176.054-4.406.107-6.583l.018-1.231c.018-.214.054-.482-.232-.499h-.321c-.446.036-.892-.018-1.338 0-.428.036-.571.161-.571.589l-.018 2.319zm14.403 8.509l.036 1.659c0 .25.018.285.268.285h1.606c.339 0 .268-.571.25-.874l.054-9.99c0-.268.089-.357.446-.357h1.57c.375 0 .285-.642.285-1.088 0-.392.143-1.07-.285-1.07l-4.406.018c-.589 0-1.07-.018-1.659-.018-.446 0-.428.357-.428 1.142 0 .499-.018.999.41.999l1.552.018c.178 0 .303.054.339.25 0 .054.018.107.018.161l-.054 8.866zm24.043-1.052l-.054 2.587c0 .071-.054.143-.107.178a.423.423 0 01-.25.089c-1.106.178-2.444.268-3.514-.089-2.408-.821-4.049-3.514-4.049-6.6 0-3.336 2.39-6.583 5.869-6.707.464-.018 2.051-.089 1.998.696-.036.571.018 1.035 0 1.623 0 .107-.071.178-.178.161-1.017-.125-2.176-.446-3.157.018-.821.392-1.391 1.231-1.713 2.051-.571 1.356-.446 2.926-.054 4.317.303 1.106.963 2.408 2.283 2.444.071.018.749.054.749-.018l-.054-2.283c-.018-.107-.018-.214-.036-.321s-.089-.143-.196-.161c-.285 0-.285-.018-.571-.018-.66 0-.517-.446-.535-.589l-.018-.785c-.018-.25.054-.446.303-.482h.214c.928-.054 1.873.018 2.854.018.143 0 .214.178.214.339.018.178.018.303.018.482.054.874-.054 1.766-.036 2.64.018.143.018.268.018.41zm4.467-8.634l.071 9.776.018 1.659c0 .089.054.178.143.178 1.249.054 2.48-.054 3.728-.036h1.213c.392-.018.428-.178.41-.499l-.018-1.427c-.018-.25-.161-.339-.375-.339-.731.018-1.463-.018-2.194.018-.125.018-.25.018-.375.018-.214-.018-.268-.071-.285-.303v-.268l.054-4.495-.018-3.479-.018-1.427c-.018-.285 0-.589-.071-.874-.036-.107-.089-.25-.214-.25h-1.677c-.285 0-.375.196-.392.482v1.267zm11.656 11.488c.054.018.214.018.375.018.357 0 .464-1.284.499-1.552.018-.214.071-.232.25-.268.892-.107 1.338-.036 2.23-.018.196 0 .303.089.357.25l.125.41.303.981c.071.214.089.196.303.196l1.623-.018c.41 0 .125-.838.071-.981-.161-.499-.196-1.017-.357-1.516a770.83 770.83 0 01-2.194-10.4c-.125-.321-.018-.339-.303-.339h-1.873c-.25 0-.232.071-.268.339-.036.25-.678 3.086-.928 4.264l-.963 4.371-.874 4.264c.054.036.143.018.214.018l1.409-.018zm2.337-4.049h-.375c-.499 0-.517 0-.392-.517l.678-3.033c.018-.036.054-.071.071-.071.036 0 .071.036.089.054.071.214.143.749.214.963l.428 1.98c.161.642.089.642-.232.642-.161 0-.321-.018-.482-.018zm12.013-9.276a4.06 4.06 0 00-1.017.178 3.74 3.74 0 00-1.837 1.391c-.392.589-.553 1.284-.607 1.98-.036.535.018 1.088.268 1.57.268.517.731.963 1.124 1.391l1.106 1.088c.357.339.767.607 1.124.963.517.517.714 1.695.339 2.337-.446.714-1.498.821-2.194.589-.357-.125-.678-.392-.981-.607-.178-.125-.392-.178-.517.036-.071.107-.107.232-.143.339-.125.446-.285.856-.303 1.338-.018.553 1.035.714 1.427.803 1.748.41 3.853.089 4.763-1.641.178-.357.303-.731.375-1.124l.036-.41c.071-1.142-.392-2.105-1.088-2.961-.749-.928-1.695-1.57-2.569-2.373-.535-.499-.731-1.284-.571-1.998.161-.767 1.035-.963 1.695-.767a2.1 2.1 0 01.535.25c.107.054.214.125.357.125.25.018.285-.178.339-.375.125-.446.339-.803.428-1.231.089-.482-.303-.571-.696-.696-.464-.125-.91-.214-1.391-.196zm11.032 0a4.06 4.06 0 00-1.017.178 3.74 3.74 0 00-1.837 1.391c-.392.589-.553 1.284-.607 1.98-.036.535.018 1.088.268 1.57.268.517.731.963 1.124 1.391l1.106 1.088c.357.339.767.607 1.124.963.517.517.714 1.695.339 2.337-.446.714-1.498.821-2.194.589-.357-.125-.678-.392-.981-.607-.178-.125-.392-.178-.517.036-.071.107-.107.232-.143.339-.125.446-.285.856-.303 1.338-.018.553 1.035.714 1.427.803 1.748.41 3.853.089 4.763-1.641.178-.357.303-.731.375-1.124l.036-.41c.071-1.142-.392-2.105-1.088-2.961-.749-.928-1.695-1.57-2.569-2.373-.535-.499-.731-1.284-.571-1.998.161-.767 1.035-.963 1.695-.767a2.1 2.1 0 01.535.25c.107.054.214.125.357.125.25.018.285-.178.339-.375.125-.446.339-.803.428-1.231.089-.482-.303-.571-.696-.696-.464-.125-.91-.214-1.391-.196zm7.41 9.811h-.018v1.374l.089 1.713c0 .196.054.25.232.285.375.089.731.107 1.106.107h2.89c.392-.018.571.018.963-.054.357-.071.482-.268.482-.803-.036-.339-.018-.482-.018-.892 0-.589-.41-.785-.767-.767-.25.018-1.445-.018-1.927-.018-.803.018-.678.125-.678-.714l.018-2.248c0-.375.036-.499.392-.499h2.23c.357.054.607-.196.607-.571s.036-.392.036-.767l-.054-.535c-.036-.303-.143-.41-.446-.41-.196 0-.392.018-.589.036-.767.054-1.124-.054-1.873 0-.25 0-.285-.036-.303-.268-.071-.696 0-1.463.071-2.159.018-.285.089-.339.357-.357l2.515-.018c.339-.036.446-.018.428-.357l-.036-1.57c-.036-.285-.125-.339-.446-.339l-1.195.054-3.193.018c-.749 0-.803-.054-.821.856l-.018 2.176-.036 6.725zm13.814-9.811a4.06 4.06 0 00-1.017.178 3.74 3.74 0 00-1.837 1.391c-.392.589-.553 1.284-.607 1.98-.036.535.018 1.088.268 1.57.268.517.731.963 1.124 1.391l1.106 1.088c.357.339.767.607 1.124.963.517.517.714 1.695.339 2.337-.446.714-1.498.821-2.194.589-.357-.125-.678-.392-.981-.607-.178-.125-.392-.178-.517.036-.071.107-.107.232-.143.339-.125.446-.285.856-.303 1.338-.018.553 1.035.714 1.427.803 1.748.41 3.853.089 4.763-1.641.178-.357.303-.731.375-1.124l.036-.41c.071-1.142-.392-2.105-1.088-2.961-.749-.928-1.695-1.57-2.569-2.373-.535-.499-.731-1.284-.571-1.998.161-.767 1.035-.963 1.695-.767a2.1 2.1 0 01.535.25c.107.054.214.125.357.125.25.018.285-.178.339-.375.125-.446.339-.803.428-1.231.089-.482-.303-.571-.696-.696-.464-.125-.91-.214-1.391-.196z" fill="#f8d99b"/><path d="M15.274 24.871h-.079c-.515 3.131-1.308 6.658-2.576 9.353-1.189 2.497-1.902 4.518-4.359 4.518-2.576 0-3.646-3.091-4.637-6.42C1.443 25.307-.182 17.42.016 13.576c.079-1.466.753-2.457 2.417-2.457 1.625 0 2.457.991 2.576 2.853.436 6.579 1.466 13.157 3.448 18.468 3.012-5.39 3.805-12.246 4.161-18.309.119-1.982.912-3.012 2.735-3.012 1.585 0 2.378 1.03 2.497 3.012.357 6.064 1.149 12.92 4.161 18.309 1.982-5.311 3.012-11.889 3.448-18.468.119-1.863.951-2.853 2.576-2.853 1.664 0 2.338.991 2.417 2.457.198 3.844-1.427 11.731-3.606 18.745-.991 3.329-2.061 6.42-4.637 6.42-2.457 0-3.17-2.021-4.359-4.518-1.268-2.695-2.061-6.222-2.576-9.353zm44.388 0c0 8.877-6.103 13.871-12.88 13.871s-12.88-4.993-12.88-13.871S40.006 11 46.783 11s12.88 4.993 12.88 13.871zm-5.628 0c0-5.231-2.933-9.353-7.252-9.353s-7.252 4.122-7.252 9.353 2.933 9.353 7.252 9.353 7.252-4.122 7.252-9.353zm15.26-1.07v12.167c0 1.466-.793 2.655-2.497 2.655S64.3 37.434 64.3 35.968V13.893c0-1.466.793-2.655 2.497-2.655h8.481c6.024 0 8.322 1.744 8.322 5.628 0 2.695-1.506 4.835-3.606 6.222 3.408 3.091 5.231 8.164 5.231 11.968 0 1.823-.357 3.567-2.338 3.567-2.18 0-2.616-1.466-2.655-3.329-.119-5.984-3.369-11.493-10.938-11.493zm0-8.045v3.765c2.18 0 3.21.238 4.201.436l2.417.634c1.07 0 2.695-1.783 2.695-2.972 0-1.268-.991-1.863-2.695-1.863h-6.618zm20.293 19.34V13.814c0-1.506.832-2.695 2.497-2.695s2.497 1.189 2.497 2.695v19.934h7.649c1.427 0 2.576.753 2.576 2.378s-1.149 2.378-2.576 2.378h-9.194c-2.616 0-3.448-1.347-3.448-3.408zm18.074.476V14.329c0-1.982.951-3.091 3.448-3.091 14.782 0 18.944 9.828 18.944 15.892 0 5.984-3.844 11.374-10.581 11.374h-8.283c-2.576 0-3.527-.634-3.527-2.933zm4.993-19.578v17.755h3.844c5.905 0 7.926-1.982 7.926-6.262 0-6.42-5.271-11.493-11.77-11.493zm40.348-2.18v22.114c0 1.506-.793 2.695-2.497 2.695s-2.497-1.189-2.497-2.695V13.814c0-1.506.793-2.695 2.497-2.695s2.497 1.189 2.497 2.695zm25.405.04v22.035c0 1.546-.793 2.735-2.497 2.735s-2.497-1.189-2.497-2.735V23.325c-3.25-.357-6.579-2.616-9.194-5.667v18.23c0 1.546-.793 2.735-2.497 2.735s-2.497-1.189-2.497-2.735V13.853c.079-1.546 1.03-2.735 3.21-2.735 3.884 0 4.32 5.826 10.978 7.688v-4.954c0-1.546.793-2.735 2.497-2.735s2.497 1.189 2.497 2.735zm51.634 1.091h-7.938a17.356 17.356 0 00-.466 1.761l-.365 1.816-1.42-1.816.155-.698.279-1.063h-1.808l-.877-1.133h3.034a26.572 26.572 0 012.259-5.036 17.174 17.174 0 013.445-4.245 21.87 21.87 0 00-10.569 6.93l-.155-.194a5.026 5.026 0 00-1.754-1.42 24 24 0 011.529-1.668c9.584-9.475 25.042-9.389 34.515.193s9.389 25.033-.193 34.508-25.033 9.389-34.508-.186v-3.803a21.9 21.9 0 0011.22 7.666 17.14 17.14 0 01-3.523-4.314 27.32 27.32 0 01-2.251-4.997h-5.447v-1.125h5.098a44.95 44.95 0 01-.287-1.11 40.16 40.16 0 01-.924-5.494 4.93 4.93 0 001.746-.124 39.58 39.58 0 00.799 4.959 17.24 17.24 0 00.466 1.769h9.226V26.096h-6.951a5.04 5.04 0 00.225-1.132h6.728v-8.296a2.534 2.534 0 01-1.288-1.723zm21.681 0h-6.906a23.8 23.8 0 01.279 1.063 40.55 40.55 0 011.11 8.955h8.241a21.91 21.91 0 00-2.724-10.018zm-16.73-1.133h7.643a25.184 25.184 0 00-1.668-3.772 15.87 15.87 0 00-4.307-5.021 6.78 6.78 0 00-2.886-1.28v8.474c.605.35 1.047.924 1.218 1.599zm3.771-9.281a17.365 17.365 0 013.453 4.245 27.206 27.206 0 012.258 5.036h6.581a21.882 21.882 0 00-12.292-9.281zm7.497 31.591h5.462a21.91 21.91 0 002.724-10.026h-8.241a40.52 40.52 0 01-.993 8.373c.558.388.938.985 1.048 1.653zm-12.486-19.485v8.327h10.677a40.48 40.48 0 00-.978-8.257 31.7 31.7 0 00-.465-1.761h-8a2.546 2.546 0 01-1.233 1.692zm7.542 20.61h-7.542v10.072a6.87 6.87 0 002.886-1.272 15.91 15.91 0 004.307-5.029c.442-.814.837-1.646 1.187-2.499a2.586 2.586 0 01-.839-1.273zm2.453 1.846a27.833 27.833 0 01-1.567 3.151 17.314 17.314 0 01-3.523 4.314 21.96 21.96 0 0012.377-9.311h-4.85a2.55 2.55 0 01-2.437 1.846zm-.225-5.075a40.06 40.06 0 00.908-7.922h-10.678v10.026h7.48a2.552 2.552 0 012.289-2.103zm-12.215-21.836V3.74a6.7 6.7 0 00-2.878 1.28 15.877 15.877 0 00-4.315 5.021 26.81 26.81 0 00-1.676 3.772h7.598a2.563 2.563 0 011.272-1.63zm0 25.065h-8.869a26.905 26.905 0 001.676 3.771 15.92 15.92 0 004.315 5.029 6.78 6.78 0 002.878 1.272V37.247zM211.472 5.013A5.002 5.002 0 00206.475 0a5.01 5.01 0 00-5.005 5.013 5.005 5.005 0 005.005 4.997 5 5 0 004.997-4.997zm-13.471 24.04a2.93 2.93 0 002.91 2.934c.008 0 .008 15.03.008 15.03a2.925 2.925 0 002.918 2.918 2.92 2.92 0 002.925-2.918 2.927 2.927 0 002.926 2.918 2.92 2.92 0 002.918-2.918V19.43l5.13 6.596a2.404 2.404 0 003.368.412 2.396 2.396 0 00.419-3.361l-7.954-10.219a2.35 2.35 0 00-1.846-.9h-3.058l-2.188 3.174-2.196-3.174h-3.944a2.333 2.333 0 00-2.336 2.336v14.775m94.273-4.198h-.079c-.515 3.131-1.308 6.658-2.576 9.353-1.189 2.497-1.902 4.518-4.359 4.518-2.576 0-3.646-3.091-4.637-6.42-2.18-7.015-3.805-14.901-3.606-18.745.079-1.466.753-2.457 2.417-2.457 1.625 0 2.457.991 2.576 2.853.436 6.579 1.466 13.157 3.448 18.468 3.012-5.39 3.805-12.246 4.161-18.309.119-1.982.912-3.012 2.735-3.012 1.585 0 2.378 1.03 2.497 3.012.357 6.064 1.149 12.92 4.161 18.309 1.982-5.311 3.012-11.889 3.448-18.468.119-1.863.951-2.853 2.576-2.853 1.664 0 2.338.991 2.417 2.457.198 3.844-1.427 11.731-3.606 18.745-.991 3.329-2.061 6.42-4.637 6.42-2.457 0-3.17-2.021-4.359-4.518-1.268-2.695-2.061-6.222-2.576-9.353zm44.388 0c0 8.877-6.103 13.871-12.88 13.871s-12.88-4.993-12.88-13.871S317.006 11 323.783 11s12.88 4.993 12.88 13.871zm-5.628 0c0-5.231-2.933-9.353-7.252-9.353s-7.252 4.122-7.252 9.353 2.933 9.353 7.252 9.353 7.252-4.122 7.252-9.353zm15.26-1.07v12.167c0 1.466-.793 2.655-2.497 2.655s-2.497-1.189-2.497-2.655V13.893c0-1.466.793-2.655 2.497-2.655h8.481c6.024 0 8.322 1.744 8.322 5.628 0 2.695-1.506 4.835-3.606 6.222 3.408 3.091 5.231 8.164 5.231 11.968 0 1.823-.357 3.567-2.338 3.567-2.18 0-2.616-1.466-2.655-3.329-.119-5.984-3.369-11.493-10.938-11.493zm0-8.045v3.765c2.18 0 3.21.238 4.201.436l2.417.634c1.07 0 2.695-1.783 2.695-2.972 0-1.268-.991-1.863-2.695-1.863h-6.618zm20.055 19.815V14.329c0-1.982.951-3.091 3.448-3.091 14.782 0 18.944 9.828 18.944 15.892 0 5.984-3.844 11.374-10.581 11.374h-8.283c-2.576 0-3.527-.634-3.527-2.933zm4.993-19.578v17.755h3.844c5.905 0 7.926-1.982 7.926-6.262 0-6.42-5.271-11.493-11.77-11.493zm37.334 0h-9.155c-1.229 0-1.902.555-1.902 1.585 0 3.606 15.971.277 15.971 11.334 0 4.993-3.765 9.591-10.542 9.591h-8.521c-1.427 0-2.576-.753-2.576-2.378s1.149-2.378 2.576-2.378h6.499c5.152 0 7.332-1.268 7.332-4.637 0-7.252-15.971-1.466-15.971-11.453 0-4.122 3.131-6.42 8.085-6.42h8.204c1.427 0 2.576.753 2.576 2.378s-1.149 2.378-2.576 2.378z" fill="#fff"/></svg>