<svg width="350" height="41.728" fill="#fff" version="1.1" id="svg4" xmlns="http://www.w3.org/2000/svg"><path d="M9.823 27.742L0 .575h7.275l4.685 13.152c.37.945.74 2.589 1.027 4.315l1.11-4.315 2.795-7.686L14.796.575h6.987l4.767 13.152c.329.822.699 2.26 1.027 3.781.288-1.521.616-2.918.945-3.781L32.961.575h6.699l-9.288 27.167h-5.507l-4.891-13.439-.863 2.754-3.781 10.686H9.823zm44.675.575c-8.836 0-13.398-6-13.398-14.22C41.099 5.672 45.867 0 54.744 0c8.384 0 13.439 5.055 13.439 13.768 0 8.425-4.767 14.549-13.686 14.549zm.123-5.713c3.863 0 6.288-2.548 6.288-8.549 0-5.918-2.343-8.343-6.206-8.343-3.987 0-6.329 2.589-6.329 8.425 0 5.918 2.384 8.466 6.247 8.466zm17.796 5.137V.575h10.439c7.521 0 10.193 3.247 10.193 7.603 0 4.069-2.302 6.37-4.809 7.562 1.069.575 1.849 1.644 2.548 3.576.575 1.644.863 3.206 3.822 3.082l-1.192 5.589c-6.494.822-8.014-3.37-9.124-6.37-1.151-3.124-1.603-3.452-3.904-3.452h-1.069v9.576h-6.905zM82.691 6.37h-3.37v6h3.37c2.507 0 3.452-1.562 3.452-3.165 0-2.014-1.151-2.836-3.452-2.836zm15.412 21.372V.575h6.905v21.248h10.645v5.918H98.104zm20.796 0V.575h11.138c8.919 0 13.275 5.466 13.275 13.07 0 7.316-4.069 14.097-13.234 14.097H118.9zm6.905-5.795h4.11c4.069 0 6.124-2.671 6.124-8.014 0-5.22-1.973-7.562-6.37-7.562h-3.863v15.577zm29.879 5.795V.575h6.905v27.167h-6.905zm12.494 0V.575h6.699l7.521 11.056a151.662 151.662 0 013.863 6.083c-.123-2.425-.205-5.055-.205-7.028V.575h6.576v27.167h-6.74l-8.384-12.248c-.822-1.192-1.932-3.041-2.959-4.891.123 2.219.205 4.48.205 6.042v11.097h-6.576zm44.921 0L203.276.575h7.275l4.685 13.152c.37.945.74 2.589 1.027 4.315.37-1.685.74-3.37 1.11-4.315l2.795-7.686-2.096-5.466h6.987l4.767 13.152c.329.822.699 2.26 1.027 3.781.288-1.521.616-2.918.945-3.781l4.44-13.152h6.699l-9.288 27.167h-5.507l-4.891-13.439a56.37 56.37 0 01-.863 2.754l-3.781 10.686H213.1zm44.675.575c-8.836 0-13.398-6-13.398-14.22C244.375 5.672 249.143 0 258.02 0c8.384 0 13.439 5.055 13.439 13.768 0 8.425-4.767 14.549-13.686 14.549zm.123-5.713c3.863 0 6.288-2.548 6.288-8.549 0-5.918-2.343-8.343-6.206-8.343-3.987 0-6.329 2.589-6.329 8.425 0 5.918 2.384 8.466 6.247 8.466zm17.796 5.137V.575h10.439c7.521 0 10.193 3.247 10.193 7.603 0 4.069-2.302 6.37-4.809 7.562 1.069.575 1.849 1.644 2.548 3.576.575 1.644.863 3.206 3.822 3.082l-1.192 5.589c-6.494.822-8.014-3.37-9.124-6.37-1.151-3.124-1.603-3.452-3.904-3.452h-1.069v9.576h-6.905zM285.968 6.37h-3.37v6h3.37c2.507 0 3.452-1.562 3.452-3.165 0-2.014-1.151-2.836-3.452-2.836zm15.412 21.372V.575h11.138c8.919 0 13.275 5.466 13.275 13.07 0 7.316-4.069 14.097-13.234 14.097H301.38zm6.905-5.795h4.11c4.069 0 6.124-2.671 6.124-8.014 0-5.22-1.973-7.562-6.37-7.562h-3.863v15.577zm20.056-1.726l6.781-1.397c.041 2.877 2.26 3.781 4.521 3.781 2.137 0 3.37-.781 3.37-2.055 0-4.315-13.933-2.343-13.933-12.206 0-5.425 4.192-8.343 10.48-8.343 6.329 0 10.316 3 10.11 7.357l-6.781 1.397c-.041-1.11-.288-3.041-3.493-3.041-2.219 0-3.329.904-3.329 2.137 0 4.48 13.933 2.137 13.933 11.96 0 4.932-3.493 8.508-10.439 8.508-7.398 0-11.467-4.028-11.22-8.097zM126.71 39.835l-.22.592-.199.534-.152.41-.08.22a.207.207 0 01-.196.135.212.212 0 01-.196-.135l-1.021-2.781-1.025 2.781c-.016.041-.041.073-.075.098s-.073.037-.117.037a.2.2 0 01-.119-.037.212.212 0 01-.077-.098l-.082-.22-.152-.41-.197-.534-.22-.592-.213-.578-.187-.51-.131-.375-.049-.166c0-.056.02-.105.061-.145s.089-.061.145-.061a.2.2 0 01.119.037.212.212 0 01.077.098l1.025 2.781 1.021-2.781a.207.207 0 01.196-.135c.043 0 .083.012.117.037s.059.058.075.098l1.025 2.781 1.021-2.781a.207.207 0 01.196-.135c.056 0 .105.02.145.061s.061.089.061.145c0 .012-.016.068-.049.166l-.131.375-.185.51-.211.578zm5.488 1.892c-.059 0-.109-.02-.15-.061s-.061-.089-.061-.145v-3.282c0-.056.02-.105.061-.145s.091-.061.15-.061a.19.19 0 01.145.061c.04.041.061.089.061.145v3.282c0 .056-.02.105-.061.145s-.089.061-.145.061zm7.192-3.282h-.759v3.076c0 .056-.02.105-.061.145s-.089.061-.145.061a.208.208 0 01-.211-.206v-3.076h-.759c-.056 0-.105-.02-.145-.059s-.061-.088-.061-.147a.19.19 0 01.061-.145.201.201 0 01.145-.061h1.934c.056 0 .105.02.145.061s.061.089.061.145-.02.108-.061.147-.089.059-.145.059zm7.515 3.282c-.056 0-.105-.02-.145-.061s-.061-.089-.061-.145v-1.587h-1.84v1.587c0 .056-.02.105-.061.145s-.089.061-.145.061a.208.208 0 01-.211-.206v-3.282c0-.056.02-.105.061-.145s.091-.061.15-.061a.19.19 0 01.145.061c.04.041.061.089.061.145v1.278h1.84v-1.278c0-.056.02-.105.061-.145s.089-.061.145-.061.109.02.15.061.061.089.061.145v3.282c0 .056-.02.105-.061.145s-.091.061-.15.061zm7.164 0a1.8 1.8 0 01-.721-.145 1.87 1.87 0 01-.984-.984 1.8 1.8 0 01-.145-.721 1.79 1.79 0 01.145-.716 1.87 1.87 0 01.984-.984 1.8 1.8 0 01.721-.145 1.79 1.79 0 01.716.145 1.87 1.87 0 01.984.984 1.79 1.79 0 01.145.716c0 .252-.048.496-.145.721a1.87 1.87 0 01-.984.984 1.79 1.79 0 01-.716.145zm0-3.282a1.4 1.4 0 00-.557.112 1.47 1.47 0 00-.459.307 1.42 1.42 0 00-.309.457 1.4 1.4 0 00-.112.557 1.4 1.4 0 00.112.557 1.45 1.45 0 00.768.768 1.4 1.4 0 00.557.112 1.4 1.4 0 00.557-.112 1.42 1.42 0 00.457-.309 1.47 1.47 0 00.307-.459 1.4 1.4 0 00.112-.557 1.4 1.4 0 00-.112-.557 1.44 1.44 0 00-.763-.763 1.4 1.4 0 00-.557-.112zm8.377 3.282c-.197 0-.381-.037-.553-.112a1.48 1.48 0 01-.452-.304 1.42 1.42 0 01-.307-.452 1.38 1.38 0 01-.112-.555v-2.065c0-.056.02-.105.061-.145s.091-.061.15-.061a.19.19 0 01.145.061c.04.041.061.089.061.145v2.065c0 .14.027.272.08.393a1.03 1.03 0 00.215.318 1.01 1.01 0 00.321.215.98.98 0 00.391.08c.14 0 .272-.027.393-.08a1.07 1.07 0 00.321-.215.987.987 0 00.218-.321.98.98 0 00.08-.391v-2.065c0-.056.02-.105.061-.145s.089-.061.145-.061.109.02.15.061.061.089.061.145v2.065a1.38 1.38 0 01-.112.555 1.42 1.42 0 01-.307.452 1.47 1.47 0 01-.454.304 1.38 1.38 0 01-.555.112zm8.414-3.282h-.759v3.076c0 .056-.02.105-.061.145s-.089.061-.145.061a.208.208 0 01-.211-.206v-3.076h-.759c-.056 0-.105-.02-.145-.059s-.061-.088-.061-.147a.19.19 0 01.061-.145.201.201 0 01.145-.061h1.934c.056 0 .105.02.145.061s.061.089.061.145-.02.108-.061.147-.089.059-.145.059zm14.216 2.734c-.178.178-.38.314-.606.407a1.86 1.86 0 01-.719.14 1.81 1.81 0 01-.728-.147 1.9 1.9 0 01-.993-.993 1.81 1.81 0 01-.147-.728c0-.259.049-.499.147-.721a1.82 1.82 0 01.403-.578 1.89 1.89 0 01.595-.386c.226-.094.467-.14.723-.14a1.86 1.86 0 011.325.547c.041.041.061.089.061.145s-.02.105-.061.145-.094.066-.15.066a.19.19 0 01-.145-.066 1.5 1.5 0 00-.473-.316 1.434 1.434 0 00-.557-.11 1.48 1.48 0 00-.564.108 1.44 1.44 0 00-.461.297 1.39 1.39 0 00-.311.45 1.37 1.37 0 00-.115.56 1.39 1.39 0 00.115.564c.077.176.18.33.311.461a1.47 1.47 0 00.461.311 1.41 1.41 0 00.564.115 1.46 1.46 0 00.52-.094c.165-.062.315-.153.45-.272v-.88h-.946c-.059 0-.109-.02-.15-.061s-.061-.089-.061-.145.02-.109.061-.15.091-.061.15-.061h1.152c.059 0 .109.02.15.061s.061.091.061.15v1.175c0 .056-.02.105-.061.145zm6.724.548h-1.25c-.056 0-.105-.02-.145-.061s-.061-.089-.061-.145v-3.282c0-.059.02-.108.061-.147s.089-.059.145-.059a.2.2 0 01.206.206v3.076h1.044c.059 0 .109.02.15.061s.061.089.061.145-.02.105-.061.145-.091.061-.15.061zm7.805-.019a.181.181 0 01-.08.019.216.216 0 01-.115-.033.18.18 0 01-.077-.094l-.37-.871h-1.7l-.37.871a.196.196 0 01-.112.112.19.19 0 01-.159-.005.196.196 0 01-.112-.112.19.19 0 01.005-.159l.421-.997.988-2.313a.19.19 0 01.075-.094.21.21 0 01.117-.033c.044 0 .078.011.112.033a.19.19 0 01.075.094l.707 1.655.707 1.655a.2.2 0 010 .159.196.196 0 01-.112.112zm-1.489-2.969l-.674 1.573h1.344zm7.445 2.987a.99.99 0 01-.403-.082 1.06 1.06 0 01-.55-.55.99.99 0 01-.082-.403c0-.059.02-.109.061-.15s.091-.061.15-.061a.19.19 0 01.145.061c.04.041.061.091.061.15a.59.59 0 00.049.239.65.65 0 00.133.197.607.607 0 00.197.133.59.59 0 00.239.049.6.6 0 00.241-.049.63.63 0 00.199-.133.623.623 0 00.133-.197.59.59 0 00.049-.239.482.482 0 00-.061-.255.58.58 0 00-.169-.176.7.7 0 00-.117-.068l-.136-.063-.145-.056-.155-.056-.311-.126a1.17 1.17 0 01-.281-.176c-.083-.07-.151-.158-.204-.262s-.08-.233-.08-.386a.99.99 0 01.082-.403 1.06 1.06 0 01.55-.55.99.99 0 01.403-.082 1.01 1.01 0 01.405.082 1.05 1.05 0 01.33.222 1.06 1.06 0 01.222.328.99.99 0 01.082.403c0 .056-.02.105-.061.145s-.091.061-.15.061a.19.19 0 01-.145-.061.201.201 0 01-.061-.145.6.6 0 00-.049-.241.63.63 0 00-.332-.332.6.6 0 00-.241-.049.59.59 0 00-.239.049.65.65 0 00-.197.133.63.63 0 00-.133.199.6.6 0 00-.049.241c0 .094.02.172.059.234a.54.54 0 00.166.164 1.59 1.59 0 00.253.126l.15.056.155.056.311.129c.105.048.198.109.281.183s.151.165.204.274.08.243.08.403a.99.99 0 01-.082.403 1.06 1.06 0 01-.222.328 1.05 1.05 0 01-.33.222 1.01 1.01 0 01-.405.082zm7.075 0a.99.99 0 01-.403-.082 1.06 1.06 0 01-.55-.55.99.99 0 01-.082-.403c0-.059.02-.109.061-.15s.091-.061.15-.061a.19.19 0 01.145.061c.04.041.061.091.061.15a.59.59 0 00.049.239.65.65 0 00.133.197.607.607 0 00.197.133.59.59 0 00.239.049.6.6 0 00.241-.049.63.63 0 00.199-.133.623.623 0 00.133-.197.59.59 0 00.049-.239.482.482 0 00-.061-.255.58.58 0 00-.169-.176.7.7 0 00-.117-.068l-.136-.063-.145-.056-.155-.056-.311-.126a1.17 1.17 0 01-.281-.176c-.083-.07-.151-.158-.204-.262s-.08-.233-.08-.386a.99.99 0 01.082-.403 1.06 1.06 0 01.55-.55.99.99 0 01.403-.082 1.01 1.01 0 01.405.082 1.05 1.05 0 01.33.222 1.06 1.06 0 01.222.328.99.99 0 01.082.403c0 .056-.02.105-.061.145s-.091.061-.15.061a.19.19 0 01-.145-.061.201.201 0 01-.061-.145.6.6 0 00-.049-.241.63.63 0 00-.332-.332.6.6 0 00-.241-.049.59.59 0 00-.239.049.65.65 0 00-.197.133.63.63 0 00-.133.199.6.6 0 00-.049.241c0 .094.02.172.059.234a.54.54 0 00.166.164 1.59 1.59 0 00.253.126l.15.056.155.056.311.129c.105.048.198.109.281.183s.151.165.204.274.08.243.08.403a.99.99 0 01-.082.403 1.06 1.06 0 01-.222.328 1.05 1.05 0 01-.33.222 1.01 1.01 0 01-.405.082zm7.965 0h-1.611c-.059 0-.109-.02-.15-.061s-.061-.089-.061-.145v-3.282c0-.056.02-.105.061-.145s.091-.061.15-.061h1.611c.059 0 .109.02.15.061s.061.089.061.145-.02.108-.061.147a.21.21 0 01-.15.059h-1.405v1.194h1.185c.056 0 .105.02.145.059s.061.088.061.147a.19.19 0 01-.061.145.201.201 0 01-.145.061h-1.185v1.26h1.405c.059 0 .109.02.15.061s.061.091.061.15a.19.19 0 01-.061.145.208.208 0 01-.15.061zm6.078 0a.99.99 0 01-.403-.082 1.06 1.06 0 01-.55-.55.99.99 0 01-.082-.403c0-.059.02-.109.061-.15s.091-.061.15-.061a.19.19 0 01.145.061c.04.041.061.091.061.15a.59.59 0 00.049.239.65.65 0 00.133.197.607.607 0 00.197.133.59.59 0 00.239.049.6.6 0 00.241-.049.63.63 0 00.199-.133.623.623 0 00.133-.197.59.59 0 00.049-.239.482.482 0 00-.061-.255.58.58 0 00-.169-.176.7.7 0 00-.117-.068l-.136-.063-.145-.056-.155-.056-.311-.126a1.17 1.17 0 01-.281-.176c-.083-.07-.151-.158-.204-.262s-.08-.233-.08-.386a.99.99 0 01.082-.403 1.06 1.06 0 01.55-.55.99.99 0 01.403-.082 1.01 1.01 0 01.405.082 1.05 1.05 0 01.33.222 1.06 1.06 0 01.222.328.99.99 0 01.082.403c0 .056-.02.105-.061.145s-.091.061-.15.061a.19.19 0 01-.145-.061.201.201 0 01-.061-.145.6.6 0 00-.049-.241.63.63 0 00-.332-.332.6.6 0 00-.241-.049.59.59 0 00-.239.049.65.65 0 00-.197.133.63.63 0 00-.133.199.6.6 0 00-.049.241c0 .094.02.172.059.234a.54.54 0 00.166.164 1.59 1.59 0 00.253.126l.15.056.155.056.311.129c.105.048.198.109.281.183s.151.165.204.274.08.243.08.403a.99.99 0 01-.082.403 1.06 1.06 0 01-.222.328 1.05 1.05 0 01-.33.222 1.01 1.01 0 01-.405.082z" id="path2" fill="#000"/></svg>