<svg xmlns="http://www.w3.org/2000/svg" width="369" height="105"><path d="M0 100h369v5H0z" fill="#eee"/><g transform="translate(-1.017 19.428) scale(.24759)" fill="none" stroke="#ff5722" stroke-linejoin="round"><circle cx="507.454" cy="50.39" r="1.52"/><circle cx="502.28" cy="45.216" r="1.52"/><circle cx="497.107" cy="45.216" r="1.52"/><circle cx="497.107" cy="50.39" r="1.52"/><circle cx="491.933" cy="45.216" r="1.52"/><circle cx="491.933" cy="50.39" r="1.52"/><circle cx="491.933" cy="55.563" r="1.52"/><circle cx="491.933" cy="179.726" r="1.52"/><circle cx="491.933" cy="241.808" r="1.52"/><circle cx="491.933" cy="246.981" r="1.52"/><circle cx="486.76" cy="40.043" r="1.52"/><circle cx="486.76" cy="45.216" r="1.52"/><circle cx="486.76" cy="50.39" r="1.52"/><circle cx="486.76" cy="55.563" r="1.52"/><circle cx="486.76" cy="60.737" r="1.52"/><circle cx="486.76" cy="252.154" r="1.52"/><circle cx="481.586" cy="45.216" r="1.52"/><circle cx="481.586" cy="50.39" r="1.52"/><circle cx="481.586" cy="55.563" r="1.52"/><circle cx="481.586" cy="60.737" r="1.52"/><circle cx="481.586" cy="257.328" r="1.52"/><circle cx="476.413" cy="45.216" r="1.52"/><circle cx="476.413" cy="50.39" r="1.52"/><circle cx="476.413" cy="55.563" r="1.52"/><circle cx="476.413" cy="60.737" r="1.52"/><circle cx="476.413" cy="210.767" r="1.52"/><circle cx="471.239" cy="45.216" r="1.52"/><circle cx="471.239" cy="50.39" r="1.52"/><circle cx="471.239" cy="55.563" r="1.52"/><circle cx="471.239" cy="60.737" r="1.52"/><circle cx="471.239" cy="65.91" r="1.52"/><circle cx="471.239" cy="71.083" r="1.52"/><circle cx="466.066" cy="40.043" r="1.52"/><circle cx="466.066" cy="45.216" r="1.52"/><circle cx="466.066" cy="50.39" r="1.52"/><circle cx="466.066" cy="55.563" r="1.52"/><circle cx="466.066" cy="71.083" r="1.52"/><circle cx="466.066" cy="76.257" r="1.52"/><circle cx="460.892" cy="40.043" r="1.52"/><circle cx="460.892" cy="45.216" r="1.52"/><circle cx="460.892" cy="50.39" r="1.52"/><circle cx="460.892" cy="55.563" r="1.52"/><circle cx="460.892" cy="60.737" r="1.52"/><circle cx="455.719" cy="40.043" r="1.52"/><circle cx="455.719" cy="45.216" r="1.52"/><circle cx="455.719" cy="50.39" r="1.52"/><circle cx="455.719" cy="55.563" r="1.52"/><circle cx="455.719" cy="60.737" r="1.52"/><circle cx="455.719" cy="184.899" r="1.52"/><circle cx="455.719" cy="215.94" r="1.52"/><circle cx="455.719" cy="221.114" r="1.52"/><circle cx="455.719" cy="226.287" r="1.52"/><circle cx="455.719" cy="231.461" r="1.52"/><circle cx="450.545" cy="40.043" r="1.52"/><circle cx="450.545" cy="45.216" r="1.52"/><circle cx="450.545" cy="50.39" r="1.52"/><circle cx="450.545" cy="55.563" r="1.52"/><circle cx="450.545" cy="60.737" r="1.52"/><circle cx="450.545" cy="184.899" r="1.52"/><circle cx="450.545" cy="210.767" r="1.52"/><circle cx="450.545" cy="215.94" r="1.52"/><circle cx="450.545" cy="221.114" r="1.52"/><circle cx="450.545" cy="226.287" r="1.52"/><circle cx="450.545" cy="231.461" r="1.52"/><circle cx="450.545" cy="236.634" r="1.52"/><circle cx="450.545" cy="241.808" r="1.52"/><circle cx="445.372" cy="34.869" r="1.52"/><circle cx="445.372" cy="40.043" r="1.52"/><circle cx="445.372" cy="45.216" r="1.52"/><circle cx="445.372" cy="50.39" r="1.52"/><circle cx="445.372" cy="55.563" r="1.52"/><circle cx="445.372" cy="60.737" r="1.52"/><circle cx="445.372" cy="76.257" r="1.52"/><circle cx="445.372" cy="81.431" r="1.52"/><circle cx="445.372" cy="91.777" r="1.52"/><circle cx="445.372" cy="96.951" r="1.52"/><circle cx="445.372" cy="184.899" r="1.52"/><circle cx="445.372" cy="195.247" r="1.52"/><circle cx="445.372" cy="200.42" r="1.52"/><circle cx="445.372" cy="205.593" r="1.52"/><circle cx="445.372" cy="210.767" r="1.52"/><circle cx="445.372" cy="215.94" r="1.52"/><circle cx="445.372" cy="221.114" r="1.52"/><circle cx="445.372" cy="226.287" r="1.52"/><circle cx="445.372" cy="231.461" r="1.52"/><circle cx="445.372" cy="236.634" r="1.52"/><circle cx="445.372" cy="241.808" r="1.52"/><circle cx="440.199" cy="24.522" r="1.52"/><circle cx="440.199" cy="40.043" r="1.52"/><circle cx="440.199" cy="45.216" r="1.52"/><circle cx="440.199" cy="50.39" r="1.52"/><circle cx="440.199" cy="55.563" r="1.52"/><circle cx="440.199" cy="60.737" r="1.52"/><circle cx="440.199" cy="65.91" r="1.52"/><circle cx="440.199" cy="76.257" r="1.52"/><circle cx="440.199" cy="81.431" r="1.52"/><circle cx="440.199" cy="86.604" r="1.52"/><circle cx="440.199" cy="107.298" r="1.52"/><circle cx="440.199" cy="112.471" r="1.52"/><circle cx="440.199" cy="179.726" r="1.52"/><circle cx="440.199" cy="184.899" r="1.52"/><circle cx="440.199" cy="205.593" r="1.52"/><circle cx="440.199" cy="210.767" r="1.52"/><circle cx="440.199" cy="215.94" r="1.52"/><circle cx="440.199" cy="221.114" r="1.52"/><circle cx="440.199" cy="226.287" r="1.52"/><circle cx="440.199" cy="231.461" r="1.52"/><circle cx="440.199" cy="236.634" r="1.52"/><circle cx="435.025" cy="24.522" r="1.52"/><circle cx="435.025" cy="40.043" r="1.52"/><circle cx="435.025" cy="45.216" r="1.52"/><circle cx="435.025" cy="50.39" r="1.52"/><circle cx="435.025" cy="55.563" r="1.52"/><circle cx="435.025" cy="60.737" r="1.52"/><circle cx="435.025" cy="65.91" r="1.52"/><circle cx="435.025" cy="71.083" r="1.52"/><circle cx="435.025" cy="76.257" r="1.52"/><circle cx="435.025" cy="81.431" r="1.52"/><circle cx="435.025" cy="86.604" r="1.52"/><circle cx="435.025" cy="91.777" r="1.52"/><circle cx="435.025" cy="112.471" r="1.52"/><circle cx="435.025" cy="195.247" r="1.52"/><circle cx="435.025" cy="205.593" r="1.52"/><circle cx="435.025" cy="210.767" r="1.52"/><circle cx="435.025" cy="215.94" r="1.52"/><circle cx="435.025" cy="221.114" r="1.52"/><circle cx="435.025" cy="226.287" r="1.52"/><circle cx="435.025" cy="231.461" r="1.52"/><circle cx="429.852" cy="40.043" r="1.52"/><circle cx="429.852" cy="45.216" r="1.52"/><circle cx="429.852" cy="50.39" r="1.52"/><circle cx="429.852" cy="55.563" r="1.52"/><circle cx="429.852" cy="60.737" r="1.52"/><circle cx="429.852" cy="65.91" r="1.52"/><circle cx="429.852" cy="71.083" r="1.52"/><circle cx="429.852" cy="76.257" r="1.52"/><circle cx="429.852" cy="81.431" r="1.52"/><circle cx="429.852" cy="86.604" r="1.52"/><circle cx="429.852" cy="91.777" r="1.52"/><circle cx="429.852" cy="96.951" r="1.52"/><circle cx="429.852" cy="117.645" r="1.52"/><circle cx="429.852" cy="195.247" r="1.52"/><circle cx="429.852" cy="200.42" r="1.52"/><circle cx="429.852" cy="205.593" r="1.52"/><circle cx="429.852" cy="210.767" r="1.52"/><circle cx="429.852" cy="215.94" r="1.52"/><circle cx="429.852" cy="221.114" r="1.52"/><circle cx="429.852" cy="226.287" r="1.52"/><circle cx="424.678" cy="40.043" r="1.52"/><circle cx="424.678" cy="45.216" r="1.52"/><circle cx="424.678" cy="50.39" r="1.52"/><circle cx="424.678" cy="55.563" r="1.52"/><circle cx="424.678" cy="60.737" r="1.52"/><circle cx="424.678" cy="65.91" r="1.52"/><circle cx="424.678" cy="71.083" r="1.52"/><circle cx="424.678" cy="76.257" r="1.52"/><circle cx="424.678" cy="81.431" r="1.52"/><circle cx="424.678" cy="86.604" r="1.52"/><circle cx="424.678" cy="91.777" r="1.52"/><circle cx="424.678" cy="96.951" r="1.52"/><circle cx="424.678" cy="102.124" r="1.52"/><circle cx="424.678" cy="112.471" r="1.52"/><circle cx="424.678" cy="179.726" r="1.52"/><circle cx="424.678" cy="205.593" r="1.52"/><circle cx="424.678" cy="210.767" r="1.52"/><circle cx="424.678" cy="215.94" r="1.52"/><circle cx="424.678" cy="221.114" r="1.52"/><circle cx="424.678" cy="226.287" r="1.52"/><circle cx="419.505" cy="34.869" r="1.52"/><circle cx="419.505" cy="40.043" r="1.52"/><circle cx="419.505" cy="45.216" r="1.52"/><circle cx="419.505" cy="50.39" r="1.52"/><circle cx="419.505" cy="55.563" r="1.52"/><circle cx="419.505" cy="60.737" r="1.52"/><circle cx="419.505" cy="65.91" r="1.52"/><circle cx="419.505" cy="71.083" r="1.52"/><circle cx="419.505" cy="76.257" r="1.52"/><circle cx="419.505" cy="81.431" r="1.52"/><circle cx="419.505" cy="86.604" r="1.52"/><circle cx="419.505" cy="91.777" r="1.52"/><circle cx="419.505" cy="96.951" r="1.52"/><circle cx="419.505" cy="102.124" r="1.52"/><circle cx="419.505" cy="164.206" r="1.52"/><circle cx="419.505" cy="190.073" r="1.52"/><circle cx="419.505" cy="205.593" r="1.52"/><circle cx="419.505" cy="210.767" r="1.52"/><circle cx="419.505" cy="215.94" r="1.52"/><circle cx="419.505" cy="221.114" r="1.52"/><circle cx="419.505" cy="226.287" r="1.52"/><circle cx="414.331" cy="34.869" r="1.52"/><circle cx="414.331" cy="40.043" r="1.52"/><circle cx="414.331" cy="45.216" r="1.52"/><circle cx="414.331" cy="50.39" r="1.52"/><circle cx="414.331" cy="55.563" r="1.52"/><circle cx="414.331" cy="60.737" r="1.52"/><circle cx="414.331" cy="65.91" r="1.52"/><circle cx="414.331" cy="71.083" r="1.52"/><circle cx="414.331" cy="76.257" r="1.52"/><circle cx="414.331" cy="81.431" r="1.52"/><circle cx="414.331" cy="86.604" r="1.52"/><circle cx="414.331" cy="91.777" r="1.52"/><circle cx="414.331" cy="96.951" r="1.52"/><circle cx="414.331" cy="102.124" r="1.52"/><circle cx="414.331" cy="133.165" r="1.52"/><circle cx="414.331" cy="143.512" r="1.52"/><circle cx="414.331" cy="148.686" r="1.52"/><circle cx="414.331" cy="179.726" r="1.52"/><circle cx="414.331" cy="190.073" r="1.52"/><circle cx="414.331" cy="210.767" r="1.52"/><circle cx="414.331" cy="215.94" r="1.52"/><circle cx="414.331" cy="221.114" r="1.52"/><circle cx="414.331" cy="226.287" r="1.52"/><circle cx="414.331" cy="231.461" r="1.52"/><circle cx="409.158" cy="34.869" r="1.52"/><circle cx="409.158" cy="40.043" r="1.52"/><circle cx="409.158" cy="45.216" r="1.52"/><circle cx="409.158" cy="50.39" r="1.52"/><circle cx="409.158" cy="55.563" r="1.52"/><circle cx="409.158" cy="60.737" r="1.52"/><circle cx="409.158" cy="65.91" r="1.52"/><circle cx="409.158" cy="71.083" r="1.52"/><circle cx="409.158" cy="76.257" r="1.52"/><circle cx="409.158" cy="81.431" r="1.52"/><circle cx="409.158" cy="86.604" r="1.52"/><circle cx="409.158" cy="91.777" r="1.52"/><circle cx="409.158" cy="96.951" r="1.52"/><circle cx="409.158" cy="102.124" r="1.52"/><circle cx="409.158" cy="112.471" r="1.52"/><circle cx="409.158" cy="117.645" r="1.52"/><circle cx="409.158" cy="122.818" r="1.52"/><circle cx="409.158" cy="127.992" r="1.52"/><circle cx="409.158" cy="159.032" r="1.52"/><circle cx="409.158" cy="190.073" r="1.52"/><circle cx="409.158" cy="210.767" r="1.52"/><circle cx="409.158" cy="215.94" r="1.52"/><circle cx="409.158" cy="221.114" r="1.52"/><circle cx="409.158" cy="226.287" r="1.52"/><circle cx="409.158" cy="231.461" r="1.52"/><circle cx="403.984" cy="34.869" r="1.52"/><circle cx="403.984" cy="40.043" r="1.52"/><circle cx="403.984" cy="45.216" r="1.52"/><circle cx="403.984" cy="50.39" r="1.52"/><circle cx="403.984" cy="55.563" r="1.52"/><circle cx="403.984" cy="60.737" r="1.52"/><circle cx="403.984" cy="65.91" r="1.52"/><circle cx="403.984" cy="71.083" r="1.52"/><circle cx="403.984" cy="76.257" r="1.52"/><circle cx="403.984" cy="81.431" r="1.52"/><circle cx="403.984" cy="86.604" r="1.52"/><circle cx="403.984" cy="91.777" r="1.52"/><circle cx="403.984" cy="96.951" r="1.52"/><circle cx="403.984" cy="102.124" r="1.52"/><circle cx="403.984" cy="107.298" r="1.52"/><circle cx="403.984" cy="112.471" r="1.52"/><circle cx="403.984" cy="117.645" r="1.52"/><circle cx="403.984" cy="122.818" r="1.52"/><circle cx="403.984" cy="127.992" r="1.52"/><circle cx="403.984" cy="133.165" r="1.52"/><circle cx="403.984" cy="169.379" r="1.52"/><circle cx="403.984" cy="174.553" r="1.52"/><circle cx="403.984" cy="179.726" r="1.52"/><circle cx="403.984" cy="215.94" r="1.52"/><circle cx="403.984" cy="221.114" r="1.52"/><circle cx="398.811" cy="24.522" r="1.52"/><circle cx="398.811" cy="29.696" r="1.52"/><circle cx="398.811" cy="34.869" r="1.52"/><circle cx="398.811" cy="40.043" r="1.52"/><circle cx="398.811" cy="45.216" r="1.52"/><circle cx="398.811" cy="50.39" r="1.52"/><circle cx="398.811" cy="55.563" r="1.52"/><circle cx="398.811" cy="60.737" r="1.52"/><circle cx="398.811" cy="65.91" r="1.52"/><circle cx="398.811" cy="71.083" r="1.52"/><circle cx="398.811" cy="76.257" r="1.52"/><circle cx="398.811" cy="81.431" r="1.52"/><circle cx="398.811" cy="86.604" r="1.52"/><circle cx="398.811" cy="91.777" r="1.52"/><circle cx="398.811" cy="96.951" r="1.52"/><circle cx="398.811" cy="102.124" r="1.52"/><circle cx="398.811" cy="107.298" r="1.52"/><circle cx="398.811" cy="112.471" r="1.52"/><circle cx="398.811" cy="117.645" r="1.52"/><circle cx="398.811" cy="122.818" r="1.52"/><circle cx="398.811" cy="127.992" r="1.52"/><circle cx="398.811" cy="133.165" r="1.52"/><circle cx="398.811" cy="174.553" r="1.52"/><circle cx="393.637" cy="24.522" r="1.52"/><circle cx="393.637" cy="29.696" r="1.52"/><circle cx="393.637" cy="34.869" r="1.52"/><circle cx="393.637" cy="40.043" r="1.52"/><circle cx="393.637" cy="45.216" r="1.52"/><circle cx="393.637" cy="50.39" r="1.52"/><circle cx="393.637" cy="55.563" r="1.52"/><circle cx="393.637" cy="60.737" r="1.52"/><circle cx="393.637" cy="65.91" r="1.52"/><circle cx="393.637" cy="71.083" r="1.52"/><circle cx="393.637" cy="76.257" r="1.52"/><circle cx="393.637" cy="81.431" r="1.52"/><circle cx="393.637" cy="86.604" r="1.52"/><circle cx="393.637" cy="91.777" r="1.52"/><circle cx="393.637" cy="96.951" r="1.52"/><circle cx="393.637" cy="102.124" r="1.52"/><circle cx="393.637" cy="107.298" r="1.52"/><circle cx="393.637" cy="112.471" r="1.52"/><circle cx="393.637" cy="117.645" r="1.52"/><circle cx="393.637" cy="122.818" r="1.52"/><circle cx="393.637" cy="127.992" r="1.52"/><circle cx="393.637" cy="133.165" r="1.52"/><circle cx="393.637" cy="138.338" r="1.52"/><circle cx="393.637" cy="148.686" r="1.52"/><circle cx="393.637" cy="153.859" r="1.52"/><circle cx="388.464" cy="24.522" r="1.52"/><circle cx="388.464" cy="29.696" r="1.52"/><circle cx="388.464" cy="34.869" r="1.52"/><circle cx="388.464" cy="40.043" r="1.52"/><circle cx="388.464" cy="45.216" r="1.52"/><circle cx="388.464" cy="50.39" r="1.52"/><circle cx="388.464" cy="55.563" r="1.52"/><circle cx="388.464" cy="60.737" r="1.52"/><circle cx="388.464" cy="65.91" r="1.52"/><circle cx="388.464" cy="71.083" r="1.52"/><circle cx="388.464" cy="76.257" r="1.52"/><circle cx="388.464" cy="81.431" r="1.52"/><circle cx="388.464" cy="86.604" r="1.52"/><circle cx="388.464" cy="91.777" r="1.52"/><circle cx="388.464" cy="96.951" r="1.52"/><circle cx="388.464" cy="102.124" r="1.52"/><circle cx="388.464" cy="107.298" r="1.52"/><circle cx="388.464" cy="112.471" r="1.52"/><circle cx="388.464" cy="117.645" r="1.52"/><circle cx="388.464" cy="122.818" r="1.52"/><circle cx="388.464" cy="127.992" r="1.52"/><circle cx="388.464" cy="133.165" r="1.52"/><circle cx="388.464" cy="138.338" r="1.52"/><circle cx="388.464" cy="143.512" r="1.52"/><circle cx="388.464" cy="148.686" r="1.52"/><circle cx="388.464" cy="153.859" r="1.52"/><circle cx="388.464" cy="179.726" r="1.52"/><circle cx="383.291" cy="24.522" r="1.52"/><circle cx="383.291" cy="29.696" r="1.52"/><circle cx="383.291" cy="34.869" r="1.52"/><circle cx="383.291" cy="40.043" r="1.52"/><circle cx="383.291" cy="45.216" r="1.52"/><circle cx="383.291" cy="50.39" r="1.52"/><circle cx="383.291" cy="55.563" r="1.52"/><circle cx="383.291" cy="60.737" r="1.52"/><circle cx="383.291" cy="65.91" r="1.52"/><circle cx="383.291" cy="71.083" r="1.52"/><circle cx="383.291" cy="76.257" r="1.52"/><circle cx="383.291" cy="81.431" r="1.52"/><circle cx="383.291" cy="86.604" r="1.52"/><circle cx="383.291" cy="91.777" r="1.52"/><circle cx="383.291" cy="96.951" r="1.52"/><circle cx="383.291" cy="102.124" r="1.52"/><circle cx="383.291" cy="107.298" r="1.52"/><circle cx="383.291" cy="112.471" r="1.52"/><circle cx="383.291" cy="117.645" r="1.52"/><circle cx="383.291" cy="122.818" r="1.52"/><circle cx="383.291" cy="127.992" r="1.52"/><circle cx="383.291" cy="133.165" r="1.52"/><circle cx="383.291" cy="138.338" r="1.52"/><circle cx="383.291" cy="143.512" r="1.52"/><circle cx="383.291" cy="148.686" r="1.52"/><circle cx="383.291" cy="153.859" r="1.52"/><circle cx="383.291" cy="174.553" r="1.52"/><circle cx="383.291" cy="179.726" r="1.52"/><circle cx="378.117" cy="9.002" r="1.52"/><circle cx="378.117" cy="14.175" r="1.52"/><circle cx="378.117" cy="29.696" r="1.52"/><circle cx="378.117" cy="34.869" r="1.52"/><circle cx="378.117" cy="40.043" r="1.52"/><circle cx="378.117" cy="45.216" r="1.52"/><circle cx="378.117" cy="50.39" r="1.52"/><circle cx="378.117" cy="55.563" r="1.52"/><circle cx="378.117" cy="60.737" r="1.52"/><circle cx="378.117" cy="65.91" r="1.52"/><circle cx="378.117" cy="71.083" r="1.52"/><circle cx="378.117" cy="76.257" r="1.52"/><circle cx="378.117" cy="81.431" r="1.52"/><circle cx="378.117" cy="86.604" r="1.52"/><circle cx="378.117" cy="91.777" r="1.52"/><circle cx="378.117" cy="96.951" r="1.52"/><circle cx="378.117" cy="102.124" r="1.52"/><circle cx="378.117" cy="107.298" r="1.52"/><circle cx="378.117" cy="112.471" r="1.52"/><circle cx="378.117" cy="117.645" r="1.52"/><circle cx="378.117" cy="122.818" r="1.52"/><circle cx="378.117" cy="127.992" r="1.52"/><circle cx="378.117" cy="133.165" r="1.52"/><circle cx="378.117" cy="138.338" r="1.52"/><circle cx="378.117" cy="143.512" r="1.52"/><circle cx="372.944" cy="29.696" r="1.52"/><circle cx="372.944" cy="34.869" r="1.52"/><circle cx="372.944" cy="40.043" r="1.52"/><circle cx="372.944" cy="45.216" r="1.52"/><circle cx="372.944" cy="50.39" r="1.52"/><circle cx="372.944" cy="55.563" r="1.52"/><circle cx="372.944" cy="60.737" r="1.52"/><circle cx="372.944" cy="65.91" r="1.52"/><circle cx="372.944" cy="71.083" r="1.52"/><circle cx="372.944" cy="76.257" r="1.52"/><circle cx="372.944" cy="81.431" r="1.52"/><circle cx="372.944" cy="86.604" r="1.52"/><circle cx="372.944" cy="91.777" r="1.52"/><circle cx="372.944" cy="96.951" r="1.52"/><circle cx="372.944" cy="102.124" r="1.52"/><circle cx="372.944" cy="107.298" r="1.52"/><circle cx="372.944" cy="112.471" r="1.52"/><circle cx="372.944" cy="117.645" r="1.52"/><circle cx="372.944" cy="122.818" r="1.52"/><circle cx="372.944" cy="127.992" r="1.52"/><circle cx="372.944" cy="133.165" r="1.52"/><circle cx="372.944" cy="138.338" r="1.52"/><circle cx="372.944" cy="153.859" r="1.52"/><circle cx="367.77" cy="29.696" r="1.52"/><circle cx="367.77" cy="34.869" r="1.52"/><circle cx="367.77" cy="40.043" r="1.52"/><circle cx="367.77" cy="45.216" r="1.52"/><circle cx="367.77" cy="50.39" r="1.52"/><circle cx="367.77" cy="55.563" r="1.52"/><circle cx="367.77" cy="60.737" r="1.52"/><circle cx="367.77" cy="65.91" r="1.52"/><circle cx="367.77" cy="71.083" r="1.52"/><circle cx="367.77" cy="76.257" r="1.52"/><circle cx="367.77" cy="81.431" r="1.52"/><circle cx="367.77" cy="86.604" r="1.52"/><circle cx="367.77" cy="91.777" r="1.52"/><circle cx="367.77" cy="96.951" r="1.52"/><circle cx="367.77" cy="102.124" r="1.52"/><circle cx="367.77" cy="107.298" r="1.52"/><circle cx="367.77" cy="112.471" r="1.52"/><circle cx="367.77" cy="117.645" r="1.52"/><circle cx="367.77" cy="122.818" r="1.52"/><circle cx="367.77" cy="127.992" r="1.52"/><circle cx="367.77" cy="133.165" r="1.52"/><circle cx="362.597" cy="34.869" r="1.52"/><circle cx="362.597" cy="40.043" r="1.52"/><circle cx="362.597" cy="45.216" r="1.52"/><circle cx="362.597" cy="50.39" r="1.52"/><circle cx="362.597" cy="55.563" r="1.52"/><circle cx="362.597" cy="60.737" r="1.52"/><circle cx="362.597" cy="65.91" r="1.52"/><circle cx="362.597" cy="71.083" r="1.52"/><circle cx="362.597" cy="76.257" r="1.52"/><circle cx="362.597" cy="81.431" r="1.52"/><circle cx="362.597" cy="86.604" r="1.52"/><circle cx="362.597" cy="91.777" r="1.52"/><circle cx="362.597" cy="96.951" r="1.52"/><circle cx="362.597" cy="102.124" r="1.52"/><circle cx="362.597" cy="107.298" r="1.52"/><circle cx="362.597" cy="112.471" r="1.52"/><circle cx="362.597" cy="117.645" r="1.52"/><circle cx="362.597" cy="122.818" r="1.52"/><circle cx="362.597" cy="127.992" r="1.52"/><circle cx="362.597" cy="133.165" r="1.52"/><circle cx="362.597" cy="138.338" r="1.52"/><circle cx="357.423" cy="40.043" r="1.52"/><circle cx="357.423" cy="45.216" r="1.52"/><circle cx="357.423" cy="50.39" r="1.52"/><circle cx="357.423" cy="55.563" r="1.52"/><circle cx="357.423" cy="60.737" r="1.52"/><circle cx="357.423" cy="65.91" r="1.52"/><circle cx="357.423" cy="71.083" r="1.52"/><circle cx="357.423" cy="76.257" r="1.52"/><circle cx="357.423" cy="81.431" r="1.52"/><circle cx="357.423" cy="86.604" r="1.52"/><circle cx="357.423" cy="91.777" r="1.52"/><circle cx="357.423" cy="96.951" r="1.52"/><circle cx="357.423" cy="102.124" r="1.52"/><circle cx="357.423" cy="107.298" r="1.52"/><circle cx="357.423" cy="112.471" r="1.52"/><circle cx="357.423" cy="117.645" r="1.52"/><circle cx="357.423" cy="122.818" r="1.52"/><circle cx="357.423" cy="127.992" r="1.52"/><circle cx="357.423" cy="133.165" r="1.52"/><circle cx="357.423" cy="138.338" r="1.52"/><circle cx="357.423" cy="143.512" r="1.52"/><circle cx="352.25" cy="34.869" r="1.52"/><circle cx="352.25" cy="40.043" r="1.52"/><circle cx="352.25" cy="50.39" r="1.52"/><circle cx="352.25" cy="55.563" r="1.52"/><circle cx="352.25" cy="60.737" r="1.52"/><circle cx="352.25" cy="65.91" r="1.52"/><circle cx="352.25" cy="71.083" r="1.52"/><circle cx="352.25" cy="76.257" r="1.52"/><circle cx="352.25" cy="81.431" r="1.52"/><circle cx="352.25" cy="86.604" r="1.52"/><circle cx="352.25" cy="91.777" r="1.52"/><circle cx="352.25" cy="96.951" r="1.52"/><circle cx="352.25" cy="102.124" r="1.52"/><circle cx="352.25" cy="107.298" r="1.52"/><circle cx="352.25" cy="112.471" r="1.52"/><circle cx="352.25" cy="117.645" r="1.52"/><circle cx="352.25" cy="122.818" r="1.52"/><circle cx="352.25" cy="127.992" r="1.52"/><circle cx="352.25" cy="133.165" r="1.52"/><circle cx="352.25" cy="138.338" r="1.52"/><circle cx="352.25" cy="143.512" r="1.52"/><circle cx="352.25" cy="148.686" r="1.52"/><circle cx="352.25" cy="153.859" r="1.52"/><circle cx="352.25" cy="159.032" r="1.52"/><circle cx="347.076" cy="34.869" r="1.52"/><circle cx="347.076" cy="40.043" r="1.52"/><circle cx="347.076" cy="45.216" r="1.52"/><circle cx="347.076" cy="50.39" r="1.52"/><circle cx="347.076" cy="55.563" r="1.52"/><circle cx="347.076" cy="60.737" r="1.52"/><circle cx="347.076" cy="65.91" r="1.52"/><circle cx="347.076" cy="71.083" r="1.52"/><circle cx="347.076" cy="76.257" r="1.52"/><circle cx="347.076" cy="81.431" r="1.52"/><circle cx="347.076" cy="86.604" r="1.52"/><circle cx="347.076" cy="91.777" r="1.52"/><circle cx="347.076" cy="96.951" r="1.52"/><circle cx="347.076" cy="102.124" r="1.52"/><circle cx="347.076" cy="107.298" r="1.52"/><circle cx="347.076" cy="112.471" r="1.52"/><circle cx="347.076" cy="117.645" r="1.52"/><circle cx="347.076" cy="122.818" r="1.52"/><circle cx="347.076" cy="127.992" r="1.52"/><circle cx="347.076" cy="133.165" r="1.52"/><circle cx="347.076" cy="138.338" r="1.52"/><circle cx="347.076" cy="143.512" r="1.52"/><circle cx="347.076" cy="148.686" r="1.52"/><circle cx="341.903" cy="29.696" r="1.52"/><circle cx="341.903" cy="34.869" r="1.52"/><circle cx="341.903" cy="40.043" r="1.52"/><circle cx="341.903" cy="45.216" r="1.52"/><circle cx="341.903" cy="50.39" r="1.52"/><circle cx="341.903" cy="55.563" r="1.52"/><circle cx="341.903" cy="60.737" r="1.52"/><circle cx="341.903" cy="65.91" r="1.52"/><circle cx="341.903" cy="71.083" r="1.52"/><circle cx="341.903" cy="76.257" r="1.52"/><circle cx="341.903" cy="81.431" r="1.52"/><circle cx="341.903" cy="86.604" r="1.52"/><circle cx="341.903" cy="91.777" r="1.52"/><circle cx="341.903" cy="96.951" r="1.52"/><circle cx="341.903" cy="102.124" r="1.52"/><circle cx="341.903" cy="107.298" r="1.52"/><circle cx="341.903" cy="112.471" r="1.52"/><circle cx="341.903" cy="117.645" r="1.52"/><circle cx="341.903" cy="122.818" r="1.52"/><circle cx="341.903" cy="127.992" r="1.52"/><circle cx="341.903" cy="133.165" r="1.52"/><circle cx="341.903" cy="138.338" r="1.52"/><circle cx="336.729" cy="45.216" r="1.52"/><circle cx="336.729" cy="50.39" r="1.52"/><circle cx="336.729" cy="55.563" r="1.52"/><circle cx="336.729" cy="60.737" r="1.52"/><circle cx="336.729" cy="65.91" r="1.52"/><circle cx="336.729" cy="71.083" r="1.52"/><circle cx="336.729" cy="76.257" r="1.52"/><circle cx="336.729" cy="81.431" r="1.52"/><circle cx="336.729" cy="86.604" r="1.52"/><circle cx="336.729" cy="91.777" r="1.52"/><circle cx="336.729" cy="96.951" r="1.52"/><circle cx="336.729" cy="102.124" r="1.52"/><circle cx="336.729" cy="107.298" r="1.52"/><circle cx="336.729" cy="112.471" r="1.52"/><circle cx="336.729" cy="117.645" r="1.52"/><circle cx="336.729" cy="122.818" r="1.52"/><circle cx="336.729" cy="127.992" r="1.52"/><circle cx="331.556" cy="24.522" r="1.52"/><circle cx="331.556" cy="45.216" r="1.52"/><circle cx="331.556" cy="50.39" r="1.52"/><circle cx="331.556" cy="55.563" r="1.52"/><circle cx="331.556" cy="60.737" r="1.52"/><circle cx="331.556" cy="65.91" r="1.52"/><circle cx="331.556" cy="71.083" r="1.52"/><circle cx="331.556" cy="76.257" r="1.52"/><circle cx="331.556" cy="81.431" r="1.52"/><circle cx="331.556" cy="86.604" r="1.52"/><circle cx="331.556" cy="91.777" r="1.52"/><circle cx="331.556" cy="96.951" r="1.52"/><circle cx="331.556" cy="102.124" r="1.52"/><circle cx="331.556" cy="107.298" r="1.52"/><circle cx="331.556" cy="112.471" r="1.52"/><circle cx="331.556" cy="117.645" r="1.52"/><circle cx="331.556" cy="122.818" r="1.52"/><circle cx="331.556" cy="127.992" r="1.52"/><circle cx="326.383" cy="40.043" r="1.52"/><circle cx="326.383" cy="45.216" r="1.52"/><circle cx="326.383" cy="50.39" r="1.52"/><circle cx="326.383" cy="55.563" r="1.52"/><circle cx="326.383" cy="60.737" r="1.52"/><circle cx="326.383" cy="65.91" r="1.52"/><circle cx="326.383" cy="71.083" r="1.52"/><circle cx="326.383" cy="76.257" r="1.52"/><circle cx="326.383" cy="81.431" r="1.52"/><circle cx="326.383" cy="86.604" r="1.52"/><circle cx="326.383" cy="91.777" r="1.52"/><circle cx="326.383" cy="96.951" r="1.52"/><circle cx="326.383" cy="102.124" r="1.52"/><circle cx="326.383" cy="107.298" r="1.52"/><circle cx="326.383" cy="112.471" r="1.52"/><circle cx="326.383" cy="117.645" r="1.52"/><circle cx="326.383" cy="122.818" r="1.52"/><circle cx="326.383" cy="127.992" r="1.52"/><circle cx="321.209" cy="29.696" r="1.52"/><circle cx="321.209" cy="45.216" r="1.52"/><circle cx="321.209" cy="50.39" r="1.52"/><circle cx="321.209" cy="55.563" r="1.52"/><circle cx="321.209" cy="60.737" r="1.52"/><circle cx="321.209" cy="65.91" r="1.52"/><circle cx="321.209" cy="71.083" r="1.52"/><circle cx="321.209" cy="76.257" r="1.52"/><circle cx="321.209" cy="81.431" r="1.52"/><circle cx="321.209" cy="86.604" r="1.52"/><circle cx="321.209" cy="91.777" r="1.52"/><circle cx="321.209" cy="96.951" r="1.52"/><circle cx="321.209" cy="102.124" r="1.52"/><circle cx="321.209" cy="107.298" r="1.52"/><circle cx="321.209" cy="112.471" r="1.52"/><circle cx="321.209" cy="117.645" r="1.52"/><circle cx="321.209" cy="122.818" r="1.52"/><circle cx="321.209" cy="127.992" r="1.52"/><circle cx="321.209" cy="133.165" r="1.52"/><circle cx="321.209" cy="138.338" r="1.52"/><circle cx="316.036" cy="34.869" r="1.52"/><circle cx="316.036" cy="45.216" r="1.52"/><circle cx="316.036" cy="50.39" r="1.52"/><circle cx="316.036" cy="55.563" r="1.52"/><circle cx="316.036" cy="60.737" r="1.52"/><circle cx="316.036" cy="65.91" r="1.52"/><circle cx="316.036" cy="71.083" r="1.52"/><circle cx="316.036" cy="76.257" r="1.52"/><circle cx="316.036" cy="81.431" r="1.52"/><circle cx="316.036" cy="86.604" r="1.52"/><circle cx="316.036" cy="91.777" r="1.52"/><circle cx="316.036" cy="96.951" r="1.52"/><circle cx="316.036" cy="102.124" r="1.52"/><circle cx="316.036" cy="107.298" r="1.52"/><circle cx="316.036" cy="112.471" r="1.52"/><circle cx="316.036" cy="117.645" r="1.52"/><circle cx="316.036" cy="122.818" r="1.52"/><circle cx="316.036" cy="138.338" r="1.52"/><circle cx="316.036" cy="143.512" r="1.52"/><circle cx="310.862" cy="45.216" r="1.52"/><circle cx="310.862" cy="50.39" r="1.52"/><circle cx="310.862" cy="55.563" r="1.52"/><circle cx="310.862" cy="60.737" r="1.52"/><circle cx="310.862" cy="65.91" r="1.52"/><circle cx="310.862" cy="71.083" r="1.52"/><circle cx="310.862" cy="76.257" r="1.52"/><circle cx="310.862" cy="81.431" r="1.52"/><circle cx="310.862" cy="86.604" r="1.52"/><circle cx="310.862" cy="91.777" r="1.52"/><circle cx="310.862" cy="96.951" r="1.52"/><circle cx="310.862" cy="102.124" r="1.52"/><circle cx="310.862" cy="107.298" r="1.52"/><circle cx="310.862" cy="112.471" r="1.52"/><circle cx="310.862" cy="117.645" r="1.52"/><circle cx="310.862" cy="127.992" r="1.52"/><circle cx="310.862" cy="133.165" r="1.52"/><circle cx="310.862" cy="138.338" r="1.52"/><circle cx="310.862" cy="143.512" r="1.52"/><circle cx="310.862" cy="148.686" r="1.52"/><circle cx="310.862" cy="159.032" r="1.52"/><circle cx="310.862" cy="200.42" r="1.52"/><circle cx="305.689" cy="45.216" r="1.52"/><circle cx="305.689" cy="50.39" r="1.52"/><circle cx="305.689" cy="55.563" r="1.52"/><circle cx="305.689" cy="60.737" r="1.52"/><circle cx="305.689" cy="65.91" r="1.52"/><circle cx="305.689" cy="71.083" r="1.52"/><circle cx="305.689" cy="76.257" r="1.52"/><circle cx="305.689" cy="81.431" r="1.52"/><circle cx="305.689" cy="86.604" r="1.52"/><circle cx="305.689" cy="91.777" r="1.52"/><circle cx="305.689" cy="96.951" r="1.52"/><circle cx="305.689" cy="102.124" r="1.52"/><circle cx="305.689" cy="107.298" r="1.52"/><circle cx="305.689" cy="112.471" r="1.52"/><circle cx="305.689" cy="117.645" r="1.52"/><circle cx="305.689" cy="122.818" r="1.52"/><circle cx="305.689" cy="127.992" r="1.52"/><circle cx="305.689" cy="133.165" r="1.52"/><circle cx="305.689" cy="138.338" r="1.52"/><circle cx="305.689" cy="143.512" r="1.52"/><circle cx="305.689" cy="148.686" r="1.52"/><circle cx="305.689" cy="159.032" r="1.52"/><circle cx="305.689" cy="164.206" r="1.52"/><circle cx="305.689" cy="169.379" r="1.52"/><circle cx="305.689" cy="205.593" r="1.52"/><circle cx="305.689" cy="210.767" r="1.52"/><circle cx="305.689" cy="215.94" r="1.52"/><circle cx="300.515" cy="50.39" r="1.52"/><circle cx="300.515" cy="55.563" r="1.52"/><circle cx="300.515" cy="60.737" r="1.52"/><circle cx="300.515" cy="65.91" r="1.52"/><circle cx="300.515" cy="71.083" r="1.52"/><circle cx="300.515" cy="76.257" r="1.52"/><circle cx="300.515" cy="81.431" r="1.52"/><circle cx="300.515" cy="86.604" r="1.52"/><circle cx="300.515" cy="91.777" r="1.52"/><circle cx="300.515" cy="96.951" r="1.52"/><circle cx="300.515" cy="102.124" r="1.52"/><circle cx="300.515" cy="107.298" r="1.52"/><circle cx="300.515" cy="112.471" r="1.52"/><circle cx="300.515" cy="117.645" r="1.52"/><circle cx="300.515" cy="122.818" r="1.52"/><circle cx="300.515" cy="127.992" r="1.52"/><circle cx="300.515" cy="133.165" r="1.52"/><circle cx="300.515" cy="138.338" r="1.52"/><circle cx="300.515" cy="143.512" r="1.52"/><circle cx="300.515" cy="153.859" r="1.52"/><circle cx="300.515" cy="159.032" r="1.52"/><circle cx="300.515" cy="164.206" r="1.52"/><circle cx="300.515" cy="169.379" r="1.52"/><circle cx="300.515" cy="174.553" r="1.52"/><circle cx="295.342" cy="45.216" r="1.52"/><circle cx="295.342" cy="55.563" r="1.52"/><circle cx="295.342" cy="60.737" r="1.52"/><circle cx="295.342" cy="65.91" r="1.52"/><circle cx="295.342" cy="71.083" r="1.52"/><circle cx="295.342" cy="76.257" r="1.52"/><circle cx="295.342" cy="81.431" r="1.52"/><circle cx="295.342" cy="86.604" r="1.52"/><circle cx="295.342" cy="107.298" r="1.52"/><circle cx="295.342" cy="112.471" r="1.52"/><circle cx="295.342" cy="117.645" r="1.52"/><circle cx="295.342" cy="122.818" r="1.52"/><circle cx="295.342" cy="127.992" r="1.52"/><circle cx="295.342" cy="133.165" r="1.52"/><circle cx="295.342" cy="148.686" r="1.52"/><circle cx="295.342" cy="153.859" r="1.52"/><circle cx="295.342" cy="159.032" r="1.52"/><circle cx="295.342" cy="164.206" r="1.52"/><circle cx="295.342" cy="169.379" r="1.52"/><circle cx="295.342" cy="174.553" r="1.52"/><circle cx="295.342" cy="179.726" r="1.52"/><circle cx="295.342" cy="184.899" r="1.52"/><circle cx="295.342" cy="190.073" r="1.52"/><circle cx="295.342" cy="195.247" r="1.52"/><circle cx="295.342" cy="200.42" r="1.52"/><circle cx="290.168" cy="45.216" r="1.52"/><circle cx="290.168" cy="55.563" r="1.52"/><circle cx="290.168" cy="60.737" r="1.52"/><circle cx="290.168" cy="65.91" r="1.52"/><circle cx="290.168" cy="71.083" r="1.52"/><circle cx="290.168" cy="76.257" r="1.52"/><circle cx="290.168" cy="81.431" r="1.52"/><circle cx="290.168" cy="86.604" r="1.52"/><circle cx="290.168" cy="91.777" r="1.52"/><circle cx="290.168" cy="102.124" r="1.52"/><circle cx="290.168" cy="107.298" r="1.52"/><circle cx="290.168" cy="122.818" r="1.52"/><circle cx="290.168" cy="133.165" r="1.52"/><circle cx="290.168" cy="138.338" r="1.52"/><circle cx="290.168" cy="143.512" r="1.52"/><circle cx="290.168" cy="148.686" r="1.52"/><circle cx="290.168" cy="153.859" r="1.52"/><circle cx="290.168" cy="159.032" r="1.52"/><circle cx="290.168" cy="164.206" r="1.52"/><circle cx="290.168" cy="169.379" r="1.52"/><circle cx="290.168" cy="174.553" r="1.52"/><circle cx="290.168" cy="179.726" r="1.52"/><circle cx="290.168" cy="184.899" r="1.52"/><circle cx="290.168" cy="190.073" r="1.52"/><circle cx="290.168" cy="195.247" r="1.52"/><circle cx="290.168" cy="200.42" r="1.52"/><circle cx="290.168" cy="205.593" r="1.52"/><circle cx="290.168" cy="215.94" r="1.52"/><circle cx="284.995" cy="45.216" r="1.52"/><circle cx="284.995" cy="50.39" r="1.52"/><circle cx="284.995" cy="55.563" r="1.52"/><circle cx="284.995" cy="60.737" r="1.52"/><circle cx="284.995" cy="65.91" r="1.52"/><circle cx="284.995" cy="71.083" r="1.52"/><circle cx="284.995" cy="76.257" r="1.52"/><circle cx="284.995" cy="81.431" r="1.52"/><circle cx="284.995" cy="86.604" r="1.52"/><circle cx="284.995" cy="91.777" r="1.52"/><circle cx="284.995" cy="102.124" r="1.52"/><circle cx="284.995" cy="107.298" r="1.52"/><circle cx="284.995" cy="122.818" r="1.52"/><circle cx="284.995" cy="127.992" r="1.52"/><circle cx="284.995" cy="133.165" r="1.52"/><circle cx="284.995" cy="138.338" r="1.52"/><circle cx="284.995" cy="143.512" r="1.52"/><circle cx="284.995" cy="148.686" r="1.52"/><circle cx="284.995" cy="153.859" r="1.52"/><circle cx="284.995" cy="159.032" r="1.52"/><circle cx="284.995" cy="164.206" r="1.52"/><circle cx="284.995" cy="169.379" r="1.52"/><circle cx="284.995" cy="174.553" r="1.52"/><circle cx="284.995" cy="179.726" r="1.52"/><circle cx="284.995" cy="184.899" r="1.52"/><circle cx="284.995" cy="190.073" r="1.52"/><circle cx="284.995" cy="195.247" r="1.52"/><circle cx="284.995" cy="200.42" r="1.52"/><circle cx="284.995" cy="205.593" r="1.52"/><circle cx="284.995" cy="210.767" r="1.52"/><circle cx="284.995" cy="215.94" r="1.52"/><circle cx="284.995" cy="221.114" r="1.52"/><circle cx="279.822" cy="40.043" r="1.52"/><circle cx="279.822" cy="45.216" r="1.52"/><circle cx="279.822" cy="50.39" r="1.52"/><circle cx="279.822" cy="55.563" r="1.52"/><circle cx="279.822" cy="60.737" r="1.52"/><circle cx="279.822" cy="65.91" r="1.52"/><circle cx="279.822" cy="71.083" r="1.52"/><circle cx="279.822" cy="76.257" r="1.52"/><circle cx="279.822" cy="81.431" r="1.52"/><circle cx="279.822" cy="86.604" r="1.52"/><circle cx="279.822" cy="91.777" r="1.52"/><circle cx="279.822" cy="96.951" r="1.52"/><circle cx="279.822" cy="102.124" r="1.52"/><circle cx="279.822" cy="107.298" r="1.52"/><circle cx="279.822" cy="122.818" r="1.52"/><circle cx="279.822" cy="127.992" r="1.52"/><circle cx="279.822" cy="133.165" r="1.52"/><circle cx="279.822" cy="138.338" r="1.52"/><circle cx="279.822" cy="143.512" r="1.52"/><circle cx="279.822" cy="148.686" r="1.52"/><circle cx="279.822" cy="153.859" r="1.52"/><circle cx="279.822" cy="159.032" r="1.52"/><circle cx="279.822" cy="164.206" r="1.52"/><circle cx="279.822" cy="169.379" r="1.52"/><circle cx="279.822" cy="174.553" r="1.52"/><circle cx="279.822" cy="179.726" r="1.52"/><circle cx="279.822" cy="184.899" r="1.52"/><circle cx="279.822" cy="190.073" r="1.52"/><circle cx="279.822" cy="195.247" r="1.52"/><circle cx="279.822" cy="200.42" r="1.52"/><circle cx="279.822" cy="205.593" r="1.52"/><circle cx="279.822" cy="210.767" r="1.52"/><circle cx="279.822" cy="215.94" r="1.52"/><circle cx="279.822" cy="221.114" r="1.52"/><circle cx="279.822" cy="226.287" r="1.52"/><circle cx="279.822" cy="231.461" r="1.52"/><circle cx="274.648" cy="14.175" r="1.52"/><circle cx="274.648" cy="19.349" r="1.52"/><circle cx="274.648" cy="40.043" r="1.52"/><circle cx="274.648" cy="45.216" r="1.52"/><circle cx="274.648" cy="55.563" r="1.52"/><circle cx="274.648" cy="60.737" r="1.52"/><circle cx="274.648" cy="65.91" r="1.52"/><circle cx="274.648" cy="71.083" r="1.52"/><circle cx="274.648" cy="76.257" r="1.52"/><circle cx="274.648" cy="81.431" r="1.52"/><circle cx="274.648" cy="86.604" r="1.52"/><circle cx="274.648" cy="91.777" r="1.52"/><circle cx="274.648" cy="96.951" r="1.52"/><circle cx="274.648" cy="102.124" r="1.52"/><circle cx="274.648" cy="107.298" r="1.52"/><circle cx="274.648" cy="122.818" r="1.52"/><circle cx="274.648" cy="127.992" r="1.52"/><circle cx="274.648" cy="133.165" r="1.52"/><circle cx="274.648" cy="138.338" r="1.52"/><circle cx="274.648" cy="143.512" r="1.52"/><circle cx="274.648" cy="148.686" r="1.52"/><circle cx="274.648" cy="153.859" r="1.52"/><circle cx="274.648" cy="159.032" r="1.52"/><circle cx="274.648" cy="164.206" r="1.52"/><circle cx="274.648" cy="169.379" r="1.52"/><circle cx="274.648" cy="174.553" r="1.52"/><circle cx="274.648" cy="179.726" r="1.52"/><circle cx="274.648" cy="184.899" r="1.52"/><circle cx="274.648" cy="190.073" r="1.52"/><circle cx="274.648" cy="195.247" r="1.52"/><circle cx="274.648" cy="200.42" r="1.52"/><circle cx="274.648" cy="205.593" r="1.52"/><circle cx="274.648" cy="210.767" r="1.52"/><circle cx="274.648" cy="215.94" r="1.52"/><circle cx="274.648" cy="221.114" r="1.52"/><circle cx="274.648" cy="226.287" r="1.52"/><circle cx="274.648" cy="231.461" r="1.52"/><circle cx="269.475" cy="45.216" r="1.52"/><circle cx="269.475" cy="50.39" r="1.52"/><circle cx="269.475" cy="76.257" r="1.52"/><circle cx="269.475" cy="81.431" r="1.52"/><circle cx="269.475" cy="86.604" r="1.52"/><circle cx="269.475" cy="91.777" r="1.52"/><circle cx="269.475" cy="96.951" r="1.52"/><circle cx="269.475" cy="102.124" r="1.52"/><circle cx="269.475" cy="122.818" r="1.52"/><circle cx="269.475" cy="127.992" r="1.52"/><circle cx="269.475" cy="133.165" r="1.52"/><circle cx="269.475" cy="138.338" r="1.52"/><circle cx="269.475" cy="143.512" r="1.52"/><circle cx="269.475" cy="148.686" r="1.52"/><circle cx="269.475" cy="153.859" r="1.52"/><circle cx="269.475" cy="159.032" r="1.52"/><circle cx="269.475" cy="164.206" r="1.52"/><circle cx="269.475" cy="169.379" r="1.52"/><circle cx="269.475" cy="174.553" r="1.52"/><circle cx="269.475" cy="179.726" r="1.52"/><circle cx="269.475" cy="184.899" r="1.52"/><circle cx="269.475" cy="190.073" r="1.52"/><circle cx="269.475" cy="195.247" r="1.52"/><circle cx="269.475" cy="200.42" r="1.52"/><circle cx="269.475" cy="205.593" r="1.52"/><circle cx="269.475" cy="210.767" r="1.52"/><circle cx="269.475" cy="215.94" r="1.52"/><circle cx="269.475" cy="221.114" r="1.52"/><circle cx="269.475" cy="226.287" r="1.52"/><circle cx="269.475" cy="231.461" r="1.52"/><circle cx="264.301" cy="14.175" r="1.52"/><circle cx="264.301" cy="19.349" r="1.52"/><circle cx="264.301" cy="45.216" r="1.52"/><circle cx="264.301" cy="50.39" r="1.52"/><circle cx="264.301" cy="55.563" r="1.52"/><circle cx="264.301" cy="60.737" r="1.52"/><circle cx="264.301" cy="65.91" r="1.52"/><circle cx="264.301" cy="76.257" r="1.52"/><circle cx="264.301" cy="81.431" r="1.52"/><circle cx="264.301" cy="86.604" r="1.52"/><circle cx="264.301" cy="91.777" r="1.52"/><circle cx="264.301" cy="96.951" r="1.52"/><circle cx="264.301" cy="107.298" r="1.52"/><circle cx="264.301" cy="122.818" r="1.52"/><circle cx="264.301" cy="127.992" r="1.52"/><circle cx="264.301" cy="133.165" r="1.52"/><circle cx="264.301" cy="138.338" r="1.52"/><circle cx="264.301" cy="143.512" r="1.52"/><circle cx="264.301" cy="148.686" r="1.52"/><circle cx="264.301" cy="153.859" r="1.52"/><circle cx="264.301" cy="159.032" r="1.52"/><circle cx="264.301" cy="164.206" r="1.52"/><circle cx="264.301" cy="169.379" r="1.52"/><circle cx="264.301" cy="174.553" r="1.52"/><circle cx="264.301" cy="179.726" r="1.52"/><circle cx="264.301" cy="184.899" r="1.52"/><circle cx="264.301" cy="190.073" r="1.52"/><circle cx="264.301" cy="195.247" r="1.52"/><circle cx="264.301" cy="200.42" r="1.52"/><circle cx="264.301" cy="205.593" r="1.52"/><circle cx="264.301" cy="210.767" r="1.52"/><circle cx="264.301" cy="215.94" r="1.52"/><circle cx="264.301" cy="221.114" r="1.52"/><circle cx="259.127" cy="14.175" r="1.52"/><circle cx="259.127" cy="50.39" r="1.52"/><circle cx="259.127" cy="55.563" r="1.52"/><circle cx="259.127" cy="60.737" r="1.52"/><circle cx="259.127" cy="65.91" r="1.52"/><circle cx="259.127" cy="71.083" r="1.52"/><circle cx="259.127" cy="76.257" r="1.52"/><circle cx="259.127" cy="81.431" r="1.52"/><circle cx="259.127" cy="86.604" r="1.52"/><circle cx="259.127" cy="91.777" r="1.52"/><circle cx="259.127" cy="122.818" r="1.52"/><circle cx="259.127" cy="127.992" r="1.52"/><circle cx="259.127" cy="133.165" r="1.52"/><circle cx="259.127" cy="138.338" r="1.52"/><circle cx="259.127" cy="143.512" r="1.52"/><circle cx="259.127" cy="148.686" r="1.52"/><circle cx="259.127" cy="153.859" r="1.52"/><circle cx="259.127" cy="159.032" r="1.52"/><circle cx="259.127" cy="164.206" r="1.52"/><circle cx="259.127" cy="169.379" r="1.52"/><circle cx="259.127" cy="174.553" r="1.52"/><circle cx="259.127" cy="179.726" r="1.52"/><circle cx="259.127" cy="184.899" r="1.52"/><circle cx="259.127" cy="200.42" r="1.52"/><circle cx="259.127" cy="205.593" r="1.52"/><circle cx="253.954" cy="60.737" r="1.52"/><circle cx="253.954" cy="71.083" r="1.52"/><circle cx="253.954" cy="76.257" r="1.52"/><circle cx="253.954" cy="81.431" r="1.52"/><circle cx="253.954" cy="86.604" r="1.52"/><circle cx="253.954" cy="91.777" r="1.52"/><circle cx="253.954" cy="112.471" r="1.52"/><circle cx="253.954" cy="117.645" r="1.52"/><circle cx="253.954" cy="122.818" r="1.52"/><circle cx="253.954" cy="127.992" r="1.52"/><circle cx="253.954" cy="133.165" r="1.52"/><circle cx="253.954" cy="138.338" r="1.52"/><circle cx="253.954" cy="143.512" r="1.52"/><circle cx="253.954" cy="148.686" r="1.52"/><circle cx="253.954" cy="153.859" r="1.52"/><circle cx="253.954" cy="159.032" r="1.52"/><circle cx="253.954" cy="164.206" r="1.52"/><circle cx="253.954" cy="169.379" r="1.52"/><circle cx="253.954" cy="174.553" r="1.52"/><circle cx="248.781" cy="60.737" r="1.52"/><circle cx="248.781" cy="81.431" r="1.52"/><circle cx="248.781" cy="86.604" r="1.52"/><circle cx="248.781" cy="91.777" r="1.52"/><circle cx="248.781" cy="96.951" r="1.52"/><circle cx="248.781" cy="112.471" r="1.52"/><circle cx="248.781" cy="117.645" r="1.52"/><circle cx="248.781" cy="122.818" r="1.52"/><circle cx="248.781" cy="127.992" r="1.52"/><circle cx="248.781" cy="133.165" r="1.52"/><circle cx="248.781" cy="138.338" r="1.52"/><circle cx="248.781" cy="143.512" r="1.52"/><circle cx="248.781" cy="148.686" r="1.52"/><circle cx="248.781" cy="153.859" r="1.52"/><circle cx="248.781" cy="159.032" r="1.52"/><circle cx="248.781" cy="164.206" r="1.52"/><circle cx="248.781" cy="174.553" r="1.52"/><circle cx="243.607" cy="86.604" r="1.52"/><circle cx="243.607" cy="91.777" r="1.52"/><circle cx="243.607" cy="96.951" r="1.52"/><circle cx="243.607" cy="112.471" r="1.52"/><circle cx="243.607" cy="117.645" r="1.52"/><circle cx="243.607" cy="122.818" r="1.52"/><circle cx="243.607" cy="127.992" r="1.52"/><circle cx="243.607" cy="133.165" r="1.52"/><circle cx="243.607" cy="138.338" r="1.52"/><circle cx="243.607" cy="143.512" r="1.52"/><circle cx="243.607" cy="148.686" r="1.52"/><circle cx="243.607" cy="153.859" r="1.52"/><circle cx="243.607" cy="159.032" r="1.52"/><circle cx="243.607" cy="164.206" r="1.52"/><circle cx="238.434" cy="76.257" r="1.52"/><circle cx="238.434" cy="81.431" r="1.52"/><circle cx="238.434" cy="86.604" r="1.52"/><circle cx="238.434" cy="91.777" r="1.52"/><circle cx="238.434" cy="96.951" r="1.52"/><circle cx="238.434" cy="102.124" r="1.52"/><circle cx="238.434" cy="107.298" r="1.52"/><circle cx="238.434" cy="117.645" r="1.52"/><circle cx="238.434" cy="122.818" r="1.52"/><circle cx="238.434" cy="127.992" r="1.52"/><circle cx="238.434" cy="133.165" r="1.52"/><circle cx="238.434" cy="138.338" r="1.52"/><circle cx="238.434" cy="143.512" r="1.52"/><circle cx="238.434" cy="148.686" r="1.52"/><circle cx="238.434" cy="153.859" r="1.52"/><circle cx="238.434" cy="159.032" r="1.52"/><circle cx="238.434" cy="164.206" r="1.52"/><circle cx="233.26" cy="71.083" r="1.52"/><circle cx="233.26" cy="102.124" r="1.52"/><circle cx="233.26" cy="107.298" r="1.52"/><circle cx="233.26" cy="117.645" r="1.52"/><circle cx="233.26" cy="122.818" r="1.52"/><circle cx="233.26" cy="127.992" r="1.52"/><circle cx="233.26" cy="133.165" r="1.52"/><circle cx="233.26" cy="138.338" r="1.52"/><circle cx="233.26" cy="143.512" r="1.52"/><circle cx="233.26" cy="148.686" r="1.52"/><circle cx="233.26" cy="153.859" r="1.52"/><circle cx="233.26" cy="159.032" r="1.52"/><circle cx="233.26" cy="164.206" r="1.52"/><circle cx="228.087" cy="76.257" r="1.52"/><circle cx="228.087" cy="102.124" r="1.52"/><circle cx="228.087" cy="107.298" r="1.52"/><circle cx="228.087" cy="117.645" r="1.52"/><circle cx="228.087" cy="122.818" r="1.52"/><circle cx="228.087" cy="127.992" r="1.52"/><circle cx="228.087" cy="133.165" r="1.52"/><circle cx="228.087" cy="138.338" r="1.52"/><circle cx="228.087" cy="143.512" r="1.52"/><circle cx="228.087" cy="148.686" r="1.52"/><circle cx="228.087" cy="153.859" r="1.52"/><circle cx="228.087" cy="159.032" r="1.52"/><circle cx="228.087" cy="164.206" r="1.52"/><circle cx="222.913" cy="127.992" r="1.52"/><circle cx="222.913" cy="133.165" r="1.52"/><circle cx="222.913" cy="138.338" r="1.52"/><circle cx="222.913" cy="143.512" r="1.52"/><circle cx="222.913" cy="148.686" r="1.52"/><circle cx="222.913" cy="153.859" r="1.52"/><circle cx="222.913" cy="159.032" r="1.52"/><circle cx="217.74" cy="9.002" r="1.52"/><circle cx="217.74" cy="50.39" r="1.52"/><circle cx="217.74" cy="138.338" r="1.52"/><circle cx="217.74" cy="143.512" r="1.52"/><circle cx="217.74" cy="148.686" r="1.52"/><circle cx="217.74" cy="153.859" r="1.52"/><circle cx="212.566" cy="9.002" r="1.52"/><circle cx="212.566" cy="14.175" r="1.52"/><circle cx="212.566" cy="50.39" r="1.52"/><circle cx="207.393" cy="3.829" r="1.52"/><circle cx="207.393" cy="9.002" r="1.52"/><circle cx="207.393" cy="14.175" r="1.52"/><circle cx="207.393" cy="19.349" r="1.52"/><circle cx="207.393" cy="24.522" r="1.52"/><circle cx="207.393" cy="34.869" r="1.52"/><circle cx="207.393" cy="40.043" r="1.52"/><circle cx="202.22" cy="3.829" r="1.52"/><circle cx="202.22" cy="9.002" r="1.52"/><circle cx="202.22" cy="14.175" r="1.52"/><circle cx="202.22" cy="19.349" r="1.52"/><circle cx="202.22" cy="24.522" r="1.52"/><circle cx="202.22" cy="34.869" r="1.52"/><circle cx="202.22" cy="40.043" r="1.52"/><circle cx="197.046" cy="3.829" r="1.52"/><circle cx="197.046" cy="9.002" r="1.52"/><circle cx="197.046" cy="14.175" r="1.52"/><circle cx="197.046" cy="19.349" r="1.52"/><circle cx="197.046" cy="24.522" r="1.52"/><circle cx="197.046" cy="29.696" r="1.52"/><circle cx="197.046" cy="34.869" r="1.52"/><circle cx="197.046" cy="40.043" r="1.52"/><circle cx="191.873" cy="3.829" r="1.52"/><circle cx="191.873" cy="14.175" r="1.52"/><circle cx="191.873" cy="19.349" r="1.52"/><circle cx="191.873" cy="24.522" r="1.52"/><circle cx="191.873" cy="29.696" r="1.52"/><circle cx="191.873" cy="34.869" r="1.52"/><circle cx="191.873" cy="40.043" r="1.52"/><circle cx="186.699" cy="3.829" r="1.52"/><circle cx="186.699" cy="9.002" r="1.52"/><circle cx="186.699" cy="14.175" r="1.52"/><circle cx="186.699" cy="19.349" r="1.52"/><circle cx="186.699" cy="24.522" r="1.52"/><circle cx="186.699" cy="29.696" r="1.52"/><circle cx="186.699" cy="34.869" r="1.52"/><circle cx="186.699" cy="40.043" r="1.52"/><circle cx="186.699" cy="45.216" r="1.52"/><circle cx="186.699" cy="184.899" r="1.52"/><circle cx="186.699" cy="190.073" r="1.52"/><circle cx="181.526" cy="3.829" r="1.52"/><circle cx="181.526" cy="9.002" r="1.52"/><circle cx="181.526" cy="14.175" r="1.52"/><circle cx="181.526" cy="19.349" r="1.52"/><circle cx="181.526" cy="24.522" r="1.52"/><circle cx="181.526" cy="29.696" r="1.52"/><circle cx="181.526" cy="34.869" r="1.52"/><circle cx="181.526" cy="40.043" r="1.52"/><circle cx="181.526" cy="45.216" r="1.52"/><circle cx="181.526" cy="50.39" r="1.52"/><circle cx="181.526" cy="184.899" r="1.52"/><circle cx="181.526" cy="190.073" r="1.52"/><circle cx="181.526" cy="195.247" r="1.52"/><circle cx="181.526" cy="200.42" r="1.52"/><circle cx="181.526" cy="205.593" r="1.52"/><circle cx="176.352" cy="3.829" r="1.52"/><circle cx="176.352" cy="9.002" r="1.52"/><circle cx="176.352" cy="14.175" r="1.52"/><circle cx="176.352" cy="19.349" r="1.52"/><circle cx="176.352" cy="24.522" r="1.52"/><circle cx="176.352" cy="29.696" r="1.52"/><circle cx="176.352" cy="34.869" r="1.52"/><circle cx="176.352" cy="40.043" r="1.52"/><circle cx="176.352" cy="45.216" r="1.52"/><circle cx="176.352" cy="50.39" r="1.52"/><circle cx="176.352" cy="55.563" r="1.52"/><circle cx="176.352" cy="60.737" r="1.52"/><circle cx="176.352" cy="179.726" r="1.52"/><circle cx="176.352" cy="184.899" r="1.52"/><circle cx="176.352" cy="190.073" r="1.52"/><circle cx="176.352" cy="195.247" r="1.52"/><circle cx="176.352" cy="200.42" r="1.52"/><circle cx="176.352" cy="205.593" r="1.52"/><circle cx="176.352" cy="210.767" r="1.52"/><circle cx="171.179" cy="9.002" r="1.52"/><circle cx="171.179" cy="14.175" r="1.52"/><circle cx="171.179" cy="19.349" r="1.52"/><circle cx="171.179" cy="24.522" r="1.52"/><circle cx="171.179" cy="29.696" r="1.52"/><circle cx="171.179" cy="34.869" r="1.52"/><circle cx="171.179" cy="40.043" r="1.52"/><circle cx="171.179" cy="45.216" r="1.52"/><circle cx="171.179" cy="50.39" r="1.52"/><circle cx="171.179" cy="55.563" r="1.52"/><circle cx="171.179" cy="179.726" r="1.52"/><circle cx="171.179" cy="184.899" r="1.52"/><circle cx="171.179" cy="190.073" r="1.52"/><circle cx="171.179" cy="195.247" r="1.52"/><circle cx="171.179" cy="200.42" r="1.52"/><circle cx="171.179" cy="205.593" r="1.52"/><circle cx="171.179" cy="210.767" r="1.52"/><circle cx="171.179" cy="215.94" r="1.52"/><circle cx="166.005" cy="9.002" r="1.52"/><circle cx="166.005" cy="14.175" r="1.52"/><circle cx="166.005" cy="19.349" r="1.52"/><circle cx="166.005" cy="24.522" r="1.52"/><circle cx="166.005" cy="29.696" r="1.52"/><circle cx="166.005" cy="34.869" r="1.52"/><circle cx="166.005" cy="45.216" r="1.52"/><circle cx="166.005" cy="50.39" r="1.52"/><circle cx="166.005" cy="169.379" r="1.52"/><circle cx="166.005" cy="179.726" r="1.52"/><circle cx="166.005" cy="184.899" r="1.52"/><circle cx="166.005" cy="190.073" r="1.52"/><circle cx="166.005" cy="195.247" r="1.52"/><circle cx="166.005" cy="200.42" r="1.52"/><circle cx="166.005" cy="205.593" r="1.52"/><circle cx="166.005" cy="210.767" r="1.52"/><circle cx="166.005" cy="215.94" r="1.52"/><circle cx="166.005" cy="221.114" r="1.52"/><circle cx="166.005" cy="226.287" r="1.52"/><circle cx="160.832" cy="9.002" r="1.52"/><circle cx="160.832" cy="14.175" r="1.52"/><circle cx="160.832" cy="19.349" r="1.52"/><circle cx="160.832" cy="24.522" r="1.52"/><circle cx="160.832" cy="29.696" r="1.52"/><circle cx="160.832" cy="86.604" r="1.52"/><circle cx="160.832" cy="169.379" r="1.52"/><circle cx="160.832" cy="174.553" r="1.52"/><circle cx="160.832" cy="179.726" r="1.52"/><circle cx="160.832" cy="184.899" r="1.52"/><circle cx="160.832" cy="190.073" r="1.52"/><circle cx="160.832" cy="195.247" r="1.52"/><circle cx="160.832" cy="200.42" r="1.52"/><circle cx="160.832" cy="205.593" r="1.52"/><circle cx="160.832" cy="210.767" r="1.52"/><circle cx="160.832" cy="215.94" r="1.52"/><circle cx="160.832" cy="221.114" r="1.52"/><circle cx="160.832" cy="226.287" r="1.52"/><circle cx="160.832" cy="231.461" r="1.52"/><circle cx="155.658" cy="9.002" r="1.52"/><circle cx="155.658" cy="14.175" r="1.52"/><circle cx="155.658" cy="19.349" r="1.52"/><circle cx="155.658" cy="81.431" r="1.52"/><circle cx="155.658" cy="164.206" r="1.52"/><circle cx="155.658" cy="169.379" r="1.52"/><circle cx="155.658" cy="174.553" r="1.52"/><circle cx="155.658" cy="179.726" r="1.52"/><circle cx="155.658" cy="184.899" r="1.52"/><circle cx="155.658" cy="190.073" r="1.52"/><circle cx="155.658" cy="195.247" r="1.52"/><circle cx="155.658" cy="200.42" r="1.52"/><circle cx="155.658" cy="205.593" r="1.52"/><circle cx="155.658" cy="210.767" r="1.52"/><circle cx="155.658" cy="215.94" r="1.52"/><circle cx="155.658" cy="221.114" r="1.52"/><circle cx="155.658" cy="226.287" r="1.52"/><circle cx="155.658" cy="231.461" r="1.52"/><circle cx="155.658" cy="236.634" r="1.52"/><circle cx="155.658" cy="267.675" r="1.52"/><circle cx="150.485" cy="3.829" r="1.52"/><circle cx="150.485" cy="14.175" r="1.52"/><circle cx="150.485" cy="19.349" r="1.52"/><circle cx="150.485" cy="71.083" r="1.52"/><circle cx="150.485" cy="76.257" r="1.52"/><circle cx="150.485" cy="81.431" r="1.52"/><circle cx="150.485" cy="86.604" r="1.52"/><circle cx="150.485" cy="159.032" r="1.52"/><circle cx="150.485" cy="164.206" r="1.52"/><circle cx="150.485" cy="169.379" r="1.52"/><circle cx="150.485" cy="174.553" r="1.52"/><circle cx="150.485" cy="179.726" r="1.52"/><circle cx="150.485" cy="184.899" r="1.52"/><circle cx="150.485" cy="190.073" r="1.52"/><circle cx="150.485" cy="195.247" r="1.52"/><circle cx="150.485" cy="200.42" r="1.52"/><circle cx="150.485" cy="205.593" r="1.52"/><circle cx="150.485" cy="210.767" r="1.52"/><circle cx="150.485" cy="215.94" r="1.52"/><circle cx="150.485" cy="221.114" r="1.52"/><circle cx="150.485" cy="226.287" r="1.52"/><circle cx="150.485" cy="231.461" r="1.52"/><circle cx="150.485" cy="236.634" r="1.52"/><circle cx="150.485" cy="241.808" r="1.52"/><circle cx="145.312" cy="3.829" r="1.52"/><circle cx="145.312" cy="19.349" r="1.52"/><circle cx="145.312" cy="24.522" r="1.52"/><circle cx="145.312" cy="45.216" r="1.52"/><circle cx="145.312" cy="55.563" r="1.52"/><circle cx="145.312" cy="65.91" r="1.52"/><circle cx="145.312" cy="71.083" r="1.52"/><circle cx="145.312" cy="76.257" r="1.52"/><circle cx="145.312" cy="81.431" r="1.52"/><circle cx="145.312" cy="91.777" r="1.52"/><circle cx="145.312" cy="143.512" r="1.52"/><circle cx="145.312" cy="159.032" r="1.52"/><circle cx="145.312" cy="164.206" r="1.52"/><circle cx="145.312" cy="169.379" r="1.52"/><circle cx="145.312" cy="174.553" r="1.52"/><circle cx="145.312" cy="179.726" r="1.52"/><circle cx="145.312" cy="184.899" r="1.52"/><circle cx="145.312" cy="190.073" r="1.52"/><circle cx="145.312" cy="195.247" r="1.52"/><circle cx="145.312" cy="200.42" r="1.52"/><circle cx="145.312" cy="205.593" r="1.52"/><circle cx="145.312" cy="210.767" r="1.52"/><circle cx="145.312" cy="215.94" r="1.52"/><circle cx="145.312" cy="221.114" r="1.52"/><circle cx="145.312" cy="226.287" r="1.52"/><circle cx="145.312" cy="231.461" r="1.52"/><circle cx="145.312" cy="236.634" r="1.52"/><circle cx="145.312" cy="241.808" r="1.52"/><circle cx="145.312" cy="246.981" r="1.52"/><circle cx="140.138" cy="3.829" r="1.52"/><circle cx="140.138" cy="9.002" r="1.52"/><circle cx="140.138" cy="19.349" r="1.52"/><circle cx="140.138" cy="40.043" r="1.52"/><circle cx="140.138" cy="45.216" r="1.52"/><circle cx="140.138" cy="50.39" r="1.52"/><circle cx="140.138" cy="55.563" r="1.52"/><circle cx="140.138" cy="71.083" r="1.52"/><circle cx="140.138" cy="76.257" r="1.52"/><circle cx="140.138" cy="81.431" r="1.52"/><circle cx="140.138" cy="86.604" r="1.52"/><circle cx="140.138" cy="91.777" r="1.52"/><circle cx="140.138" cy="159.032" r="1.52"/><circle cx="140.138" cy="164.206" r="1.52"/><circle cx="140.138" cy="169.379" r="1.52"/><circle cx="140.138" cy="174.553" r="1.52"/><circle cx="140.138" cy="179.726" r="1.52"/><circle cx="140.138" cy="184.899" r="1.52"/><circle cx="140.138" cy="190.073" r="1.52"/><circle cx="140.138" cy="195.247" r="1.52"/><circle cx="140.138" cy="200.42" r="1.52"/><circle cx="140.138" cy="205.593" r="1.52"/><circle cx="140.138" cy="210.767" r="1.52"/><circle cx="140.138" cy="215.94" r="1.52"/><circle cx="140.138" cy="221.114" r="1.52"/><circle cx="140.138" cy="226.287" r="1.52"/><circle cx="140.138" cy="231.461" r="1.52"/><circle cx="140.138" cy="236.634" r="1.52"/><circle cx="140.138" cy="241.808" r="1.52"/><circle cx="140.138" cy="246.981" r="1.52"/><circle cx="140.138" cy="252.154" r="1.52"/><circle cx="140.138" cy="257.328" r="1.52"/><circle cx="140.138" cy="262.501" r="1.52"/><circle cx="140.138" cy="272.848" r="1.52"/><circle cx="134.965" cy="3.829" r="1.52"/><circle cx="134.965" cy="9.002" r="1.52"/><circle cx="134.965" cy="40.043" r="1.52"/><circle cx="134.965" cy="50.39" r="1.52"/><circle cx="134.965" cy="60.737" r="1.52"/><circle cx="134.965" cy="65.91" r="1.52"/><circle cx="134.965" cy="71.083" r="1.52"/><circle cx="134.965" cy="76.257" r="1.52"/><circle cx="134.965" cy="81.431" r="1.52"/><circle cx="134.965" cy="86.604" r="1.52"/><circle cx="134.965" cy="91.777" r="1.52"/><circle cx="134.965" cy="96.951" r="1.52"/><circle cx="134.965" cy="102.124" r="1.52"/><circle cx="134.965" cy="138.338" r="1.52"/><circle cx="134.965" cy="143.512" r="1.52"/><circle cx="134.965" cy="159.032" r="1.52"/><circle cx="134.965" cy="164.206" r="1.52"/><circle cx="134.965" cy="169.379" r="1.52"/><circle cx="134.965" cy="174.553" r="1.52"/><circle cx="134.965" cy="179.726" r="1.52"/><circle cx="134.965" cy="184.899" r="1.52"/><circle cx="134.965" cy="190.073" r="1.52"/><circle cx="134.965" cy="195.247" r="1.52"/><circle cx="134.965" cy="200.42" r="1.52"/><circle cx="134.965" cy="241.808" r="1.52"/><circle cx="134.965" cy="246.981" r="1.52"/><circle cx="134.965" cy="252.154" r="1.52"/><circle cx="134.965" cy="257.328" r="1.52"/><circle cx="134.965" cy="262.501" r="1.52"/><circle cx="134.965" cy="267.675" r="1.52"/><circle cx="129.791" cy="3.829" r="1.52"/><circle cx="129.791" cy="9.002" r="1.52"/><circle cx="129.791" cy="14.175" r="1.52"/><circle cx="129.791" cy="34.869" r="1.52"/><circle cx="129.791" cy="40.043" r="1.52"/><circle cx="129.791" cy="45.216" r="1.52"/><circle cx="129.791" cy="55.563" r="1.52"/><circle cx="129.791" cy="60.737" r="1.52"/><circle cx="129.791" cy="65.91" r="1.52"/><circle cx="129.791" cy="71.083" r="1.52"/><circle cx="129.791" cy="76.257" r="1.52"/><circle cx="129.791" cy="81.431" r="1.52"/><circle cx="129.791" cy="86.604" r="1.52"/><circle cx="129.791" cy="91.777" r="1.52"/><circle cx="129.791" cy="96.951" r="1.52"/><circle cx="129.791" cy="102.124" r="1.52"/><circle cx="129.791" cy="107.298" r="1.52"/><circle cx="129.791" cy="112.471" r="1.52"/><circle cx="129.791" cy="138.338" r="1.52"/><circle cx="129.791" cy="164.206" r="1.52"/><circle cx="129.791" cy="169.379" r="1.52"/><circle cx="129.791" cy="174.553" r="1.52"/><circle cx="129.791" cy="179.726" r="1.52"/><circle cx="129.791" cy="184.899" r="1.52"/><circle cx="129.791" cy="190.073" r="1.52"/><circle cx="129.791" cy="195.247" r="1.52"/><circle cx="124.618" cy="3.829" r="1.52"/><circle cx="124.618" cy="9.002" r="1.52"/><circle cx="124.618" cy="14.175" r="1.52"/><circle cx="124.618" cy="19.349" r="1.52"/><circle cx="124.618" cy="34.869" r="1.52"/><circle cx="124.618" cy="86.604" r="1.52"/><circle cx="124.618" cy="91.777" r="1.52"/><circle cx="124.618" cy="96.951" r="1.52"/><circle cx="124.618" cy="102.124" r="1.52"/><circle cx="124.618" cy="107.298" r="1.52"/><circle cx="124.618" cy="112.471" r="1.52"/><circle cx="124.618" cy="117.645" r="1.52"/><circle cx="124.618" cy="159.032" r="1.52"/><circle cx="119.444" cy="3.829" r="1.52"/><circle cx="119.444" cy="9.002" r="1.52"/><circle cx="119.444" cy="14.175" r="1.52"/><circle cx="119.444" cy="19.349" r="1.52"/><circle cx="119.444" cy="34.869" r="1.52"/><circle cx="119.444" cy="45.216" r="1.52"/><circle cx="119.444" cy="55.563" r="1.52"/><circle cx="119.444" cy="76.257" r="1.52"/><circle cx="119.444" cy="81.431" r="1.52"/><circle cx="119.444" cy="86.604" r="1.52"/><circle cx="119.444" cy="91.777" r="1.52"/><circle cx="119.444" cy="96.951" r="1.52"/><circle cx="119.444" cy="102.124" r="1.52"/><circle cx="119.444" cy="107.298" r="1.52"/><circle cx="119.444" cy="112.471" r="1.52"/><circle cx="119.444" cy="117.645" r="1.52"/><circle cx="119.444" cy="122.818" r="1.52"/><circle cx="119.444" cy="148.686" r="1.52"/><circle cx="119.444" cy="153.859" r="1.52"/><circle cx="114.271" cy="9.002" r="1.52"/><circle cx="114.271" cy="14.175" r="1.52"/><circle cx="114.271" cy="19.349" r="1.52"/><circle cx="114.271" cy="34.869" r="1.52"/><circle cx="114.271" cy="45.216" r="1.52"/><circle cx="114.271" cy="76.257" r="1.52"/><circle cx="114.271" cy="81.431" r="1.52"/><circle cx="114.271" cy="86.604" r="1.52"/><circle cx="114.271" cy="91.777" r="1.52"/><circle cx="114.271" cy="96.951" r="1.52"/><circle cx="114.271" cy="102.124" r="1.52"/><circle cx="114.271" cy="107.298" r="1.52"/><circle cx="114.271" cy="112.471" r="1.52"/><circle cx="114.271" cy="117.645" r="1.52"/><circle cx="114.271" cy="138.338" r="1.52"/><circle cx="114.271" cy="148.686" r="1.52"/><circle cx="109.097" cy="14.175" r="1.52"/><circle cx="109.097" cy="24.522" r="1.52"/><circle cx="109.097" cy="29.696" r="1.52"/><circle cx="109.097" cy="45.216" r="1.52"/><circle cx="109.097" cy="50.39" r="1.52"/><circle cx="109.097" cy="71.083" r="1.52"/><circle cx="109.097" cy="76.257" r="1.52"/><circle cx="109.097" cy="81.431" r="1.52"/><circle cx="109.097" cy="86.604" r="1.52"/><circle cx="109.097" cy="91.777" r="1.52"/><circle cx="109.097" cy="96.951" r="1.52"/><circle cx="109.097" cy="102.124" r="1.52"/><circle cx="109.097" cy="107.298" r="1.52"/><circle cx="109.097" cy="112.471" r="1.52"/><circle cx="109.097" cy="117.645" r="1.52"/><circle cx="109.097" cy="122.818" r="1.52"/><circle cx="109.097" cy="143.512" r="1.52"/><circle cx="109.097" cy="148.686" r="1.52"/><circle cx="103.924" cy="45.216" r="1.52"/><circle cx="103.924" cy="50.39" r="1.52"/><circle cx="103.924" cy="55.563" r="1.52"/><circle cx="103.924" cy="60.737" r="1.52"/><circle cx="103.924" cy="65.91" r="1.52"/><circle cx="103.924" cy="71.083" r="1.52"/><circle cx="103.924" cy="76.257" r="1.52"/><circle cx="103.924" cy="81.431" r="1.52"/><circle cx="103.924" cy="86.604" r="1.52"/><circle cx="103.924" cy="91.777" r="1.52"/><circle cx="103.924" cy="96.951" r="1.52"/><circle cx="103.924" cy="102.124" r="1.52"/><circle cx="103.924" cy="107.298" r="1.52"/><circle cx="103.924" cy="112.471" r="1.52"/><circle cx="103.924" cy="117.645" r="1.52"/><circle cx="103.924" cy="122.818" r="1.52"/><circle cx="103.924" cy="143.512" r="1.52"/><circle cx="98.75" cy="34.869" r="1.52"/><circle cx="98.75" cy="45.216" r="1.52"/><circle cx="98.75" cy="50.39" r="1.52"/><circle cx="98.75" cy="55.563" r="1.52"/><circle cx="98.75" cy="60.737" r="1.52"/><circle cx="98.75" cy="65.91" r="1.52"/><circle cx="98.75" cy="71.083" r="1.52"/><circle cx="98.75" cy="76.257" r="1.52"/><circle cx="98.75" cy="81.431" r="1.52"/><circle cx="98.75" cy="86.604" r="1.52"/><circle cx="98.75" cy="91.777" r="1.52"/><circle cx="98.75" cy="96.951" r="1.52"/><circle cx="98.75" cy="102.124" r="1.52"/><circle cx="98.75" cy="107.298" r="1.52"/><circle cx="98.75" cy="112.471" r="1.52"/><circle cx="98.75" cy="117.645" r="1.52"/><circle cx="98.75" cy="122.818" r="1.52"/><circle cx="98.75" cy="127.992" r="1.52"/><circle cx="98.75" cy="133.165" r="1.52"/><circle cx="98.75" cy="138.338" r="1.52"/><circle cx="98.75" cy="143.512" r="1.52"/><circle cx="93.577" cy="45.216" r="1.52"/><circle cx="93.577" cy="50.39" r="1.52"/><circle cx="93.577" cy="55.563" r="1.52"/><circle cx="93.577" cy="60.737" r="1.52"/><circle cx="93.577" cy="65.91" r="1.52"/><circle cx="93.577" cy="71.083" r="1.52"/><circle cx="93.577" cy="76.257" r="1.52"/><circle cx="93.577" cy="81.431" r="1.52"/><circle cx="93.577" cy="86.604" r="1.52"/><circle cx="93.577" cy="91.777" r="1.52"/><circle cx="93.577" cy="96.951" r="1.52"/><circle cx="93.577" cy="102.124" r="1.52"/><circle cx="93.577" cy="107.298" r="1.52"/><circle cx="93.577" cy="112.471" r="1.52"/><circle cx="93.577" cy="117.645" r="1.52"/><circle cx="93.577" cy="122.818" r="1.52"/><circle cx="93.577" cy="127.992" r="1.52"/><circle cx="93.577" cy="133.165" r="1.52"/><circle cx="93.577" cy="138.338" r="1.52"/><circle cx="93.577" cy="143.512" r="1.52"/><circle cx="88.404" cy="34.869" r="1.52"/><circle cx="88.404" cy="45.216" r="1.52"/><circle cx="88.404" cy="50.39" r="1.52"/><circle cx="88.404" cy="55.563" r="1.52"/><circle cx="88.404" cy="60.737" r="1.52"/><circle cx="88.404" cy="65.91" r="1.52"/><circle cx="88.404" cy="71.083" r="1.52"/><circle cx="88.404" cy="76.257" r="1.52"/><circle cx="88.404" cy="81.431" r="1.52"/><circle cx="88.404" cy="86.604" r="1.52"/><circle cx="88.404" cy="91.777" r="1.52"/><circle cx="88.404" cy="96.951" r="1.52"/><circle cx="88.404" cy="102.124" r="1.52"/><circle cx="88.404" cy="107.298" r="1.52"/><circle cx="88.404" cy="112.471" r="1.52"/><circle cx="88.404" cy="117.645" r="1.52"/><circle cx="88.404" cy="122.818" r="1.52"/><circle cx="88.404" cy="127.992" r="1.52"/><circle cx="88.404" cy="133.165" r="1.52"/><circle cx="83.23" cy="34.869" r="1.52"/><circle cx="83.23" cy="40.043" r="1.52"/><circle cx="83.23" cy="50.39" r="1.52"/><circle cx="83.23" cy="55.563" r="1.52"/><circle cx="83.23" cy="60.737" r="1.52"/><circle cx="83.23" cy="65.91" r="1.52"/><circle cx="83.23" cy="71.083" r="1.52"/><circle cx="83.23" cy="76.257" r="1.52"/><circle cx="83.23" cy="81.431" r="1.52"/><circle cx="83.23" cy="86.604" r="1.52"/><circle cx="83.23" cy="91.777" r="1.52"/><circle cx="83.23" cy="96.951" r="1.52"/><circle cx="83.23" cy="102.124" r="1.52"/><circle cx="83.23" cy="107.298" r="1.52"/><circle cx="83.23" cy="112.471" r="1.52"/><circle cx="83.23" cy="117.645" r="1.52"/><circle cx="83.23" cy="122.818" r="1.52"/><circle cx="83.23" cy="127.992" r="1.52"/><circle cx="83.23" cy="221.114" r="1.52"/><circle cx="78.057" cy="24.522" r="1.52"/><circle cx="78.057" cy="34.869" r="1.52"/><circle cx="78.057" cy="40.043" r="1.52"/><circle cx="78.057" cy="45.216" r="1.52"/><circle cx="78.057" cy="50.39" r="1.52"/><circle cx="78.057" cy="55.563" r="1.52"/><circle cx="78.057" cy="60.737" r="1.52"/><circle cx="78.057" cy="65.91" r="1.52"/><circle cx="78.057" cy="71.083" r="1.52"/><circle cx="78.057" cy="76.257" r="1.52"/><circle cx="78.057" cy="81.431" r="1.52"/><circle cx="78.057" cy="86.604" r="1.52"/><circle cx="78.057" cy="91.777" r="1.52"/><circle cx="78.057" cy="96.951" r="1.52"/><circle cx="78.057" cy="102.124" r="1.52"/><circle cx="78.057" cy="107.298" r="1.52"/><circle cx="78.057" cy="112.471" r="1.52"/><circle cx="78.057" cy="117.645" r="1.52"/><circle cx="78.057" cy="127.992" r="1.52"/><circle cx="72.883" cy="29.696" r="1.52"/><circle cx="72.883" cy="34.869" r="1.52"/><circle cx="72.883" cy="45.216" r="1.52"/><circle cx="72.883" cy="50.39" r="1.52"/><circle cx="72.883" cy="55.563" r="1.52"/><circle cx="72.883" cy="60.737" r="1.52"/><circle cx="72.883" cy="65.91" r="1.52"/><circle cx="72.883" cy="71.083" r="1.52"/><circle cx="72.883" cy="76.257" r="1.52"/><circle cx="72.883" cy="81.431" r="1.52"/><circle cx="72.883" cy="86.604" r="1.52"/><circle cx="72.883" cy="91.777" r="1.52"/><circle cx="72.883" cy="96.951" r="1.52"/><circle cx="72.883" cy="102.124" r="1.52"/><circle cx="72.883" cy="107.298" r="1.52"/><circle cx="72.883" cy="112.471" r="1.52"/><circle cx="72.883" cy="117.645" r="1.52"/><circle cx="67.71" cy="24.522" r="1.52"/><circle cx="67.71" cy="29.696" r="1.52"/><circle cx="67.71" cy="45.216" r="1.52"/><circle cx="67.71" cy="50.39" r="1.52"/><circle cx="67.71" cy="55.563" r="1.52"/><circle cx="67.71" cy="60.737" r="1.52"/><circle cx="67.71" cy="65.91" r="1.52"/><circle cx="67.71" cy="71.083" r="1.52"/><circle cx="67.71" cy="76.257" r="1.52"/><circle cx="67.71" cy="81.431" r="1.52"/><circle cx="67.71" cy="86.604" r="1.52"/><circle cx="67.71" cy="91.777" r="1.52"/><circle cx="67.71" cy="96.951" r="1.52"/><circle cx="67.71" cy="102.124" r="1.52"/><circle cx="67.71" cy="107.298" r="1.52"/><circle cx="67.71" cy="112.471" r="1.52"/><circle cx="62.536" cy="40.043" r="1.52"/><circle cx="62.536" cy="45.216" r="1.52"/><circle cx="62.536" cy="50.39" r="1.52"/><circle cx="62.536" cy="55.563" r="1.52"/><circle cx="62.536" cy="60.737" r="1.52"/><circle cx="62.536" cy="65.91" r="1.52"/><circle cx="62.536" cy="71.083" r="1.52"/><circle cx="62.536" cy="76.257" r="1.52"/><circle cx="62.536" cy="81.431" r="1.52"/><circle cx="62.536" cy="91.777" r="1.52"/><circle cx="62.536" cy="96.951" r="1.52"/><circle cx="62.536" cy="102.124" r="1.52"/><circle cx="57.363" cy="40.043" r="1.52"/><circle cx="57.363" cy="45.216" r="1.52"/><circle cx="57.363" cy="50.39" r="1.52"/><circle cx="57.363" cy="55.563" r="1.52"/><circle cx="57.363" cy="60.737" r="1.52"/><circle cx="57.363" cy="65.91" r="1.52"/><circle cx="57.363" cy="71.083" r="1.52"/><circle cx="57.363" cy="76.257" r="1.52"/><circle cx="57.363" cy="81.431" r="1.52"/><circle cx="52.189" cy="40.043" r="1.52"/><circle cx="52.189" cy="45.216" r="1.52"/><circle cx="52.189" cy="50.39" r="1.52"/><circle cx="52.189" cy="55.563" r="1.52"/><circle cx="52.189" cy="60.737" r="1.52"/><circle cx="52.189" cy="65.91" r="1.52"/><circle cx="52.189" cy="71.083" r="1.52"/><circle cx="47.016" cy="50.39" r="1.52"/><circle cx="47.016" cy="55.563" r="1.52"/><circle cx="47.016" cy="60.737" r="1.52"/><circle cx="47.016" cy="65.91" r="1.52"/><circle cx="41.842" cy="45.216" r="1.52"/><circle cx="41.842" cy="50.39" r="1.52"/><circle cx="41.842" cy="55.563" r="1.52"/><circle cx="41.842" cy="60.737" r="1.52"/><circle cx="36.669" cy="40.043" r="1.52"/><circle cx="36.669" cy="45.216" r="1.52"/><circle cx="36.669" cy="50.39" r="1.52"/><circle cx="36.669" cy="55.563" r="1.52"/><circle cx="36.669" cy="60.737" r="1.52"/><circle cx="31.495" cy="40.043" r="1.52"/><circle cx="31.495" cy="45.216" r="1.52"/><circle cx="31.495" cy="50.39" r="1.52"/><circle cx="31.495" cy="55.563" r="1.52"/><circle cx="31.495" cy="60.737" r="1.52"/><circle cx="26.322" cy="40.043" r="1.52"/><circle cx="26.322" cy="45.216" r="1.52"/><circle cx="26.322" cy="50.39" r="1.52"/><circle cx="26.322" cy="55.563" r="1.52"/><circle cx="26.322" cy="60.737" r="1.52"/><circle cx="21.149" cy="40.043" r="1.52"/><circle cx="21.149" cy="45.216" r="1.52"/><circle cx="21.149" cy="50.39" r="1.52"/><circle cx="21.149" cy="55.563" r="1.52"/><circle cx="21.149" cy="60.737" r="1.52"/><circle cx="15.975" cy="40.043" r="1.52"/><circle cx="15.975" cy="45.216" r="1.52"/><circle cx="15.975" cy="50.39" r="1.52"/><circle cx="15.975" cy="55.563" r="1.52"/><circle cx="15.975" cy="60.737" r="1.52"/><circle cx="15.975" cy="65.91" r="1.52"/><circle cx="10.802" cy="40.043" r="1.52"/><circle cx="10.802" cy="45.216" r="1.52"/><circle cx="10.802" cy="50.39" r="1.52"/><circle cx="10.802" cy="55.563" r="1.52"/><circle cx="10.802" cy="60.737" r="1.52"/><circle cx="5.628" cy="45.216" r="1.52"/><circle cx="5.628" cy="50.39" r="1.52"/><circle cx="5.628" cy="60.737" r="1.52"/></g><path d="M147 18.4h4.197l1.199 24.062h.4l2.398-24.062h3.398l2.398 24.062h.4l1.199-24.062h4.197l-2.798 31.977h-4.797l-2.278-16.708-2.318 16.708h-4.797zm25.082 15.149c0-11.152.24-15.549 6.235-15.549s6.235 4.397 6.235 15.549c0 12.791-.24 17.227-6.235 17.227s-6.235-4.437-6.235-17.227zm3.997 0c0 11.552 0 13.23 2.238 13.23s2.238-1.679 2.238-13.23c0-10.392 0-12.351-2.238-12.351s-2.238 1.959-2.238 12.351zm14.569 16.828V18.4h6.475c4.117 0 5.516 2.518 5.516 7.355 0 4.357-.52 6.835-1.759 8.034v.24c1.039.36 1.359 2.238 1.759 6.915l.799 9.433h-3.997l-.52-9.433c-.28-4.757-.999-5.756-2.198-5.756h-2.078v15.189h-3.997zm3.997-18.387h2.478c1.399 0 1.799-1.399 1.799-6.235 0-3.158-.6-4.157-1.799-4.157h-2.478V31.99zm14.489 18.387V18.4h3.997v27.98h5.196v3.997h-9.193zm14.09 0V18.4h5.996c5.996 0 5.996 4.397 5.996 15.149 0 12.391 0 16.828-5.996 16.828h-5.996zm3.997-3.997h1.999c2.238 0 2.238-1.679 2.238-12.831 0-9.993 0-11.951-2.238-11.951h-1.999V46.38zm25.382 3.997V18.4h3.997v31.977h-3.997zm10.492 0V18.4h3.597l5.236 19.586-.04-.4V18.4h3.997v31.977h-3.597l-5.236-17.587.04.4v17.187h-3.997zM292.874 18.4h4.197l1.199 24.062h.4l2.398-24.062h3.398l2.398 24.062h.4l1.199-24.062h4.197l-2.798 31.977h-4.797l-2.278-16.708-2.318 16.708h-4.797zm25.082 15.149c0-11.152.24-15.549 6.235-15.549s6.235 4.397 6.235 15.549c0 12.791-.24 17.227-6.235 17.227s-6.235-4.437-6.235-17.227zm3.997 0c0 11.552 0 13.23 2.238 13.23s2.238-1.679 2.238-13.23c0-10.392 0-12.351-2.238-12.351s-2.238 1.959-2.238 12.351zm14.569 16.828V18.4h6.475c4.117 0 5.516 2.518 5.516 7.355 0 4.357-.52 6.835-1.759 8.034v.24c1.039.36 1.359 2.238 1.759 6.915l.799 9.433h-3.997l-.52-9.433c-.28-4.757-.999-5.756-2.198-5.756h-2.078v15.189h-3.997zm3.997-18.387h2.478c1.399 0 1.799-1.399 1.799-6.235 0-3.158-.6-4.157-1.799-4.157h-2.478V31.99zm14.489 18.387V18.4h5.996C367 18.4 367 22.797 367 33.549c0 12.391 0 16.828-5.996 16.828h-5.996zm3.997-3.997h1.999c2.238 0 2.238-1.679 2.238-12.831 0-9.993 0-11.951-2.238-11.951h-1.999V46.38zM150.522 84.393l3.3-8.745-.825-3.218c-.358-1.32 1.485-1.65 1.788-.495l3.245 11.935 3.493-11.935c.358-1.238 2.173-.715 1.815.468l-4.263 14.493c-.165.523-.633.853-1.073.853-.495 0-.935-.303-1.1-.853l-2.255-8.278-3.163 8.305c-.193.495-.633.825-1.045.825s-.825-.275-1.018-.88l-4.373-14.465c-.358-1.183 1.32-1.568 1.678-.523zm19.196 2.503V72.073c0-.578.44-.88.88-.88s.908.303.908.88v14.823c0 1.183-1.788 1.183-1.788 0zm8.168-15.703h8.305c.578 0 .853.468.853.935s-.275.908-.853.908h-3.135v13.833c0 .578-.468.88-.935.88s-.908-.303-.908-.88V73.035h-3.328c-.578 0-.853-.44-.853-.908s.275-.935.853-.935zm14.933 15.675V72.073c0-.578.44-.853.908-.853s.935.275.935.853v6.298h6.243v-6.298c0-.578.44-.88.88-.88s.908.303.908.88v14.795c0 .578-.468.88-.908.88s-.88-.303-.88-.88V80.24h-6.243v6.628c0 .578-.468.88-.935.88s-.908-.303-.908-.88zm16.61-3.988v-6.82c0-3.3 1.705-5.06 5.005-5.06h.715c3.273 0 5.005 1.76 5.005 5.06v6.82c0 3.025-2.008 5.005-5.005 5.005h-.715c-3.053 0-5.005-2.008-5.005-5.005zm5.005 3.163h.715c1.98 0 3.163-1.238 3.163-3.163v-6.82c0-2.145-1.045-3.245-3.163-3.245h-.715c-2.09 0-3.245 1.128-3.245 3.245v6.82c0 2.008 1.265 3.163 3.245 3.163zm12.183-3.163V72.073c0-.578.468-.88.908-.88.468 0 .908.303.908.88V82.88c0 1.98 1.348 3.163 3.218 3.163h.688c1.925 0 3.245-1.348 3.245-3.163V72.073c0-.578.44-.88.908-.88.44 0 .908.303.908.88V82.88c0 2.833-2.008 5.005-5.06 5.005h-.688c-3.053 0-5.033-2.118-5.033-5.005zm16.968-11.688h8.305c.578 0 .853.468.853.935s-.275.908-.853.908h-3.135v13.833c0 .578-.468.88-.935.88s-.908-.303-.908-.88V73.035h-3.328c-.578 0-.853-.44-.853-.908s.275-.935.853-.935zm24.943 11.715V76.28c0-3.96 2.173-5.143 5.363-5.143 2.64 0 5.198 1.348 5.198 4.125 0 .605-.44.908-.908.908s-.935-.303-.935-.908c0-1.403-1.54-2.338-3.355-2.338-2.503 0-3.548 1.018-3.548 3.355v6.628c0 2.393 1.32 3.135 3.548 3.135 2.64 0 3.575-1.265 3.575-3.713v-1.155h-2.475c-.578 0-.88-.44-.88-.908s.303-.935.88-.935h3.438c.55 0 .853.55.853.935v2.063c0 3.96-1.54 5.5-5.39 5.5-3.63 0-5.363-1.32-5.363-4.923zm17.243 3.96V72.073c0-.578.44-.88.88-.88s.908.303.908.88v13.833h5.473c.605 0 .935.468.935.935s-.33.908-.935.908h-6.353a.89.89 0 01-.908-.88zm21.698.138l-1.073-3.493h-5.115l-1.018 3.438c-.358 1.183-2.173.825-1.788-.385l4.235-14.575c.165-.523.605-.798 1.045-.798.413 0 .853.275 1.018.798l4.373 14.575c.303 1.045-1.32 1.623-1.678.44zm-3.658-12.1l-1.98 6.765h4.043l-2.063-6.765zm11.055 10.478c-.605-1.128.935-1.953 1.65-.825.358.578 1.43 1.568 3.135 1.568.715 0 2.503-.523 2.75-2.558.165-1.238-1.018-2.448-3.053-3.465-2.86-1.348-5.033-2.53-5.033-4.895 0-2.805 2.365-4.125 4.895-4.125 2.283 0 3.548 1.403 3.988 2.118.633 1.018-.743 2.008-1.513 1.018-.385-.495-1.128-1.32-2.475-1.32-1.513 0-3.08.715-3.08 2.31 0 1.265 1.403 1.98 3.493 2.97 2.448 1.21 5.005 2.393 4.62 5.61-.303 2.53-2.228 4.153-4.593 4.153-1.788 0-3.988-.963-4.785-2.558zm15.125 0c-.605-1.128.935-1.953 1.65-.825.358.578 1.43 1.568 3.135 1.568.715 0 2.503-.523 2.75-2.558.165-1.238-1.018-2.448-3.053-3.465-2.86-1.348-5.033-2.53-5.033-4.895 0-2.805 2.365-4.125 4.895-4.125 2.283 0 3.548 1.403 3.988 2.118.633 1.018-.743 2.008-1.513 1.018-.385-.495-1.128-1.32-2.475-1.32-1.513 0-3.08.715-3.08 2.31 0 1.265 1.403 1.98 3.493 2.97 2.448 1.21 5.005 2.393 4.62 5.61-.303 2.53-2.228 4.153-4.593 4.153-1.788 0-3.988-.963-4.785-2.558zm15.455 1.403v-14.63c0-.633.495-.963.963-.963h6.325c.605 0 .908.44.908.908s-.303.935-.908.935h-5.445v5.335h4.318c.633 0 .935.44.935.908s-.33.963-.935.963h-4.318v5.693h5.445c.578 0 .88.468.88.908 0 .468-.303.908-.88.908h-6.325c-.468 0-.963-.165-.963-.963zm14.135-1.403c-.605-1.128.935-1.953 1.65-.825.358.578 1.43 1.568 3.135 1.568.715 0 2.503-.523 2.75-2.558.165-1.238-1.018-2.448-3.053-3.465-2.86-1.348-5.033-2.53-5.033-4.895 0-2.805 2.365-4.125 4.895-4.125 2.283 0 3.548 1.403 3.988 2.118.633 1.018-.743 2.008-1.513 1.018-.385-.495-1.128-1.32-2.475-1.32-1.513 0-3.08.715-3.08 2.31 0 1.265 1.403 1.98 3.493 2.97 2.448 1.21 5.005 2.393 4.62 5.61-.303 2.53-2.228 4.153-4.593 4.153-1.788 0-3.988-.963-4.785-2.558z" fill="#eee"/></svg>