<svg xmlns="http://www.w3.org/2000/svg" width="409.891" height="96.594"><path d="M33 10.461h7.298l3.775 18.706 4.655-18.706h6.291l4.614 19.125 4.068-19.125h6.669l-.294 1.279-.797 3.397-1.153 4.802-1.321 5.494-1.321 5.515-1.174 4.802-.839 3.376-.315 1.279h-7.13l-4.404-18.077-4.697 18.077h-6.711zm51.336 30.407c-2.293 0-4.243-.391-5.851-1.174s-2.922-1.859-3.942-3.229-1.768-2.999-2.244-4.886-.713-3.949-.713-6.186.238-4.299.713-6.186 1.223-3.509 2.244-4.865 2.335-2.412 3.942-3.167 3.558-1.132 5.851-1.132 4.243.377 5.851 1.132 2.922 1.81 3.942 3.167 1.762 2.978 2.223 4.865.692 3.949.692 6.186-.231 4.299-.692 6.186-1.202 3.516-2.223 4.886-2.335 2.447-3.942 3.229-3.558 1.174-5.851 1.174zm0-5.872c1.929 0 3.32-.797 4.173-2.391s1.279-3.998 1.279-7.214-.412-5.578-1.237-7.088-2.216-2.265-4.173-2.265c-1.985 0-3.404.755-4.257 2.265s-1.279 3.873-1.279 7.088.426 5.62 1.279 7.214 2.258 2.391 4.215 2.391zm17.196-24.326l3.691-.398 3.565-.147c1.538 0 3.069.147 4.593.44s2.887.804 4.089 1.531 2.174 1.706 2.915 2.936 1.111 2.796 1.111 4.697c0 1.09-.147 2.069-.44 2.936s-.657 1.629-1.09 2.286-.916 1.23-1.447 1.72-1.049.902-1.552 1.237l-.21.126.566.923 1.384 2.307 1.783 2.978 1.783 2.957 1.342 2.286.524.881h-7.675l-7.927-13.799v13.841h-7.004V10.671zm7.004 15.644l1.468-.671 1.3-.629c.503-.252.993-.58 1.468-.986a5.82 5.82 0 001.216-1.447c.336-.559.503-1.244.503-2.055 0-.867-.126-1.587-.377-2.16s-.601-1.035-1.049-1.384-.972-.601-1.573-.755-1.251-.231-1.95-.231h-.482l-.524.042v10.276zm18.538-15.896h6.669v23.948h4.823l1.049.126V31.64l5.662-2.642v11.408h-18.203V10.419zm22.522.252l3.942-.398 4.236-.147c5.256 0 9.255 1.279 11.995 3.838s4.11 6.48 4.11 11.765c0 5.256-1.398 9.094-4.194 11.513s-6.934 3.628-12.415 3.628c-1.342 0-2.628-.042-3.859-.126s-2.502-.21-3.817-.377V10.671zm6.878 24.074c1.37.14 2.67.14 3.901 0s2.314-.531 3.25-1.174 1.678-1.601 2.223-2.873.818-2.971.818-5.096c0-1.873-.217-3.411-.65-4.614s-1.021-2.16-1.762-2.873-1.594-1.209-2.558-1.489-1.978-.419-3.041-.419h-1.028l-1.153.084v18.454zm33.301-24.326h6.836v29.988h-6.836V10.419zm13.505 5.243h-3.984l2.726-5.243h6.878l9.94 16.441.252.713V10.419h6.543v29.988h-5.578L209.991 23.84l-.21-.629v17.196h-6.501V15.662zm37.202-5.201h7.298l3.775 18.706 4.655-18.706h6.291l4.614 19.125 4.068-19.125h6.669l-.294 1.279-.797 3.397-1.153 4.802-1.321 5.494-1.321 5.515-1.174 4.802-.839 3.376-.315 1.279h-7.13l-4.404-18.077-4.697 18.077h-6.711zm51.336 30.407c-2.293 0-4.243-.391-5.851-1.174s-2.922-1.859-3.942-3.229-1.768-2.999-2.244-4.886-.713-3.949-.713-6.186.238-4.299.713-6.186 1.223-3.509 2.244-4.865 2.335-2.412 3.942-3.167 3.558-1.132 5.851-1.132 4.243.377 5.851 1.132 2.922 1.81 3.942 3.167 1.762 2.978 2.223 4.865.692 3.949.692 6.186-.231 4.299-.692 6.186-1.202 3.516-2.223 4.886-2.335 2.447-3.942 3.229-3.558 1.174-5.851 1.174zm0-5.872c1.929 0 3.32-.797 4.173-2.391s1.279-3.998 1.279-7.214-.412-5.578-1.237-7.088-2.216-2.265-4.173-2.265c-1.985 0-3.404.755-4.257 2.265s-1.279 3.873-1.279 7.088.426 5.62 1.279 7.214 2.258 2.391 4.215 2.391zm17.196-24.326a100.71 100.71 0 013.691-.398 40.93 40.93 0 013.565-.147c1.538 0 3.069.147 4.593.44s2.887.804 4.089 1.531 2.174 1.706 2.915 2.936 1.111 2.796 1.111 4.697c0 1.09-.147 2.069-.44 2.936s-.657 1.629-1.09 2.286-.916 1.23-1.447 1.72-1.049.902-1.552 1.237l-.21.126.566.923 1.384 2.307 1.783 2.978 1.783 2.957 1.342 2.286.524.881h-7.675l-7.927-13.799v13.841h-7.004V10.671zm7.004 15.644l1.468-.671a47.23 47.23 0 001.3-.629c.503-.252.993-.58 1.468-.986a5.82 5.82 0 001.216-1.447c.336-.559.503-1.244.503-2.055 0-.867-.126-1.587-.377-2.16s-.601-1.035-1.049-1.384-.972-.601-1.573-.755-1.251-.231-1.95-.231h-.482l-.524.042v10.276zm18.664-15.644a75.27 75.27 0 013.942-.398 57.22 57.22 0 014.236-.147c5.256 0 9.255 1.279 11.995 3.838s4.11 6.48 4.11 11.765c0 5.256-1.398 9.094-4.194 11.513s-6.934 3.628-12.415 3.628c-1.342 0-2.628-.042-3.859-.126s-2.502-.21-3.817-.377V10.671zm6.878 24.074c1.37.14 2.67.14 3.901 0s2.314-.531 3.25-1.174 1.678-1.601 2.223-2.873.818-2.971.818-5.096c0-1.873-.217-3.411-.65-4.614s-1.021-2.16-1.762-2.873-1.594-1.209-2.558-1.489-1.978-.419-3.041-.419h-1.028l-1.153.084v18.454zm28.017-7.717a19.7 19.7 0 01-2.496-1.216c-.769-.447-1.433-.986-1.992-1.615s-.993-1.37-1.3-2.223-.461-1.866-.461-3.041c0-1.454.252-2.733.755-3.838a7.75 7.75 0 012.118-2.789c.909-.755 2.006-1.328 3.292-1.72s2.712-.587 4.278-.587a20.28 20.28 0 013.942.398c1.342.266 2.95.72 4.823 1.363l-2.852 5.117a13.182 13.182 0 00-5.746-1.3 6.2 6.2 0 00-1.216.126 3.36 3.36 0 00-1.132.44 2.6 2.6 0 00-.839.86c-.224.364-.336.839-.336 1.426 0 .475.091.867.273 1.174s.412.573.692.797.601.412.965.566.727.301 1.091.44l2.475.965c1.062.419 2.034.86 2.915 1.321s1.629 1.021 2.244 1.678 1.09 1.461 1.426 2.412.503 2.139.503 3.565-.259 2.726-.776 3.901a8.09 8.09 0 01-2.265 2.999c-.993.825-2.216 1.468-3.67 1.929s-3.118.692-4.991.692c-.867 0-1.664-.028-2.391-.084a17.17 17.17 0 01-2.118-.294c-.685-.14-1.37-.308-2.055-.503a24.37 24.37 0 01-2.202-.755l1.426-5.872a69.29 69.29 0 003.376.818c1.105.238 2.23.357 3.376.357 1.538 0 2.712-.203 3.523-.608s1.286-1.181 1.426-2.328c.056-.587-.014-1.077-.21-1.468s-.475-.72-.839-.986a5.06 5.06 0 00-1.216-.65l-1.342-.503z" fill="#111"/><path d="M15.039 84.102l-3.584 12.114H9.339L5 81.377h2.096l3.27 11.863h.042l3.5-11.863h2.305l3.5 11.863h.042l3.27-11.863h2.096l-4.318 14.839h-2.117l-3.605-12.114h-.042zm29.213-2.725v14.839H42.24V81.377h2.012zm28.898 0v1.886h-4.779v12.953H66.36V83.264h-4.779v-1.886H73.15zm19.341 0v6.162h7.692v-6.162h2.012v14.839h-2.012v-6.791h-7.692v6.791h-2.012V81.377h2.012zM128.013 81c2.208 0 4.049.734 5.523 2.201s2.211 3.332 2.211 5.596c0 1.439-.328 2.756-.985 3.951a7.18 7.18 0 01-2.777 2.819c-1.195.685-2.519 1.027-3.972 1.027-1.439 0-2.753-.339-3.94-1.017s-2.117-1.614-2.788-2.809-1.006-2.519-1.006-3.972c0-2.208.723-4.059 2.169-5.554S125.749 81 128.013 81zm-5.596 7.797c0 1.677.524 3.081 1.572 4.213s2.389 1.698 4.024 1.698c1.607 0 2.941-.559 4.003-1.677s1.593-2.529 1.593-4.234c0-1.691-.524-3.098-1.572-4.223s-2.396-1.687-4.045-1.687c-1.593 0-2.92.559-3.982 1.677s-1.593 2.529-1.593 4.234zm33.153-7.42v9.159c0 1.216.339 2.215 1.017 2.997s1.582 1.174 2.714 1.174 2.036-.391 2.714-1.174 1.017-1.782 1.017-2.997v-9.159h2.012v9.494a5.9 5.9 0 01-.723 2.861 5.29 5.29 0 01-2.054 2.096c-.887.51-1.876.765-2.966.765-1.677 0-3.053-.548-4.129-1.645s-1.614-2.456-1.614-4.077v-9.494h2.012zm38.099 0v1.886h-4.779v12.953h-2.012V83.264H182.1v-1.886h11.569zm45.18-.377c2.473 0 4.311.643 5.512 1.928l-1.425 1.53c-1.104-1.048-2.473-1.572-4.108-1.572s-2.976.562-4.024 1.687-1.572 2.532-1.572 4.223c0 1.705.555 3.116 1.666 4.234s2.477 1.677 4.097 1.677c1.537 0 2.753-.258 3.647-.775v-4.129h-3.291v-1.886h5.303v7.315c-.727.433-1.603.769-2.63 1.006a13.24 13.24 0 01-2.987.356c-2.333 0-4.241-.727-5.722-2.18s-2.222-3.326-2.222-5.617c0-2.208.73-4.059 2.19-5.554S236.599 81 238.849 81zm26.677.377V94.33h6.812v1.886h-8.824V81.377h2.012zm30.533 0l6.351 14.839h-2.347l-1.488-3.668h-7.063l-1.467 3.668h-2.347l6.539-14.839h1.823zm-3.836 9.411h5.617l-2.767-6.812h-.042zM323.783 81c1.928 0 3.353.566 4.276 1.698l-1.635 1.488c-.252-.391-.608-.706-1.069-.943s-.992-.356-1.593-.356c-.866 0-1.561.213-2.085.639s-.786.975-.786 1.645c0 1.118.741 1.9 2.222 2.347l1.865.608c1.048.335 1.848.803 2.4 1.404s.828 1.425.828 2.473c0 1.369-.486 2.477-1.457 3.322s-2.204 1.268-3.699 1.268c-2.138 0-3.717-.685-4.737-2.054l1.656-1.425a3.27 3.27 0 001.32 1.174 4.02 4.02 0 001.823.419c.824 0 1.523-.238 2.096-.713s.859-1.062.859-1.761c0-.517-.175-.95-.524-1.299s-.978-.664-1.886-.943l-1.32-.44c-1.327-.447-2.257-1.017-2.788-1.708s-.796-1.582-.796-2.672c0-1.16.468-2.145 1.404-2.955S322.302 81 323.783 81zm26.844 0c1.928 0 3.353.566 4.276 1.698l-1.635 1.488c-.252-.391-.608-.706-1.069-.943s-.992-.356-1.593-.356c-.866 0-1.561.213-2.085.639s-.786.975-.786 1.645c0 1.118.741 1.9 2.222 2.347l1.865.608c1.048.335 1.848.803 2.4 1.404s.828 1.425.828 2.473c0 1.369-.486 2.477-1.457 3.322s-2.204 1.268-3.699 1.268c-2.138 0-3.717-.685-4.737-2.054l1.656-1.425a3.27 3.27 0 001.32 1.174 4.02 4.02 0 001.823.419c.824 0 1.523-.238 2.096-.713s.859-1.062.859-1.761c0-.517-.175-.95-.524-1.299s-.978-.664-1.886-.943l-1.32-.44c-1.327-.447-2.257-1.017-2.788-1.708s-.796-1.582-.796-2.672c0-1.16.468-2.145 1.404-2.955S349.146 81 350.627 81zm32.168.377v1.886h-7.566v4.422h7.042v1.886h-7.042v4.758h7.943v1.886h-9.956V81.377h9.578zM405.469 81c1.928 0 3.353.566 4.276 1.698l-1.635 1.488c-.252-.391-.608-.706-1.069-.943s-.992-.356-1.593-.356c-.866 0-1.561.213-2.085.639s-.786.975-.786 1.645c0 1.118.741 1.9 2.222 2.347l1.865.608c1.048.335 1.848.803 2.4 1.404s.828 1.425.828 2.473c0 1.369-.486 2.477-1.457 3.322s-2.204 1.268-3.699 1.268c-2.138 0-3.717-.685-4.737-2.054l1.656-1.425a3.27 3.27 0 001.32 1.174 4.02 4.02 0 001.823.419c.824 0 1.523-.238 2.096-.713s.859-1.062.859-1.761c0-.517-.175-.95-.524-1.299s-.978-.664-1.886-.943l-1.32-.44c-1.327-.447-2.257-1.017-2.788-1.708s-.796-1.582-.796-2.672c0-1.16.468-2.145 1.404-2.955S403.988 81 405.469 81z" fill="#55b3f3"/></svg>