<svg width="450" height="144" fill="#111" version="1.1" id="svg44" xmlns="http://www.w3.org/2000/svg"><path d="M72.21.597c-39.702 0-72 32.3-72 72 0 39.701 32.298 72 72 72 39.7 0 72-32.299 72-72 0-39.7-32.3-72-72-72zm0 140.41c-37.722 0-68.41-30.689-68.41-68.41 0-37.72 30.688-68.409 68.41-68.409 37.72 0 68.408 30.688 68.408 68.41 0 37.72-30.688 68.408-68.409 68.408zm25.002-83.41h7.471L81.5 88.51l-9.054-12.069-9.052 12.07L40.21 57.596h7.471L63.395 78.55l5.316-7.089-10.397-13.862h7.471l6.662 8.882 6.661-8.882h7.47L76.181 71.46l5.317 7.09zm92.136-6.51h3.376l-10.477 13.97-4.091-5.454-4.091 5.454-10.478-13.97h3.376l7.102 9.468 2.403-3.204-4.7-6.265h3.377l3.01 4.014 3.01-4.014h3.377l-4.698 6.265 2.403 3.204zm22.616 1.054c1.066 1.057 1.058 2.586 1.044 4.901l-.003.536-.153 3.203c-.123.714-.406 1.742-1.445 2.435-1.315.877-3.28.897-7.585.94l-1.864.012c-3.411 0-5.125-.18-6.221-1.269-1.141-1.134-1.135-2.803-1.125-5.33.01-2.82.017-4.522 1.446-5.578 1.233-.912 3.024-.936 6.948-.988l.783-.01c4.89-.07 6.915-.1 8.175 1.15zm-1.665 4.885c.008-1.33.016-2.706-.242-2.96-.32-.318-1.757-.392-3.67-.392l-2.558.025-.786.011c-2.811.038-4.842.065-5.374.458-.336.248-.341 1.713-.347 3.41-.006 1.575-.012 3.064.326 3.398.529.526 3.386.497 6.148.47 3.172-.032 5.464-.055 6.109-.485.38-.253.385-1.57.39-3.394zm23.245 4.303l1.35-.02.04 2.701-1.35.02-.707.007c-1.875 0-4.883-.186-6.783-2.058-.846-.833-1.38-1.893-1.592-3.16h-4.886l-.02 5.217-2.7-.01.043-11.767v-1.352h.005v-.005l1.349.005h12.724c1.71 0 4.257 1.054 4.257 3.956s-2.366 3.956-3.956 3.956h-4.046c.128.467.375.893.717 1.236 1.358 1.337 4.192 1.295 5.554 1.275zm-13.903-5.213h11.666c.118-.004.47-.048.76-.209.25-.139.508-.372.508-1.047 0-.543-.184-.836-.655-1.048a2.705 2.705 0 00-.901-.208H219.64v2.511zM241.91 61.4h15.79v2.728h-18.518V50.874h2.728zm36.526-7.892c1.11 1.126 1.71 2.57 1.689 4.063-.027 1.85-.918 3.536-2.51 4.751-1.658 1.265-3.992 1.934-6.748 1.934-5.262 0-7.91-.077-7.936-.078l-1.323-.04V50.925h9.259c4.15 0 6.408 1.405 7.57 2.584zm-7.57 8.021c4.473 0 6.503-2.007 6.532-3.997.01-.769-.302-1.498-.904-2.109-1.126-1.142-3.124-1.77-5.627-1.77h-6.532v7.827zm26.185 2.666h-2.701V51.071h2.7zm19.689-13.283h2.728v13.072l-15.79-8.247v8.43h-2.728V51.095l15.79 8.247zm41.598.174h3.376l-10.477 13.97-4.091-5.454-4.091 5.454-10.478-13.97h3.376l7.102 9.468 2.403-3.204-4.7-6.265h3.377l3.01 4.014 3.01-4.014h3.377l-4.698 6.265 2.403 3.204zm22.616 1.054c1.066 1.057 1.058 2.586 1.044 4.901l-.003.536-.153 3.203c-.123.714-.406 1.742-1.445 2.435-1.315.877-3.28.897-7.585.94l-1.864.012c-3.411 0-5.125-.18-6.221-1.269-1.141-1.134-1.135-2.803-1.125-5.33.01-2.82.017-4.522 1.446-5.578 1.233-.912 3.024-.936 6.948-.988l.783-.01c4.89-.07 6.915-.1 8.175 1.15zm-1.665 4.885c.008-1.33.016-2.706-.242-2.96-.32-.318-1.757-.392-3.67-.392l-2.558.025-.786.011c-2.811.038-4.842.065-5.374.458-.336.248-.341 1.713-.347 3.41-.006 1.575-.012 3.064.326 3.398.529.526 3.386.497 6.148.47 3.172-.032 5.464-.055 6.109-.485.38-.253.385-1.57.39-3.394zm23.245 4.303l1.35-.02.04 2.701-1.35.02-.707.007c-1.875 0-4.883-.186-6.783-2.058-.846-.833-1.38-1.893-1.592-3.16h-4.886l-.02 5.217-2.7-.01.043-11.767v-1.352h.005v-.005l1.349.005h12.724c1.71 0 4.257 1.054 4.257 3.956s-2.366 3.956-3.956 3.956h-4.046c.128.467.375.893.717 1.236 1.358 1.337 4.192 1.295 5.554 1.275zm-13.904-5.212h11.666c.118-.004.47-.048.76-.209.25-.139.508-.372.508-1.047 0-.543-.184-.836-.655-1.048a2.705 2.705 0 00-.901-.208H388.63v2.511zM425 53.508c1.11 1.126 1.71 2.57 1.689 4.063-.027 1.85-.918 3.536-2.51 4.751-1.658 1.265-3.992 1.934-6.748 1.934-5.262 0-7.91-.077-7.936-.078l-1.323-.04V50.925h9.259c4.15 0 6.408 1.405 7.57 2.584zm-7.57 8.021c4.473 0 6.503-2.007 6.532-3.997.01-.769-.302-1.498-.904-2.109-1.126-1.142-3.124-1.77-5.627-1.77h-6.532v7.827zm16.407-7.815c-.253.14-.513.375-.513 1.057 0 .531.172.822.613 1.035.44.213.943.232.969.232l9.915.04c1.723 0 4.294 1.063 4.294 3.995 0 2.932-2.39 3.996-3.996 3.996h-14.522v-2.728h14.51a1.93 1.93 0 00.768-.21c.254-.14.513-.377.513-1.058 0-.53-.172-.822-.613-1.035a2.703 2.703 0 00-.97-.233l-9.908-.044v.005c-1.728 0-4.3-1.064-4.3-3.996s2.388-3.994 3.994-3.994h14.522v2.728h-14.51a1.93 1.93 0 00-.767.211zm-119.17 31.624h1.584l-4.913 6.551-1.92-2.558-1.917 2.558-4.914-6.55h1.583l3.33 4.44 1.127-1.503-2.204-2.938h1.583l1.412 1.882 1.412-1.882h1.583l-2.203 2.938 1.127 1.502zm4.17 6.147h-1.266v-6.154h1.267zm1.829-6.293h8.684v1.28h-3.703v4.954h-1.28v-4.955h-3.701zm17.92.077h1.28v6.216h-1.28v-2.468h-6.125v2.468h-1.28V85.27h1.28v2.468h6.126zm11.24.562c.5.496.496 1.213.49 2.298l-.001.251-.072 1.502c-.058.335-.191.817-.678 1.142-.617.411-1.538.42-3.557.441l-.874.005c-1.6 0-2.403-.085-2.917-.595-.535-.532-.532-1.315-.528-2.5.005-1.322.008-2.12.678-2.616.578-.427 1.418-.439 3.258-.463l.367-.005c2.293-.033 3.243-.046 3.833.54zm-.781 2.291c.004-.624.007-1.269-.114-1.389-.15-.149-.824-.183-1.721-.183l-1.2.012-.368.005c-1.318.018-2.271.031-2.52.215-.157.116-.16.803-.163 1.6-.003.738-.005 1.436.153 1.593.248.247 1.588.233 2.883.22 1.488-.015 2.562-.026 2.865-.227.178-.119.18-.736.184-1.592zm11.778-2.925l.023 3.106c.009.687-.268 1.354-.781 1.88-.544.555-1.602 1.221-3.556 1.235h-.057c-1.48 0-2.714-.425-3.483-1.199-.53-.532-.815-1.21-.807-1.91l-.023-3.102 1.279-.009.023 3.115v.007c-.005.361.145.706.435.998.534.538 1.465.83 2.623.821 1.18-.009 2.123-.31 2.65-.85.278-.285.422-.619.417-.969v-.005l-.023-3.108zm1.854-.007h8.684v1.28h-3.703v4.954h-1.28V86.47h-3.701zm23.954 3.225v2.431l.004.637h-4.303c-1.293 0-2.375-.289-3.13-.837-.753-.548-1.17-1.344-1.17-2.24a2.678 2.678 0 01.81-1.942c.76-.754 1.968-1.147 3.494-1.136h3.66l.633-.002.003 1.267-.633.002h-3.672c-1.165-.009-2.084.264-2.591.768a1.42 1.42 0 00-.437 1.043c0 1.117 1.162 1.811 3.033 1.811h3.03l-.001-1.177h-2.44v-1.267h3.72zm3.12 1.757h7.406v1.28h-8.684v-6.217h1.279v4.936zm13.687-5.396l5 6.642h-1.608l-1.398-1.85h-3.988l-1.378 1.85h-1.59zm-1.035 3.512h2.07l-1.035-1.38zm8.872-1.717c-.12.066-.24.176-.24.496 0 .25.08.385.287.486.143.065.297.102.454.11l4.65.017c.808 0 2.014.5 2.014 1.874 0 1.375-1.121 1.874-1.874 1.874h-6.811V90.15h6.805a.91.91 0 00.36-.099c.119-.066.24-.176.24-.496 0-.249-.081-.385-.287-.486a1.24 1.24 0 00-.455-.109l-4.647-.02v.001c-.811 0-2.016-.499-2.016-1.874s1.12-1.874 1.874-1.874h6.81v1.28h-6.804a.91.91 0 00-.36.098zm10.505 0c-.12.066-.24.176-.24.496 0 .25.08.385.287.486.143.065.297.102.454.11l4.65.017c.808 0 2.014.5 2.014 1.874 0 1.375-1.121 1.874-1.874 1.874h-6.811V90.15h6.805a.91.91 0 00.36-.099c.119-.066.24-.176.24-.496 0-.249-.081-.385-.287-.486a1.24 1.24 0 00-.455-.109l-4.647-.02v.001c-.811 0-2.016-.499-2.016-1.874s1.12-1.874 1.874-1.874h6.81v1.28h-6.804a.91.91 0 00-.36.098zm17.67-.029h-7.405v1.191l4.939.018-.005 1.28-4.934-.019V90.2h7.405v1.28h-8.684v-6.217h8.684v1.28zm3.34.03c-.118.065-.24.175-.24.495 0 .25.082.385.288.486.143.065.297.102.454.11l4.65.017c.808 0 2.014.5 2.014 1.874 0 1.375-1.121 1.874-1.874 1.874h-6.811V90.15h6.805a.91.91 0 00.36-.099c.119-.066.24-.176.24-.496 0-.249-.081-.385-.287-.486a1.24 1.24 0 00-.455-.109l-4.647-.02v.001c-.811 0-2.016-.499-2.016-1.874s1.12-1.874 1.874-1.874h6.81v1.28h-6.804a.91.91 0 00-.36.098z" id="path42"/></svg>