<svg xmlns="http://www.w3.org/2000/svg" width="300" height="47.401"><path d="M22.319 26.487l-4.547-16.029L13.3 26.487H6.328L0 .531h6.177l3.979 18.643L15.347.531h5.191l5.153 18.833L29.822.531h5.836L29.33 26.488h-7.01zm28.42.531c-7.579 0-13.755-5.798-13.755-13.49C36.984 5.798 43.16 0 50.739 0c7.768 0 13.755 5.798 13.755 13.49 0 7.73-5.987 13.528-13.755 13.528zm0-5.457c4.396 0 7.768-3.486 7.768-8.071 0-4.509-3.372-8.033-7.768-8.033s-7.768 3.524-7.768 8.071 3.372 8.033 7.768 8.033zm26.525-15.65h-4.32v6.934h4.13c2.539 0 4.092-1.44 4.092-3.448s-1.288-3.486-3.903-3.486zm-4.32 11.747v8.829h-5.873V.531h11.065c5.532 0 8.943 3.562 8.943 8.64 0 4.055-2.69 7.427-7.086 8.299l8.261 9.019H80.6zm17.431 8.829V.531h5.873v20.576h12.05v5.381H90.375zm20.614 0V.531h10.61c7.995 0 13.225 5.684 13.225 12.846 0 7.313-5.457 13.111-13.528 13.111h-10.307zm10.307-20.576h-4.433v15.195h4.623c4.206 0 7.427-3.259 7.427-7.654 0-4.32-3.221-7.541-7.617-7.541zm29.443 20.576h-5.873V.531h5.873v25.957zm19.25 0L159.53 10.042v16.446h-5.646V.531h6.404l10.459 16.484V.531h5.646v25.957h-6.404zm38.12 0l-4.547-16.029-4.471 16.029h-6.972L185.79.531h6.177l3.979 18.643L201.137.531h5.191l5.153 18.833 4.13-18.833h5.836l-6.328 25.957h-7.01zm28.42.531c-7.579 0-13.755-5.798-13.755-13.49C222.774 5.798 228.95 0 236.529 0c7.768 0 13.755 5.798 13.755 13.49 0 7.73-5.987 13.528-13.755 13.528zm0-5.457c4.396 0 7.768-3.486 7.768-8.071 0-4.509-3.372-8.033-7.768-8.033s-7.768 3.524-7.768 8.071 3.372 8.033 7.768 8.033zm26.525-15.65h-4.32v6.934h4.13c2.539 0 4.092-1.44 4.092-3.448s-1.288-3.486-3.903-3.486zm-4.32 11.747v8.829h-5.873V.531h11.065c5.532 0 8.943 3.562 8.943 8.64 0 4.055-2.69 7.427-7.086 8.299l8.261 9.019h-7.654zm17.431 8.829V.531h10.61C294.771.531 300 6.214 300 13.376c0 7.313-5.457 13.111-13.528 13.111h-10.307zm10.307-20.576h-4.433v15.195h4.623c4.206 0 7.427-3.259 7.427-7.654 0-4.32-3.221-7.541-7.617-7.541z" fill="#393e46"/><path d="M35.141 42.12l-.614 1.652-.555 1.489-.425 1.143-.222.614a.58.58 0 01-.216.274.57.57 0 01-.333.104.57.57 0 01-.333-.104.58.58 0 01-.216-.274L29.38 39.26l-2.861 7.759a.595.595 0 01-.209.274.54.54 0 01-.327.104.57.57 0 01-.333-.104.58.58 0 01-.216-.274l-.229-.614-.425-1.143-.549-1.489-.614-1.652-.594-1.613-.522-1.424-.366-1.045-.137-.464c0-.157.057-.292.17-.405s.248-.17.405-.17a.57.57 0 01.333.104.58.58 0 01.216.274l2.861 7.759 2.848-7.759a.58.58 0 01.216-.274.57.57 0 01.333-.104.54.54 0 01.327.104.6.6 0 01.209.274l2.861 7.759 2.848-7.759a.58.58 0 01.216-.274.57.57 0 01.333-.104c.157 0 .292.057.405.17s.17.248.17.405c0 .035-.046.189-.137.464l-.366 1.045-.516 1.424-.588 1.613zm12.529 5.277c-.165 0-.305-.057-.418-.17s-.17-.248-.17-.405v-9.157c0-.157.057-.292.17-.405s.253-.17.418-.17c.157 0 .292.057.405.17s.17.248.17.405v9.157c0 .157-.057.292-.17.405s-.248.17-.405.17zm17.284-9.157h-2.116v8.582c0 .157-.057.292-.17.405s-.248.17-.405.17c-.165 0-.305-.057-.418-.17s-.17-.248-.17-.405V38.24h-2.116c-.157 0-.292-.054-.405-.163s-.17-.246-.17-.411c0-.157.057-.292.17-.405s.248-.17.405-.17h5.395c.157 0 .292.057.405.17s.17.248.17.405a.567.567 0 01-.575.574zm18.185 9.157c-.157 0-.292-.057-.405-.17s-.17-.248-.17-.405v-4.428H77.43v4.428c0 .157-.057.292-.17.405s-.248.17-.405.17c-.165 0-.305-.057-.418-.17s-.17-.248-.17-.405v-9.157c0-.157.057-.292.17-.405s.253-.17.418-.17c.157 0 .292.057.405.17s.17.248.17.405v3.566h5.134v-3.566c0-.157.057-.292.17-.405s.248-.17.405-.17c.165 0 .305.057.418.17s.17.248.17.405v9.157c0 .157-.057.292-.17.405s-.253.17-.418.17zm17.205 0c-.714 0-1.385-.135-2.012-.405s-1.173-.638-1.639-1.104-.834-1.012-1.104-1.639-.405-1.298-.405-2.012a5 5 0 01.405-1.999c.27-.627.638-1.173 1.104-1.639s1.012-.834 1.639-1.104 1.298-.405 2.012-.405a5 5 0 011.999.405c.627.27 1.173.638 1.639 1.104s.834 1.012 1.104 1.639a5 5 0 01.405 1.999c0 .714-.135 1.385-.405 2.012s-.638 1.173-1.104 1.639-1.012.834-1.639 1.104a5 5 0 01-1.999.405zm0-9.157c-.549 0-1.067.104-1.554.313a4.1 4.1 0 00-1.28.856 3.957 3.957 0 00-1.175 2.828c0 .548.104 1.067.313 1.554s.496.914.862 1.28.792.653 1.28.862 1.006.313 1.554.313 1.067-.104 1.554-.313.912-.496 1.274-.862a4.1 4.1 0 00.856-1.28c.209-.488.313-1.006.313-1.554s-.104-1.067-.313-1.554a4.02 4.02 0 00-2.129-2.129 3.905 3.905 0 00-1.554-.313zm20.588 9.157a3.81 3.81 0 01-1.541-.314 4.12 4.12 0 01-1.261-.849c-.361-.357-.647-.777-.856-1.261s-.313-.999-.313-1.548v-5.761c0-.157.057-.292.17-.405s.253-.17.418-.17c.157 0 .292.057.405.17s.17.248.17.405v5.761c0 .392.074.758.222 1.097s.348.636.601.888.551.453.895.601a2.73 2.73 0 001.091.222c.392 0 .758-.074 1.097-.222a2.94 2.94 0 00.895-.601c.257-.253.459-.551.607-.895a2.73 2.73 0 00.222-1.091v-5.761c0-.157.057-.292.17-.405s.248-.17.405-.17c.165 0 .305.057.418.17s.17.248.17.405v5.761c0 .549-.104 1.065-.313 1.548s-.494.903-.856 1.261a4.1 4.1 0 01-1.267.849 3.855 3.855 0 01-1.548.313zm20.693-9.157h-2.116v8.582c0 .157-.057.292-.17.405s-.248.17-.405.17c-.165 0-.305-.057-.418-.17s-.17-.248-.17-.405V38.24h-2.116c-.157 0-.292-.054-.405-.163s-.17-.246-.17-.411c0-.157.057-.292.17-.405s.248-.17.405-.17h5.395c.157 0 .292.057.405.17s.17.248.17.405a.567.567 0 01-.575.574zm34.097 7.628a5.17 5.17 0 01-1.692 1.136 5.19 5.19 0 01-2.005.392 5.04 5.04 0 01-2.031-.411c-.631-.274-1.182-.647-1.652-1.117s-.843-1.021-1.117-1.652-.411-1.308-.411-2.031.137-1.393.411-2.012a5.07 5.07 0 011.123-1.613 5.27 5.27 0 011.659-1.078 5.229 5.229 0 012.018-.392 5.19 5.19 0 012.005.392 5.17 5.17 0 011.692 1.136c.113.113.17.248.17.405s-.057.292-.17.405c-.122.122-.261.183-.418.183s-.292-.061-.405-.183a4.2 4.2 0 00-1.319-.882 3.971 3.971 0 00-1.554-.307c-.557 0-1.082.1-1.574.3a4.01 4.01 0 00-1.287.829 3.936 3.936 0 00-.869 1.254 3.82 3.82 0 00-.32 1.561c0 .557.107 1.082.32 1.574s.503.921.869 1.287.795.655 1.287.869 1.017.32 1.574.32c.505 0 .988-.087 1.45-.261s.88-.427 1.254-.758V42.76h-2.639c-.165 0-.305-.057-.418-.17s-.17-.248-.17-.405c0-.165.057-.305.17-.418s.253-.17.418-.17h3.213c.165 0 .305.057.418.17s.17.253.17.418v3.279a.553.553 0 01-.17.405zm15.977 1.528h-3.488c-.157 0-.292-.057-.405-.17s-.17-.248-.17-.405v-9.157a.567.567 0 01.575-.574.555.555 0 01.574.574v8.582h2.913c.165 0 .305.057.418.17s.17.248.17.405-.057.292-.17.405-.253.17-.418.17zm18.995-.052a.49.49 0 01-.222.052.604.604 0 01-.32-.091.51.51 0 01-.216-.261l-1.032-2.43h-4.742l-1.032 2.43a.551.551 0 01-.313.313.53.53 0 01-.444-.013.551.551 0 01-.313-.313.53.53 0 01.013-.444l1.176-2.782 2.756-6.453a.52.52 0 01.209-.261.596.596 0 01.327-.091.57.57 0 01.313.091.52.52 0 01.209.261l1.972 4.618 1.972 4.618a.56.56 0 010 .444.551.551 0 01-.313.313zm-4.154-8.282l-1.881 4.389h3.749zm17.989 8.334a2.77 2.77 0 01-1.123-.229 2.95 2.95 0 01-1.534-1.534 2.77 2.77 0 01-.229-1.123c0-.165.057-.305.17-.418s.253-.17.418-.17c.157 0 .292.057.405.17s.17.253.17.418c0 .235.046.457.137.666s.216.392.372.549.34.281.549.372.431.137.666.137a1.69 1.69 0 00.673-.137 1.75 1.75 0 00.555-.372c.157-.157.281-.34.372-.549s.137-.431.137-.666c0-.287-.057-.525-.17-.712s-.27-.351-.47-.49a1.95 1.95 0 00-.327-.189l-.379-.176-.405-.157-.431-.157-.869-.353c-.292-.131-.553-.294-.784-.49s-.42-.44-.568-.731-.222-.651-.222-1.078a2.77 2.77 0 01.229-1.123 2.95 2.95 0 011.534-1.534 2.77 2.77 0 011.123-.229c.401 0 .777.076 1.13.229s.66.359.921.62.468.566.62.914a2.77 2.77 0 01.229 1.123c0 .157-.057.292-.17.405s-.253.17-.418.17c-.157 0-.292-.057-.405-.17s-.17-.248-.17-.405a1.69 1.69 0 00-.137-.673 1.75 1.75 0 00-.927-.927 1.69 1.69 0 00-.673-.137c-.235 0-.457.046-.666.137s-.392.216-.549.372a1.75 1.75 0 00-.372.555 1.69 1.69 0 00-.137.673c0 .261.054.479.163.653a1.5 1.5 0 00.464.457 4.44 4.44 0 00.705.353l.418.157.431.157.869.359c.292.135.553.305.784.509s.42.459.568.764.222.679.222 1.123a2.77 2.77 0 01-.229 1.123 2.924 2.924 0 01-1.541 1.534 2.825 2.825 0 01-1.13.229zm16.957 0a2.77 2.77 0 01-1.123-.229 2.95 2.95 0 01-1.534-1.534 2.77 2.77 0 01-.229-1.123c0-.165.057-.305.17-.418s.253-.17.418-.17c.157 0 .292.057.405.17s.17.253.17.418c0 .235.046.457.137.666s.216.392.372.549.34.281.549.372.431.137.666.137a1.69 1.69 0 00.673-.137 1.75 1.75 0 00.555-.372c.157-.157.281-.34.372-.549s.137-.431.137-.666c0-.287-.057-.525-.17-.712s-.27-.351-.47-.49a1.95 1.95 0 00-.327-.189l-.379-.176-.405-.157-.431-.157-.869-.353c-.292-.131-.553-.294-.784-.49s-.42-.44-.568-.731-.222-.651-.222-1.078a2.77 2.77 0 01.229-1.123 2.95 2.95 0 011.534-1.534 2.77 2.77 0 011.123-.229c.401 0 .777.076 1.13.229s.66.359.921.62.468.566.62.914a2.77 2.77 0 01.229 1.123c0 .157-.057.292-.17.405s-.253.17-.418.17c-.157 0-.292-.057-.405-.17s-.17-.248-.17-.405a1.69 1.69 0 00-.137-.673 1.75 1.75 0 00-.927-.927 1.69 1.69 0 00-.673-.137c-.235 0-.457.046-.666.137s-.392.216-.549.372a1.75 1.75 0 00-.372.555 1.69 1.69 0 00-.137.673c0 .261.054.479.163.653a1.5 1.5 0 00.464.457 4.44 4.44 0 00.705.353l.418.157.431.157.869.359c.292.135.553.305.784.509s.42.459.568.764.222.679.222 1.123a2.77 2.77 0 01-.229 1.123 2.924 2.924 0 01-1.541 1.534 2.825 2.825 0 01-1.13.229zm19.439 0h-4.493c-.165 0-.305-.057-.418-.17s-.17-.248-.17-.405v-9.157c0-.157.057-.292.17-.405s.253-.17.418-.17h4.493c.165 0 .305.057.418.17s.17.248.17.405a.546.546 0 01-.17.411.58.58 0 01-.418.163h-3.919v3.331h3.305c.157 0 .292.054.405.163s.17.246.17.411c0 .157-.057.292-.17.405s-.248.17-.405.17h-3.305v3.514h3.919c.165 0 .305.057.418.17s.17.253.17.418c0 .157-.057.292-.17.405s-.253.17-.418.17zm14.175 0a2.77 2.77 0 01-1.123-.229 2.95 2.95 0 01-1.534-1.534 2.77 2.77 0 01-.229-1.123c0-.165.057-.305.17-.418s.253-.17.418-.17c.157 0 .292.057.405.17s.17.253.17.418c0 .235.046.457.137.666s.216.392.372.549.34.281.549.372.431.137.666.137a1.69 1.69 0 00.673-.137 1.75 1.75 0 00.555-.372c.157-.157.281-.34.372-.549s.137-.431.137-.666c0-.287-.057-.525-.17-.712s-.27-.351-.47-.49a1.95 1.95 0 00-.327-.189l-.379-.176-.405-.157-.431-.157-.869-.353c-.292-.131-.553-.294-.784-.49s-.42-.44-.568-.731-.222-.651-.222-1.078a2.77 2.77 0 01.229-1.123 2.95 2.95 0 011.534-1.534 2.77 2.77 0 011.123-.229c.401 0 .777.076 1.13.229s.66.359.921.62.468.566.62.914a2.77 2.77 0 01.229 1.123c0 .157-.057.292-.17.405s-.253.17-.418.17c-.157 0-.292-.057-.405-.17s-.17-.248-.17-.405a1.69 1.69 0 00-.137-.673 1.75 1.75 0 00-.927-.927 1.69 1.69 0 00-.673-.137c-.235 0-.457.046-.666.137s-.392.216-.549.372a1.75 1.75 0 00-.372.555 1.69 1.69 0 00-.137.673c0 .261.054.479.163.653a1.5 1.5 0 00.464.457 4.44 4.44 0 00.705.353l.418.157.431.157.869.359c.292.135.553.305.784.509s.42.459.568.764.222.679.222 1.123a2.77 2.77 0 01-.229 1.123 2.924 2.924 0 01-1.541 1.534 2.825 2.825 0 01-1.13.229z" fill="#fd7014"/></svg>