<svg version="1.1" id="svg140994" width="800" height="800" viewBox="0 0 800 800" xmlns="http://www.w3.org/2000/svg"><defs id="defs140998"><clipPath clipPathUnits="userSpaceOnUse" id="clipPath141010"><path d="M0 600h600V0H0z" id="path141008"/></clipPath></defs><g id="g141002" transform="matrix(1.33333 0 0 -1.33333 0 800)"><g id="g141004"><g id="g141006" clip-path="url(#clipPath141010)"><g id="g141012" transform="translate(311.56 114.026)"><path d="M0 0c137.857 0 250.295 67.831 250.295 150.998 0 83.166-112.438 150.997-250.295 150.997-137.859 0-250.297-67.831-250.297-150.997C-250.297 67.831-137.859 0 0 0" id="path141014" fill="#dce0d3" fill-opacity="1" fill-rule="evenodd" stroke="none"/></g><g id="g141016" transform="translate(561.555 272.39)"><path d="M0 0c.194-2.44.3-4.895.3-7.365 0-83.394-112.062-150.998-250.296-150.998-.466 0-.929.008-1.394.011L-390.435-44.327l161.123 172.394z" id="path141018" fill="#c4c9bb" fill-opacity="1" fill-rule="evenodd" stroke="none"/></g><g id="g141020" transform="translate(133.499 228.946)"><path d="M0 0l2.486 90.986 13.464 15.28 9.494-77.516z" id="path141022" fill="#6b961c" fill-opacity="1" fill-rule="evenodd" stroke="none"/></g><g id="g141024" transform="translate(149.449 253.826)"><path d="M0 0l-15.95-24.88c112.432-60.598 263.062-61.276 387.537-1.645-5.875 8.841-11.75 17.682-17.624 26.525z" id="path141026" fill="#58800e" fill-opacity="1" fill-rule="evenodd" stroke="none"/></g><g id="g141028" transform="translate(138.49 236.731)"><path d="M0 0l1.937 88.242 9.022 10.239 29.083-74.912z" id="path141030" fill="#e2fab4" fill-opacity="1" fill-rule="evenodd" stroke="none"/></g><g id="g141032" transform="translate(149.449 253.826)"><path d="M0 0l-10.959-17.095c110.273-57.137 255.678-57.754 377.268-1.489L353.963 0z" id="path141034" fill="#ceed96" fill-opacity="1" fill-rule="evenodd" stroke="none"/></g><g id="g141036" transform="translate(149.449 253.826)"><path d="M0 0l-5.833-9.098c107.927-54.743 248.7-55.898 367.917-3.127L353.963 0z" id="path141038" fill="#f0fadf" fill-opacity="1" fill-rule="evenodd" stroke="none"/></g><g id="g141040" transform="translate(143.616 244.728)"><path d="M0 0l1.321 85.363 4.512 5.12 36.735-76.067z" id="path141042" fill="#fbfff5" fill-opacity="1" fill-rule="evenodd" stroke="none"/></g><g id="g141044" transform="translate(149.449 253.826)"><path d="M0 0l176.981 294.788L353.963 0C235.975-46.922 117.988-44.221 0 0" id="path141046" fill="#f63" fill-opacity="1" fill-rule="evenodd" stroke="none"/></g><g id="g141048" transform="translate(149.449 253.826)"><path d="M0 0v81.386l176.981 213.402z" id="path141050" fill="#ff8359" fill-opacity="1" fill-rule="evenodd" stroke="none"/></g><g id="g141052" transform="translate(149.449 253.826)"><path d="M0 0l81.271 137.993 95.71 156.795-93.262-158.106z" id="path141054" fill="#ffbea8" fill-opacity="1" fill-rule="evenodd" stroke="none"/></g><g id="g141056" transform="translate(332.339 344.063)"><path d="M0 0c6.89 0 12.509 12.127 12.509 26.995C12.509 41.862 6.89 53.989 0 53.989c-6.89 0-12.51-12.127-12.51-26.994C-12.51 12.127-6.89 0 0 0" id="path141058" fill="#e84d19" fill-opacity="1" fill-rule="evenodd" stroke="none"/></g><g id="g141060" transform="translate(332.339 346.932)"><path d="M0 0c6.068 0 11.018 9.521 11.018 21.196S6.068 42.393 0 42.393c-6.069 0-11.02-9.522-11.02-21.197C-11.02 9.521-6.069 0 0 0" id="path141062" fill="#630" fill-opacity="1" fill-rule="evenodd" stroke="none"/></g><g id="g141064" transform="translate(333.226 349.533)"><path d="M0 0a3.738 3.738 0 00-.887-.108c-3.884 0-7.141 6.066-8.027 14.239C-6.658 7.691-3.313 2.506 0 0m-.887 37.298c3.883 0 7.141-6.064 8.027-14.237-2.254 6.44-5.602 11.623-8.913 14.129.291.071.587.108.886.108" id="path141066" fill="#a1662c" fill-opacity="1" fill-rule="evenodd" stroke="none"/></g><g id="g141068" transform="translate(276.095 416.22)"><path d="M0 0c4.662 0 6.147-8.156 3.313-18.215C.48-28.277-5.595-36.434-10.257-36.434c-4.662 0-6.147 8.157-3.314 18.219C-10.739-8.156-4.663 0 0 0" id="path141070" fill="#e84d19" fill-opacity="1" fill-rule="evenodd" stroke="none"/></g><g id="g141072" transform="translate(274.438 410.33)"><path d="M0 0c4.105 0 5.633-6.404 3.408-14.305C1.184-22.206-3.949-28.61-8.055-28.61c-4.107 0-5.634 6.404-3.409 14.305C-9.24-6.404-4.108 0 0 0" id="path141074" fill="#630" fill-opacity="1" fill-rule="evenodd" stroke="none"/></g><g id="g141076" transform="translate(267.474 383.477)"><path d="M0 0a2.777 2.777 0 00-.618-.073c-2.622 0-3.668 4.093-2.712 9.61C-3.031 5.19-1.759 1.691 0 0m6.489 25.169c2.621 0 3.667-4.091 2.711-9.606-.297 4.345-1.571 7.843-3.328 9.535.208.047.414.071.617.071" id="path141078" fill="#a1662c" fill-opacity="1" fill-rule="evenodd" stroke="none"/></g><g id="g141080" transform="translate(310.376 474.572)"><path d="M0 0c4.663 0 7.366-9.593 6.038-21.428C4.71-33.263-.147-42.855-4.809-42.855s-7.365 9.592-6.038 21.427C-9.519-9.593-4.663 0 0 0" id="path141082" fill="#e84d19" fill-opacity="1" fill-rule="evenodd" stroke="none"/></g><g id="g141084" transform="translate(309.599 467.644)"><path d="M0 0c4.106 0 6.591-7.533 5.549-16.826C4.506-26.119.331-33.652-3.775-33.652c-4.108 0-6.592 7.533-5.55 16.826C-8.281-7.533-4.107 0 0 0" id="path141086" fill="#630" fill-opacity="1" fill-rule="evenodd" stroke="none"/></g><g id="g141088" transform="translate(306.651 436.056)"><path d="M0 0a2.302 2.302 0 00-.607-.084c-2.622 0-4.279 4.814-4.148 11.303C-3.807 6.106-2.012 1.99 0 0m2.726 29.609c2.621 0 4.279-4.814 4.149-11.302-.95 5.113-2.745 9.226-4.757 11.216.202.056.405.086.608.086" id="path141090" fill="#a1662c" fill-opacity="1" fill-rule="evenodd" stroke="none"/></g><g id="g141092" transform="translate(371.398 425.269)"><path d="M0 0c4.663 0 10.907-8.156 13.947-18.218 3.041-10.059 1.726-18.215-2.936-18.215-4.663 0-10.908 8.156-13.947 18.215C-5.977-8.156-4.662 0 0 0" id="path141094" fill="#e84d19" fill-opacity="1" fill-rule="evenodd" stroke="none"/></g><g id="g141096" transform="translate(373.178 419.38)"><path d="M0 0c4.107 0 9.372-6.404 11.76-14.304 2.386-7.901.993-14.305-3.114-14.305S-.726-22.205-3.112-14.304C-5.5-6.404-4.106 0 0 0" id="path141098" fill="#630" fill-opacity="1" fill-rule="evenodd" stroke="none"/></g><g id="g141100" transform="translate(381.892 392.526)"><path d="M0 0a2.297 2.297 0 00-.577-.072c-2.62 0-6.056 4.092-8.32 9.609C-6.062 5.19-2.746 1.691 0 0m-8.205 25.17c2.621 0 6.057-4.092 8.32-9.607-2.835 4.345-6.149 7.844-8.896 9.535.182.048.375.072.576.072" id="path141102" fill="#a1662c" fill-opacity="1" fill-rule="evenodd" stroke="none"/></g><g id="g141104" transform="translate(392.143 351.648)"><path d="M0 0c5.849.604 14.06-10.775 18.341-25.412 4.282-14.639 3.014-26.995-2.834-27.597-5.848-.604-14.06 10.775-18.341 25.412C-7.116-12.958-5.848-.602 0 0" id="path141106" fill="#e84d19" fill-opacity="1" fill-rule="evenodd" stroke="none"/></g><g id="g141108" transform="translate(394.65 343.08)"><path d="M0 0c5.15.531 12.051-8.356 15.413-19.851 3.362-11.494 1.913-21.243-3.238-21.774C7.024-42.156.123-33.268-3.238-21.774-6.601-10.279-5.151-.532 0 0" id="path141110" fill="#630" fill-opacity="1" fill-rule="evenodd" stroke="none"/></g><g id="g141112" transform="translate(406.83 304.085)"><path d="M0 0a2.557 2.557 0 00-.72-.183C-4.007-.522-8.507 5.15-11.604 13.098-7.845 6.971-3.524 2.172 0 0m-11.464 36.546c3.288.338 7.787-5.332 10.883-13.279-3.758 6.127-8.078 10.923-11.602 13.096.227.095.466.157.719.183" id="path141114" fill="#a1662c" fill-opacity="1" fill-rule="evenodd" stroke="none"/></g><g id="g141116" transform="translate(283.116 331.16)"><path d="M0 0c8.059-1.011 11.924-15.928 8.635-33.317C5.347-50.705-3.852-63.982-11.91-62.97c-8.06 1.011-11.924 15.928-8.637 33.317C-17.257-12.264-8.059 1.012 0 0" id="path141118" fill="#e84d19" fill-opacity="1" fill-rule="evenodd" stroke="none"/></g><g id="g141120" transform="translate(281.19 320.981)"><path d="M0 0c7.098-.891 10.758-12.683 8.175-26.336-2.581-13.655-10.43-24.001-17.527-23.11-7.099.89-10.76 12.682-8.177 26.338C-14.946-9.456-7.098.892 0 0" id="path141122" fill="#630" fill-opacity="1" fill-rule="evenodd" stroke="none"/></g><g id="g141124" transform="translate(273.446 274.438)"><path d="M0 0a4.448 4.448 0 00-1.057.006c-4.53.568-6.992 8.12-6.221 17.783C-6.068 9.947-3.31 3.409 0 0m7.196 43.635c4.53-.569 6.991-8.12 6.22-17.781-1.209 7.841-3.968 14.376-7.278 17.786a4.62 4.62 0 001.058-.005" id="path141126" fill="#a1662c" fill-opacity="1" fill-rule="evenodd" stroke="none"/></g><g id="g141128" transform="translate(338.153 436.705)"><path d="M0 0c-.21-8.442.202-16.828 3.674-24.936C3.847-16.814 2.276-8.455 0 0m71.012-73.814c-4.861 6.682-6.986 15.589-8.572 24.938 4.417-7.043 7.831-14.9 8.572-24.938m50.197-73.314c-9.631 13.263-17.713 27.967-24.487 43.89 11.575-12.832 19.85-27.401 24.487-43.89M33.67-163.585c-6.863 14.549-9.259 30.17-9.183 46.381 6.461-15.307 10.067-30.742 9.183-46.381m-163.447 21.445c11.472 12.246 19.749 25.992 23.874 41.894-10.436-13.46-18.335-27.436-23.874-41.894m88.151 67.827c3.455 12.614 5.932 25.126 6.122 37.406-4.992-12.099-6.438-24.641-6.122-37.406M1.225 48.876c-.059-12.344 3.119-22.401 9.182-30.422-.083 10.315-3.386 20.441-9.182 30.422" id="path141130" fill="#e84d19" fill-opacity="1" fill-rule="evenodd" stroke="none"/></g><g id="g141132" transform="translate(195.556 365.495)"><path d="M0 0c3.37-2.112.557-13.834-6.282-26.181-6.84-12.347-15.114-20.644-18.484-18.532-3.369 2.111-.555 13.834 6.283 26.181C-11.644-6.185-3.368 2.112 0 0" id="path141134" fill="#e84d19" fill-opacity="1" fill-rule="evenodd" stroke="none"/></g><g id="g141136" transform="translate(191.554 358.267)"><path d="M0 0c2.966-1.86 1.019-11.228-4.352-20.924-5.37-9.695-12.128-16.047-15.096-14.186-2.967 1.861-1.02 11.229 4.35 20.923C-9.727-4.491-2.968 1.86 0 0" id="path141138" fill="#630" fill-opacity="1" fill-rule="evenodd" stroke="none"/></g><g id="g141140" transform="translate(173.731 325.04)"><path d="M0 0a1.33 1.33 0 00-.482.182c-1.893 1.188-.699 7.207 2.619 14.246C.282 8.405-.465 3.089 0 0m16.678 31.162c1.894-1.188.7-7.206-2.616-14.245 1.854 6.023 2.6 11.339 2.134 14.428.175-.031.335-.092.482-.183" id="path141142" fill="#a1662c" fill-opacity="1" fill-rule="evenodd" stroke="none"/></g><g id="g141144" transform="translate(235.24 428.7)"><path d="M0 0c1.494-1.472-1.621-9.638-6.956-18.238-5.337-8.601-10.874-14.381-12.368-12.91-1.492 1.471 1.622 9.636 6.959 18.238C-7.03-4.309-1.494 1.471 0 0" id="path141146" fill="#e84d19" fill-opacity="1" fill-rule="evenodd" stroke="none"/></g><g id="g141148" transform="translate(232.118 423.665)"><path d="M0 0c1.315-1.296-1.015-7.821-5.205-14.575-4.19-6.755-8.653-11.18-9.969-9.884-1.317 1.297 1.015 7.823 5.205 14.577S-1.316 1.296 0 0" id="path141150" fill="#630" fill-opacity="1" fill-rule="evenodd" stroke="none"/></g><g id="g141152" transform="translate(218.065 400.518)"><path d="M0 0a.497.497 0 00-.229.126c-.841.828.626 5.022 3.361 9.925C1.314 5.856.182 2.151 0 0m13.159 21.708c.84-.827-.627-5.019-3.36-9.923 1.817 4.195 2.95 7.899 3.13 10.05a.481.481 0 00.23-.127" id="path141154" fill="#a1662c" fill-opacity="1" fill-rule="evenodd" stroke="none"/></g></g></g></g></svg>