<svg width="34" height="34" viewBox="0 0 34 34" fill="none" xmlns="http://www.w3.org/2000/svg"><path fill-rule="evenodd" clip-rule="evenodd" d="M17 34c9.389 0 17-7.611 17-17S26.389 0 17 0 0 7.611 0 17s7.611 17 17 17zm0-11.287c-4.303 0-7.643-4.638-7.785-4.84a.807.807 0 010-.934c.14-.201 3.481-4.84 7.785-4.84s7.643 4.639 7.785 4.84a.807.807 0 010 .934c-.142.202-3.481 4.84-7.785 4.84zm-6.103-5.301c.9 1.085 3.346 3.688 6.103 3.688 2.757 0 5.205-2.601 6.103-3.688-.9-1.085-3.346-3.69-6.103-3.69-2.757 0-5.205 2.603-6.103 3.69zM17 20.265a2.853 2.853 0 112.823-2.853A2.843 2.843 0 0117 20.265zm0-4.091a1.24 1.24 0 101.21 1.238 1.229 1.229 0 00-1.21-1.24v.002z" fill="#7D8185"/></svg>