<svg width="19" height="19" viewBox="0 0 19 19" fill="none" xmlns="http://www.w3.org/2000/svg"><path fill-rule="evenodd" clip-rule="evenodd" d="M5.415.264C6.375.22 6.68.21 9.125.21c2.445 0 2.75.01 3.71.054.958.044 1.613.197 2.186.418.6.227 1.144.581 1.594 1.04.458.449.811.992 1.037 1.592.223.573.375 1.228.419 2.185.044.961.054 1.267.054 3.711 0 2.445-.01 2.75-.054 3.71-.043.958-.196 1.613-.419 2.185-.226.6-.58 1.145-1.037 1.595-.45.458-.994.812-1.594 1.037-.573.223-1.228.375-2.185.42-.96.043-1.266.053-3.711.053s-2.75-.01-3.71-.054c-.958-.043-1.612-.196-2.185-.419A4.416 4.416 0 011.635 16.7a4.41 4.41 0 01-1.038-1.594c-.222-.573-.374-1.227-.418-2.184C.135 11.96.125 11.653.125 9.21c0-2.445.01-2.75.054-3.71.043-.958.196-1.613.418-2.186a4.41 4.41 0 011.04-1.593A4.395 4.395 0 013.229.682C3.802.461 4.456.308 5.414.264zm7.347 1.62c-.95-.043-1.234-.052-3.637-.052s-2.688.009-3.637.052c-.878.04-1.354.187-1.671.31-.42.164-.72.358-1.035.673a2.78 2.78 0 00-.673 1.035c-.123.317-.27.793-.31 1.671-.043.95-.052 1.234-.052 3.637s.009 2.688.052 3.637c.04.878.187 1.354.31 1.672.144.39.374.744.673 1.035.29.298.644.528 1.035.672.317.124.793.27 1.671.31.95.044 1.233.053 3.637.053s2.688-.01 3.637-.053c.878-.04 1.354-.186 1.671-.31.42-.163.72-.357 1.035-.672.299-.29.529-.645.673-1.035.124-.318.27-.794.31-1.672.043-.95.052-1.234.052-3.637s-.009-2.688-.052-3.637c-.04-.878-.186-1.354-.31-1.671a2.794 2.794 0 00-.673-1.035 2.793 2.793 0 00-1.035-.673c-.317-.123-.793-.27-1.671-.31zm-4.787 10.1a3.002 3.002 0 102.162-5.6 3.002 3.002 0 00-2.162 5.6zM5.854 5.94a4.626 4.626 0 116.542 6.542A4.626 4.626 0 015.854 5.94zm8.923-.666a1.094 1.094 0 10-1.501-1.591 1.094 1.094 0 001.501 1.591z" fill="#fff"/></svg>