<svg width="15" height="15" viewBox="0 0 15 15" fill="none" xmlns="http://www.w3.org/2000/svg"><path fill-rule="evenodd" clip-rule="evenodd" d="M5.325 5.089h2.6v1.295C8.3 5.639 9.26 4.97 10.703 4.97c2.765 0 3.422 1.482 3.422 4.202v5.038h-2.8V9.792c0-1.55-.374-2.423-1.328-2.423-1.322 0-1.872.942-1.872 2.422v4.42h-2.8V5.088zM.524 14.09h2.8V4.97h-2.8v9.121zM3.725 1.995a1.771 1.771 0 01-.527 1.262 1.813 1.813 0 01-2.547 0 1.784 1.784 0 01-.526-1.262c0-.474.189-.927.527-1.262a1.808 1.808 0 012.546 0c.337.335.527.788.527 1.262z" fill="#fff"/></svg>