<svg width="16" height="18" viewBox="0 0 16 18" fill="none" xmlns="http://www.w3.org/2000/svg"><path fill-rule="evenodd" clip-rule="evenodd" d="M1.735 7.627a5.505 5.505 0 1111.01 0 5.505 5.505 0 01-11.01 0zM7.24.622a7.005 7.005 0 104.172 12.633.75.75 0 00.18.775l.006.008.008.007.007.007.007.007.007.007.007.007.008.008.007.007.007.007.008.008.007.007.007.007.008.008.007.007.007.007.008.008.007.007.008.008.007.007.007.007.008.008.007.007.008.008.007.007.008.008.007.007.008.008.007.008.008.007.008.008.007.007.008.008.007.007.008.008.008.008.007.007.008.008.008.008.007.007.008.008.008.008.007.007.008.008.008.008.008.008.007.007.008.008.008.008.008.008.007.007.008.008.008.008.008.008.008.008.008.008.007.007.008.008.008.008.008.008.008.008.008.008.008.008.008.008.007.008.008.007.008.008.008.008.008.008.008.008.008.008.008.008.008.008.008.008.008.008.008.008.008.008.008.008.008.008.008.008.008.008.008.008.008.008.008.008.008.008.008.008.009.009.008.008.008.008.008.008.008.008.008.008.008.008.008.008.008.008.008.008.009.009.008.008.008.008.008.008.008.008.008.008.008.008.009.009.008.008.008.008.008.008.008.008.008.008.009.009.008.008.008.008.008.008.008.008.009.009.008.008.008.008.008.008.008.008.009.009.008.008.008.008.008.008.008.008.009.009.008.008.008.008.008.008.008.008.009.009.008.008.008.008.008.008.009.009.008.008.008.008.008.008.008.008.009.009.008.008.008.008.008.008.008.009.009.008.008.008.008.008.008.008.009.009.008.008.008.008.008.008.008.008.009.009.008.008.008.008.008.008.008.008.009.009.008.008.008.008.008.008.008.008.008.009.009.008.008.008.008.008.008.008.008.008.009.009.008.008.008.008.008.008.008.008.008.008.008.008.009.009.008.008.008.008.008.008.008.008.008.008.008.008.008.008.008.008.008.009.009.008.008.008.008.008.008.008.008.008.008.008.008.008.008.008.008.008.008.008.008.008.008.008.008.008.008.008.008.008.008.008.008.008.008.008.008.008.008.008.008.008.008.008.008.008.008.008.008.008.007.007.008.008.008.008.008.008.008.008.008.008.008.008.008.008.007.007.008.008.008.008.008.008.007.007.008.008.008.008.008.008.008.008.007.007.008.008.008.008.007.008.008.007.008.008.008.008.007.007.008.008.007.008.008.007.008.008.007.007.008.008.007.008.008.007.008.008.007.007.008.008.007.007.008.008.007.007.008.008.007.007.007.008.008.007.007.007.008.008.007.007.008.008.007.007.007.007.008.008.007.007.007.007.008.008.007.007.007.007.007.007.008.008.007.007.007.007.007.007.007.008.008.007.007.007.007.007.007.007.007.007.007.007.007.007.007.007.007.007.007.007.007.007.007.007.007.007.007.007.007.007.007.007.007.007.007.007.007.007.006.007.007.006.007.007.007.007.007.007.007.006.006.007.007.007.007.007.006.006.007.007.007.007.006.006.007.007.006.006.007.007.007.006.006.007.007.006.006.007.006.006.007.007.006.006.007.007.006.006.006.006.007.007.006.006.006.006.007.007.006.006.006.006.006.006.007.007.006.006.006.006.006.006.006.006.006.006.006.006.006.006.006.006.006.006.006.006.006.006.006.006.006.006.006.006.006.006.006.006.005.005.006.006.006.006.006.006.005.005.006.006.006.006.005.005.006.006.005.006.006.005.006.006.005.005.006.006.005.005.006.006.005.005.005.005.006.006.005.005.005.005.006.006.005.005.005.005.005.005.005.006.006.005.005.005.005.005.005.005.005.005.005.005.005.005.005.005.005.005.005.005.005.005.005.005.004.004.005.005.005.005.005.005.004.004.005.005.005.005.004.004.005.005.004.005.005.004.005.005.004.004.004.004.005.005.004.004.005.005.004.004.004.004.004.005.005.004.004.004.004.004.004.004.004.004.004.004.005.005.003.004.005.003.003.005.004.003.004.004.004.004.004.004.004.004.003.004.004.003.004.004.004.004.003.003.004.004.003.003.004.004.003.003.004.004.003.004.004.003.003.003.003.004.004.003.003.003.003.003.004.004.003.003.003.003.003.003.003.003.003.003.003.003.003.003.003.003.003.003.003.003.003.003.002.002.003.003.003.003.002.003.003.002.003.003.002.002.003.003.002.002.003.003.002.002.003.003.002.002.002.002.003.003.002.002.002.002.002.002.002.002.002.003.003.002.002.002.002.001.001.003.002.001.002.002.002.002.002.002.002.002.001.001.002.002.002.002.001.001.002.002.001.001.002.002.001.001.002.002v.001l.002.001.002.002.002.002.001.001.001.001.001.001.001.001.001.001.001.001.001.001.001.001.002.002.001.001.001.002h.001l.001.001.001.001.001.001.531-.53-.53.53a.75.75 0 001.06-1.06l-.53.53.53-.53v-.001h-.001v-.001h-.001v-.001h-.001v-.001h-.002v-.002h-.002v-.002h-.001l-.001-.001-.001-.001-.001-.001-.001-.001-.001-.001-.001-.001-.001-.002h-.001l-.002-.002v-.001l-.002-.001-.001-.002-.002-.001-.001-.001-.002-.002-.001-.001-.002-.002-.001-.001-.002-.002-.001-.002-.002-.001-.002-.002-.002-.002-.001-.002-.002-.001-.002-.002-.002-.002-.002-.002-.002-.002-.002-.002-.002-.002-.002-.002-.002-.002-.002-.003-.003-.002-.002-.002-.002-.002-.002-.003-.003-.002-.002-.002-.002-.003-.003-.002-.003-.003-.002-.002-.003-.003-.002-.002-.003-.003-.003-.003-.002-.003-.003-.002-.003-.003-.003-.003-.002-.003-.003-.003-.003-.003-.003-.003-.003-.003-.003-.003-.003-.003-.004-.003-.003-.003-.003-.003-.003-.003-.003-.003-.004-.004-.003-.003-.003-.003-.004-.004-.003-.003-.003-.004-.004-.003-.003-.004-.004-.003-.003-.004-.004-.003-.004-.004-.003-.004-.004-.003-.004-.004-.004-.004-.003-.004-.004-.003-.004-.004-.004-.004-.004-.004-.004-.004-.004-.004-.004-.004-.004-.004-.004-.004-.004-.004-.004-.005-.005-.004-.004-.004-.004-.004-.004-.004-.005-.005-.004-.004-.004-.004-.005-.005-.004-.004-.004-.005-.005-.004-.004-.005-.005-.004-.005-.005-.004-.004-.005-.005-.004-.005-.005-.004-.005-.005-.005-.005-.004-.005-.005-.004-.005-.005-.005-.005-.005-.005-.005-.005-.004-.005-.005-.005-.005-.005-.005-.005-.005-.005-.005-.005-.006-.005-.005-.005-.005-.005-.005-.005-.005-.005-.005-.006-.006-.005-.005-.005-.005-.006-.006-.005-.005-.005-.005-.006-.006-.005-.005-.005-.006-.006-.005-.006-.006-.005-.005-.005-.006-.006-.005-.006-.006-.005-.006-.006-.005-.006-.006-.005-.006-.006-.005-.006-.006-.005-.006-.006-.006-.006-.006-.006-.005-.006-.006-.006-.006-.005-.006-.006-.006-.006-.006-.006-.006-.006-.006-.006-.006-.006-.006-.006-.006-.007-.006-.006-.007-.006-.006-.006-.006-.006-.006-.006-.006-.006-.006-.007-.007-.006-.006-.006-.006-.006-.007-.007-.006-.006-.006-.006-.007-.007-.006-.006-.006-.007-.007-.006-.006-.007-.007-.006-.006-.007-.007-.006-.006-.007-.007-.006-.006-.007-.007-.006-.007-.007-.006-.007-.007-.006-.007-.007-.006-.007-.007-.006-.007-.007-.007-.007-.006-.007-.007-.006-.007-.007-.007-.007-.007-.007-.007-.007-.006-.007-.007-.007-.007-.006-.007-.007-.007-.007-.007-.007-.007-.007-.007-.007-.007-.007-.007-.007-.007-.007-.007-.008-.007-.006-.007-.008-.008-.007-.007-.007-.007-.007-.007-.007-.007-.007-.007-.008-.008-.007-.007-.007-.007-.007-.007-.008-.008-.007-.007-.007-.007-.007-.007-.008-.008-.007-.007-.007-.007-.008-.008-.007-.007-.007-.008-.008-.007-.007-.007-.008-.008-.007-.007-.008-.008-.007-.007-.008-.008-.007-.007-.008-.008-.007-.007-.008-.008-.007-.007-.008-.008-.007-.007-.008-.008-.007-.008-.008-.007-.008-.008-.007-.007-.008-.008-.008-.008-.007-.008-.008-.007-.008-.008-.007-.008-.008-.007-.008-.008-.007-.008-.008-.007-.008-.008-.008-.008-.007-.008-.008-.008-.008-.007-.008-.008-.008-.008-.007-.008-.008-.008-.008-.008-.008-.007-.008-.008-.008-.008-.007-.008-.008-.008-.008-.008-.008-.008-.008-.008-.008-.008-.008-.007-.008-.008-.008-.008-.008-.008-.008-.008-.008-.008-.008-.008-.008-.008-.008-.008-.008-.008-.008-.008-.008-.008-.008-.008-.008-.008-.008-.008-.008-.008-.008-.008-.008-.008-.008-.009-.008-.008-.008-.008-.008-.008-.008-.008-.008-.008-.008-.008-.008-.008-.008-.008-.009-.008-.008-.009-.008-.008-.008-.008-.008-.008-.008-.008-.008-.008-.008-.008-.009-.008-.008-.009-.008-.008-.008-.008-.008-.008-.008-.008-.008-.008-.009-.009-.008-.008-.008-.008-.008-.008-.008-.008-.009-.008-.008-.009-.008-.008-.008-.008-.008-.008-.009-.008-.008-.009-.008-.008-.008-.008-.008-.008-.009-.009-.008-.008-.008-.008-.008-.008-.008-.008-.009-.009-.008-.008-.008-.008-.008-.008-.008-.009-.009-.008-.008-.008-.008-.008-.008-.008-.009-.009-.008-.008-.008-.008-.008-.008-.008-.008-.009-.009-.008-.008-.008-.008-.008-.008-.009-.008-.008-.009-.008-.008-.008-.008-.008-.008-.009-.009-.008-.008-.008-.008-.008-.008-.008-.008-.009-.009-.008-.008-.008-.008-.008-.008-.008-.008-.009-.008-.008-.009-.008-.008-.008-.008-.008-.008-.008-.008-.009-.008-.008-.009-.008-.008-.008-.008-.008-.008-.008-.008-.009-.008-.008-.009-.008-.008-.008-.008-.008-.008-.008-.008-.008-.008-.008-.008-.009-.008-.008-.008-.008-.009-.008-.008-.008-.008-.008-.008-.008-.008-.008-.008-.008-.008-.008-.008-.008-.008-.008-.008-.008-.008-.008-.008-.008-.008-.008-.008-.008-.008-.008-.008-.008-.008-.008-.008-.008-.008-.008-.008-.008-.008-.008-.008-.008-.008-.008-.008-.008-.008-.008-.008-.008-.008-.008-.008-.008-.008-.008-.007-.008-.008-.008-.008-.007-.008-.008-.008-.008-.008-.008-.008-.008-.007-.008-.008-.008-.008-.007-.008-.008-.008-.008-.007-.008-.008-.007-.008-.008-.008-.008-.007-.008-.008-.007-.008-.008-.007-.008-.008-.007-.008-.008-.007-.008-.008-.007-.008-.008-.007-.008-.008-.007-.008-.008-.007-.008-.008-.007-.007-.008-.008-.007-.008-.008-.007-.007-.008-.008-.007-.007-.008-.008-.007-.007-.008-.008-.007-.007-.007-.008-.008-.007-.007-.008-.008-.007-.007-.007-.007-.008-.008-.007-.007-.007-.007-.008-.008-.007-.007-.007-.007-.008-.008-.007-.007-.007-.007-.007-.007-.008-.007-.007-.008-.007-.007-.007-.007-.007a.749.749 0 00-.642-.212A7.005 7.005 0 007.24.621z" fill="#222"/></svg>