<svg width="17" height="14" viewBox="0 0 17 14" fill="none" xmlns="http://www.w3.org/2000/svg"><path d="M16.25 1.567a6.676 6.676 0 01-1.914.525A3.343 3.343 0 0015.8.247a6.657 6.657 0 01-2.117.808 3.335 3.335 0 00-5.68 3.042A9.468 9.468 0 011.13.613a3.332 3.332 0 00-.057 3.25c.259.484.633.897 1.09 1.201a3.326 3.326 0 01-1.51-.417v.043a3.335 3.335 0 002.674 3.27 3.358 3.358 0 01-1.506.057 3.336 3.336 0 003.115 2.314A6.69 6.69 0 010 11.712a9.429 9.429 0 005.11 1.498c6.133 0 9.486-5.08 9.486-9.485 0-.143-.004-.288-.01-.431a6.778 6.778 0 001.663-1.725l.001-.002z" fill="#fff"/></svg>