<svg xmlns="http://www.w3.org/2000/svg" width="200" height="245.106" xmlns:v="https://vecta.io/nano"><rect width="110" height="89" rx="10" fill="#fff" x="45" y="20"/><path d="M93.922 83.494v3.149h9.812a1.39 1.39 0 0 1 1.391 1.391c0 .805-.586 1.391-1.391 1.391H81.402a1.39 1.39 0 0 1-1.391-1.391c0-.805.586-1.391 1.391-1.391h9.812v-3.149a1.39 1.39 0 0 1 1.391-1.391c.732.073 1.318.659 1.318 1.391zm-26.14-38.515v29.874c0 1.245 1.025 2.197 2.197 2.197h6.444c.146-2.856 1.538-4.833 3.808-5.418 5.199-1.318 6.956-2.856 7.615-3.734-.439-.293-.805-.659-1.172-1.098-3.002-3.368-2.563-9.153-2.49-9.812.366-6.736 5.345-8.421 8.274-8.347 2.929-.073 7.908 1.538 8.274 8.347.073.586.513 6.37-2.49 9.812-.293.366-.659.659-1.025.952.513.805 2.27 2.49 7.688 3.808 2.27.586 3.661 2.49 3.808 5.418h6.444c1.245 0 2.197-1.025 2.197-2.197v-6.37a1.39 1.39 0 1 1 2.782 0v6.37c0 2.709-2.197 4.979-4.979 4.979H69.979C67.27 79.76 65 77.563 65 74.781V44.979C65 42.27 67.197 40 69.979 40h28.923a1.39 1.39 0 0 1 1.391 1.391c0 .805-.586 1.391-1.391 1.391H69.979c-1.245 0-2.197 1.025-2.197 2.197zm20.941 20.136c.879 1.025 2.123 1.464 3.661 1.538h.073c1.611 0 2.782-.513 3.661-1.538 2.343-2.636 1.831-7.688 1.831-7.762v-.073c-.293-5.638-4.613-5.785-5.492-5.711h-.073-.146c-1.172 0-5.052.439-5.272 5.711v.073c-.073.073-.586 5.126 1.757 7.762zM79.132 77.05h26.726c-.073-1.172-.513-2.416-1.757-2.709-6.297-1.611-8.64-3.734-9.519-5.272-.659.146-1.391.293-2.123.293h-.073-.073-.073-.073c-.659 0-1.318-.073-1.904-.22-.879 1.538-3.222 3.661-9.446 5.199-1.172.293-1.538 1.538-1.684 2.709zM135 45.052v13.326c0 2.709-2.197 4.979-4.979 4.979h-11.789l-6.224 6.004c-.293.22-.586.366-.952.366-.146 0-.366 0-.513-.146-.513-.22-.805-.732-.805-1.245v-5.052h-1.464c-2.709 0-4.979-2.197-4.979-4.979V44.979c0-2.709 2.197-4.979 4.979-4.979h21.82c2.636.073 4.906 2.27 4.906 5.052zm-2.782 0c0-1.245-1.025-2.197-2.197-2.197h-21.82c-1.245 0-2.197 1.025-2.197 2.197v13.326c0 1.245 1.025 2.197 2.197 2.197h2.782a1.39 1.39 0 0 1 1.391 1.391v3.149l4.32-4.174c.22-.22.586-.366.952-.366h12.374c1.245 0 2.197-1.025 2.197-2.197V45.052zm-13.107 5.272c-.952 0-1.757.805-1.757 1.757s.805 1.757 1.757 1.757 1.757-.805 1.757-1.757-.805-1.757-1.757-1.757zm-6.736 0c-.952 0-1.757.805-1.757 1.757s.805 1.757 1.757 1.757 1.757-.805 1.757-1.757-.805-1.757-1.757-1.757zm13.473 0c-.952 0-1.757.805-1.757 1.757s.805 1.757 1.757 1.757 1.757-.805 1.757-1.757-.805-1.757-1.757-1.757z" fill="#323232"/><path d="M9.567 168.624L0 129.558h10.497l6.591 27.904 8.052-27.904h8.424l7.999 27.904 6.644-27.904h10.497l-9.567 39.066H35.744l-6.431-20.357-6.352 20.357H9.567zm70.536.532c-11.799 0-20.276-7.999-20.276-20.064 0-12.145 8.478-20.091 20.276-20.091 11.826 0 20.304 7.946 20.304 20.091 0 12.065-8.478 20.064-20.304 20.064zm0-9.195c5.9 0 10.311-4.172 10.311-10.869s-4.412-10.896-10.311-10.896c-5.873 0-10.231 4.199-10.231 10.896s4.358 10.869 10.231 10.869zm57.382 8.664h-12.012l-10.178-16.743v16.743H105.17v-39.066h14.962c9.354 0 13.075 5.368 13.075 12.065 0 5.501-3.242 8.717-7.919 9.726zM123.56 141.73c0-2.392-1.355-3.907-5.102-3.907h-3.162v7.84h3.162c3.747 0 5.102-1.541 5.102-3.933zm27.059 18.019h11.427v8.876h-21.553v-39.066h10.125v30.19zm15.259 8.876v-39.066h15.121c12.783 0 19.002 7.654 19.002 19.532 0 11.853-6.219 19.532-19.002 19.532h-15.121zm10.126-8.876h4.465c6.139 0 8.876-3.535 8.876-10.657 0-7.149-2.737-10.736-8.876-10.736h-4.465v21.394zM0 211.258v-31.804h8.243v31.804H0zm36.179-31.804h8.243v31.804h-9.801l-12.137-20.64v20.64h-8.243v-31.804h9.693l12.246 20.532v-20.532zm29.454 31.804l-7.789-31.804h8.546l5.366 22.717 6.555-22.717h6.858l6.512 22.717 5.409-22.717h8.546l-7.789 31.804H86.943l-5.236-16.573-5.171 16.573H65.632zm57.424.433c-9.606 0-16.507-6.512-16.507-16.334 0-9.887 6.902-16.357 16.507-16.357 9.628 0 16.529 6.469 16.529 16.357 0 9.822-6.902 16.334-16.529 16.334zm0-7.486c4.803 0 8.394-3.397 8.394-8.849s-3.591-8.87-8.394-8.87c-4.781 0-8.33 3.418-8.33 8.87s3.548 8.849 8.33 8.849zm46.715 7.053h-9.779l-8.286-13.631v13.631h-8.243v-31.804h12.181c7.616 0 10.645 4.37 10.645 9.822 0 4.479-2.639 7.096-6.447 7.918zm-11.336-21.895c0-1.947-1.103-3.18-4.154-3.18h-2.575v6.382h2.575c3.051 0 4.154-1.255 4.154-3.202zm13.786 21.895v-31.804h12.31c10.406 0 15.469 6.231 15.469 15.901 0 9.649-5.063 15.901-15.469 15.901h-12.31zm8.244-7.226h3.635c4.998 0 7.226-2.878 7.226-8.676 0-5.82-2.228-8.741-7.226-8.741h-3.635v17.417zM3.336 244.93L0 232.177h2.754l2.489 9.656 2.851-9.656h2.233l2.833 9.656 2.515-9.656h2.745l-3.336 12.753h-3.407l-2.471-7.881-2.462 7.881H3.336zm19.295 0v-12.753h2.648v12.753h-2.648zm15.509-12.753v2.33h-3.027v10.423h-2.621v-10.423h-3.045v-2.33h8.693zm12.217 0h2.648v12.753h-2.648v-5.242h-5.392v5.242h-2.648v-12.753h2.648v5.207h5.392v-5.207zm13.77 12.929c-3.751 0-6.522-2.559-6.522-6.557 0-4.007 2.771-6.549 6.522-6.549 3.742 0 6.513 2.542 6.513 6.549 0 3.998-2.771 6.557-6.513 6.557zm0-2.427c2.198 0 3.883-1.544 3.883-4.13 0-2.577-1.686-4.113-3.883-4.113s-3.883 1.536-3.883 4.113c0 2.586 1.686 4.13 3.883 4.13zm15.844 2.427c-2.798 0-4.986-1.43-4.986-4.642v-8.287h2.648v7.925c0 1.942 1.033 2.665 2.339 2.665 1.315 0 2.356-.733 2.356-2.665v-7.925h2.648v8.287c0 3.213-2.198 4.642-5.004 4.642zm17.609-12.929v2.33h-3.027v10.423h-2.621v-10.423h-3.045v-2.33h8.693zm16.561 12.929c-3.68 0-6.39-2.542-6.39-6.522 0-4.033 2.771-6.584 6.522-6.584 2.462 0 4.501 1.086 5.613 3.001l-2.321 1.236c-.671-1.306-1.871-1.933-3.292-1.933-2.206 0-3.866 1.518-3.866 4.219 0 2.604 1.553 4.28 3.963 4.28 1.633 0 3.133-.812 3.495-2.674h-3.486v-2.127h5.993v6.928h-2.083v-1.765c-.821 1.209-2.198 1.942-4.148 1.942zm13.797-2.515h3.998v2.339h-6.646v-12.753h2.648v10.414zm16.727 2.339l-.927-2.63h-5.357l-.927 2.63h-2.709l4.695-12.753h3.239l4.695 12.753h-2.709zm-5.508-4.845h3.804l-1.897-5.41zm16.541 5.022c-2.736 0-4.872-1.315-5.26-3.707l2.736-.627c.177 1.43 1.227 2.171 2.63 2.171 1.077 0 1.933-.477 1.924-1.553-.009-1.2-1.421-1.58-2.974-2.056-1.871-.582-3.874-1.271-3.874-3.618 0-2.374 1.942-3.716 4.501-3.716 2.242 0 4.501.909 5.013 3.354l-2.559.635c-.238-1.271-1.094-1.827-2.295-1.827-1.068 0-1.977.441-1.977 1.492 0 .98 1.253 1.306 2.701 1.739 1.924.582 4.201 1.324 4.201 3.866 0 2.709-2.268 3.848-4.766 3.848zm13.62 0c-2.736 0-4.872-1.315-5.26-3.707l2.736-.627c.177 1.43 1.227 2.171 2.63 2.171 1.077 0 1.933-.477 1.924-1.553-.009-1.2-1.421-1.58-2.974-2.056-1.871-.582-3.874-1.271-3.874-3.618 0-2.374 1.942-3.716 4.501-3.716 2.242 0 4.501.909 5.013 3.354l-2.559.635c-.238-1.271-1.094-1.827-2.295-1.827-1.068 0-1.977.441-1.977 1.492 0 .98 1.253 1.306 2.701 1.739 1.924.582 4.201 1.324 4.201 3.866 0 2.709-2.268 3.848-4.766 3.848zm16.78-10.599h-4.731v2.895h4.192v2.303h-4.192v2.886h4.731v2.339h-7.396v-12.753h7.396v2.33zm9.136 10.599c-2.736 0-4.872-1.315-5.26-3.707l2.736-.627c.177 1.43 1.227 2.171 2.63 2.171 1.077 0 1.933-.477 1.924-1.553-.009-1.2-1.421-1.58-2.974-2.056-1.871-.582-3.874-1.271-3.874-3.618 0-2.374 1.942-3.716 4.501-3.716 2.242 0 4.501.909 5.013 3.354l-2.559.635c-.238-1.271-1.094-1.827-2.295-1.827-1.068 0-1.977.441-1.977 1.492 0 .98 1.253 1.306 2.701 1.739 1.924.582 4.201 1.324 4.201 3.866 0 2.709-2.268 3.848-4.766 3.848z" fill="#fff"/></svg>