<?xml version="1.0" encoding="UTF-8" standalone="no"?>
<svg
   width="450"
   height="144"
   fill="#111"
   version="1.1"
   id="svg44"
   sodipodi:docname="logo6.svg"
   inkscape:version="1.2 (1:1.2.1+202207142221+cd75a1ee6d)"
   xmlns:inkscape="http://www.inkscape.org/namespaces/inkscape"
   xmlns:sodipodi="http://sodipodi.sourceforge.net/DTD/sodipodi-0.dtd"
   xmlns="http://www.w3.org/2000/svg"
   xmlns:svg="http://www.w3.org/2000/svg">
  <defs
     id="defs48" />
  <sodipodi:namedview
     id="namedview46"
     pagecolor="#ffffff"
     bordercolor="#000000"
     borderopacity="0.25"
     inkscape:showpageshadow="2"
     inkscape:pageopacity="0.0"
     inkscape:pagecheckerboard="0"
     inkscape:deskcolor="#d1d1d1"
     showgrid="false"
     inkscape:zoom="2.9111111"
     inkscape:cx="225"
     inkscape:cy="116.27863"
     inkscape:window-width="1920"
     inkscape:window-height="1002"
     inkscape:window-x="0"
     inkscape:window-y="0"
     inkscape:window-maximized="1"
     inkscape:current-layer="svg44" />
  <path
     d="m 72.20906,0.59712306 c -39.701,0 -71.99999975,32.29899994 -71.99999975,71.99999994 0,39.700987 32.29899975,71.999987 71.99999975,71.999987 39.701,0 72,-32.299 72,-71.999987 0,-39.701 -32.299,-71.99999994 -72,-71.99999994 z m 0,140.40898694 c -37.721,0 -68.4089998,-30.688 -68.4089998,-68.408987 0,-37.721 30.6879998,-68.4089999 68.4089998,-68.4089999 37.721,0 68.409,30.6879999 68.409,68.4089999 0,37.720987 -30.688,68.408987 -68.409,68.408987 z m 25.003,-83.408987 h 7.471 l -23.184,30.913 -9.054,-12.069 -9.052,12.069 -23.184,-30.913 h 7.471 l 15.715,20.952 5.316,-7.089 -10.397,-13.862 h 7.471 l 6.662,8.882 6.661,-8.882 h 7.47 l -10.397,13.862 5.317,7.089 z m 92.13553,-6.509883 h 3.376 l -10.477,13.97 -4.091,-5.454 -4.091,5.454 -10.478,-13.97 h 3.376 l 7.102,9.468 2.403,-3.204 -4.699,-6.265 h 3.376 l 3.011,4.014 3.01,-4.014 h 3.376 l -4.698,6.265 2.403,3.204 z m 22.616,1.054 c 1.066,1.057 1.058,2.586 1.044,4.901 l -0.003,0.536 -0.153,3.203 c -0.123,0.714 -0.406,1.742 -1.445,2.435 -1.315,0.877 -3.28,0.897 -7.585,0.94 l -1.864,0.012 c -3.411,0 -5.125,-0.181 -6.221,-1.269 -1.141,-1.134 -1.135,-2.803 -1.125,-5.33 0.01,-2.82 0.017,-4.522 1.446,-5.578 1.233,-0.912 3.024,-0.936 6.948,-0.988 l 0.783,-0.011 c 4.89,-0.07 6.915,-0.099 8.175,1.151 z m -1.665,4.885 c 0.008,-1.33 0.016,-2.706 -0.242,-2.961 -0.32,-0.317 -1.757,-0.391 -3.67,-0.391 l -2.558,0.025 -0.786,0.011 c -2.811,0.038 -4.842,0.065 -5.374,0.458 -0.336,0.248 -0.341,1.713 -0.347,3.41 -0.006,1.575 -0.012,3.064 0.326,3.398 0.529,0.526 3.386,0.497 6.148,0.47 3.172,-0.032 5.464,-0.055 6.109,-0.485 0.38,-0.253 0.385,-1.57 0.391,-3.394 z m 23.245,4.303 1.35,-0.02 0.04,2.701 -1.35,0.02 -0.707,0.007 c -1.875,0 -4.883,-0.186 -6.783,-2.058 -0.846,-0.833 -1.379,-1.893 -1.592,-3.16 h -4.886 l -0.019,5.217 -2.701,-0.01 0.043,-11.767 v -1.352 h 0.005 v -0.005 l 1.349,0.005 h 12.724 c 1.711,0 4.257,1.054 4.257,3.956 0,2.902 -2.366,3.956 -3.956,3.956 h -4.046 c 0.12851,0.466899 0.37549,0.892665 0.717,1.236 1.358,1.337 4.192,1.295 5.554,1.275 z m -13.903,-5.213 h 11.666 c 0.118,-0.004 0.47,-0.048 0.76,-0.209 0.251,-0.139 0.508,-0.372 0.508,-1.047 0,-0.543 -0.184,-0.836 -0.655,-1.048 -0.429,-0.192 -0.896,-0.208 -0.901,-0.208 h -11.378 v 2.511 z m 22.269,5.284 h 15.79 v 2.728 h -18.518 v -13.254 h 2.728 z m 36.52601,-7.892 c 1.11,1.126 1.71,2.569 1.689,4.063 -0.027,1.849 -0.918,3.536 -2.51,4.751 -1.658,1.265 -3.992,1.934 -6.748,1.934 -5.262,0 -7.91,-0.077 -7.936,-0.078 l -1.32301,-0.04 v -13.213 h 9.25901 c 4.151,0 6.408,1.405 7.57,2.584 z m -7.569,8.021 c 4.472,0 6.502,-2.007 6.531,-3.997 0.011,-0.769 -0.302,-1.498 -0.904,-2.109 -1.126,-1.142 -3.124,-1.771 -5.627,-1.771 h -6.532 v 7.828 z m 26.184,2.666 h -2.701 v -13.124 h 2.701 z m 19.689,-13.283 h 2.728 v 13.072 l -15.79,-8.247 v 8.43 h -2.728 v -13.072 l 15.79,8.247 z m 41.598,0.174 h 3.376 l -10.477,13.97 -4.091,-5.454 -4.091,5.454 -10.478,-13.97 h 3.376 l 7.102,9.468 2.403,-3.204 -4.699,-6.265 h 3.376 l 3.011,4.014 3.01,-4.014 h 3.376 l -4.698,6.265 2.403,3.204 z m 22.616,1.054 c 1.066,1.057 1.058,2.586 1.044,4.901 l -0.003,0.536 -0.153,3.203 c -0.123,0.714 -0.406,1.742 -1.445,2.435 -1.315,0.877 -3.28,0.897 -7.585,0.94 l -1.864,0.012 c -3.411,0 -5.125,-0.181 -6.221,-1.269 -1.141,-1.134 -1.135,-2.803 -1.125,-5.33 0.01,-2.82 0.017,-4.522 1.446,-5.578 1.233,-0.912 3.024,-0.936 6.948,-0.988 l 0.783,-0.011 c 4.89,-0.07 6.915,-0.099 8.175,1.151 z m -1.665,4.885 c 0.008,-1.33 0.016,-2.706 -0.242,-2.961 -0.32,-0.317 -1.757,-0.391 -3.67,-0.391 l -2.558,0.025 -0.786,0.011 c -2.811,0.038 -4.842,0.065 -5.374,0.458 -0.336,0.248 -0.341,1.713 -0.347,3.41 -0.006,1.575 -0.012,3.064 0.326,3.398 0.529,0.526 3.386,0.497 6.148,0.47 3.172,-0.032 5.464,-0.055 6.109,-0.485 0.38,-0.253 0.385,-1.57 0.391,-3.394 z m 23.245,4.303 1.35,-0.02 0.04,2.701 -1.35,0.02 -0.707,0.007 c -1.875,0 -4.883,-0.186 -6.783,-2.058 -0.846,-0.833 -1.379,-1.893 -1.592,-3.16 h -4.886 l -0.019,5.217 -2.701,-0.01 0.043,-11.767 v -1.352 h 0.005 v -0.005 l 1.349,0.005 h 12.724 c 1.711,0 4.257,1.054 4.257,3.956 0,2.902 -2.366,3.956 -3.956,3.956 h -4.046 c 0.1285,0.466899 0.37549,0.892665 0.717,1.236 1.358,1.337 4.192,1.295 5.554,1.275 z m -13.904,-5.212 h 11.666 c 0.118,-0.004 0.47,-0.048 0.76,-0.209 0.251,-0.139 0.508,-0.372 0.508,-1.047 0,-0.543 -0.184,-0.836 -0.655,-1.048 -0.429,-0.192 -0.896,-0.208 -0.901,-0.208 h -11.377 v 2.511 z m 36.37,-2.608 c 1.11,1.126 1.71,2.569 1.689,4.063 -0.027,1.849 -0.918,3.536 -2.51,4.751 -1.658,1.265 -3.992,1.934 -6.748,1.934 -5.262,0 -7.91,-0.077 -7.936,-0.078 l -1.323,-0.04 v -13.213 h 9.259 c 4.151,0 6.408,1.405 7.57,2.584 z m -7.569,8.021 c 4.472,0 6.502,-2.007 6.531,-3.997 0.011,-0.769 -0.302,-1.498 -0.904,-2.109 -1.126,-1.142 -3.124,-1.771 -5.627,-1.771 h -6.532 v 7.828 z m 16.406,-7.815 c -0.253,0.14 -0.513,0.375 -0.513,1.057 0,0.531 0.172,0.822 0.613,1.035 0.441,0.213 0.943,0.232 0.969,0.232 l 9.915,0.039 c 1.723,0 4.294,1.064 4.294,3.996 0,2.932 -2.389,3.996 -3.996,3.996 h -14.522 v -2.728 h 14.511 c 0.26754,-0.01631 0.52876,-0.08817 0.767,-0.211 0.254,-0.14 0.513,-0.376 0.513,-1.057 0,-0.531 -0.172,-0.822 -0.613,-1.035 -0.441,-0.213 -0.942,-0.232 -0.969,-0.233 l -9.909,-0.044 v 0.005 c -1.728,0 -4.3,-1.064 -4.3,-3.996 0,-2.932 2.388,-3.994 3.994,-3.994 h 14.522 v 2.728 h -14.51 c -0.26755,0.01631 -0.52876,0.08817 -0.767,0.211 z m -119.169,31.624 h 1.583 l -4.913,6.551 -1.919,-2.558 -1.918,2.558 -4.914,-6.551 h 1.583 l 3.33,4.44 1.127,-1.502 -2.204,-2.938 h 1.583 l 1.412,1.882 1.412,-1.882 h 1.583 l -2.203,2.938 1.127,1.502 z m 4.17,6.147 h -1.267 v -6.154 h 1.267 z m 1.828,-6.293 h 8.684 v 1.279 h -3.703 v 4.955 h -1.279 v -4.955 h -3.702 z m 17.921,0.077 h 1.279 v 6.216 h -1.279 v -2.468 h -6.126 v 2.468 h -1.279 v -6.216 h 1.279 v 2.468 h 6.126 z m 11.239,0.562 c 0.5,0.496 0.496,1.213 0.49,2.298 l -0.001,0.251 -0.072,1.502 c -0.058,0.335 -0.191,0.817 -0.678,1.142 -0.617,0.411 -1.538,0.42 -3.557,0.441 l -0.874,0.005 c -1.599,0 -2.403,-0.085 -2.917,-0.595 -0.535,-0.532 -0.532,-1.315 -0.528,-2.5 0.005,-1.322 0.008,-2.12 0.678,-2.616 0.578,-0.427 1.418,-0.439 3.258,-0.463 l 0.367,-0.005 c 2.293,-0.033 3.243,-0.046 3.833,0.54 z m -0.781,2.291 c 0.004,-0.624 0.007,-1.269 -0.114,-1.389 -0.15,-0.149 -0.824,-0.183 -1.721,-0.183 l -1.2,0.012 -0.368,0.005 c -1.318,0.01791 -2.271,0.031 -2.52,0.215 -0.157,0.116 -0.16,0.803 -0.163,1.599 -0.003,0.739 -0.005,1.437 0.153,1.594 0.248,0.247 1.588,0.233 2.883,0.22 1.488,-0.015 2.562,-0.026 2.865,-0.227 0.178,-0.119 0.18,-0.736 0.184,-1.592 z m 11.778,-2.925 0.023,3.106 c 0.009,0.687 -0.268,1.354 -0.781,1.879 -0.544,0.556 -1.602,1.222 -3.556,1.236 h -0.057 c -1.479,0 -2.714,-0.425 -3.483,-1.199 -0.529,-0.532 -0.815,-1.211 -0.807,-1.911 l -0.023,-3.101 1.279,-0.009 0.023,3.115 v 0.007 c -0.005,0.361 0.145,0.706 0.435,0.998 0.534,0.538 1.465,0.829 2.623,0.821 1.181,-0.009 2.123,-0.311 2.651,-0.851 0.277,-0.284 0.421,-0.618 0.416,-0.968 v -0.005 l -0.023,-3.108 z m 1.854,-0.007 h 8.684 v 1.279 h -3.703 v 4.955 h -1.279 v -4.955 h -3.702 z m 23.954,3.225 v 2.431 l 0.004,0.637 h -4.303 c -1.293,0 -2.375,-0.289 -3.129,-0.837 -0.754,-0.548 -1.171,-1.344 -1.171,-2.241 -0.006,-0.73049 0.28742,-1.431571 0.811,-1.941 0.76,-0.754 1.967,-1.147 3.493,-1.136 h 3.66 l 0.633,-0.002 0.003,1.267 -0.633,0.002 h -3.672 c -1.165,-0.009 -2.084,0.264 -2.591,0.768 -0.28379,0.272168 -0.44203,0.649825 -0.437,1.043 0,1.117 1.162,1.811 3.033,1.811 h 3.03 l -0.001,-1.177 h -2.44 v -1.267 h 3.72 z m 3.121,1.757 h 7.405 v 1.279 h -8.684 v -6.216 h 1.279 v 4.936 z m 13.686,-5.396 5,6.642 h -1.608 l -1.398,-1.851 h -3.988 l -1.378,1.851 h -1.59 z m -1.035,3.512 h 2.07 l -1.035,-1.38 z m 8.872,-1.717 c -0.119,0.066 -0.24,0.176 -0.24,0.496 0,0.249 0.081,0.385 0.287,0.486 0.14306,0.06475 0.29713,0.101743 0.454,0.109 l 4.65,0.018 c 0.808,0 2.014,0.499 2.014,1.874 0,1.375 -1.121,1.874 -1.874,1.874 h -6.811 v -1.279 h 6.805 c 0.12555,-0.0078 0.24813,-0.04147 0.36,-0.099 0.119,-0.066 0.24,-0.176 0.24,-0.496 0,-0.249 -0.081,-0.385 -0.287,-0.486 -0.14338,-0.06488 -0.29779,-0.101868 -0.455,-0.109 l -4.647,-0.021 v 0.002 c -0.811,0 -2.016,-0.499 -2.016,-1.874 0,-1.375 1.121,-1.874 1.874,-1.874 h 6.811 v 1.279 h -6.805 c -0.12556,0.0078 -0.24814,0.04147 -0.36,0.099 z m 10.505,0 c -0.119,0.066 -0.24,0.176 -0.24,0.496 0,0.249 0.081,0.385 0.287,0.486 0.14306,0.06475 0.29713,0.101743 0.454,0.109 l 4.65,0.018 c 0.808,0 2.014,0.499 2.014,1.874 0,1.375 -1.121,1.874 -1.874,1.874 h -6.811 v -1.279 h 6.805 c 0.12555,-0.0078 0.24813,-0.04147 0.36,-0.099 0.119,-0.066 0.24,-0.176 0.24,-0.496 0,-0.249 -0.081,-0.385 -0.287,-0.486 -0.14338,-0.06488 -0.29779,-0.101868 -0.455,-0.109 l -4.647,-0.021 v 0.002 c -0.811,0 -2.016,-0.499 -2.016,-1.874 0,-1.375 1.121,-1.874 1.874,-1.874 h 6.811 v 1.279 h -6.805 c -0.12556,0.0078 -0.24814,0.04147 -0.36,0.099 z m 17.67,-0.029 h -7.405 v 1.191 l 4.939,0.018 -0.005,1.279 -4.934,-0.018 v 1.187 h 7.405 v 1.279 h -8.684 v -6.216 h 8.684 v 1.279 z m 3.341,0.029 c -0.119,0.066 -0.24,0.176 -0.24,0.496 0,0.249 0.081,0.385 0.287,0.486 0.14306,0.06475 0.29713,0.101743 0.454,0.109 l 4.65,0.018 c 0.808,0 2.014,0.499 2.014,1.874 0,1.375 -1.121,1.874 -1.874,1.874 h -6.811 v -1.279 h 6.805 c 0.12555,-0.0078 0.24813,-0.04147 0.36,-0.099 0.119,-0.066 0.24,-0.176 0.24,-0.496 0,-0.249 -0.081,-0.385 -0.287,-0.486 -0.14338,-0.06488 -0.29779,-0.101868 -0.455,-0.109 l -4.647,-0.021 v 0.002 c -0.811,0 -2.016,-0.499 -2.016,-1.874 0,-1.375 1.121,-1.874 1.874,-1.874 h 6.811 v 1.279 h -6.805 c -0.12556,0.0078 -0.24814,0.04147 -0.36,0.099 z"
     id="path42"
     sodipodi:nodetypes="sssssssssscccccccccccccccccccccccccccccccccccccccccccccccccccccccccccccccccccccccccccssscccccccscscccccccccccccscccscccccscccccccccccccccccccccccccccccccccccccccccccccccccccccccccccccccccccccccccccssscccccccscsccccccscccscccccsccccssccssccccsscccsscccccccccccccccccccccccccccccccccccccccccccccccccccccccccccccccccccssccccccccccscccccccccccccccccccccccccssccccccccccscccccccccccccccccccccccccccscccssccccsccccssccccccscccssccccsccccssccccccccccccccccccccscccssccccsccccssccccc" />
</svg>
