<svg xmlns="http://www.w3.org/2000/svg" width="310" height="223.099" fill="#111" xmlns:v="https://vecta.io/nano"><path d="M199.336 23.187a53.99 53.99 0 0 0-3.298-4.265c-.017-.019-.028-.042-.045-.063s-.048-.045-.069-.07l-3.699-3.887c-7.041-6.706-15.881-11.528-25.73-13.664C162.789.434 158.948 0 155.001 0a54.16 54.16 0 0 0-11.493 1.238c-14.802 3.21-27.34 12.483-34.88 25.094a53.6 53.6 0 0 0-5.472 12.573A53.93 53.93 0 0 0 101 54.001a53.73 53.73 0 0 0 9.6 30.72 53.98 53.98 0 0 0 2.885 3.804 5.94 5.94 0 0 0 .463.634c.191.224.402.429.624.621a54.58 54.58 0 0 0 3.242 3.353c7.034 6.686 15.862 11.497 25.695 13.629A54.12 54.12 0 0 0 155.002 108c3.946 0 7.788-.434 11.493-1.238 14.856-3.221 27.428-12.551 34.96-25.233a53.68 53.68 0 0 0 5.314-12.155c1.446-4.875 2.235-10.032 2.235-15.375a53.73 53.73 0 0 0-9.667-30.813zm-10.724 64.648a48 48 0 0 1-10.053 7.636 47.29 47.29 0 0 1-3.667 1.886c2.06-2.479 3.933-5.339 5.589-8.506a60.88 60.88 0 0 1-2.629.064 67.06 67.06 0 0 1-4.523-.167l-.08.135C168.135 97.16 161.653 101.72 155 101.72c-6.616 0-13.062-4.512-18.163-12.702-.028-.046-.058-.089-.087-.135-.286-.463-.562-.94-.835-1.418a52.62 52.62 0 0 1-2.767-5.634c-.225-.535-.441-1.079-.652-1.627a62.73 62.73 0 0 1-1.897-5.753 92.1 92.1 0 0 1-4.46-2.919l-.563.85c-.519.808-.984 1.57-1.407 2.299.698 2.718 1.529 5.322 2.48 7.795l.636 1.606c.833 2.005 1.751 3.909 2.737 5.711.295.538.597 1.064.905 1.583 1.29 2.174 2.684 4.182 4.182 5.983-1.253-.577-2.475-1.206-3.667-1.886a48.22 48.22 0 0 1-4.522-2.924 47.31 47.31 0 0 1-1.848-1.419c1.027-.203 2.101-.465 3.22-.792-.993-1.837-1.911-3.754-2.736-5.755-1.915.499-3.569.745-4.918.745-.98 0-1.524-.134-1.783-.227-.049-.017-.091-.033-.12-.046-.01-.033-.018-.08-.026-.122-.198-.964.046-4.307 3.554-10.514.392-.694.839-1.436 1.318-2.203l.498-.797.608-.92-1.702-1.27a79.56 79.56 0 0 1-2.101-1.665l-1.15-.961c-2.754 4.084-4.796 7.904-6.02 11.277-.392-.675-.768-1.361-1.128-2.056a47.41 47.41 0 0 1-5.303-21.82c0-.551.023-1.095.042-1.642.038-1.125.105-2.242.22-3.346 2.41 4.963 6.436 10.081 11.848 14.943l1.125.994c.075.064.145.129.219.193a71.95 71.95 0 0 0 1.823 1.508c1.001.804 2.05 1.595 3.128 2.376l1.45 1.034c.914.635 1.854 1.261 2.817 1.878l2.174 1.352c1.065.644 2.147 1.279 3.265 1.897 1.126.623 2.262 1.214 3.401 1.789l1.957.972a102.06 102.06 0 0 0 7.102 3.061l2.105.791c2.608.945 5.212 1.768 7.793 2.464a5.42 5.42 0 0 0 1.188 2.152c.997 1.11 2.439 1.814 4.049 1.814a5.42 5.42 0 0 0 2.228-.481 5.46 5.46 0 0 0 1.958-1.484 76.71 76.71 0 0 0 5.18.62 68.43 68.43 0 0 0 1.981.135 63.89 63.89 0 0 0 3.515.111 55.77 55.77 0 0 0 3.541-.112 49.85 49.85 0 0 0 2.063-.173c2.665-.279 5.159-.77 7.445-1.468a45.84 45.84 0 0 1-2.29 2.456zm14.061-32.049c-.041 1.123-.116 2.238-.234 3.342a34.56 34.56 0 0 0-1.319-2.48 5.42 5.42 0 0 0 .347-1.897 5.45 5.45 0 0 0-.106-1.061c-.319-1.61-1.345-2.966-2.743-3.726a5.42 5.42 0 0 0-2.597-.658c-.086 0-.171.009-.257.013-1.56-1.77-3.306-3.525-5.224-5.25l-1.044-.921.222 2.069a89.52 89.52 0 0 1 .413 7.234l.675.739a5.45 5.45 0 0 0-.23 1.563 5.45 5.45 0 0 0 .089.956c.3 1.695 1.382 3.117 2.862 3.882a5.41 5.41 0 0 0 2.412.605c1.351 2.4 2.246 4.751 2.606 6.983.525 3.255-.184 5.879-2.168 8.027-2.137 2.318-5.72 3.992-10.266 4.889a35.39 35.39 0 0 1-2.014.34c-1.945.27-4.033.415-6.243.415-.197 0-.399-.011-.597-.013l-1.895-.045c-2.501-.109-5.08-.382-7.704-.801a5.45 5.45 0 0 0-2.831-2.325 5.44 5.44 0 0 0-1.454-.305c-.126-.009-.253-.019-.382-.019-1.164 0-2.241.368-3.127.991-1.123-.296-2.249-.616-3.376-.962l-2.122-.683c-2.391-.798-4.778-1.705-7.143-2.716l-2.009-.881a96.26 96.26 0 0 1-6.783-3.402 87.04 87.04 0 0 1-7.515-4.656l-.5-.347-.955-.684-1.023-.755a72.96 72.96 0 0 1-3.904-3.14 60.01 60.01 0 0 1-1.337-1.188l-1.489-1.398a57.13 57.13 0 0 1-1.835-1.866c-4.709-5.02-7.738-10.167-8.489-14.804-.528-3.26.178-5.888 2.157-8.034 2.154-2.332 5.765-4.012 10.349-4.907a67.09 67.09 0 0 1 2.649-6.75c-2.661.275-5.15.761-7.434 1.453a48.01 48.01 0 0 1 2.284-2.446 48 48 0 0 1 10.052-7.636c1.191-.679 2.414-1.309 3.667-1.886-2.063 2.482-3.938 5.346-5.596 8.518a57.76 57.76 0 0 0-.913 1.83c-.994 2.078-1.895 4.275-2.697 6.579a68.88 68.88 0 0 0-.63 1.903 74.73 74.73 0 0 0-1.3 4.652c-.855.323-1.609.854-2.197 1.534a5.42 5.42 0 0 0-1.327 3.557c0 .662.124 1.294.34 1.88a5.45 5.45 0 0 0 1.499 2.192 86.77 86.77 0 0 0-.659 10.711c0 .323.012.64.015.962a57.47 57.47 0 0 0 2.664 2.587 126.93 126.93 0 0 1 3.614-4.169 81.14 81.14 0 0 1 .606-9.397c.869-.482 1.59-1.195 2.086-2.054.46-.799.727-1.723.727-2.711a5.55 5.55 0 0 0-.075-.864 5.42 5.42 0 0 0-1.224-2.661 64.82 64.82 0 0 1 2.02-6.74 59.27 59.27 0 0 1 .675-1.768c.865-2.17 1.835-4.24 2.916-6.184a48.38 48.38 0 0 1 1.008-1.725c.031-.05.059-.104.091-.154 5.115-8.278 11.596-12.838 18.25-12.838 6.613 0 13.055 4.507 18.155 12.69 2.05-.926 4.027-1.713 5.915-2.353-1.287-2.171-2.681-4.176-4.176-5.975 1.253.577 2.475 1.206 3.667 1.886 1.563.891 3.072 1.865 4.519 2.921a49.98 49.98 0 0 1 1.85 1.42 36.67 36.67 0 0 0-3.221.787 47.09 47.09 0 0 0-1.732.542c-1.867.621-3.841 1.399-5.898 2.322l-1.624.751c-2.709 1.29-5.548 2.819-8.475 4.57l-1.905 1.162a138.45 138.45 0 0 0-6.511 4.323l-1.791 1.281a158.17 158.17 0 0 0-5.391 4.097 5.43 5.43 0 0 0-1.647-.255c-.341 0-.674.036-.998.095-1.895.351-3.442 1.684-4.101 3.452a5.43 5.43 0 0 0-.347 1.899 5.69 5.69 0 0 0 .053.724c-4.275 3.794-8.177 7.653-11.643 11.457l-1.753 1.962-2.295 2.691c.82.706 1.669 1.408 2.553 2.1a77.49 77.49 0 0 0 1.928 1.458l.456.333c4.249-5.123 9.359-10.367 15.032-15.394a5.5 5.5 0 0 0 1.116.116 5.42 5.42 0 0 0 1.831-.322c1.231-.44 2.257-1.308 2.897-2.429a5.41 5.41 0 0 0 .718-2.696c0-.059-.006-.117-.009-.175a147.27 147.27 0 0 1 8.775-6.496l1.763-1.182a117.06 117.06 0 0 1 6.47-3.978l1.889-1.052c1.439-.779 2.827-1.485 4.161-2.116l1.62-.741c2.124-.944 4.088-1.69 5.867-2.245.597-.186 1.175-.354 1.73-.497 1.887-.489 3.52-.731 4.851-.731 1.159 0 1.714.19 1.903.274.246.795.133 4.139-3.476 10.554a81.3 81.3 0 0 1 1.411 7.018l1.066.892c2.777-4.119 4.833-7.968 6.054-11.363.393.676.77 1.361 1.131 2.056 3.4 6.559 5.333 13.996 5.333 21.88-.002.602-.026 1.196-.048 1.789zm-67.905 25.298a50.19 50.19 0 0 0 2.773 5.626c2.689-1.283 5.508-2.803 8.411-4.538a103.41 103.41 0 0 1-7.086-3.173 86.48 86.48 0 0 1-4.099 2.086zM179.88 45.79l-.534-.391c-4.75 5.726-10.578 11.604-17.061 17.156-4.605 3.946-9.072 7.351-13.298 10.235a91.85 91.85 0 0 0 7.171 2.617 161.87 161.87 0 0 0 10.218-8.081c5.177-4.432 9.854-8.985 13.928-13.46a80.57 80.57 0 0 0-.424-8.076zm8.418 4.791c-.042-1.084-.107-2.159-.188-3.225a83.15 83.15 0 0 0-.241-2.64 83.05 83.05 0 0 0-.416-3.274 80.25 80.25 0 0 0-.422-2.579 80.51 80.51 0 0 0-.624-3.136 77.68 77.68 0 0 0-.592-2.468 70.65 70.65 0 0 0-2.466-7.735c-1.826.559-3.793 1.327-5.85 2.264a62.6 62.6 0 0 1 1.921 5.838c.229.827.442 1.665.643 2.512a72.18 72.18 0 0 1 .889 4.371 75.57 75.57 0 0 1 .377 2.438l.241 1.891c.091.799.168 1.604.235 2.414a81.15 81.15 0 0 1 .251 4.652l.03 2.1-.008.564c-.06 8.795-1.497 17.183-4.145 24.5 2.419-.003 4.703-.187 6.791-.534 2.325-7.363 3.646-15.695 3.646-24.531 0-.289-.011-.575-.014-.863a83.46 83.46 0 0 0-.058-2.559zm-9.283-7.589l.579.405-.132-.966a69.86 69.86 0 0 0-1.571-7.65 97.97 97.97 0 0 0-3.365-1.958c-1.122-.621-2.254-1.209-3.389-1.781-2.113 1.188-4.265 2.494-6.42 3.889 2.29 1.039 4.552 2.167 6.768 3.392a87.11 87.11 0 0 1 7.53 4.668zM159.971 26.22c-7.662-2.776-15.294-4.483-22.34-5.083a50.48 50.48 0 0 0-3 6.095c5.976.265 12.379 1.445 18.811 3.419a142.04 142.04 0 0 1 6.53-4.431zM0 128.328h2.393l5.638 17.306L14.16 128h.295l6.195 17.634 5.605-17.306h2.426L20.945 151.6h-.295l-6.326-17.896L7.965 151.6h-.262zM46.18 151.6c-6.555 0-11.701-5.244-11.701-11.8S39.624 128 46.18 128s11.734 5.244 11.734 11.8-5.179 11.8-11.734 11.8zm0-2.163c5.31 0 9.374-4.228 9.374-9.636s-4.064-9.636-9.374-9.636-9.374 4.228-9.374 9.636 4.064 9.636 9.374 9.636zm35.855-12.881c0 3.638-1.868 7.014-5.736 7.932l5.212 6.785h-2.786l-5.015-6.523h-5.736v6.523H65.68v-22.944h8.358c5.408 0 7.998 3.9 7.998 8.227zm-14.061-6.097v12.16h5.933c4.13 0 5.867-3.114 5.867-6.064s-1.737-6.097-5.867-6.097h-5.933zm24.088 18.65h10.128l-.164 2.163H89.767v-22.944h2.294v20.781zm24.612-20.781c7.703 0 11.8 4.753 11.8 11.472s-4.097 11.472-11.8 11.472h-7.768v-22.944h7.768zm.098 20.781c6.228 0 9.44-3.966 9.44-9.309 0-5.375-3.212-9.309-9.44-9.309H111.2v18.617h5.572zm33.623 2.163v-22.944h2.294v22.944h-2.294zm27.136-22.944h2.262V151.6h-.295l-15.864-17.864v17.536h-2.262V128h.295l15.864 17.864v-17.536zm23.134 0h2.393l5.638 17.306L214.825 128h.295l6.195 17.634 5.605-17.306h2.426L221.61 151.6h-.295l-6.326-17.896-6.359 17.896h-.262zm46.18 23.272c-6.555 0-11.701-5.244-11.701-11.8s5.146-11.8 11.701-11.8 11.734 5.244 11.734 11.8-5.179 11.8-11.734 11.8zm0-2.163c5.31 0 9.374-4.228 9.374-9.636s-4.064-9.636-9.374-9.636-9.374 4.228-9.374 9.636 4.064 9.636 9.374 9.636zm35.855-12.881c0 3.638-1.868 7.014-5.736 7.932l5.212 6.785h-2.786l-5.015-6.523h-5.736v6.523h-2.294v-22.944h8.358c5.408 0 7.998 3.9 7.998 8.227zm-14.061-6.097v12.16h5.933c4.13 0 5.867-3.114 5.867-6.064s-1.737-6.097-5.867-6.097h-5.933zm29.562-2.131c7.703 0 11.8 4.753 11.8 11.472s-4.097 11.472-11.8 11.472h-7.768v-22.944h7.768zm.098 20.781c6.228 0 9.44-3.966 9.44-9.309 0-5.375-3.212-9.309-9.44-9.309h-5.572v18.617h5.572z"/><path d="M52.641 209.899c-2.357.907-4.034-.136-4.215-2.674-.045-.68 0-1.36 0-1.858-.091-2.855.68-5.348 1.45-7.841.317-1.224.272-1.677-.771-.408l-5.938 7.388c-.816.907-1.632 1.768-2.765 2.266-1.36.544-2.357.136-2.493-1.405-.363-3.082 2.991-12.918 5.802-19.445.499-1.088.952-2.221 1.36-3.309.272-.816-.136-1.178-.861-.725-3.898 2.538-10.153 7.479-7.932 10.561.408.363.227.68-.227.544-.453-.181-.771-.68-.952-1.314-.907-3.037 4.533-7.705 8.476-10.244.589-.408 1.496-.861 2.221-.453.635.363.317 1.45 0 2.312l-2.312 5.62c-2.04 4.85-7.615 20.079-2.72 16.725 2.357-1.632 3.853-4.034 5.575-6.164l3.717-4.85c.272-.363.635-.816 1.088-.589.544.227.408.816.317 1.224-.317 1.224-.68 2.448-1.042 3.671-.816 2.584-1.36 5.212-1.224 7.932.136 2.402 1.496 3.173 3.626 2.13 8.702-4.261 23.116-30.685 16.272-35.037-.091-.091-.227-.227-.136-.408.136-.227.363-.317.589-.181 8.023 4.487-7.66 32.634-16.906 36.532zm21.031-18.901c-.499.045-.816-.272-.907-.771-.181-1.133.861-1.314 1.496-1.632.453-.227.771.227.907.725-.272.725-.544 1.541-1.496 1.677zm-2.13 12.51c-1.677.499-3.037-.635-2.901-2.448.499-1.904 1.405-3.807 2.312-5.711.181-.363.499-.68.861-.408.453.317.045.68-.091.997-.589 1.36-1.269 2.72-1.768 4.125-.272.816-.635 1.768.272 2.538.589.453 1.586 0 2.312-.272 2.855-1.178 5.122-4.487 8.431-6.935.227-.136.408-.499.68-.136.227.272-.045.499-.272.635-4.397 3.173-5.212 6.3-9.836 7.615zm12.057.453c-2.674.181-3.535-.635-3.671-3.263-.091-2.357.861-4.442 1.722-6.482.952-2.221 1.949-4.397 2.946-6.572.227-.544.861-1.496.544-1.677-.091-.181-1.632.045-2.176.045-1.314.136-3.807.272-4.623.272-.272 0-.68 0-.635-.453.045-.408.453-.363.68-.363l5.303-.272c2.538-.181 2.221-.363 3.354-2.901.589-1.45 1.405-2.81 2.13-4.215.181-.317.408-.771.816-.544.453.227.091.635-.045.952l-2.266 4.669c-.816 1.813-.952 1.813.045 1.768 1.178 0 1.858-.091 2.312-.091.68 0 1.496-.181 2.312-.181 1.042-.045 1.36-.272 1.405.363 0 .408-.589.317-1.586.408-1.042.091-2.765.272-4.487.363-1.133 0-1.269.181-1.586.952-1.677 3.943-3.807 7.66-4.986 11.785-.408 1.496-.861 3.127.499 4.215 1.45 1.133 2.991.363 4.306-.589 2.357-1.677 4.533-4.17 6.436-6.3.272-.317.589-.952.997-.68.544.453-.136.771-.499 1.405-2.176 2.448-4.17 4.669-6.799 6.436-.725.499-1.496.907-2.448.952zm28.872-8.702c.408.272.136.544-.091.725-3.037 2.674-5.439 5.53-9.065 7.569-1.405.771-3.127 1.858-4.578.589-1.541-1.405-.499-3.218.136-4.804.408-1.042 1.042-2.04 1.405-3.082.272-.816.091-1.314-.997-.907-2.538.997-4.487 2.765-6.346 4.623-.453.499-.861 1.042-1.314 1.586-.272.317-.544.907-.997.589-.363-.272-.181-.816 0-1.269l3.082-7.524c1.994-4.533 4.079-9.065 7.071-13.054 1.133-1.496 2.402-2.901 4.17-3.671 2.221-.952 3.943.136 3.898 2.584-.091 2.538-1.496 4.578-3.037 6.391-2.538 3.037-5.484 5.666-9.02 7.479-2.266 1.133-3.354 2.855-3.853 5.122-.045.181-.045.363.227.227 1.45-1.088 2.72-2.357 4.351-3.218.725-.408 1.405-.861 2.266-.907 1.45-.091 1.994.499 1.541 1.904-.363 1.042-.952 2.04-1.405 3.037-.317.725-.635 1.405-.861 2.085-.227.725-.408 1.541.181 2.13.635.635 1.405.408 2.13.136 2.855-1.042 6.028-3.943 10.38-8.023.181-.181.453-.499.725-.317zm-15.456-6.663c-.635 1.405-1.632 2.629-1.632 4.261 4.85-2.266 8.702-5.711 11.513-10.289.499-.816.816-1.768 1.088-2.674.227-.816.227-1.677-.499-2.312-.816-.635-1.722-.453-2.538 0-1.088.68-2.04 1.541-2.855 2.538-2.04 2.629-3.717 5.439-5.076 8.476zm16.272 15.864c-1.677.453-3.445-.544-3.807-2.176-.725-3.082 1.496-7.071 4.442-8.068 2.72-.952 4.895.589 4.895 3.445v1.133c0 .997 2.629-.907 5.076-1.949a26.1 26.1 0 0 1 4.804-1.632c.227-.045.68-.136.68.317 0 .317-.272.317-.499.363-3.535.861-6.391 2.584-9.654 4.034a4.88 4.88 0 0 0-2.04 1.632c-.997 1.314-2.176 2.493-3.898 2.901zm2.855-4.804c1.088.272 1.858-.725 1.904-2.584.045-.544-.091-1.269-.68-1.677-.725-.544-.907.635-1.632.725-.997.136-1.269 1.178-1.178 2.13.091.861.816 1.224 1.586 1.405zm-3.49 3.898c1.45 0 2.448-.907 3.354-1.949.363-.363.453-.771-.136-.997-2.357-.907-2.901-2.402-1.677-4.578.091-.181.272-.453 0-.589-.136-.091-.408 0-.589.091-1.722.725-3.535 3.807-3.354 5.666.136 1.586.907 2.357 2.402 2.357zm14.051.363c-.997-.635-.725-1.768-.544-2.674.499-2.176 1.632-4.034 2.765-5.892.181-.272.453-.725.861-.408s.045.68-.091.997c-.952 1.722-1.949 3.354-2.538 5.258-.227.68-.544 1.314.045 1.858.68.589 1.405.317 2.085-.091 2.674-1.496 4.759-3.671 6.844-5.847.136-.181.272-.363.453-.544.363-.363.635-1.224 1.36-.725.589.408-.045.952-.227 1.405-.499 1.088-1.042 2.13-1.45 3.263-.544 1.677.363 2.72 2.04 2.312 1.994-.453 3.807-1.36 5.348-2.765l5.212-4.714c.227-.227.499-.408.771-.091.045.045-.091.408-.227.544-2.901 2.855-5.167 5.484-8.974 7.207-.861.363-1.768.861-2.584.68-2.221-.045-2.901-.997-2.629-3.399.045-.272.181-.771.136-.816-.408-.136-.635.227-.861.453-1.496 1.496-3.127 2.81-4.986 3.807-.952.499-1.904.725-2.81.181zm24.748.045c-2.674.181-3.535-.635-3.671-3.263-.091-2.357.861-4.442 1.722-6.482.952-2.221 1.949-4.397 2.946-6.572.227-.544.861-1.496.544-1.677-.091-.181-1.632.045-2.176.045-1.314.136-3.807.272-4.623.272-.272 0-.68 0-.635-.453.045-.408.453-.363.68-.363l5.303-.272c2.538-.181 2.221-.363 3.354-2.901.589-1.45 1.405-2.81 2.13-4.215.181-.317.408-.771.816-.544.453.227.091.635-.045.952l-2.266 4.669c-.816 1.813-.952 1.813.045 1.768 1.178 0 1.858-.091 2.312-.091.68 0 1.496-.181 2.312-.181 1.042-.045 1.36-.272 1.405.363 0 .408-.589.317-1.586.408-1.042.091-2.765.272-4.487.363-1.133 0-1.269.181-1.586.952-1.677 3.943-3.807 7.66-4.986 11.785-.408 1.496-.861 3.127.499 4.215 1.45 1.133 2.991.363 4.306-.589 2.357-1.677 4.533-4.17 6.436-6.3.272-.317.589-.952.997-.68.544.453-.136.771-.499 1.405-2.176 2.448-4.17 4.669-6.799 6.436-.725.499-1.496.907-2.448.952zm38.119-8.748c.499.499-.136.771-.408 1.042-3.898 3.399-7.887 5.983-12.283 8.657-1.36.861-2.221 1.858-2.81 3.354-1.224 3.218-2.538 6.436-3.989 9.564-.816 1.813-1.722 3.626-3.671 4.669-2.674 1.45-5.031.181-5.212-2.855-.091-1.949.499-3.671 1.722-5.212 2.402-3.037 5.484-5.348 8.838-7.252 1.813-.997 3.037-2.312 3.581-4.261.363-1.133 1.178-2.04 1.224-3.263-1.405.453-1.994 1.858-3.127 2.674-1.178.771-2.402 2.357-3.898 1.269-1.314-.997-.68-2.72-.272-4.17.589-1.949 1.722-3.49 3.626-4.351 1.405-.68 2.855-.907 4.261 0 .317.181.499.499.997.363 1.088-.272 1.36-.045.997.952-1.042 2.584-1.994 5.167-3.309 7.615 0 .045.091.091.181.091.499.045 2.312-1.088 2.402-1.133 3.671-2.357 6.935-4.533 10.244-7.343.272-.227.589-.725.907-.408zm-17.994 7.433c1.858-1.042 3.218-2.72 4.578-4.306.544-.635 1.45-1.36.68-2.357-.725-.907-1.768-.725-2.72-.453-2.266.635-4.397 3.581-4.397 5.983-.045 1.632.453 1.949 1.858 1.133zm-3.173 16.544c1.858-3.671 3.399-7.479 4.623-11.422 0-.045 0-.181-.136-.136-3.807 1.768-6.935 4.442-9.609 7.615-1.088 1.314-1.496 2.901-1.269 4.623.227 2.085 1.858 2.946 3.717 1.994 1.178-.589 2.085-1.541 2.674-2.674zm24.929-15.819c-3.671 1.677-5.892-.317-5.484-3.626.136-1.088.363-2.312.816-3.399 3.263-7.796 7.479-14.957 13.507-20.94 1.224-1.224 2.584-2.312 4.215-2.991 2.72-1.088 4.215 0 3.762 2.81-.499 3.263-2.402 5.847-4.487 8.204-4.079 4.533-8.884 8.113-14.413 10.651-.544.272-.861.589-1.088 1.088-.589 1.36-1.088 2.765-1.314 4.261-.408 3.127 1.314 4.442 4.17 3.218 2.81-1.224 5.076-3.263 7.388-5.122l2.765-2.266c.136-.091.499-.227.589-.136.363.272.091.544-.136.725-3.445 2.629-6.255 5.666-10.289 7.524zm-1.541-10.334c4.306-1.949 7.932-4.85 11.377-7.977 2.629-2.448 4.804-5.394 5.983-8.884.363-.952.635-2.176-.227-2.991-.997-.907-1.949.091-2.855.408-.499.181-.952.544-1.36.861-5.847 5.031-10.153 11.286-13.326 18.266-.227.363.045.499.408.317zm29.099 2.266c.453.363-.045.68-.272.861-2.448 2.402-4.578 4.578-7.479 6.391-.544.317-1.042.635-1.586.861-1.042.408-2.085.453-2.991-.272-.952-.771-.907-1.858-.68-2.901.181-.771.453-1.541.68-2.266-1.994.952-3.173 2.991-5.031 4.17-.635.408-1.224.861-1.904 1.178-.816.363-1.586.544-2.312-.091-.68-.635-.725-1.496-.544-2.312.68-3.218 4.533-6.391 7.887-6.482.635 0 1.314.227 1.904.589.272.181.499.635.907.408.499-.272.907-1.133 1.45-.227.408.589-.181 1.088-.408 1.632-.544 1.133-1.269 2.221-1.541 3.49-.181.816-.453 1.586.363 2.221.816.589 1.541.317 2.312-.091 1.632-.771 3.082-1.858 4.397-3.127 1.36-1.314 2.584-2.266 3.943-3.581.227-.272.544-.725.907-.453zm-13.28 2.04c.363-.363.771-.771.544-1.36-.317-.771-1.042-.408-1.496-.499-2.765 0-5.711 2.266-6.753 5.122-.227.725-.635 1.45.136 2.04.68.589 1.314.045 1.813-.272 2.221-1.314 3.943-3.218 5.756-5.031zm40.929-1.994c.272.408-.181.589-.499.816-2.991 2.13-6.119 3.898-9.564 5.212-1.088.408-1.904 1.133-2.176 2.176-.317 1.133-2.312 2.357-3.173 1.314-.68-.816-.045-1.722 1.178-2.312 1.178-.589 1.405-1.496 1.042-2.312-.907-2.04-1.314-2.946-1.36-3.717-3.445 2.448-5.983 4.17-9.836 6.028-.952.453-1.45.952-1.813 1.994-.771 2.538-2.81 4.17-4.804 4.125-.771-.045-1.541-.136-1.858-.997-.363-.952.363-1.405.907-1.904 1.133-1.042 2.538-1.541 3.898-2.176 1.269-.635 1.586-1.496 1.178-2.765-.952-3.127-1.632-3.626-1.088-5.575.408-1.541 2.674-1.632 3.445-.272.363.771-.136 1.949-.997 1.677-.317-.136-.181-.363-.045-.544.952-1.269-1.224-1.858-1.677-.317-.136 1.088 0 1.269 1.224 5.031.317 1.269.725 1.269 1.632.816 3.762-1.858 6.21-3.535 9.654-5.938l.408-.317c.363-.771 1.042-1.224 1.813-1.269.861-.045 1.45.363 1.813 1.088.317.635.227 1.677-.589 2.221-.181.091-.499.272-.68.091-.272-.181-.136-.363.091-.589 1.178-.907-.091-2.493-1.088-1.722-1.088.816-.635 2.13.861 5.348.136.272.453.68.997.408l3.626-1.632c2.312-1.088 4.397-2.402 6.527-3.807.272-.181.635-.68.952-.181zm-13.96 9.02c1.042-.408 1.45-1.904.544-1.45-1.949.952-1.405 1.813-.544 1.45zm-16.861 3.445c1.269 0 4.079-2.085 3.445-3.354-.272-.589-4.714 1.949-4.533 2.855.136.635.725.408 1.088.499zm31.139-4.17c-2.991 0-4.215-1.722-3.354-4.578.589-1.768 1.586-3.218 3.082-4.306 1.088-.771 2.312-.861 3.354-.045.816.635.544 2.357-.499 3.399-1.133 1.133-2.493 1.813-4.17 1.722-1.088-.091-1.496.68-.952 1.677.589 1.088 2.221 1.677 3.807 1.224 2.629-.771 4.895-2.266 6.844-4.17 1.178-1.133 2.13-1.858 3.309-3.037.181-.181.453-.499.725-.136.136.181.045.408-.091.589-3.082 3.173-5.892 5.983-10.289 7.433-.589.181-1.178.181-1.768.227zm-1.36-4.669c1.178.544 4.034-1.405 4.079-2.991-.045-.68-.589-1.042-1.496-.907-.907.091-2.946 2.13-3.082 3.037-.091.453.136.725.499.861zm12.011 5.892c-.68-.816-.045-1.722 1.178-2.312 1.178-.589 1.405-1.496 1.042-2.312-1.178-2.674-1.541-3.399-1.269-4.487.272-.952 1.042-1.586 1.949-1.632.861-.045 1.45.363 1.813 1.088.317.635.227 1.677-.589 2.221-.181.091-.499.272-.68.091-.272-.181-.136-.363.091-.589 1.178-.907-.091-2.493-1.088-1.722-1.088.816-.635 2.13.861 5.348.136.272.453.68.997.408l3.626-1.632c2.312-1.088 4.397-2.402 6.527-3.807.272-.181.635-.68.952-.181.272.408-.181.589-.499.816-2.991 2.13-6.119 3.898-9.564 5.212-1.088.408-1.904 1.133-2.176 2.176-.317 1.133-2.312 2.357-3.173 1.314zm1.45-.499c1.042-.408 1.45-1.904.544-1.45-1.949.952-1.405 1.813-.544 1.45z"/></svg>